<?xml version="1.0" encoding="UTF-8" standalone="no"?>
<svg
   width="561.49982pt"
   height="211.49812pt"
   viewBox="0 0 561.49982 211.49812"
   version="1.1"
   id="svg1344"
   sodipodi:docname="logotype.svg"
   inkscape:version="1.2.2 (b0a8486541, 2022-12-01)"
   xmlns:inkscape="http://www.inkscape.org/namespaces/inkscape"
   xmlns:sodipodi="http://sodipodi.sourceforge.net/DTD/sodipodi-0.dtd"
   xmlns="http://www.w3.org/2000/svg"
   xmlns:svg="http://www.w3.org/2000/svg">
  <defs
     id="defs1348" />
  <sodipodi:namedview
     id="namedview1346"
     pagecolor="#ffffff"
     bordercolor="#666666"
     borderopacity="1.0"
     inkscape:showpageshadow="2"
     inkscape:pageopacity="0.0"
     inkscape:pagecheckerboard="0"
     inkscape:deskcolor="#d1d1d1"
     inkscape:document-units="pt"
     showgrid="false"
     inkscape:zoom="0.67307692"
     inkscape:cx="340.97143"
     inkscape:cy="261.48572"
     inkscape:window-width="1366"
     inkscape:window-height="691"
     inkscape:window-x="0"
     inkscape:window-y="0"
     inkscape:window-maximized="1"
     inkscape:current-layer="svg1344" />
  <path
     fill="#ff66ff"
     opacity="1"
     d="m 7.57,0 c 2.37,0.11 4.01,1.7 5.61,3.25 -0.99,0.14 -1.98,0.27 -2.97,0.37 0.87,3.01 -1.25,5.7 -1.63,8.61 -0.49,1.42 -0.15,3.55 -2.02,4.08 -0.08,1.53 -0.14,3.06 -0.2,4.6 l 1.62,-0.49 c -0.65,0.98 -1.31,1.95 -1.96,2.93 0.56,-0.02 1.67,-0.06 2.23,-0.08 0.55,1.49 1.1,2.98 1.62,4.48 0.19,2.42 0.87,4.85 2.37,6.8 1.66,2.89 3.66,5.56 5.84,8.09 0.8,-0.71 1.73,-1.18 2.79,-1.39 -0.93,1.35 -2.77,2.59 -1.03,4.6 -0.52,-0.16 -1.56,-0.47 -2.08,-0.63 0.41,1.25 0.82,2.5 1.23,3.75 0.11,-0.62 0.32,-1.85 0.43,-2.47 l 0.82,0.16 0.5,-2.9 c 0.23,0.81 0.71,2.43 0.94,3.23 0.57,0.4 1.71,1.19 2.28,1.59 3.17,-0.09 6.35,0.04 9.52,0.06 l -0.1,-0.86 c 2.59,-0.58 5.28,-1.78 7.98,-1.08 1.46,0.34 1.17,1.89 1.29,3.02 -2.67,-1.67 -5.85,-1.29 -8.81,-0.94 -0.19,0.45 -0.56,1.35 -0.75,1.8 -2.53,0.03 -5.06,0.07 -7.59,0.08 -0.1,0.65 -0.31,1.94 -0.41,2.59 1.77,-0.27 3.55,-0.44 5.34,-0.5 -1.78,1.59 -4.29,0.79 -6.44,1.12 l 0.62,-1.33 h -1.35 c 0.07,-0.45 0.21,-1.37 0.28,-1.83 -3.56,0.13 -7.12,0.05 -10.67,0.11 L 13.5,49.7 c -2.17,-1.31 -7.08,-0.74 -6.15,-4.44 1.42,0.39 2.82,0.84 4.2,1.35 0,-1.08 0.02,-3.25 0.03,-4.33 l -1.52,0.78 0.44,-1.29 C 9.26,41.69 8.24,41.12 7.51,40.16 c 0.03,-1 0.02,-2 -0.02,-3 C 5.74,36.17 5.63,34.01 4.62,32.47 2.52,28.63 0.83,24.56 0,20.25 0.68,20.46 2.05,20.9 2.74,21.11 1.47,19.14 0.49,17 0.04,14.69 0.72,14.75 2.1,14.87 2.79,14.92 1.57,12.45 2,9.72 2.02,7.09 3.25,6.86 4.49,6.65 5.73,6.45 L 5.35,4.75 4.1,4.93 C 4.2,4.38 4.4,3.28 4.5,2.73 5.55,1.86 6.58,0.95 7.57,0 M 5.65,11.96 c 0.75,0.55 0.75,0.55 0,0 m -2.72,6.13 c 0.69,0.68 0.69,0.68 0,0 m -1.1,3.34 c -0.65,1.44 0.46,3.43 1.49,4.47 1.85,-0.59 0.23,-4.63 -1.49,-4.47 m 2.15,5.91 c 0.59,2.3 1.59,4.6 3.33,6.27 2.82,2.55 4.28,6.31 7.74,8.22 C 14.81,38.59 11.97,36.94 10.01,34.82 9.79,34.26 9.37,33.14 9.15,32.58 l -0.79,0.05 c -0.15,-1.5 0.55,-3.51 -1.24,-4.3 0.1,-0.52 0.31,-1.56 0.41,-2.07 -1.2,0.32 -2.39,0.65 -3.55,1.08 m 6.35,12.92 c 0.66,0.7 0.66,0.7 0,0 m 2.17,7.98 c 1.62,0.45 2.26,-0.12 1.92,-1.72 -1.67,-0.44 -2.31,0.13 -1.92,1.72 z"
     id="path641" />
  <path
     fill="#ff66ff"
     opacity="1"
     d="m 206.53,23.02 c 1.35,0.1 2.71,0.14 4.05,0.38 0.32,1.09 0.61,2.18 0.86,3.28 3.02,0.77 3.58,3.5 3.16,6.23 1.37,0.48 2.73,1 4.09,1.51 -0.11,0.46 -0.35,1.37 -0.46,1.83 -0.95,1.06 -1.85,2.14 -2.7,3.27 0.28,2.97 -1.76,5.44 -3.55,7.58 0.43,0.38 1.3,1.15 1.73,1.54 -0.5,0.3 -1.49,0.91 -1.99,1.21 -0.46,1.69 -0.91,3.38 -1.46,5.05 -1.64,0.24 -3.26,-0.22 -4.86,-0.43 -0.01,0.8 -0.01,2.4 -0.02,3.2 1.39,-0.1 2.78,-0.16 4.18,-0.18 -0.49,1.55 -1.02,3.08 -1.56,4.61 -1.27,0.5 -2.51,1.04 -3.73,1.63 -1.03,-0.99 -2.08,-1.97 -3.13,-2.93 0.46,-0.31 1.38,-0.93 1.84,-1.24 -1.45,-0.16 -2.89,-0.32 -4.32,-0.49 0.19,-0.7 0.57,-2.09 0.75,-2.79 0.53,0.15 1.57,0.43 2.1,0.58 -0.08,-0.57 -0.23,-1.7 -0.3,-2.26 2.91,0.54 2.9,-2.62 5.07,-3.35 0.03,-1.26 0.08,-2.52 0.16,-3.78 -0.55,0.05 -1.65,0.14 -2.2,0.19 0.12,1.35 0.25,2.7 0.38,4.05 -1.3,-0.01 -2.6,0.02 -3.89,-0.06 -0.45,-1.04 -0.9,-2.08 -1.36,-3.12 0,0.8 0,2.39 -0.01,3.19 -0.79,-0.02 -2.39,-0.07 -3.19,-0.09 -0.11,1.72 0.44,3.3 1.25,4.78 -0.86,-1.29 -1.73,-2.58 -2.58,-3.88 -1.11,-0.01 -2.23,0 -3.34,0.01 -0.97,-0.85 -2,-1.63 -3.07,-2.34 l 0.19,-0.85 -1.28,0.18 c 0.05,-1.27 0.11,-2.53 0.17,-3.8 l -1.26,0.44 c 0.54,-0.98 1.04,-1.97 1.51,-2.98 -1.5,-0.99 -2.97,-2.03 -4.37,-3.15 1.99,-0.2 3.99,-0.32 5.99,-0.52 -0.03,1.04 -0.05,2.09 -0.06,3.13 l -1.08,-0.26 c 0.05,0.9 0.15,2.69 0.21,3.59 0.87,-0.05 1.74,-0.1 2.61,-0.17 0.77,-1.6 2.71,-1.47 4.14,-2.02 -0.91,-0.08 -2.72,-0.22 -3.62,-0.29 0.57,-0.63 1.7,-1.9 2.27,-2.53 -0.44,-0.13 -1.32,-0.38 -1.76,-0.51 0.15,-0.48 0.45,-1.46 0.6,-1.94 l -1.42,0.17 0.28,-1.32 c -0.68,0.11 -2.05,0.35 -2.73,0.46 -0.81,-2.09 -3.23,-1.17 -4.83,-1.53 1.28,-3.07 2.61,-6.13 4.32,-8.99 3.71,-0.03 7.43,-0.05 11.14,-0.11 0.69,1.46 2.05,1.98 3.55,2.23 -0.07,-1.49 0.73,-2.47 1.97,-3.13 0.53,-1.08 1.05,-2.18 1.56,-3.28 m -10.44,5.32 c 0.63,0.61 0.63,0.61 0,0 m -5.86,5.11 c 0.04,0.81 0.1,2.43 0.13,3.24 1.04,-0.01 2.08,-0.01 3.12,0 -0.02,-1.03 -0.03,-2.06 -0.03,-3.08 -0.8,-0.04 -2.41,-0.12 -3.22,-0.16 m 1.96,12.89 c -0.06,3.42 3.05,-1.38 0,0 m -3.47,1.14 c -1.15,1.95 2.66,2.02 3.69,1.13 -0.25,-1.25 -2.6,-1.05 -3.69,-1.13 m 6.08,1.92 c -1.8,2.8 3.52,0.27 0,0 z"
     id="path643" />
  <path
     fill="#01c8fa"
     opacity="1"
     d="m 322.34,25.02 c 1.83,-0.05 3.71,-0.17 5.51,0.34 1.52,1.52 2.72,3.33 3.85,5.16 l 0.69,0.08 0.08,0.6 c 2.14,2.31 4.23,4.69 6.82,6.52 2.06,3.14 3.35,6.8 5.96,9.6 -0.03,1.36 -0.04,2.72 -0.03,4.08 l 2.01,-0.3 0.14,1.04 c -0.51,0.47 -1.51,1.42 -2.02,1.89 2.05,0.21 4.43,0.93 4.29,3.45 l 0.69,0.05 c -0.07,1.25 -0.14,2.49 -0.19,3.74 0.46,0.09 1.38,0.28 1.84,0.37 -1.28,0.75 -2.51,1.61 -2.98,3.1 -1.66,0.3 -3.33,0.09 -4.91,-0.45 0.42,-0.22 1.27,-0.68 1.69,-0.91 -0.5,-1.23 -0.99,-2.46 -1.48,-3.69 -2.48,0.15 -1.7,-2.32 -1.84,-3.92 l -1.38,0.04 c 0.06,-0.5 0.16,-1.51 0.22,-2.02 l -1.13,-0.07 0.31,-1.18 -1.04,-0.02 c 0.05,-0.41 0.15,-1.24 0.21,-1.66 l -1,-0.13 c -0.18,-1.08 -0.36,-2.16 -0.54,-3.23 0.66,-0.01 1.99,-0.02 2.66,-0.03 -0.23,0.57 -0.68,1.7 -0.91,2.26 l 1.84,-0.48 -0.57,1.41 c 0.57,0.04 1.71,0.13 2.28,0.18 -0.01,-0.91 0.01,-1.81 0.03,-2.71 l -1.55,0.65 c 0.21,-0.6 0.64,-1.81 0.85,-2.42 l -1.66,0.66 0.54,-1.62 -1.48,0.41 c 0.08,-0.55 0.23,-1.64 0.31,-2.18 -0.84,0.01 -2.51,0.03 -3.35,0.04 0.15,-0.55 0.46,-1.66 0.61,-2.22 l -1.71,0.42 0.63,-1.4 c -0.58,0 -1.74,0 -2.33,0 0.01,1.12 0.02,2.23 0.01,3.35 l 1.16,-0.65 -0.02,2.85 -1.3,-0.68 c 0.03,0.58 0.1,1.74 0.13,2.32 l 1.07,-0.22 c 0.13,4.86 0.12,9.73 0.08,14.6 0.71,3.82 -1.2,7.4 -0.9,11.2 0.12,4.51 -1.59,8.72 -2.37,13.1 -0.74,1.51 -0.94,3.21 -1.38,4.82 -0.81,1.22 -1.62,2.42 -2.45,3.62 l 1.96,-0.53 c -0.07,1.06 -0.11,2.13 -0.14,3.19 -0.75,1.34 -1.48,2.68 -2.25,4 -0.4,1.23 -0.78,2.46 -1.25,3.67 -0.69,2.93 -2.13,5.63 -2.68,8.59 l -0.44,-0.12 c -0.01,1.47 -0.57,2.8 -1.4,3.99 -1.29,2.16 -2.15,4.54 -2.9,6.93 -0.65,2.34 -1.52,4.65 -4.04,5.49 1.23,3.85 -2.6,6.19 -5.83,6.88 l 0.45,1.13 c -1.45,-0.24 -2.91,-0.46 -4.35,-0.73 0.81,-0.31 2.43,-0.93 3.24,-1.24 -0.34,-0.35 -1.02,-1.04 -1.36,-1.39 1.24,-2.2 2.29,-4.52 2.86,-6.99 1.86,-0.65 2.46,-2.31 2.23,-4.12 0.22,-0.54 0.66,-1.6 0.88,-2.14 2.39,-1.67 2.2,-4.56 2.04,-7.16 l 0.71,-0.28 c 1.34,-1.88 3.33,-3.79 1.18,-5.92 1.24,-0.28 2.49,-0.55 3.75,-0.81 -0.51,-0.5 -1.54,-1.48 -2.05,-1.98 0.62,-1.19 1.26,-2.38 1.88,-3.58 0.41,0.08 1.25,0.23 1.66,0.3 -0.11,-0.65 -0.34,-1.97 -0.45,-2.62 l 1.44,0.31 c -0.19,-1.85 -0.26,-3.69 -0.32,-5.54 1.53,-0.22 3.07,-0.48 4.6,-0.77 -1.22,-0.39 -2.46,-0.64 -3.73,-0.74 0.4,-2.29 0.07,-4.7 0.72,-6.94 1.43,-2.08 2.51,-4.53 2.29,-7.12 0.47,-2.18 0.35,-4.41 0.44,-6.62 1.66,-2.13 0.9,-4.95 0.77,-7.41 0.62,-0.03 1.85,-0.09 2.47,-0.12 -2.03,-3 -2.44,-6.45 -2.53,-9.97 0.22,-2.81 0.2,-5.63 0.36,-8.44 l -1.11,0.12 c 0.28,-4.25 -3.22,-7.83 -2.13,-12.2 -1.25,-0.43 -2.5,-0.88 -3.73,-1.34 1.37,-2.08 3.28,-3.62 5.93,-3.03 0.03,-0.64 0.08,-1.92 0.1,-2.55 -1.3,0.52 -2.58,1.07 -3.84,1.66 -0.26,2.32 -2.36,1.95 -3.94,1.39 0.42,-0.19 1.26,-0.58 1.68,-0.77 0.28,-1.41 0.59,-2.82 0.84,-4.24 z"
     id="path645" />
  <path
     fill="#ff66ff"
     opacity="1"
     d="m 367.45,38.8 c -0.81,-0.41 -4.24,-0.27 -3,-1.77 6.04,-0.51 10.34,4.26 13.69,8.58 1.81,3.27 3.06,6.88 3.51,10.59 0.61,1.03 1.24,2.06 1.89,3.08 1.14,3.5 0.54,7.2 0.59,10.81 0.26,2.29 0.95,4.52 0.92,6.84 0.35,2.87 -0.11,5.9 1.03,8.62 -0.68,1.51 -1.31,3.05 -2.01,4.55 0.09,0.75 0.28,2.26 0.38,3.02 -0.82,-0.07 -2.46,-0.19 -3.27,-0.25 l 0.12,2.12 c 0.57,-0.04 1.71,-0.13 2.28,-0.18 0,0.15 -0.01,0.44 -0.01,0.59 -1.15,0.1 -2.29,0.21 -3.42,0.33 0.16,-0.53 0.49,-1.61 0.66,-2.15 -0.62,-0.14 -1.86,-0.43 -2.48,-0.57 0.8,-0.12 2.42,-0.35 3.23,-0.46 -0.11,-1.73 -0.2,-3.46 -0.33,-5.19 l 1.13,0.39 c 0.01,-0.78 0.02,-2.36 0.03,-3.14 l -1.03,0.14 c 0.01,-1.03 0.04,-3.11 0.05,-4.14 l 1.31,-0.01 c -1.86,-1.21 -0.48,-3.01 -0.45,-4.59 0.19,-2.95 0.44,-5.98 -0.09,-8.91 -0.37,-0.23 -1.12,-0.69 -1.49,-0.92 -0.27,-1.94 -0.76,-3.87 -0.57,-5.84 -0.57,0.1 -1.71,0.3 -2.29,0.4 0.21,0.5 0.62,1.48 0.83,1.97 -0.02,0.29 -0.06,0.86 -0.08,1.14 -0.51,0.07 -1.52,0.22 -2.02,0.29 -0.04,-1.73 0.35,-3.62 -1.09,-4.94 0.03,-0.69 0.11,-2.06 0.15,-2.75 l -1.33,0.65 c 0.18,-1.59 0.14,-3.27 -1.17,-4.41 -1.85,-1.84 -2.52,-4.36 -2.9,-6.85 -1.5,0.14 -3,0.27 -4.49,0.4 -0.26,1.95 -0.97,3.8 -1.33,5.72 0.13,1.48 0.83,3.02 0.01,4.43 -0.13,0.87 -0.24,1.74 -0.34,2.61 -0.21,3.27 -1.14,6.48 -0.82,9.8 1.35,2.31 0.08,5.51 2.28,7.35 l -1.33,-0.59 c 0.06,0.79 0.17,2.37 0.22,3.16 h 1.13 c -0.41,1.31 -0.86,2.62 -1.3,3.93 0.58,-0.05 1.74,-0.15 2.33,-0.2 -0.42,0.4 -1.24,1.21 -1.65,1.62 0.59,0.39 1.78,1.19 2.38,1.58 -1.42,1.31 -1.04,3.27 -1.05,5 -0.66,2.37 -1.58,4.63 -3.05,6.62 0.31,0.47 0.93,1.42 1.24,1.9 -2.39,2.26 -1.07,6.41 -3.97,8.29 -1.01,2.41 -1.66,4.96 -2.75,7.33 -2.21,2.57 -2.58,5.98 -4.09,8.88 -0.04,0.18 -0.13,0.53 -0.17,0.71 -1.73,1.64 -3.11,3.58 -4.81,5.23 -0.51,1.36 -0.97,2.74 -1.4,4.12 -1.19,0.44 -2.38,0.88 -3.57,1.29 -1.57,0.8 -3.17,1.55 -4.76,2.28 -1.91,-0.73 -3.79,-1.53 -5.63,-2.4 -0.37,-2.22 -2.6,-4.38 -0.54,-6.39 l 0.96,-0.17 c -0.64,-0.96 -1.27,-1.93 -1.89,-2.89 0.73,-0.02 2.19,-0.05 2.91,-0.06 -0.15,-0.79 -0.45,-2.38 -0.61,-3.17 0.83,0.15 2.5,0.46 3.33,0.61 l -0.31,-1.48 1.63,0.37 c -0.19,-0.56 -0.57,-1.69 -0.77,-2.25 l 1.59,0.25 c -0.13,-0.82 -0.39,-2.45 -0.52,-3.26 l 1.37,0.28 -0.15,-1.45 c 0.54,0.15 1.61,0.45 2.14,0.59 -0.02,-0.57 -0.06,-1.7 -0.09,-2.27 0.91,0.01 2.71,0.04 3.61,0.05 -0.72,1.16 -1.44,2.31 -2.16,3.45 -1.06,2 -1.72,4.37 -3.57,5.81 -0.01,0.39 -0.03,1.17 -0.04,1.56 0.7,0.43 2.1,1.31 2.8,1.74 0.26,-0.57 0.76,-1.71 1.01,-2.28 2.11,-0.69 4.29,-1.14 6.49,-1.47 l -0.3,-1.1 1.37,0.26 c -0.1,-0.78 -0.32,-2.33 -0.42,-3.1 l 1.37,0.15 c -0.07,-1.75 -0.15,-3.51 -0.26,-5.26 0.47,0.08 1.4,0.25 1.86,0.33 0.43,-1.07 0.88,-2.14 1.34,-3.2 l 0.88,0.15 0.06,-2.41 c -1.07,0.23 -2.14,0.46 -3.2,0.7 0.34,-2.26 -0.44,-5.05 1.87,-6.51 0.19,-1.34 0.37,-2.67 0.53,-4.01 0.46,-0.26 1.37,-0.78 1.82,-1.05 -0.07,-0.41 -0.21,-1.23 -0.28,-1.65 0.9,0.24 2.7,0.72 3.61,0.96 -0.15,0.48 -0.45,1.45 -0.6,1.94 0.32,0.08 0.95,0.24 1.27,0.32 -0.02,-0.78 -0.05,-2.32 -0.07,-3.1 0.74,-1.58 1.41,-3.22 2.64,-4.49 -0.63,0.05 -1.9,0.17 -2.53,0.22 -0.02,1.27 -0.07,2.53 -0.17,3.79 -0.95,0.08 -2.86,0.24 -3.81,0.32 -0.03,-1.41 -0.01,-2.81 -0.01,-4.22 l 0.82,0.33 c 0.01,-2.29 0.15,-4.6 0.86,-6.8 -0.49,-1.33 -0.86,-2.69 -1.22,-4.05 -0.49,-1.82 -0.53,-3.72 -0.65,-5.58 l -1.23,0.58 c 0.56,-0.87 1.12,-1.75 1.66,-2.63 -2.27,-4.3 -2.77,-10.09 -1.36,-14.71 -0.22,-1.23 -0.44,-2.45 -0.66,-3.67 0.79,-5.93 1.82,-12.69 6.36,-16.97 2.14,0.6 1.56,3.02 -0.15,3.85 1.86,-0.27 3.73,-0.38 5.62,-0.38 -0.03,-0.9 -0.05,-1.79 -0.06,-2.68 m -8.14,10.97 -0.93,-0.35 c -0.06,1.49 -0.15,2.97 -0.25,4.46 0.67,-0.07 1.99,-0.21 2.66,-0.28 -0.23,-0.55 -0.67,-1.64 -0.89,-2.19 l 1.5,0.39 c -0.01,-0.83 -0.05,-2.49 -0.06,-3.32 l -1.08,0.16 c 0.05,-0.73 0.17,-2.19 0.22,-2.92 -1.41,0.93 -1.19,2.58 -1.17,4.05 m 16.79,8.21 c 0.24,3.45 3,-1.52 0,0 z"
     id="path647" />
  <path
     fill="#ff66ff"
     opacity="1"
     d="m 240.06,48.27 c 1.32,-2.34 3.66,-3.84 5.66,-5.56 -0.1,0.83 -0.3,2.49 -0.4,3.32 0.69,0.15 2.07,0.46 2.77,0.62 -1.97,0.96 -4.01,1.74 -6.07,2.46 0.36,0.32 1.1,0.98 1.47,1.3 -0.26,0.21 -0.79,0.64 -1.05,0.85 -0.52,2.14 -1.95,3.7 -3.99,4.47 -2.22,1.66 -5.31,3.03 -5.04,6.36 0.17,3.48 -2.62,6.34 -2.08,9.8 -0.71,0.45 -1.41,0.91 -2.11,1.37 1.52,2.97 -1.57,5.23 -1.2,8.24 2.81,-2.09 5.43,-4.42 7.86,-6.94 0.84,0.7 1.68,1.39 2.54,2.08 -1.83,1.34 -3.16,3.95 -5.71,3.77 2.41,2.98 -2.12,2.36 -3.61,1.74 1.25,4.76 -1.77,9.28 -0.63,13.99 0.47,0.15 1.39,0.47 1.85,0.62 -0.07,0.32 -0.23,0.94 -0.31,1.25 0.9,0.01 2.7,0.02 3.6,0.02 l -0.02,1.69 c -0.84,-0.04 -2.53,-0.13 -3.37,-0.18 l 0.43,1.29 c -0.99,0.36 -1.98,0.73 -2.95,1.12 2.81,0.12 5.29,-1.11 7.59,-2.58 0.04,-0.54 0.13,-1.61 0.17,-2.14 l -1.19,0.54 -0.25,-1.12 c 1.73,-0.41 3.46,-0.86 5.21,-1.24 -0.93,-2.89 2.01,-2.57 3.89,-2.78 0.34,-0.31 1.01,-0.94 1.34,-1.25 -0.31,1.59 -0.49,3.23 0.12,4.78 -0.51,-0.02 -1.52,-0.07 -2.02,-0.1 -0.56,1.36 -1.16,2.7 -1.75,4.04 -2.14,1.23 -5.87,-0.03 -6.53,2.96 -2.53,-0.1 -5.07,0.01 -7.59,-0.13 -1.06,-1.57 -1.85,-3.39 -3.53,-4.42 0.75,-0.96 1.5,-1.94 2.26,-2.9 -0.24,-0.65 -0.71,-1.95 -0.95,-2.6 0.71,0 2.14,0 2.85,0 -1.13,-1.38 -2.15,-2.84 -3.09,-4.34 l 2.56,-0.57 c -0.99,-0.78 -1.98,-1.56 -2.96,-2.34 0.86,-0.35 2.58,-1.04 3.44,-1.39 -1.2,-0.64 -2.16,-1.54 -2.88,-2.69 0.49,-2.06 0.84,-4.14 1.03,-6.25 0.23,-1.3 0.35,-2.63 0.08,-3.94 0.24,-0.33 0.72,-1.01 0.96,-1.34 0.05,-1.18 0.12,-2.36 0.15,-3.54 0.24,-0.33 0.73,-0.99 0.97,-1.32 -0.73,-1.51 -0.5,-2.71 0.68,-3.59 0.02,-0.3 0.06,-0.91 0.08,-1.21 l 1.35,0.06 c -0.16,-0.54 -0.48,-1.62 -0.64,-2.16 l 1.36,0.51 c -0.7,-2.6 1.77,-3.69 3.32,-5.12 1.12,-2.7 3.15,-4.82 5.52,-6.48 0.07,1.09 0.14,2.17 0.22,3.26 l -1.26,-0.2 0.39,1.06 c -2.14,-0.14 -2.34,1.56 -2.33,3.26 l -1.89,0.07 c 0.57,0.32 1.71,0.96 2.28,1.28 0.83,-1.13 1.3,-2.46 1.9,-3.72 l 1.05,0.45 c -0.12,-0.49 -0.34,-1.47 -0.46,-1.96 0.64,-0.13 1.9,-0.41 2.54,-0.54 -0.41,-0.5 -1.22,-1.49 -1.63,-1.99 m -9,9.99 c 0.64,0.63 0.64,0.63 0,0 m -3.32,6.82 c 0.43,0.31 1.29,0.92 1.72,1.23 -0.66,1.45 -1.12,2.97 -1.54,4.5 0.73,-0.14 2.17,-0.44 2.89,-0.58 -0.52,-0.66 -1.05,-1.31 -1.57,-1.95 0.94,-1.73 1.32,-3.64 1.44,-5.58 -0.99,0.79 -1.96,1.58 -2.94,2.38 z"
     id="path649" />
  <path
     fill="#ff66ff"
     opacity="1"
     d="m 27.41,45.89 c 0.62,0.02 1.85,0.04 2.47,0.05 0.3,1.46 -3.11,1.45 -2.47,-0.05 z"
     id="path651" />
  <path
     fill="#ff66ff"
     opacity="1"
     d="m 288.15,55.42 c 0.9,-4.48 4.34,-9.76 9.52,-9 0.93,1.47 1.99,2.79 3.75,3.28 0.38,1.05 0.75,2.1 1.13,3.16 l 1.17,-0.35 c -0.03,1.81 -0.9,3.21 -2.53,4.1 1.52,0.26 3.05,0.54 4.58,0.84 -0.44,0.84 -0.88,1.68 -1.31,2.53 0.93,1.39 1.15,2.99 1,4.63 l 1.09,-0.19 c -0.88,3.57 -0.44,7.27 1.02,10.61 -0.43,0.56 -1.28,1.67 -1.71,2.23 0.6,0.17 1.78,0.5 2.38,0.67 1.32,3.86 1.47,8.02 1.72,12.06 l 0.14,0.78 c -0.19,0.24 -0.59,0.74 -0.78,0.98 -0.7,-0.38 -1.4,-0.76 -2.09,-1.15 0.38,-0.22 1.12,-0.66 1.49,-0.88 -1.38,-0.63 -2.8,-1.1 -4.19,-1.68 2.14,-0.04 3.72,-0.89 4.76,-2.55 -1.86,0.16 -3.71,0.31 -5.55,0.44 0.74,-0.3 2.23,-0.89 2.97,-1.19 l -0.01,-1 c -0.73,-0.12 -2.18,-0.36 -2.91,-0.48 0.62,-0.31 1.85,-0.91 2.47,-1.22 -0.67,-0.38 -2.02,-1.13 -2.69,-1.51 0.77,0.01 2.32,0.02 3.09,0.03 -0.4,-1.5 -0.85,-2.98 -1.31,-4.46 -3.54,-0.11 -0.47,-4.88 -3.54,-5.74 0.48,0.07 1.43,0.21 1.9,0.27 l -0.23,-1.73 c -0.91,-0.06 -2.72,-0.17 -3.63,-0.22 0.26,-1.13 0.54,-2.26 0.84,-3.39 -0.35,-0.24 -1.03,-0.71 -1.37,-0.95 -0.05,-3.61 -1.52,-7.08 -0.99,-10.72 -1.4,0.48 -3.54,0.08 -4.08,1.87 -3.09,5.21 -0.77,11.82 -3.42,17.12 0.35,1.42 0.82,2.82 1.53,4.11 0.73,0.08 2.18,0.25 2.91,0.33 -0.6,-0.37 -1.79,-1.13 -2.39,-1.51 1.95,-0.22 3.88,-0.61 5.79,-1.05 -0.51,1.08 -1.03,2.14 -1.51,3.23 -2.24,0.67 -4.51,1.19 -6.82,1.49 0.14,2.23 0.48,4.73 -0.93,6.67 0.51,0.24 1.55,0.74 2.07,0.99 -2.1,1.81 -3.67,-1.84 -5.92,-1.78 -0.31,-0.41 -0.93,-1.24 -1.23,-1.65 0.5,-2.73 1.15,-5.44 1.08,-8.24 0.51,0.18 1.52,0.54 2.03,0.73 l 0.14,-2.26 c -2.95,0.5 -2.23,-2.19 -2.29,-4.11 1.27,-0.46 2.54,-0.91 3.81,-1.36 -0.49,-0.15 -1.47,-0.46 -1.96,-0.61 -0.04,-0.44 -0.12,-1.3 -0.15,-1.74 1.14,-0.31 2.28,-0.64 3.41,-1.03 -1.13,-0.09 -3.38,-0.28 -4.51,-0.37 1.14,-2.37 2.02,-4.9 1.37,-7.55 0.35,0 1.06,0.01 1.42,0.01 -0.13,-0.37 -0.4,-1.12 -0.53,-1.49 m 16.06,10.78 c -0.04,-0.6 -0.11,-1.82 -0.14,-2.43 -2.43,-1.67 -2.13,3.86 0.14,2.43 z"
     id="path653" />
  <path
     fill="#ff66ff"
     opacity="1"
     d="m 55.95,51.36 c 0.1,-4.32 5.02,-1.21 7.37,-0.55 l -0.06,1.01 c 0.62,-0.06 1.85,-0.17 2.46,-0.23 0,0.32 0,0.96 0,1.28 l -1.63,-0.72 0.66,1.64 C 63.93,53.77 62.3,53.73 61.48,53.71 61.51,50.6 57.96,51.26 55.95,51.36 Z"
     id="path655" />
  <path
     fill="#ff66ff"
     opacity="1"
     d="m 269.38,49.08 c 1.42,0.09 2.86,0.17 4.28,0.39 -0.77,1.27 -1.68,2.45 -2.46,3.71 0.45,0.5 1.36,1.51 1.81,2.02 -1.9,-0.24 -3.83,-1.13 -5.74,-0.51 l 2.13,0.7 c -0.09,1.97 -0.06,3.94 0.09,5.91 0.86,-1.88 2.08,-3.67 4.15,-4.28 -0.29,0.49 -0.89,1.46 -1.19,1.94 0.31,3.11 -0.03,6.23 -0.26,9.33 -0.4,1.21 -0.62,2.45 -0.68,3.72 -1.2,-0.32 -2.41,-0.61 -3.62,-0.89 -0.46,-1 -0.95,-1.98 -1.47,-2.94 0.98,-1.51 2.02,-3.05 2.08,-4.92 l 0.56,0.44 c 0.48,-0.43 1.45,-1.29 1.94,-1.73 -0.54,-0.2 -1.61,-0.6 -2.15,-0.8 -2.46,-1.09 -1.51,-3.96 -1.68,-6.09 -0.13,-2.02 1.35,-3.49 2.86,-4.59 -0.17,-0.35 -0.49,-1.06 -0.65,-1.41 z"
     id="path657" />
  <path
     fill="#ff66ff"
     opacity="1"
     d="m 35.17,51.48 c 1.18,0.04 2.37,0.07 3.55,0.1 -0.18,0.55 -0.54,1.65 -0.72,2.2 0.95,0 2.84,0.01 3.78,0.01 l -0.2,1.11 c -1.69,0.04 -3.37,0.11 -5.05,0.19 -0.65,1.17 -1.34,2.32 -2.05,3.46 -1.22,0.16 -2.44,0.34 -3.65,0.54 -1.97,-1.11 -2.82,-2.73 -1.69,-4.89 0.81,0.41 2.43,1.24 3.24,1.65 0.01,-1.72 0.03,-3.44 0.12,-5.16 0.42,1.78 1.46,2.96 3.12,3.54 -0.11,-0.69 -0.34,-2.06 -0.45,-2.75 z"
     id="path659" />
  <path
     fill="#ff66ff"
     opacity="1"
     d="m 177.96,55.29 c 1.07,-1.61 2.13,-3.23 3.39,-4.7 -0.03,4.28 1.33,8.56 0.05,12.78 0.69,0.77 1.37,1.55 2.05,2.34 -0.74,0.7 -1.48,1.39 -2.22,2.09 0.01,0.49 0.05,1.49 0.07,1.99 0.58,-0.13 1.76,-0.4 2.34,-0.53 1.11,3.45 0.25,7.11 0.98,10.63 -0.55,-0.09 -1.65,-0.25 -2.21,-0.33 -0.08,0.58 -0.24,1.76 -0.33,2.35 0.55,-0.09 1.65,-0.25 2.19,-0.34 l 0.56,-1.8 c 0.34,1.27 0.66,2.54 0.96,3.82 l -1.48,-0.09 0.13,1.18 c -0.48,0.05 -1.44,0.15 -1.92,0.2 l -0.73,0.14 c -0.34,-0.02 -1.02,-0.06 -1.35,-0.08 -0.04,-2.12 -0.09,-4.23 -0.15,-6.34 -0.47,0.05 -1.4,0.13 -1.87,0.18 -0.02,-1.04 -0.08,-3.12 -0.11,-4.16 2.62,0.83 3.57,-1.5 4.79,-3.21 -1.65,0.18 -3.3,0.29 -4.95,0.34 0.16,-1.08 0.33,-2.16 0.5,-3.23 -0.34,0.14 -1.02,0.43 -1.36,0.57 -0.12,-2.85 -0.88,-5.63 -0.99,-8.48 0.74,-0.72 1.48,-1.44 2.22,-2.17 -0.14,-0.78 -0.42,-2.36 -0.56,-3.15 z"
     id="path661" />
  <path
     fill="#ff66ff"
     opacity="1"
     d="m 247.28,52.48 c 0.99,-0.42 2.02,-0.73 3.06,-1.05 0.11,1.18 0.19,2.35 0.26,3.53 l 2.1,-0.52 c -1.09,1.85 -2.28,3.83 -1.08,5.99 -1.33,0.01 -2.65,0.01 -3.97,0.01 1.28,0.56 2.59,1.06 3.89,1.61 -1.07,0.28 -3.2,0.83 -4.27,1.11 1.05,0.15 3.15,0.46 4.19,0.61 -0.04,1.45 -0.01,2.9 0.05,4.35 1.46,1.73 0.68,4.06 0.73,6.1 -0.32,0.79 -0.97,2.37 -1.29,3.16 l 1.8,0.04 c -0.16,1.11 -0.32,2.23 -0.48,3.34 3.19,-0.12 2.2,2.79 2.23,4.8 l 0.88,-0.14 c 0.92,1.23 2.05,2.4 2.16,4.03 1.66,1.27 3.56,2.16 5.7,2.21 1.79,-1.92 2.88,-4.3 4.05,-6.62 0.11,-1.35 0.19,-2.7 0.25,-4.05 2.21,0.29 4.4,0.76 6.49,1.55 -1.12,0.05 -3.35,0.17 -4.46,0.23 1.47,0.91 2.97,1.81 4.43,2.77 l -1.68,-0.07 v 2.06 c 0.75,-0.07 2.24,-0.21 2.99,-0.27 0.92,1.47 1.93,2.88 2.95,4.29 2.53,0.31 5.27,0.21 7.42,-1.34 0.84,0.17 1.69,0.36 2.53,0.55 -0.89,2.32 -1.42,5.26 -4.33,5.78 0.11,0.37 0.33,1.1 0.44,1.46 -0.8,-0.02 -2.39,-0.06 -3.19,-0.08 0.15,-0.53 0.44,-1.57 0.59,-2.1 -0.91,0.06 -2.74,0.16 -3.65,0.21 0.05,0.45 0.15,1.34 0.21,1.79 -0.12,-0.01 -0.36,-0.01 -0.47,-0.01 -1.56,-2.69 -6.35,-3.57 -5.44,-7.44 -1.01,0.09 -3.02,0.27 -4.03,0.36 0.01,0.78 0.03,2.36 0.04,3.14 -0.84,0.73 -1.67,1.46 -2.5,2.19 -0.98,0.01 -2.93,0.02 -3.91,0.02 0.1,0.45 0.29,1.35 0.39,1.79 -0.25,0.02 -0.75,0.04 -1,0.05 0.06,-0.46 0.17,-1.39 0.23,-1.85 -0.8,-0.08 -2.4,-0.25 -3.2,-0.33 0.79,-3.42 -3.39,-0.86 -4.76,-2.59 -0.08,-0.75 -0.23,-2.26 -0.31,-3.01 1.76,-0.22 2.52,0.63 2.27,2.57 0.52,0.01 1.57,0.02 2.09,0.02 -0.12,-0.4 -0.34,-1.19 -0.45,-1.58 -2.11,-1.33 -2.48,-3.99 -3.87,-5.9 l 0.09,-0.99 c -1.21,0.35 -2.42,0.72 -3.61,1.1 l 0.79,-1.58 c -1.47,-0.66 -3.78,-0.57 -4.02,-2.61 -0.29,-2.34 0.02,-4.77 -0.89,-7 0,-2.6 -0.92,-5.4 0.43,-7.81 1.08,-2.15 0.28,-4.58 0.24,-6.85 l 1.35,-0.03 c -0.09,-0.65 -0.28,-1.94 -0.37,-2.59 0.82,-0.45 2.46,-1.34 3.28,-1.79 -1.17,-0.82 -2.42,-1.55 -3.37,-2.62 m 1.92,13.82 c 0.46,0.68 0.46,0.68 0,0 z"
     id="path663" />
  <path
     fill="#ff66ff"
     opacity="1"
     d="m 65.15,53.51 c 4.44,-0.26 8.42,1.76 11.04,5.29 1.08,1.38 1.94,2.91 2.64,4.52 1.03,2.08 3.03,3.91 2.59,6.44 l 1.25,-0.24 c -0.15,0.44 -0.45,1.32 -0.6,1.76 0.8,0.78 1.59,1.57 2.37,2.37 -0.61,0.01 -1.83,0.03 -2.44,0.04 0.07,0.56 0.2,1.68 0.27,2.24 l 1.38,-0.6 c 0.78,1.19 1.59,2.35 2.4,3.51 -0.39,3.39 2.02,6.16 1.54,9.53 0.4,0.26 1.18,0.77 1.57,1.03 -0.12,5.27 0.18,10.54 0.34,15.81 -0.37,4.25 -0.4,8.54 0.08,12.79 -1.38,1.79 -1.17,4.15 -0.23,6.09 -0.3,0.86 -0.6,1.71 -0.89,2.57 l -1.27,0.36 c 3.05,4.16 -0.06,9.55 -0.17,14.2 -0.79,3.07 -0.78,6.41 -2.59,9.15 0.27,0.34 0.81,1.02 1.08,1.36 -0.55,0.33 -1.65,1 -2.2,1.33 0.25,0.34 0.76,1.01 1.02,1.35 -1.65,2.5 -0.75,6.78 -3.86,8.02 -0.19,1.42 0.98,3.65 -1.32,4.02 0.03,0.32 0.1,0.95 0.14,1.27 -0.31,-0.12 -0.92,-0.35 -1.22,-0.47 l 0.59,1.53 -2.65,-0.1 c 0.06,-1.77 0.45,-3.45 1.65,-4.8 -1.12,0.72 -2.23,1.43 -3.39,2.08 0.12,1.28 0.23,2.56 0.35,3.84 -1.29,-0.08 -3.87,-0.26 -5.16,-0.35 2.09,-0.67 2.89,-2.6 3.82,-4.33 -0.08,-0.7 -0.26,-2.08 -0.35,-2.77 l 1.22,0.16 c 0.13,-2.43 1.12,-4.93 3.08,-6.45 0.07,-1.01 0.14,-2.02 0.21,-3.02 0.48,-0.61 0.94,-1.25 1.4,-1.88 0.9,0.19 1.81,0.39 2.71,0.58 -0.01,-0.35 -0.03,-1.06 -0.04,-1.41 -0.82,0.15 -2.48,0.45 -3.31,0.61 -0.89,-2.09 -1.1,-3.94 1.94,-3.89 -0.52,-0.55 -1.55,-1.64 -2.06,-2.19 0.33,-0.04 1.01,-0.13 1.35,-0.18 -0.18,-2.37 -0.19,-4.75 0.17,-7.11 0.51,-1 0.76,-2.08 0.77,-3.22 0.79,0.17 2.39,0.51 3.18,0.68 l -0.21,-1.46 c -0.43,0.09 -1.28,0.28 -1.7,0.37 -0.76,-1.16 -1.56,-2.27 -2.46,-3.31 0.48,-0.19 1.44,-0.57 1.92,-0.76 0.11,-0.58 0.33,-1.76 0.43,-2.34 1.91,-7.06 -0.3,-14.42 0.67,-21.52 -1.95,-5.27 0.24,-11.11 -1.91,-16.29 0.25,-0.32 0.74,-0.96 0.99,-1.28 -1.61,-3.36 -1.26,-7.46 -3.97,-10.28 0.65,-0.3 1.94,-0.91 2.59,-1.21 -1.45,-0.37 -2.89,-0.79 -4.31,-1.24 -0.24,-2.25 -0.34,-4.52 -1.07,-6.69 l -1.39,-0.1 c 0.1,-0.37 0.31,-1.11 0.41,-1.48 -2.63,-1.73 -5.02,-3.77 -6.97,-6.24 0.01,-0.63 0.03,-1.88 0.03,-2.5 -1.41,0.02 -2.83,0.05 -4.24,0.06 -1.17,-0.84 -2.38,-1.64 -3.6,-2.4 0.21,-2.13 2.19,-1.97 3.84,-2.15 -0.08,0.6 -0.24,1.8 -0.32,2.4 0.55,-0.03 1.63,-0.09 2.17,-0.12 l -0.04,1.43 c 0.39,-0.11 1.17,-0.33 1.57,-0.45 0.84,1.14 2.21,1.24 3.47,1.5 -0.05,-1.21 -0.1,-2.42 -0.11,-3.63 -1.39,0.15 -2.79,0.29 -4.18,0.44 z"
     id="path667" />
  <path
     fill="#ff66ff"
     opacity="1"
     d="m 41.99,54.4 c 4.92,-0.85 9.49,1.24 14.33,1.32 0.96,1.13 1.9,2.29 2.79,3.47 -2.49,-0.04 -4.28,-1.93 -6.54,-2.68 0.13,0.56 0.39,1.69 0.52,2.25 -0.56,0.27 -1.69,0.82 -2.25,1.1 C 49.57,59.48 48.29,59.15 47,58.85 46.72,58.4 46.15,57.51 45.87,57.06 44.98,57.08 43.2,57.1 42.31,57.11 42.23,56.44 42.07,55.08 41.99,54.4 Z"
     id="path669" />
  <path
     fill="#ff66ff"
     opacity="1"
     d="m 161.87,60.33 c 1.16,-2.45 4.12,-4.91 6.94,-4.02 -0.1,0.83 -0.32,2.47 -0.43,3.29 0.58,-0.11 1.74,-0.34 2.32,-0.45 -0.34,3.8 -0.3,7.61 -0.41,11.41 -1.03,1.25 -1.94,2.6 -2.6,4.08 0.49,0.08 1.46,0.24 1.95,0.31 -3.47,3.32 -2,8.19 -2.5,12.44 -2.14,0.04 -4.27,0.06 -6.4,0.12 v -1.23 c 1.78,-0.03 4.21,1.01 5.19,-1.26 -1.5,-0.15 -2.99,-0.33 -4.48,-0.56 1.02,0 3.06,-0.02 4.08,-0.02 -0.62,-2.34 -1.11,-4.7 -1.33,-7.11 l 1.19,0.31 0.3,-2.53 c -0.74,0.05 -2.22,0.16 -2.97,0.22 1.23,-0.28 2.46,-0.54 3.7,-0.81 -1.28,-2.31 -0.93,-4.92 0.03,-7.28 -0.67,0.02 -2.01,0.04 -2.67,0.05 -2.17,4.13 -3.6,8.57 -4.89,13.03 -0.78,2.06 -1.83,4.08 -1.79,6.34 -0.7,2.32 -3.4,3.82 -2.78,6.45 0.12,2.63 -0.07,8.31 -4.36,6.34 0.79,-0.72 1.6,-1.42 2.43,-2.09 -0.09,-2.3 0.08,-4.6 0.16,-6.9 -0.64,-0.05 -1.92,-0.14 -2.56,-0.18 1.13,-1.17 1.43,-2.69 1.4,-4.26 1.22,-0.47 2.01,-1.32 2.38,-2.56 0.81,0.11 1.61,0.22 2.42,0.33 0.06,-1.28 0.14,-2.57 0.23,-3.85 0.85,-1.68 0.98,-3.57 1.19,-5.4 -0.61,0.09 -1.83,0.27 -2.44,0.36 0.05,-1.13 0.09,-2.26 0.13,-3.39 l 0.83,0.13 c -0.35,-1.79 0.71,-2.82 2.21,-3.48 0.72,-2.82 1.42,-5.68 3.53,-7.83 m 1.34,-0.96 c -0.04,3.42 2.99,-1.58 0,0 m -2.22,5.14 c 0.71,0.64 0.71,0.64 0,0 m 4.62,13.8 c -1.64,3 3.42,0.21 0,0 m -11.48,9.94 c 0.8,-1.12 0.7,-2 -0.31,-2.64 -2.4,0.12 -2.01,5.16 0.31,2.64 z"
     id="path673" />
  <path
     fill="#ff66ff"
     opacity="1"
     d="m 348.16,66.3 c 0.86,-0.3 2.59,-0.89 3.45,-1.19 -0.13,0.6 -0.4,1.79 -0.54,2.39 l 1.35,-0.28 c -0.06,1.39 -0.1,2.79 -0.14,4.19 l 0.92,-0.13 c -0.08,2.56 0.09,5.12 0.36,7.67 0.24,0.71 0.7,2.14 0.94,2.85 -0.8,0.02 -2.39,0.07 -3.19,0.09 0.34,2.79 -0.86,6.27 1.81,8.18 l 0.26,0.61 1.47,-0.23 c -1.51,3.82 -3.22,7.79 -2.67,12 -0.98,0.18 -1.95,0.36 -2.92,0.56 0.09,-1.93 0.08,-3.87 0.03,-5.8 l 1.28,0.58 c -0.04,-0.54 -0.11,-1.63 -0.15,-2.18 -0.61,-0.03 -1.84,-0.1 -2.46,-0.14 0.21,0.57 0.63,1.69 0.83,2.25 l -1.64,-0.11 c 0.12,0.81 0.37,2.44 0.49,3.25 l -1.13,-0.33 c -0.04,0.63 -0.12,1.9 -0.16,2.53 -0.74,-0.18 -2.21,-0.55 -2.95,-0.73 l 1.75,-0.93 c 0.05,-1.8 0.22,-3.59 0.47,-5.37 0.88,-2.34 0.71,-4.86 0.92,-7.3 0.48,-0.13 1.45,-0.38 1.93,-0.51 0.03,-0.36 0.08,-1.08 0.1,-1.44 -3.36,1.56 -2.92,-4.3 0.12,-3.34 -0.8,-1.71 -1.51,-3.46 -2.25,-5.19 0.32,-1.23 0.65,-2.46 0.97,-3.69 0.5,0.05 1.48,0.16 1.98,0.21 -0.02,-0.65 -0.07,-1.95 -0.09,-2.6 -0.45,0.07 -1.36,0.22 -1.81,0.3 -0.18,0.46 -0.54,1.39 -0.72,1.86 -0.43,-0.86 -0.85,-1.73 -1.27,-2.59 0.65,-0.95 0.93,-2.01 0.82,-3.16 0.48,-0.07 1.45,-0.19 1.93,-0.25 -0.02,-0.51 -0.07,-1.52 -0.09,-2.03 m 0.16,26.87 c 1.55,1.12 2.58,-1.85 1.64,-2.9 -0.28,-0.24 -0.83,-0.72 -1.1,-0.96 -1.1,0.78 -0.96,2.71 -0.54,3.86 z"
     id="path675"
     style="fill:#01c8fa;fill-opacity:1" />
  <path
     fill="#ff66ff"
     opacity="1"
     d="m 113.2,69.28 c 2.54,-1.04 5.32,-0.9 8.01,-1 0.54,1.15 1.09,2.3 1.68,3.43 0.75,0.65 1.52,1.28 2.29,1.91 -0.17,0.39 -0.51,1.18 -0.68,1.57 0.76,1.78 2.96,3.69 1.14,5.56 2.54,1.4 1.85,4.51 2.55,6.9 -0.22,0.4 -0.64,1.19 -0.85,1.59 0.9,1.15 2.3,2.28 1.93,3.95 -1.74,0.03 -2.93,-1.15 -4.11,-2.21 0.56,0.87 1.11,1.74 1.65,2.63 0.64,-0.09 1.93,-0.27 2.57,-0.36 0.72,3.11 0.55,6.47 2.17,9.32 -0.6,0.1 -1.79,0.29 -2.39,0.38 -0.21,-1.28 0.91,-3.35 -0.77,-3.9 0.02,0.68 0.05,2.03 0.07,2.71 l -1.84,-0.27 c 1.73,0.91 1.98,2.63 1.85,4.5 -4.03,0.23 -2.96,-4.34 -2.67,-6.8 -0.27,-0.34 -0.81,-1.02 -1.09,-1.36 -0.2,-3.43 -1.62,-6.59 -2.28,-9.93 0.95,-1.32 2.34,-2.2 3.55,-3.26 -1.19,0.21 -2.35,0.5 -3.52,0.78 -0.23,-0.73 -0.69,-2.19 -0.91,-2.92 -0.32,-1.94 -0.8,-3.85 -1.21,-5.77 0.74,-0.15 2.23,-0.44 2.97,-0.59 -0.6,-0.15 -1.8,-0.46 -2.4,-0.61 0.19,-0.57 0.58,-1.69 0.78,-2.26 -0.33,0.01 -0.98,0.03 -1.31,0.03 0.1,1.03 0.19,2.05 0.25,3.08 -0.72,-0.19 -2.16,-0.57 -2.88,-0.76 -0.61,1.58 -1.74,2.15 -3.39,1.71 1.95,1.65 0.01,3.83 -0.34,5.77 -1.11,2.59 -0.61,5.45 -1.23,8.14 -0.59,2.59 -1.82,5.18 -1.14,7.88 -0.28,0.48 -0.85,1.42 -1.13,1.9 0.02,1.64 0.11,3.28 0.02,4.92 -1.34,0.35 -2.73,0.58 -4.17,0.67 1.43,0.22 2.87,0.34 4.32,0.36 -1.47,2.08 -1.85,4.83 -0.49,7.08 -0.99,-0.07 -1.97,-0.14 -2.95,-0.2 0.07,-0.61 0.21,-1.83 0.28,-2.44 l -1.48,0.41 0.34,2.25 -1.72,-0.48 c 0.29,1.68 0.67,3.35 0.99,5.04 -0.8,-0.55 -1.58,-1.12 -2.34,-1.7 1.44,-4.6 0.7,-9.69 1.5,-14.47 1.77,0.52 3.47,0.31 5.09,-0.64 -1.15,-0.03 -3.47,-0.07 -4.62,-0.09 0.19,-1.85 -0.03,-3.69 -0.36,-5.5 l 1.38,0.09 c -0.09,-2.45 0.4,-4.86 0.94,-7.25 0.84,0.16 2.52,0.46 3.36,0.61 -0.03,-0.44 -0.08,-1.33 -0.1,-1.78 -1.08,-0.33 -2.15,-0.69 -3.21,-1.07 4.52,0.57 0.98,-2.22 0.77,-3.9 1.69,-0.33 3.39,-0.6 5.08,-0.94 -1.69,-0.33 -4.1,-0.25 -3.04,-2.66 1.18,-0.4 2.38,-0.73 3.59,-1.01 -0.01,-0.21 -0.02,-0.62 -0.03,-0.83 -1.35,0.05 -2.69,0.09 -4.04,0.14 1.23,-2 2.43,-4.03 3.21,-6.25 l 0.88,-0.14 c -0.13,-0.49 -0.39,-1.47 -0.52,-1.96 m 11.51,13.32 c -0.4,1.36 0.12,1.86 1.56,1.51 0.4,-1.41 -0.12,-1.91 -1.56,-1.51 m 2.65,13.71 c -1.7,2.93 3.36,0.27 0,0 m -21.55,12.43 -0.29,0.7 c 0.26,0.28 0.79,0.83 1.05,1.1 l 0.69,-0.26 c 0,-0.37 -0.02,-1.11 -0.02,-1.48 -0.36,-0.02 -1.08,-0.05 -1.43,-0.06 z"
     id="path677" />
  <path
     fill="#ff66ff"
     opacity="1"
     d="m 378.11,70.43 c -2.48,2.04 -2.38,-3.1 0.09,-1.7 -0.02,0.42 -0.07,1.27 -0.09,1.7 z"
     id="path679"
     style="fill:#01c8fa;fill-opacity:1" />
  <path
     fill="#ff66ff"
     opacity="1"
     d="m 204.27,71.33 c 0.39,0.26 1.17,0.77 1.56,1.03 0.24,1.07 0.45,2.15 0.63,3.24 h 1 c 0,1.27 0.01,2.54 0.02,3.81 0.59,0.18 1.75,0.52 2.34,0.69 -3.74,0.9 0.21,4.26 0.93,6.31 -0.51,0.43 -1.52,1.29 -2.03,1.72 l 1.52,0.32 c 1.3,3.59 -0.06,7.35 -1,10.85 0.78,0.3 1.57,0.58 2.37,0.84 -1.59,1.29 -0.88,3.28 -1.05,4.99 -0.06,1.75 -0.94,3.33 -1.32,5.01 -0.71,-0.3 -2.13,-0.88 -2.84,-1.18 0.05,0.82 0.15,2.45 0.2,3.26 -0.37,-1.31 -0.67,-2.64 -1,-3.96 -0.11,-1.01 -0.21,-2.01 -0.31,-3.01 0.33,-0.07 0.99,-0.21 1.32,-0.27 l -0.49,1.76 2.45,0.1 c 0.05,-0.99 0.15,-2.97 0.2,-3.96 -0.7,0.06 -2.09,0.19 -2.79,0.26 0.14,-2.42 0.21,-4.83 0.14,-7.25 -1.82,-2.71 -0.23,-6.1 -0.08,-9.06 -1.5,-2.27 -0.9,-4.78 1.07,-6.61 -1.81,0.57 -3.56,1.25 -5.33,1.9 1.44,-1.22 2.8,-2.54 3.94,-4.06 -1.7,-0.4 -3.4,-0.8 -5.04,-1.39 1.62,-0.18 3.25,-0.21 4.88,-0.3 -0.4,-1.69 -0.87,-3.36 -1.29,-5.04 z"
     id="path681" />
  <path
     fill="#ff66ff"
     opacity="1"
     d="m 268.27,72.3 c 1,0.13 2.02,0.26 3.03,0.38 1.94,2.37 0.39,5.52 1.15,8.25 -0.55,-0.05 -1.66,-0.16 -2.21,-0.22 0.01,-2.34 0.4,-4.81 -0.62,-7.02 -0.08,0.97 -0.24,2.91 -0.32,3.88 -0.53,0.1 -1.6,0.29 -2.14,0.39 0.36,-1.89 0.75,-3.77 1.11,-5.66 z"
     id="path683" />
  <path
     fill="#ff66ff"
     opacity="1"
     d="m 377.36,73.08 c 0.71,0.54 0.71,0.54 0,0 z"
     id="path685"
     style="fill:#01c8fa;fill-opacity:1" />
  <path
     fill="#ff66ff"
     opacity="1"
     d="m 154.47,81.04 c -0.49,-1.31 -1.47,-2.64 -0.91,-4.09 0.78,-0.27 2.35,-0.79 3.13,-1.05 l -0.24,2.8 -1.78,-0.29 c 0.43,0.46 1.28,1.38 1.71,1.84 -0.48,0.2 -1.43,0.59 -1.91,0.79 z"
     id="path687" />
  <path
     fill="#ff66ff"
     opacity="1"
     d="m 57.6,81.66 c 1.66,-1.31 3.49,-2.36 5.37,-3.33 0.1,0.58 0.3,1.73 0.4,2.31 1.8,-0.01 3.6,-0.1 5.38,-0.3 -0.22,0.39 -0.68,1.16 -0.91,1.54 -1.53,0.38 -3.08,0.72 -4.63,1.02 0.52,0.32 1.57,0.96 2.09,1.29 -0.94,1.3 -1.84,2.62 -2.76,3.93 1.41,0.13 2.82,0.22 4.24,0.28 l 0.09,0.25 c -3.24,-0.54 -4,2.54 -3.66,5.08 l -1.68,-0.02 c -0.11,-0.78 -0.33,-2.35 -0.44,-3.13 -1.67,1.65 -0.26,3.71 1.63,4.32 l -0.22,0.32 c 1.97,2.11 0.88,4.83 -0.49,6.81 0.58,0.19 1.74,0.58 2.31,0.77 0.31,0.6 0.92,1.79 1.23,2.39 -2.16,1.28 -0.54,2.87 0.14,4.37 -0.35,-0.03 -1.05,-0.08 -1.4,-0.11 0.87,1.31 0.96,2.91 1.21,4.42 2.36,1.17 1.79,3.84 2.09,6 -0.34,-0.03 -1.02,-0.1 -1.36,-0.13 0.12,-0.54 0.37,-1.6 0.5,-2.14 -0.39,0.02 -1.16,0.07 -1.55,0.09 0.02,-0.71 0.06,-2.12 0.08,-2.83 -0.25,0.41 -0.76,1.23 -1.02,1.65 -0.77,0.14 -2.32,0.43 -3.09,0.57 0.41,-2.67 -1.24,-4.92 -1.93,-7.37 0.46,-2.62 3.46,-6.87 0.07,-8.52 0.3,-0.87 0.9,-2.61 1.2,-3.48 l -2.31,0.02 c -0.08,0.61 -0.23,1.84 -0.3,2.46 -0.23,-1.24 -0.4,-2.49 -0.57,-3.74 0.57,0.01 1.7,0.01 2.27,0.02 -0.64,-2.16 -1.22,-4.34 -2.04,-6.44 0.64,-1.03 1.39,-2.07 2.84,-1.94 0.02,-0.54 0.07,-1.61 0.09,-2.14 -0.72,-0.09 -2.15,-0.26 -2.87,-0.35 0.9,-1.4 1.94,-2.7 3.03,-3.95 -0.76,0 -2.27,0.01 -3.03,0.01 z"
     id="path689" />
  <path
     fill="#ff66ff"
     opacity="1"
     d="m 478.52,78.07 c 1.44,0.28 2.89,0.57 4.36,0.79 l 0.04,1.06 c 4.91,1.01 5.87,6.18 8.3,9.73 -0.05,-1.07 -0.14,-3.2 -0.19,-4.27 1.02,-1.45 2.18,-2.81 3.25,-4.23 2.95,0.01 5.93,-0.21 8.8,-0.97 0.94,0.33 1.88,0.66 2.83,1 1.02,2.1 1.19,4.44 1.03,6.74 -0.56,1.84 0.48,4.8 -2,5.43 1.42,1.67 -0.74,2.91 -1.43,4.31 -2.2,2.07 -2.86,5.05 -3.01,7.95 -1.79,1.91 -3.64,3.79 -5.04,6.01 -0.2,0.55 -0.59,1.64 -0.78,2.18 -3.27,0.76 -4.66,4.25 -6.8,6.49 -1.33,-0.09 -2.56,-0.46 -3.68,-1.11 -0.51,-0.02 -1.52,-0.08 -2.02,-0.11 -1.54,-2.34 -3.76,-4.65 -2.65,-7.68 l -1.53,1.16 c 1.41,-1.91 -1.64,-2.87 -0.78,-4.55 0.35,-1.4 0.83,-2.75 1.28,-4.11 -1.17,0.25 -2.34,0.51 -3.5,0.77 0.48,-1.13 0.99,-2.24 1.48,-3.37 l 0.81,-0.03 -0.16,-1.82 c -0.93,0.73 -1.81,1.47 -2.72,2.21 -0.34,-0.45 -1.03,-1.35 -1.37,-1.8 0.96,-1.76 0.57,-3.86 -0.91,-5.19 1.14,-2.64 0.57,-5.51 0.42,-8.26 0.83,-1.95 1.59,-3.93 2.56,-5.82 1.29,-0.61 2.47,-1.41 3.41,-2.51 m 6.57,6.38 c 0.66,0.47 0.66,0.47 0,0 m 8.15,2.02 c 0.68,0.68 0.68,0.68 0,0 m -6.16,0.87 c 0.58,0.6 0.58,0.6 0,0 m -7.27,3.09 c 6.13,-1.02 -1.65,7.18 3.13,8.1 -0.1,1.59 -0.23,3.19 -0.46,4.77 0.35,0.42 1.06,1.26 1.41,1.68 0.59,-0.2 1.78,-0.61 2.37,-0.81 0.02,-0.57 0.05,-1.7 0.07,-2.27 0.79,-0.27 2.35,-0.8 3.14,-1.06 -0.07,0.5 -0.2,1.5 -0.26,2 0.43,-0.05 1.3,-0.16 1.74,-0.21 0.35,-1.59 1.39,-2.86 2.2,-4.22 l -2.09,0.52 c 0.11,-0.9 0.22,-1.81 0.34,-2.71 -0.17,-0.01 -0.52,-0.03 -0.69,-0.04 -0.25,1.79 -1.48,3.13 -3.14,3.75 0.31,1.62 -3.88,2.81 -2.52,0.32 0.22,-0.45 0.66,-1.34 0.88,-1.79 -1.41,-3.54 -2.79,-7.09 -4.06,-10.67 -0.29,1.18 -1.07,2 -2.06,2.64 m 1.38,13.02 c 0.49,0.72 0.49,0.72 0,0 m 1.39,3.02 c -0.07,0.56 -0.2,1.68 -0.27,2.24 0.57,0.04 1.71,0.1 2.28,0.13 l -0.62,-1.25 c 1.32,-0.36 2.65,-0.7 3.99,-1.04 -0.21,-0.3 -0.62,-0.91 -0.82,-1.21 -1.34,1.01 -2.86,1.39 -4.56,1.13 m -3.34,3.63 c 0.69,0.67 0.69,0.67 0,0 z"
     id="path691"
     style="fill:#ff66ff;fill-opacity:0.7647059" />
  <path
     fill="#ff66ff"
     opacity="1"
     d="m 268.22,79.81 c 0.38,0.27 0.38,0.27 0,0 z"
     id="path693" />
  <path
     fill="#ff66ff"
     opacity="1"
     d="m 248.44,86.22 c 2.05,0.17 4.36,-0.05 6.05,1.4 -2.13,0.13 -4.44,0.27 -6.05,-1.4 z"
     id="path695" />
  <path
     fill="#ff66ff"
     opacity="1"
     d="m 181.45,90.67 c 0.4,-1.07 -1.34,-3.51 0.46,-3.72 0.33,0.76 1.01,2.3 1.35,3.06 0.02,-0.65 0.08,-1.96 0.1,-2.62 1.54,0.04 3.08,0.07 4.63,0.1 -0.4,0.35 -1.19,1.03 -1.59,1.37 0.06,0.44 0.19,1.34 0.25,1.79 -1.54,-0.03 -3.07,-0.05 -4.6,-0.08 0.32,0.84 0.63,1.68 0.91,2.54 -0.44,1.91 -2.42,-0.01 -3.6,-0.12 0.32,-0.6 0.95,-1.8 1.26,-2.4 z"
     id="path701" />
  <path
     fill="#ff66ff"
     opacity="1"
     d="m 150,93.46 c -2.08,0.45 -1.79,-2.31 -0.16,-2.62 2.06,-0.6 2.11,2.64 0.16,2.62 z"
     id="path703" />
  <path
     fill="#ff66ff"
     opacity="1"
     d="m 422.31,92.53 c 1.51,-0.56 3.02,-1.09 4.57,-1.56 -0.06,2.54 -1.66,4.22 -3.79,5.33 -1.02,2.07 -1.86,4.58 -4.51,4.9 -0.13,7.3 1.4,14.74 -0.82,21.87 -1.01,-4.55 0.25,-9.18 -0.09,-13.77 -1.12,0.21 -2.24,0.42 -3.35,0.62 0.14,1.23 0.33,2.46 0.56,3.68 0.31,0.55 0.94,1.66 1.26,2.22 l 0.28,0.59 c -1.44,0.05 -2.29,0.78 -2.55,2.18 l 1.74,-0.28 c -0.16,1.35 -0.29,2.71 -0.42,4.07 1.11,0.38 2.21,0.84 3.31,1.3 -1.09,1.97 -1.94,4.06 -2.58,6.22 l 2.65,-0.7 -1.63,-1.64 c 0.68,-0.08 2.05,-0.24 2.73,-0.32 l -0.35,1.48 2.13,0.13 c -0.09,-1.92 -0.21,-3.84 -0.35,-5.75 -1.7,-0.04 -2.28,-1.02 -1.74,-2.96 2.63,-0.63 2.86,-3.61 3.97,-5.61 1.99,-1.43 2.75,-3.82 3.94,-5.84 1.5,1.4 2.39,3.14 1.99,5.23 0.86,-2.15 3.15,-1.18 4.92,-1.3 -1.56,-0.87 -6.57,-0.85 -4.04,-3.68 1.92,0.02 3.73,0.71 5.51,1.39 -0.18,0.47 -0.55,1.42 -0.73,1.89 0.8,-0.08 2.41,-0.25 3.22,-0.33 -0.32,0.57 -0.95,1.71 -1.26,2.28 0.63,-0.02 1.9,-0.07 2.54,-0.09 0.45,1.56 1.4,2.85 2.46,4.05 -0.48,-0.09 -1.44,-0.28 -1.92,-0.38 l 0.09,1.15 c 2.19,0.68 1.98,3.38 2.86,5.12 0.78,1.47 0.49,2.99 -0.27,4.41 -0.24,-1.82 -1.07,-3.24 -2.47,-4.28 -0.4,0.71 -1.2,2.12 -1.6,2.82 l -0.17,1.63 c -1.02,-0.79 -2.01,-1.6 -2.99,-2.42 0.9,-1.34 1.26,-2.85 1.06,-4.51 0.6,1.09 1.78,3.26 2.37,4.35 0.26,-0.9 0.79,-2.68 1.05,-3.58 -0.6,-0.06 -1.8,-0.19 -2.4,-0.25 -1.23,-2.4 -3.28,-4.27 -4.26,-6.82 -1.12,-1.72 -3.42,-0.44 -5.04,-0.48 -0.47,1.8 -0.85,3.78 -2.57,4.85 0.03,0.5 0.1,1.48 0.14,1.97 -0.43,0.65 -1.3,1.94 -1.73,2.59 -0.61,-0.59 -1.81,-1.77 -2.42,-2.37 0.55,-0.21 1.65,-0.63 2.19,-0.84 0.59,-2.53 1.8,-4.8 3.16,-6.99 -0.76,0.62 -1.51,1.25 -2.25,1.88 -0.42,1.54 -0.89,3.07 -1.32,4.61 -3.17,-0.37 -1.51,2.37 -0.86,4.01 0.7,-0.07 2.11,-0.21 2.81,-0.27 -0.29,1.59 -0.56,3.2 -0.8,4.8 -0.51,-0.1 -1.52,-0.31 -2.03,-0.42 l -0.32,1.87 c 0.64,-0.18 1.93,-0.53 2.58,-0.7 -0.24,1.4 -0.47,2.8 -0.68,4.2 1.05,0.79 2.12,1.6 3.16,2.43 -0.6,0.12 -1.8,0.38 -2.39,0.51 -0.07,0.44 -0.2,1.32 -0.26,1.77 -0.41,0.03 -1.24,0.11 -1.65,0.15 0.08,0.19 0.24,0.57 0.33,0.76 2.42,0.08 4.8,-0.45 7.22,-0.48 l -0.14,-2.08 c -0.68,0.18 -2.04,0.54 -2.73,0.72 0.55,-1.1 1.1,-2.2 1.67,-3.29 -0.42,-0.42 -1.27,-1.24 -1.69,-1.66 0.65,0.23 1.94,0.69 2.59,0.92 0.62,-0.09 1.84,-0.26 2.46,-0.35 -0.11,-0.93 -0.32,-2.79 -0.43,-3.72 2.2,1.58 1.66,5.54 4.7,6.03 l 0.07,1.64 c -1.09,0.3 -2.16,0.64 -3.22,1.02 2.21,-0.3 5.87,1.79 6.82,-1.32 -0.84,0.24 -2.52,0.73 -3.36,0.97 l 0.29,-2.71 c 0.97,0.07 2.9,0.21 3.86,0.28 -0.4,1.27 -0.85,2.54 -1.27,3.81 -0.82,0.06 -2.46,0.18 -3.28,0.23 0.68,1.28 1.38,2.55 2.1,3.81 l -2.21,1.45 c 0.72,-0.06 2.16,-0.17 2.87,-0.23 0.09,0.86 0.26,2.58 0.35,3.45 0.58,0.21 1.76,0.63 2.34,0.84 -0.28,0.77 -0.84,2.31 -1.11,3.09 0.05,-0.5 0.15,-1.48 0.2,-1.97 l -0.88,0.13 c 0.09,1.79 -3.09,2.73 -3.54,0.81 -1.22,-1.95 -2.85,-3.61 -4.61,-5.07 -1.5,0.53 -3.02,1 -4.58,1.28 -0.34,0.19 -1.02,0.57 -1.36,0.76 -3.94,-0.9 -2.1,-5.61 -5.32,-7.33 -0.06,-1.19 -0.11,-2.38 -0.16,-3.57 -0.73,-0.09 -2.2,-0.26 -2.93,-0.34 -1.57,0.94 -1.88,3.08 -3,4.46 l 1.56,0.16 c -0.24,0.34 -0.74,1.03 -0.98,1.37 -0.27,1.27 -0.58,2.53 -0.94,3.78 -1.21,0.77 -2.45,1.62 -2.22,3.27 -0.86,0.71 -1.72,1.41 -2.56,2.13 0.47,2.21 -1.51,2.92 -2.38,4.52 -0.67,-0.44 -2,-1.32 -2.67,-1.76 0.9,-0.02 2.7,-0.08 3.6,-0.11 -0.83,-0.63 -2.49,-1.88 -3.32,-2.51 0.58,-2.61 2.34,-4.7 3.61,-6.99 0.77,-2.44 1.12,-5 1.33,-7.55 0.56,-0.38 1.68,-1.14 2.24,-1.51 -0.39,-0.35 -1.16,-1.04 -1.55,-1.38 1.36,-1.55 1.01,-3.69 0.5,-5.51 1.02,-3.7 1.97,-7.43 1.86,-11.31 -0.51,-0.82 -1.02,-1.64 -1.51,-2.45 0.4,-2.14 0.62,-4.35 1.69,-6.29 -1.38,-1.91 -1.15,-4.34 -1.32,-6.57 0.96,-0.03 2.87,-0.11 3.83,-0.14 -0.47,0.59 -1.39,1.79 -1.85,2.39 l 1.81,-0.49 c -0.14,0.84 -0.42,2.54 -0.56,3.38 0.58,0 1.74,-0.02 2.33,-0.02 -0.05,-2.74 -0.07,-5.47 -0.1,-8.21 0.7,0.15 2.11,0.45 2.81,0.6 l -2.08,-1.09 c 1.87,-0.59 3.04,-1.92 3.61,-3.78 -1.37,0.59 -2.74,1.18 -4.11,1.73 0.54,-1.93 1.82,-3.14 3.82,-3.62 l 1.37,0.96 -0.51,-1.75 m 2.97,-0.32 c 0.42,0.74 0.42,0.74 0,0 m 11.24,22.42 c 0.38,2.02 0.87,4.03 1.45,6.01 0.27,-0.73 0.81,-2.2 1.08,-2.93 -0.91,-0.98 -1.71,-2.05 -2.53,-3.08 m -22.02,9.14 c -0.04,0.69 -0.11,2.07 -0.15,2.76 1.43,1.2 2.74,-1.64 1.68,-2.67 -0.38,-0.02 -1.15,-0.07 -1.53,-0.09 m 3.59,7.63 0.61,1.41 -1.36,-0.09 c 0.15,0.91 0.46,2.72 0.62,3.63 2.02,0.13 4.09,0.66 6.08,-0.05 -1.31,-0.45 -2.55,-0.86 -3.84,-1.3 0.38,-0.85 1.15,-2.55 1.54,-3.4 -0.91,-0.05 -2.74,-0.15 -3.65,-0.2 z"
     id="path705"
     style="fill:#01c8fa;fill-opacity:1" />
  <path
     fill="#ff66ff"
     opacity="1"
     d="m 161.71,90.99 c 0.19,0.63 0.57,1.89 0.77,2.52 1.2,-0.08 2.41,-0.16 3.62,-0.23 0.01,1.59 0.12,3.18 0.23,4.76 l 0.94,-0.09 c -0.85,2.05 0.19,5.52 -3.07,5.75 0.65,-1.74 1.58,-3.36 2.35,-5.05 l -1.9,0.04 c -0.48,-1.54 -1.02,-3.05 -1.52,-4.57 -1.03,0.51 -2.06,1.03 -3.08,1.55 0.42,-1.17 1.25,-3.51 1.66,-4.68 z"
     id="path707" />
  <path
     fill="#ff66ff"
     opacity="1"
     d="m 184.41,93.6 c 0.97,-0.68 2,-1.27 3.02,-1.88 0,4.54 -0.02,9.13 -1.6,13.45 -0.51,2.81 -1.18,5.58 -1.79,8.36 -1.38,1.45 -2.06,3.36 -2.67,5.23 -1.93,0.14 -3.31,1.24 -4.19,2.92 -1.13,-0.45 -2.25,-0.9 -3.38,-1.33 -1.72,-1.65 -3.92,-2.6 -5.92,-3.84 -0.19,-1.49 -0.88,-2.66 -2.38,-3.13 0.61,-1.29 1.21,-2.58 1.84,-3.86 -0.85,0.03 -2.56,0.1 -3.41,0.13 -0.8,-1.91 -1.77,-3.76 -2.26,-5.78 1.86,0.02 3.71,-0.12 5.55,-0.42 2.24,2.02 1.13,6.32 4.4,7.18 0.33,1.17 0.61,2.35 0.85,3.55 1.76,0.04 3.52,0.1 5.28,0.18 -0.36,-0.45 -1.07,-1.35 -1.43,-1.8 0.62,-0.38 1.25,-0.76 1.87,-1.14 0.68,-3.79 0.78,-7.76 2.18,-11.37 l -1.27,-0.38 c 0.38,-0.04 1.13,-0.14 1.51,-0.19 -0.08,-0.82 -0.24,-2.45 -0.32,-3.26 0.35,0.01 1.05,0.05 1.4,0.06 -0.15,0.76 -0.45,2.26 -0.6,3.02 0.81,-0.44 2.43,-1.3 3.24,-1.74 -0.02,-1.32 0.01,-2.64 0.08,-3.96 m -19.33,12.36 c 0.19,3.44 2.91,-1.5 0,0 z"
     id="path709" />
  <path
     fill="#ff66ff"
     opacity="1"
     d="m 147.76,95.84 c 1.5,-0.17 3.01,-0.39 4.53,-0.15 -1.95,0.52 -2.45,2.47 -3.3,3.97 -0.45,0.03 -1.36,0.1 -1.82,0.13 0.2,-1.32 0.4,-2.63 0.59,-3.95 z"
     id="path711" />
  <path
     fill="#ff66ff"
     opacity="1"
     d="m 160.62,95.95 c 0.82,0.2 2.47,0.6 3.3,0.8 -0.43,1.07 -3.25,2.47 -0.81,3.32 0.07,0.8 0.2,2.4 0.26,3.2 -3.78,-0.25 -1.82,-4.91 -2.75,-7.32 z"
     id="path713" />
  <path
     fill="#ff66ff"
     opacity="1"
     d="m 415.17,96.36 c 0.56,-0.07 1.68,-0.22 2.24,-0.29 -0.7,1.81 -1.68,3.65 -0.92,5.63 -1.01,0.03 -3.02,0.09 -4.02,0.12 0.35,-0.85 1.05,-2.54 1.4,-3.39 l 2.03,-0.05 c -0.18,-0.5 -0.55,-1.52 -0.73,-2.02 z"
     id="path715"
     style="fill:#01c8fa;fill-opacity:1" />
  <path
     fill="#ff66ff"
     opacity="1"
     d="m 377.93,98.44 c 1.13,0.02 2.28,0.03 3.43,0.03 -0.53,2.81 0.75,5.99 -0.83,8.55 0.17,0.72 0.51,2.17 0.68,2.9 -0.81,1.22 -1.05,2.6 -0.73,4.12 l -1.38,-0.6 c 1.39,2.57 1.04,6.18 -0.82,8.41 0.17,0.07 0.51,0.19 0.69,0.25 -1.36,1.8 -0.32,3.84 -0.24,5.82 -0.3,3.88 -0.76,7.77 -0.28,11.66 0.83,0.29 1.67,0.58 2.51,0.88 -1.86,-0.29 -3.13,0.34 -3.81,1.9 0.85,0.04 2.54,0.13 3.39,0.17 -0.42,3.12 1.26,6.99 -0.93,9.6 -0.57,0.93 -1.14,1.86 -1.7,2.79 -1.18,-0.65 -2.39,-1.2 -3.65,-1.64 -0.01,-0.3 -0.02,-0.89 -0.03,-1.19 -2.98,-0.01 -1.79,-3.13 -2.21,-4.99 -1.91,-4.35 0.02,-9.22 -1.86,-13.56 1.42,0.05 2.85,0.11 4.28,0.18 -0.01,-1.18 -0.01,-2.36 0,-3.54 -0.27,0.06 -0.81,0.18 -1.08,0.24 0.03,0.58 0.09,1.76 0.12,2.35 -0.92,-0.04 -1.83,-0.1 -2.74,-0.17 -0.36,-0.63 -0.72,-1.26 -1.06,-1.88 0.6,-2.91 0.6,-5.9 1.28,-8.79 0.25,-1.55 0.65,-3.04 2.71,-2.56 0.05,-0.26 0.16,-0.78 0.22,-1.05 l -1.6,0.48 c -0.03,-0.57 -0.08,-1.71 -0.11,-2.28 l 1.27,0.27 c -0.13,-1.7 -0.18,-3.41 -0.24,-5.12 l 1.13,-0.01 c 0.27,-3.27 0.01,-6.54 -0.02,-9.81 1.37,0.9 2.4,2.12 3.08,3.67 0.03,-2.03 0.02,-4.05 -0.07,-6.07 l 1.68,0.51 -1.08,-1.52 m -5.75,22.38 c 0.11,3.37 3,-1.57 0,0 m 1,7.77 c 0.01,-0.42 0.03,-1.28 0.04,-1.7 -2.44,-1.63 -2.54,3.52 -0.04,1.7 m -0.09,11.78 -0.48,0.65 c 0.7,2.44 3.08,-1.19 0.48,-0.65 z"
     id="path717"
     style="fill:#01c8fa;fill-opacity:1" />
  <path
     fill="#ff66ff"
     opacity="1"
     d="m 409.72,98.09 c 0.47,0 1.4,-0.01 1.87,-0.02 0.22,0.62 0.67,1.85 0.89,2.47 -1.32,0.3 -2.63,0.64 -3.93,0.98 -0.52,0.81 -1.04,1.63 -1.56,2.45 -2.01,0.19 -4.03,0.34 -5.99,0.82 -2.21,1.5 -4,3.53 -6.01,5.27 0.1,1.32 0.21,2.65 0.33,3.97 -0.46,-0.03 -1.38,-0.08 -1.83,-0.11 0.42,2.47 -2.06,3.55 -3.38,5.15 l 1.76,0.66 c -0.81,1.43 -1.93,2.57 -3.51,3.1 3.05,-0.34 5.97,0.77 8.68,2.04 0.45,-1.56 1.1,-3.02 3.02,-2.55 -0.7,0.57 -1.4,1.14 -2.1,1.69 0.2,0.87 0.41,1.73 0.63,2.6 -0.55,0.1 -1.64,0.29 -2.19,0.39 -1.25,0.98 -2.7,1.62 -4.13,2.27 l 0.01,-2.32 c -3.44,1.12 -4.26,5.22 -7.45,6.54 -0.51,-0.86 -1,-1.72 -1.46,-2.6 0.36,-0.8 0.72,-1.61 1.09,-2.41 0.72,0.27 2.16,0.82 2.88,1.09 -0.76,-2.23 -0.98,-4.63 -1.98,-6.78 0.83,-1.92 1.74,-3.82 2.63,-5.71 0.85,-3.01 1.06,-6.43 3.24,-8.86 1.88,-2.31 4.11,-4.42 5.4,-7.15 1.61,-0.85 3.73,-0.8 5.25,0.17 0.12,0.43 0.35,1.29 0.46,1.72 1.18,-0.35 2.37,-0.71 3.57,-1.05 -0.71,-0.22 -2.13,-0.67 -2.84,-0.9 0.28,-3.33 5.28,-2.51 7.42,-1.51 l -0.77,-1.41 m -18.03,27.82 c 0.48,1.53 3.52,1.53 4.08,0.06 -0.44,-1.75 -3.5,-1.68 -4.08,-0.06 z"
     id="path719"
     style="fill:#ff66ff;fill-opacity:1" />
  <path
     fill="#ff66ff"
     opacity="1"
     d="m 146.01,109.31 c 0.4,-2.84 -0.46,-6.34 1.52,-8.7 2.12,-0.27 3.94,0.78 5.21,2.4 -0.78,0.53 -2.34,1.6 -3.12,2.13 0.62,0.27 1.86,0.81 2.47,1.08 -0.41,0.1 -1.24,0.31 -1.65,0.41 0.44,2.23 -1.16,5.41 1.38,6.72 -0.43,0.08 -1.28,0.24 -1.71,0.32 0.6,4.37 0.33,8.74 -1.53,12.77 l 0.85,1.07 c -0.05,0.74 -0.09,1.48 -0.13,2.23 -0.34,0.33 -1.02,0.98 -1.36,1.31 1.43,1.17 2.65,2.49 2.8,4.45 -2.06,-0.72 -6.07,-2.77 -3.67,-5.33 -1,-6.84 -1.18,-13.78 -0.96,-20.68 0.61,0.2 1.83,0.61 2.44,0.82 -0.04,-2.21 0.05,-4.42 -0.17,-6.61 -0.25,1.57 -0.29,3.16 -0.34,4.75 -0.51,0.22 -1.52,0.65 -2.03,0.86 z"
     id="path721" />
  <path
     fill="#ff66ff"
     opacity="1"
     d="m 339.01,106.4 c 1.17,-0.96 2.33,-1.94 3.49,-2.92 -0.03,1.09 -0.06,2.18 -0.07,3.28 l -0.84,-0.3 -0.64,1.37 c -0.49,-0.36 -1.45,-1.07 -1.94,-1.43 z"
     id="path723"
     style="fill:#01c8fa;fill-opacity:1" />
  <path
     fill="#ff66ff"
     opacity="1"
     d="m 130.28,108.77 c -1.12,-1.39 -2.13,-5.9 0.81,-5.3 1.12,4.11 1.08,8.41 1.91,12.56 0.34,2.21 0.55,4.43 0.75,6.66 l -1.25,0.23 c -0.21,-1.81 -0.42,-3.65 -1.17,-5.34 -0.14,2.19 0.05,4.43 1.33,6.31 -1.09,-0.23 -2.18,-0.46 -3.26,-0.7 -0.25,-2.97 -1.18,-5.84 -1.33,-8.82 -0.24,-0.02 -0.72,-0.05 -0.96,-0.07 l 0.14,-0.97 c 3.87,-0.98 2.29,2.92 4.35,4.45 -0.1,-1.62 -0.33,-3.24 -1.1,-4.69 -0.07,-1.44 -0.14,-2.88 -0.22,-4.32 z"
     id="path725" />
  <path
     fill="#ff66ff"
     opacity="1"
     d="m 343.84,105.31 c 1.59,-1.52 3.48,-2.08 5.68,-1.69 -0.12,1.95 0.55,4.41 -2.19,4.84 -0.99,2.06 -1.48,4.36 -0.82,6.61 -0.52,-1.02 -0.41,-2.79 -2.08,-2.65 -0.35,-1.06 -1.03,-3.19 -1.38,-4.25 l 2.64,0.64 c -0.16,-0.52 -0.49,-1.57 -0.65,-2.1 1,-0.17 2.98,-0.53 3.98,-0.71 -1.3,-0.17 -3.89,-0.51 -5.18,-0.69 z"
     id="path727"
     style="fill:#01c8fa;fill-opacity:1" />
  <path
     fill="#ff66ff"
     opacity="1"
     d="m 475.12,106.29 c 0.45,0.71 0.45,0.71 0,0 z"
     id="path729"
     style="fill:#01c8fa;fill-opacity:1" />
  <path
     fill="#ff66ff"
     opacity="1"
     d="m 112.05,109.99 c 2.99,-0.83 6.56,-0.31 8.97,-2.57 0.87,1.27 1.78,2.52 2.71,3.76 -1.56,1.08 -4.91,0.2 -4.63,2.9 -2.32,-0.02 -4.65,-0.02 -6.98,0.01 0.03,-1.36 -0.01,-2.73 -0.07,-4.1 z"
     id="path731" />
  <path
     fill="#ff66ff"
     opacity="1"
     d="m 126.33,106.81 2.39,-0.31 c 0.7,2.02 0.65,4.17 0.79,6.28 -0.59,-0.07 -1.76,-0.2 -2.35,-0.27 -0.24,-1.91 -0.52,-3.8 -0.83,-5.7 z"
     id="path733" />
  <path
     fill="#ff66ff"
     opacity="1"
     d="m 466.6,107.35 c 0.94,0.62 1.88,1.26 2.84,1.89 0.34,1.1 0.72,2.2 1.1,3.3 -0.44,-0.08 -1.3,-0.23 -1.73,-0.31 0.5,1.81 0.64,3.67 0.42,5.53 -1.32,-0.2 -2.64,-0.4 -3.95,-0.61 -0.09,-0.73 -0.26,-2.19 -0.35,-2.92 0.76,-0.36 2.27,-1.08 3.03,-1.43 l -1.6,-0.12 c 0.38,-0.99 0.78,-1.98 1.19,-2.96 -0.24,-0.59 -0.71,-1.78 -0.95,-2.37 z"
     id="path735"
     style="fill:#01c8fa;fill-opacity:1" />
  <path
     fill="#ff66ff"
     opacity="1"
     d="m 337.85,108.92 c 0.32,-0.32 0.98,-0.97 1.31,-1.29 l 0.68,0.22 c 0.58,1.36 -0.3,3.09 -1.05,4.22 -0.96,-0.81 -1.27,-1.86 -0.94,-3.15 z"
     id="path737"
     style="fill:#01c8fa;fill-opacity:1" />
  <path
     fill="#ff66ff"
     opacity="1"
     d="m 503.92,109.27 c 2,0.84 4.37,1.12 5.77,2.99 -3.63,-0.91 -3.81,2.74 -3,5.13 l -1.11,-1.17 -1.65,3.49 c 1.9,-2.23 4.74,-1.27 7.18,-1.43 -1.73,-2.75 0.71,-1.95 2.29,-1.65 1.42,0.71 1.76,2.48 2.89,3.54 -0.29,0.72 -0.59,1.45 -0.89,2.17 -0.36,-0.6 -1.06,-1.79 -1.41,-2.39 -0.72,1.83 0.75,5.29 -1.98,5.89 0.04,0.82 0.09,1.63 0.15,2.45 0.22,-0.66 0.64,-1.98 0.85,-2.64 1.28,0.14 2.6,0.38 3.89,0.57 -1.17,0.33 -2.24,0.83 -3.23,1.5 0.19,1.34 0.4,2.69 0.65,4.03 0.5,0 1.52,0 2.02,0 1.57,-0.3 3.15,-0.41 4.76,-0.35 -0.4,-0.93 -0.81,-1.85 -0.99,-2.85 1.79,0.2 3.52,0.61 5.33,0.77 -0.14,0.44 -0.42,1.33 -0.56,1.77 1.66,-0.45 3.39,-0.35 5.11,-0.43 0.25,-0.89 0.5,-1.78 0.75,-2.67 -0.47,0.53 -1.41,1.6 -1.88,2.13 -1.13,-0.71 -1.94,-1.72 -2.42,-3.02 1.27,-1.46 7.64,2.04 4.21,-1.25 0.15,-0.59 0.45,-1.77 0.6,-2.37 1.4,-0.99 2.6,-2.22 3.92,-3.33 -0.02,1.51 -0.02,3.03 0.09,4.54 -0.15,0.52 -0.46,1.56 -0.61,2.08 -1.12,1.55 -2.45,2.98 -3.13,4.81 -1.56,0.45 -1.61,2.1 -2.02,3.38 -1.2,0.24 -2.39,0.47 -3.57,0.69 -0.24,0.34 -0.72,1.04 -0.96,1.39 -1.32,0.04 -2.64,0.09 -3.95,0.14 -0.27,0.47 -0.82,1.41 -1.09,1.88 -0.77,0 -2.3,0 -3.06,0 0.01,-0.5 0.03,-1.51 0.05,-2.01 -1.7,-0.05 -3.4,-0.06 -5.08,-0.04 0.41,-0.55 1.23,-1.64 1.64,-2.19 -0.58,0.07 -1.72,0.21 -2.29,0.28 -0.96,2.2 -1.98,4.36 -2.93,6.55 l -0.89,-0.31 c 0.89,3.79 -1.99,7.14 -2.33,10.9 -0.38,-1.51 -1.67,-2.22 -2.74,-3.12 0.15,1.8 -0.32,4.32 2.52,3.88 -1.22,1.55 -1.88,3.68 -3.78,4.57 -0.08,0.49 -0.25,1.48 -0.34,1.98 -0.54,-0.14 -1.62,-0.43 -2.16,-0.57 -0.77,1.24 -1.55,2.47 -2.39,3.66 0.05,-1.33 0.41,-2.57 1.05,-3.73 -1.37,0.08 -2.72,0.22 -4.07,0.38 -0.04,-0.43 -0.12,-1.31 -0.16,-1.75 1.56,-0.51 3.12,-1.06 4.69,-1.59 0.03,-1.02 0.2,-2.01 0.53,-2.98 0.62,1.32 1.09,2.71 1.57,4.1 0.44,-1.16 0.91,-2.3 1.45,-3.41 -0.27,-0.21 -0.81,-0.62 -1.09,-0.82 0.06,-0.47 0.17,-1.39 0.22,-1.85 -0.37,-0.31 -1.11,-0.93 -1.48,-1.24 0.59,-1.03 1.18,-2.06 1.82,-3.07 -0.42,-2.76 2.52,-4.45 1.88,-7.16 -0.07,-2.93 3.27,-5.39 1.64,-8.3 0.84,-1.06 1.73,-2.1 2.63,-3.11 -0.2,-1.3 -0.36,-2.6 -0.49,-3.9 -1.75,0.28 -3.62,0.29 -5.07,1.41 -0.19,-1.41 -0.39,-2.82 -0.59,-4.23 0.75,0.11 2.26,0.33 3.02,0.44 l 0.48,-1.09 c -1.75,0.05 -3.5,0.01 -5.16,-0.56 -0.15,-0.87 -0.29,-1.75 -0.41,-2.63 -0.04,-1.09 -0.33,-2.14 -0.59,-3.19 1.11,-1.75 2.53,-3.27 4.03,-4.7 0.01,0.97 0.03,2.92 0.04,3.89 0.64,-1.41 1.21,-2.86 1.83,-4.28 m 2.95,9.19 c -0.07,1.87 0.07,3.75 0.39,5.59 0.67,-0.29 2,-0.88 2.67,-1.17 0.21,0.8 0.62,2.39 0.83,3.19 0.2,-0.81 0.61,-2.44 0.81,-3.25 -2.44,-0.26 -1.81,-2.54 -1.79,-4.31 -0.73,-0.01 -2.18,-0.03 -2.91,-0.05 m 4.29,0.58 c 0,0.41 -0.01,1.23 -0.01,1.63 l 0.79,-0.04 c 0,-0.41 -0.01,-1.21 -0.02,-1.62 l -0.76,0.03 M 525,132.89 c -0.61,1.46 2.82,1.58 2.45,0.12 -0.61,-0.03 -1.84,-0.09 -2.45,-0.12 m -18.02,4.53 c 0.69,1.14 2.76,-0.73 1.94,-1.71 -0.48,0.43 -1.45,1.28 -1.94,1.71 z"
     id="path739"
     style="fill:#01c8fa;fill-opacity:1" />
  <path
     fill="#ff66ff"
     opacity="1"
     d="m 510.62,109.97 c 1.21,-0.35 2.47,-0.23 3.71,0 -1.67,1.2 0.24,4.59 -1.47,5.24 -0.42,-0.36 -1.24,-1.07 -1.65,-1.43 -1.42,0.66 -2.06,2.16 -3.01,3.3 -1.03,-3.17 2.77,-4.1 2.42,-7.11 z"
     id="path741"
     style="fill:#01c8fa;fill-opacity:1" />
  <path
     fill="#ff66ff"
     opacity="1"
     d="m 514.84,109.36 c 0.44,0.22 1.32,0.67 1.75,0.9 1.57,2.69 0.81,5.75 -0.18,8.5 l -0.12,-2.34 -1.83,0.92 c -0.33,-2.67 -0.09,-5.35 0.38,-7.98 z"
     id="path743"
     style="fill:#01c8fa;fill-opacity:1" />
  <path
     fill="#ff66ff"
     opacity="1"
     d="m 351.57,110.84 c 0.48,-0.21 1.43,-0.63 1.91,-0.85 1.02,1.38 -1.97,2.74 -1.91,0.85 z"
     id="path745"
     style="fill:#01c8fa;fill-opacity:1" />
  <path
     fill="#ff66ff"
     opacity="1"
     d="m 107.17,115.3 c 0.62,-0.16 1.87,-0.49 2.49,-0.65 -0.38,2.47 -0.99,4.9 -1.51,7.34 l -1.85,-0.33 c 0.07,-1.04 0.22,-3.11 0.29,-4.15 l 1.07,0.21 c -0.12,-0.61 -0.37,-1.82 -0.49,-2.42 z"
     id="path751" />
  <path
     fill="#ff66ff"
     opacity="1"
     d="m 61.87,117.61 c 1.4,0.09 1.79,0.82 1.16,2.17 -1.39,-0.13 -1.77,-0.85 -1.16,-2.17 z"
     id="path753" />
  <path
     fill="#ff66ff"
     opacity="1"
     d="m 469.19,129.36 c 0.57,-4.51 -0.61,-9.25 1.28,-13.54 -0.02,4.84 1.52,9.33 2.92,13.88 -0.4,2.08 -0.62,4.19 -0.84,6.3 -0.7,0.03 -2.1,0.1 -2.81,0.13 l 0.13,0.56 c 0.57,0.04 1.71,0.13 2.28,0.18 -0.14,2.53 -1.42,4.83 -2.23,7.2 -0.66,-0.01 -1.97,-0.04 -2.62,-0.06 0.05,-0.94 0.11,-1.88 0.18,-2.83 -1.18,0.98 -2.34,1.99 -3.47,3.01 -0.47,-0.74 -1.4,-2.22 -1.87,-2.96 2.29,-0.76 4.38,-2.36 6.86,-2.38 0.11,-1.61 0.2,-3.21 0.28,-4.81 -2.12,0.86 -2.94,3.07 -4.06,4.85 -1.55,-1.89 -0.31,-3.61 1.17,-5.04 -0.93,-3.36 -0.75,-6.71 0.18,-10.05 -0.42,-0.44 -1.26,-1.32 -1.69,-1.76 0.5,-0.07 1.49,-0.2 1.99,-0.26 -0.74,-1.21 -1.47,-2.42 -2.18,-3.63 0.96,-0.08 2.88,-0.24 3.85,-0.31 0,1.79 -0.49,3.4 -1.87,4.61 0.53,0.04 1.6,0.11 2.13,0.15 -0.59,2.36 -1.38,4.66 -2.29,6.92 0.67,-0.04 2.01,-0.12 2.68,-0.16 m 0.48,3.12 c 0.01,0.54 0.05,1.61 0.06,2.14 2.07,1.35 2.07,-3.31 -0.06,-2.14 z"
     id="path755"
     style="fill:#01c8fa;fill-opacity:1" />
  <path
     fill="#ff66ff"
     opacity="1"
     d="m 103.71,117.69 c 0.79,1.09 1.69,2.2 2.18,3.49 -0.49,2.22 -0.44,4.5 -0.53,6.76 0.49,-0.61 1.46,-1.82 1.95,-2.43 1.35,3.49 0.95,7.19 1.17,10.82 -0.55,2.15 -0.12,4.33 0.33,6.45 0.47,0.01 1.41,0.02 1.88,0.03 0.26,-0.56 0.77,-1.68 1.03,-2.24 0.35,1.04 0.68,2.08 1,3.14 -1.7,0 -3.4,-0.03 -5.08,-0.14 l -0.41,1.95 1.19,-0.01 c 0,0.58 -0.02,1.74 -0.02,2.32 l 1.69,-1.1 c 0.19,-0.45 0.58,-1.34 0.77,-1.79 0.71,1.67 1.39,3.36 2.33,4.93 -0.27,1.71 -0.15,3.59 -1.22,5.06 -1.82,-2.52 -6.6,-1.48 -6.11,-5.59 -0.13,2.04 -0.86,3.98 -1.93,5.7 0.15,-1.71 -1.43,-3.88 0.28,-5.3 -0.04,-3.62 -1.47,-7.11 -1.04,-10.76 0.64,-7.1 -0.32,-14.2 0.54,-21.29 m 3.87,32.38 c 0.01,0.38 0.04,1.14 0.06,1.53 1.15,1.18 3.26,-0.49 2.66,-1.87 -0.98,-0.58 -1.89,-0.46 -2.72,0.34 z"
     id="path757" />
  <path
     fill="#ff66ff"
     opacity="1"
     d="m 449.2,120.59 c 0.32,-0.14 0.94,-0.41 1.26,-0.55 0.02,1.98 1.04,4.71 3.51,3.38 -0.05,0.39 -0.13,1.17 -0.17,1.56 l -1.92,-1.06 c 0.99,2.92 2.07,5.81 3.07,8.74 -0.75,-0.12 -2.24,-0.36 -2.98,-0.48 l 1.08,-1.32 c -0.6,-0.65 -1.8,-1.94 -2.4,-2.59 0.48,2.57 2.24,5.58 -0.16,7.74 -0.48,-1.87 -0.46,-3.96 -1.81,-5.48 -1.51,-1.58 -0.61,-3.98 0.02,-5.74 0.59,1.05 1.2,2.1 1.85,3.14 0.75,-2.07 -0.52,-3.73 -2.65,-3.45 -0.03,-0.29 -0.09,-0.88 -0.12,-1.18 0.62,0.04 1.87,0.11 2.49,0.14 -0.36,-0.95 -0.72,-1.9 -1.07,-2.85 z"
     id="path759"
     style="fill:#ff66ff;fill-opacity:1" />
  <path
     fill="#ff66ff"
     opacity="1"
     d="m 61.28,121.28 2.47,0.52 c 1.25,2.81 2.16,-1.32 4.05,-0.29 -0.13,0.75 -0.39,2.26 -0.51,3.02 l 1.17,0.05 c 0.02,0.71 0.05,2.15 0.06,2.87 -1.35,0.1 -2.69,0.19 -4.04,0.27 -0.07,0.52 -0.21,1.57 -0.28,2.09 0.39,-0.17 1.17,-0.5 1.55,-0.66 0.91,0.94 1.85,1.9 2.05,3.26 0.37,0.56 1.1,1.67 1.46,2.23 2.11,0.55 4.28,0.67 6.46,0.61 -0.67,0.83 -1.33,1.66 -1.98,2.51 -0.7,-0.08 -2.12,-0.23 -2.82,-0.31 1.81,0.97 1.82,2.76 1.51,4.58 -3.62,-0.08 -5.99,-3.03 -8.13,-5.55 0.22,-0.37 0.68,-1.11 0.9,-1.48 l -1.86,-0.07 c 0.02,-0.97 0.04,-1.93 0.06,-2.9 -2.6,-1.77 -1.77,-4.73 -0.83,-7.19 0.84,-0.1 2.52,-0.29 3.36,-0.38 -1.44,-1.11 -6.06,-0.39 -4.65,-3.18 z"
     id="path761" />
  <path
     fill="#ff66ff"
     opacity="1"
     d="m 484.89,122.86 c 0.99,0.01 1.97,0.03 2.96,0.09 1.1,2.41 1.36,5.14 0.37,7.64 0.04,1.35 0,2.71 0.02,4.07 -1.05,1.08 -0.85,2.49 -0.71,3.86 -1.3,2.13 -1.97,4.54 -2.65,6.92 -1.1,0.03 -2.47,-0.72 -1.81,-2.01 0.95,-2.02 0.93,-4.35 2.29,-6.19 l -1.6,0.75 c 0.45,-2.03 1.1,-4.01 1.67,-6.01 -0.89,1.59 -1.53,3.3 -2.2,4.99 -0.61,-0.16 -1.85,-0.48 -2.46,-0.64 0.17,-0.65 0.51,-1.94 0.67,-2.59 0.83,-1.08 1.38,-2.33 2.18,-3.44 0.19,0.25 0.59,0.75 0.79,1 1.02,-1.35 1.84,-3.08 3.86,-3 -1.45,-2.53 -2.7,0.37 -4.38,0.94 -2.12,-0.57 0.27,-1.59 0.94,-2.26 0.01,-1.38 0.04,-2.75 0.06,-4.12 z"
     id="path763"
     style="fill:#01c8fa;fill-opacity:1" />
  <path
     fill="#ff66ff"
     opacity="1"
     d="m 544.07,123.28 c 0.74,-0.31 1.49,-0.62 2.25,-0.93 1.1,0.52 2.21,1.03 3.34,1.53 l -1.99,0.74 c 0.64,-0.06 1.94,-0.17 2.59,-0.23 -0.7,1.95 -1.19,4.02 -2.38,5.75 -0.58,2.39 -1.9,4.75 -1.18,7.26 l -1.5,-1.54 c -0.02,2.46 1.47,6.93 -1.97,7.78 0.96,0.83 1.92,1.66 2.87,2.52 -0.8,0.49 -2.38,1.46 -3.18,1.95 0.25,0.79 0.75,2.36 1,3.14 -0.41,0.25 -1.21,0.74 -1.62,0.99 0.68,1.07 1.3,2.17 1.93,3.29 1.28,-0.9 2.53,-1.9 3.15,-3.41 1.22,-0.08 2.44,-0.15 3.68,-0.19 -0.81,2.04 -1.42,4.24 -3.21,5.67 -0.66,1.77 -1.51,3.46 -2.19,5.23 0.48,1.02 0.98,2.04 1.51,3.05 1.39,0.86 2.72,1.82 4.1,2.71 1.06,1.74 2.53,3.21 4.57,3.75 1.25,-1.23 2.46,-2.51 3.64,-3.81 0.63,0.77 1.31,1.48 2.01,2.22 0.18,3.38 -2.13,7.34 -5.69,7.72 -1.96,-0.28 -3.8,-0.97 -5.68,-1.52 -2.92,-2.59 -6.16,-5.15 -8.29,-8.41 -1.27,-0.44 -2.07,-1.31 -2.39,-2.63 -1.18,-0.06 -2.35,-0.07 -3.52,-0.04 -1.92,-1.23 -3.64,-2.73 -5.49,-4.05 0.49,-3.01 -2,-4.59 -4.58,-5.11 -0.34,2.41 -0.66,6.05 -4.05,5.78 0.42,-1.39 0.61,-2.83 0.81,-4.27 l -1.04,-0.15 -0.59,2.35 c -0.5,-0.89 -0.98,-1.78 -1.43,-2.68 1.09,-1 2.19,-2.02 3.29,-3.02 0.09,-0.47 0.27,-1.39 0.37,-1.86 0.93,-1.01 1.8,-2.09 2.69,-3.15 0.07,-0.58 0.2,-1.73 0.26,-2.31 0.61,-0.08 1.82,-0.25 2.42,-0.34 1.11,-1.57 2.26,-3.12 3.43,-4.66 0.68,1.15 1.26,2.34 1.87,3.55 0.43,-0.85 1.3,-2.55 1.73,-3.39 -1.19,-0.07 -2.38,-0.11 -3.55,-0.13 1.38,-1.17 2.73,-2.4 4.08,-3.61 0.16,-3.63 3.62,-5.29 5.02,-8.33 1.18,-2.31 1.94,-4.81 2.91,-7.21 m -0.9,8.06 c 0.59,0.61 0.59,0.61 0,0 m 1.67,0.58 c 0.61,0.69 0.61,0.69 0,0 m -1.95,5.77 c -0.04,0.62 -0.14,1.86 -0.18,2.48 1.44,0.57 1.65,-2.85 0.18,-2.48 m -4.71,1.88 c 0.45,0.73 0.45,0.73 0,0 m -2.44,5.85 c -0.86,2.23 -1.59,5.95 -4.77,5.25 0.03,0.23 0.09,0.69 0.12,0.93 l 1.6,-0.41 -1.27,2.29 2.32,-0.89 c -0.14,0.69 -0.42,2.08 -0.55,2.77 l 2.02,-0.31 c -0.5,1.12 -1.02,2.23 -1.55,3.33 l 1.54,0.51 c -0.09,-1.55 0.64,-2.39 2.18,-2.49 -0.31,-1.62 -0.55,-3.24 -0.8,-4.86 0.09,-1.14 0.16,-2.29 0.22,-3.44 0.17,-0.35 0.49,-1.05 0.66,-1.39 l 2.87,-0.71 c -1.53,-0.24 -3.06,-0.44 -4.59,-0.58 m -4.54,0.85 c -1.41,0.43 -1.11,3.27 0.52,2.02 1.16,-0.47 1.03,-3.23 -0.52,-2.02 m -4.9,6.33 c 0.64,0.65 0.64,0.65 0,0 m 11.77,1.84 c 0.05,0.53 0.13,1.58 0.17,2.11 0.56,0.04 1.67,0.12 2.23,0.16 -0.03,-0.52 -0.08,-1.57 -0.1,-2.09 -0.57,-0.05 -1.72,-0.14 -2.3,-0.18 m -3.77,6.38 c -0.36,1.09 0.14,3.03 1.47,3.16 1.89,-0.69 0.17,-4.42 -1.47,-3.16 m 9.93,3.53 c -0.76,0.62 -2.38,1.08 -2.38,2.17 0.5,0.04 1.49,0.12 1.99,0.16 2.4,2.25 2.45,-2.33 0.39,-2.33 m 11.57,10.62 c 0.54,0.73 0.54,0.73 0,0 z"
     id="path765"
     style="fill:#ff66ff;fill-opacity:1" />
  <path
     fill="#ff66ff"
     opacity="1"
     d="m 107.18,124.56 c 0.66,0.67 0.66,0.67 0,0 z"
     id="path767" />
  <path
     fill="#ff66ff"
     opacity="1"
     d="m 132.06,125.01 c 0.49,-0.55 1.46,-1.63 1.95,-2.18 1.16,1.97 1.4,4.17 1.08,6.39 -0.95,-1.45 -1.93,-2.88 -3.03,-4.21 z"
     id="path769" />
  <path
     fill="#ff66ff"
     opacity="1"
     d="m 130.11,125.09 c 0.41,0.01 1.24,0.02 1.65,0.03 -0.22,0.44 -0.67,1.34 -0.89,1.79 0.53,-0.04 1.59,-0.11 2.12,-0.15 0.64,1.74 1.41,3.42 2.22,5.08 0,-0.66 0.01,-1.99 0.02,-2.66 0.52,0.14 1.57,0.4 2.09,0.53 -0.01,1.2 -0.02,2.41 -0.02,3.61 0.31,0.23 0.93,0.7 1.24,0.93 -0.53,0.1 -1.59,0.3 -2.12,0.4 -1.34,-1.43 -2.64,-2.92 -3.53,-4.68 -0.82,-0.53 -1.64,-1.05 -2.46,-1.57 -0.11,-1.1 -0.22,-2.21 -0.32,-3.31 z"
     id="path773" />
  <path
     fill="#ff66ff"
     opacity="1"
     d="m 503.08,126.38 c 1.7,-0.53 2.89,2.05 1.32,2.97 -1.64,1.12 -3.01,-2.37 -1.32,-2.97 z"
     id="path775"
     style="fill:#01c8fa;fill-opacity:1" />
  <path
     fill="#ff66ff"
     opacity="1"
     d="m 383.59,133.63 c 4.22,-1.1 7.89,1.03 11.03,3.61 3.55,-0.34 7.27,0.73 10.59,-0.99 -0.2,1.2 -0.38,2.41 -0.54,3.62 -2.03,0.44 -3.95,1.23 -5.97,1.7 -0.74,1.63 -2.53,1.2 -3.94,1.09 -3.78,0.5 -5.38,-3.78 -8.96,-4.2 -0.7,-1.63 -1.46,-3.23 -2.21,-4.83 z"
     id="path777"
     style="fill:#01c8fa;fill-opacity:1" />
  <path
     fill="#ff66ff"
     opacity="1"
     d="m 453.97,135.62 c 0.63,-0.78 1.26,-1.56 1.9,-2.34 -0.67,2.16 -0.11,3.64 1.67,4.42 l -0.17,0.5 c 1.89,1.17 0.68,2.55 -0.02,3.93 0.5,0.9 1.09,1.76 1.74,2.57 0.36,-1.79 0.51,-3.61 0.61,-5.43 1.38,1.41 2.7,2.88 3.93,4.43 -0.62,0.23 -1.87,0.7 -2.49,0.93 2.65,3.11 3.92,-1.27 5.8,-2.68 0.02,1.02 0.07,3.04 0.09,4.06 -0.88,2.87 -4.16,1.63 -6.33,1.71 -0.18,-1.2 -0.33,-2.39 -0.46,-3.59 -0.54,0.7 -1.62,2.11 -2.15,2.81 -1.06,-1.33 -1.57,-3.34 -3.2,-4.05 -1.35,-0.32 -2.15,-1.23 -2.41,-2.72 0.6,0.32 1.81,0.96 2.42,1.28 l 0.36,0.39 c 0.05,-0.85 0.08,-1.7 0.09,-2.55 -0.51,-1.21 -0.97,-2.44 -1.38,-3.67 z"
     id="path779"
     style="fill:#ff66ff;fill-opacity:1" />
  <path
     fill="#ff66ff"
     opacity="1"
     d="m 450.77,138.14 c 0.59,-1.05 1.19,-2.1 1.8,-3.14 1.1,1.83 2.52,3.62 2.17,5.92 -1.42,-0.8 -2.67,-1.82 -3.97,-2.78 z"
     id="path783"
     style="fill:#ff66ff;fill-opacity:1" />
  <path
     fill="#ff66ff"
     opacity="1"
     d="m 311.33,136.58 c 1.12,0.53 2.24,1.08 3.35,1.64 0.32,0.45 0.95,1.33 1.27,1.78 -1.47,-0.04 -2.94,0.02 -4.37,-0.28 -0.06,-0.79 -0.19,-2.35 -0.25,-3.14 z"
     id="path785"
     style="fill:#00c6f6;fill-opacity:0.99659228" />
  <path
     fill="#ff66ff"
     opacity="1"
     d="m 481.2,136.52 c 0.65,0.24 1.94,0.71 2.59,0.95 -0.98,1.41 -1.91,2.86 -2.78,4.34 1.23,2.31 0.32,4.98 0.52,7.47 1.06,2.77 -3.28,0.67 -2.58,-0.77 -0.02,-4.11 1.07,-8.08 2.25,-11.99 z"
     id="path787"
     style="fill:#01c8fa;fill-opacity:1" />
  <path
     fill="#ff66ff"
     opacity="1"
     d="m 303.59,139.6 c 2.63,-0.02 5.26,0.02 7.9,0.04 -1.4,2.22 -4.21,0.78 -6.3,1.07 0.65,2.58 3.28,1.19 5.03,1.55 -0.61,3.19 -4.51,1.19 -6.75,1.63 -0.64,-1.55 -2.53,-3.64 0.12,-4.29 z"
     id="path789"
     style="fill:#00c6f6;fill-opacity:0.99659228" />
  <path
     fill="#ff66ff"
     opacity="1"
     d="m 482.19,147.2 c 0.56,-0.08 1.67,-0.23 2.23,-0.3 -0.15,2.37 2.23,2.25 3.85,2.85 -1.5,0.17 -3.02,0.23 -4.51,0.32 -0.72,1.09 -1.45,2.17 -2.18,3.26 0.25,-2.05 0.56,-4.08 0.61,-6.13 z"
     id="path791"
     style="fill:#01c8fa;fill-opacity:1" />
  <path
     fill="#ff66ff"
     opacity="1"
     d="m 475.68,154.73 c 0.04,-2.26 0.77,-4.75 3.3,-5.29 0.15,0.87 0.46,2.63 0.62,3.5 l -1.29,-0.39 c -0.01,0.66 -0.04,1.99 -0.05,2.66 0.08,-0.47 0.24,-1.41 0.32,-1.87 0.81,0.02 2.42,0.08 3.22,0.11 -1.1,1.14 -2.16,2.3 -3.18,3.5 -1.06,0.49 -2.1,1 -3.13,1.51 0.47,-1.33 4.38,-3.9 0.19,-3.73 z"
     id="path793"
     style="fill:#ff66ff;fill-opacity:1" />
  <path
     fill="#ff66ff"
     opacity="1"
     d="m 484.1,152.03 c 1.04,-0.12 2.11,-0.13 3.16,0.06 -1.4,1.04 -2.63,2.28 -4.06,3.27 0.3,-1.11 0.6,-2.22 0.9,-3.33 z"
     id="path795"
     style="fill:#01c8fa;fill-opacity:1" />
  <path
     fill="#ff66ff"
     opacity="1"
     d="m 104.42,155 c 0.67,-0.25 1.33,-0.49 2,-0.75 0.83,0.61 1.68,1.22 2.51,1.84 -0.85,0.62 -1.69,1.26 -2.53,1.91 l -0.2,-1.49 c -0.45,-0.38 -1.34,-1.14 -1.78,-1.51 z"
     id="path797" />
  <path
     fill="#ff66ff"
     opacity="1"
     d="m 518.98,159.44 c 0.4,0.22 1.19,0.65 1.59,0.87 -0.08,0.33 -0.24,1 -0.33,1.34 l 1.62,-0.68 -0.99,2.09 c 0.53,0.12 1.6,0.36 2.13,0.49 -1.87,1.05 -3.77,2.06 -5.71,2.98 0.33,1.12 0.69,2.23 1.07,3.34 -0.16,0.03 -0.48,0.08 -0.63,0.1 -0.6,-1.07 -1.29,-2.08 -2.07,-3.01 0.65,-0.85 3.14,-1.2 2.44,-2.58 -1.26,-1.7 0.47,-3.29 0.88,-4.94 z"
     id="path801"
     style="fill:#01c8fa;fill-opacity:1" />
  <path
     fill="#ff66ff"
     opacity="1"
     d="m 520.05,166.08 c 1.27,0.64 1.26,1.34 -0.03,2.09 -1.29,-0.62 -1.27,-1.32 0.03,-2.09 z"
     id="path803"
     style="fill:#01c8fa;fill-opacity:1" />
  <path
     fill="#ff66ff"
     opacity="1"
     d="m 60.5,172.84 c 1.91,-0.78 2.93,-2.63 4.31,-4.04 -0.34,1.22 -0.76,2.42 -1.24,3.6 -3.18,-0.5 -2.09,2.96 -2.33,4.94 -1.13,1.21 -4.08,1.92 -2.58,4.19 0.68,0.11 2.03,0.35 2.71,0.46 -0.05,-0.64 -0.14,-1.91 -0.18,-2.55 0.57,0.08 1.72,0.23 2.3,0.31 l -0.33,-1.55 c 0.54,0.14 1.63,0.42 2.17,0.56 0.05,-0.73 0.15,-2.2 0.2,-2.93 -0.45,-0.27 -1.35,-0.8 -1.8,-1.06 0.86,-0.02 2.58,-0.05 3.44,-0.07 0.16,-1.73 1.42,-2.96 2.33,-4.32 0.54,-0.03 1.62,-0.08 2.16,-0.11 -0.03,0.67 -0.07,2.02 -0.09,2.7 l -1.18,-0.69 c 0.01,1.08 0.02,2.16 0.02,3.25 0.51,0.12 1.54,0.36 2.05,0.48 -0.17,-1.22 -0.32,-2.44 -0.47,-3.66 0.92,0.06 2.74,0.17 3.65,0.23 0.66,3.56 -3.1,4.9 -5.89,5.22 1.02,0.55 2.04,1.11 3.06,1.68 -0.89,0.21 -1.77,0.41 -2.66,0.62 -0.75,1.35 -1.63,2.62 -2.54,3.87 l 1.31,0.31 c -1.24,1.37 -2.49,2.72 -3.86,3.96 -2.76,3.2 -7.35,5.28 -7.2,10.19 -0.17,-0.53 -0.52,-1.59 -0.7,-2.12 -0.94,0.31 -1.87,0.62 -2.8,0.95 0.56,0.06 1.68,0.17 2.24,0.22 -0.04,2.22 -0.07,4.44 -0.2,6.65 -0.77,0.63 -1.28,1.43 -1.56,2.39 0.71,0.08 2.14,0.24 2.85,0.33 l -0.54,-2.4 c 1.52,1.35 2.87,2.88 4.23,4.4 0.04,1.73 -0.27,3.25 -2.33,2.41 0.23,-1.29 0.45,-2.59 0.67,-3.89 -0.82,0.08 -2.46,0.24 -3.28,0.31 0.48,0.52 1.43,1.56 1.9,2.08 -1.24,-0.02 -2.48,-0.03 -3.72,-0.03 -0.5,-1.76 -1.1,-3.54 -2.45,-4.84 -0.09,-2.46 0.78,-4.74 1.7,-6.97 -0.79,0.49 -2.37,1.46 -3.16,1.95 0.56,-2.52 2.2,-4.57 2.9,-7.03 -0.81,-0.33 -1.62,-0.65 -2.43,-0.97 1.74,-0.16 2.47,-1.04 2.17,-2.62 l 0.99,-0.56 c -0.25,-0.31 -0.77,-0.94 -1.03,-1.25 0.67,-0.12 2.02,-0.35 2.7,-0.47 0.34,-0.41 1.03,-1.25 1.37,-1.67 0.1,-2.05 0.15,-4.1 0.34,-6.15 2.11,-1.49 2.74,-3.83 2.78,-6.31 m 4.6,11.06 c 0.12,3.37 3.03,-1.39 0,0 m -11.13,17.6 c -1.06,3.08 3.46,-0.44 0,0 z"
     id="path815" />
  <path
     fill="#ff66ff"
     opacity="1"
     d="m 73.47,171.18 c 1.24,-0.9 3.65,-2.47 4.99,-1.13 -0.52,1.63 -3.9,2.36 -4.99,1.13 z"
     id="path817" />
</svg>
