<?xml version="1.0" encoding="UTF-8" ?>
<!DOCTYPE svg PUBLIC "-//W3C//DTD SVG 1.1//EN" "http://www.w3.org/Graphics/SVG/1.1/DTD/svg11.dtd">
<svg width="653pt" height="637pt" viewBox="0 0 653 637" version="1.1" xmlns="http://www.w3.org/2000/svg">
<g id="#ff66ffff">
<path fill="#ff66ff" opacity="1.00" d=" M 221.46 96.61 C 226.90 95.43 232.01 98.68 236.24 101.74 C 249.64 112.02 262.99 122.38 276.37 132.69 C 279.48 135.24 282.76 138.10 283.93 142.10 C 284.54 145.38 283.72 149.79 280.18 151.07 C 275.32 153.14 270.49 150.03 266.46 147.58 C 252.35 138.43 238.31 129.16 224.23 119.96 C 220.15 117.17 215.85 114.08 213.63 109.52 C 211.25 103.92 216.21 98.08 221.46 96.61 Z" />
<path fill="#ff66ff" opacity="1.00" d=" M 379.86 180.86 C 392.02 172.43 407.47 170.12 421.96 171.61 C 435.00 172.90 447.64 178.63 456.86 188.00 C 462.15 193.54 465.51 201.28 464.31 209.03 C 463.89 213.54 461.01 217.96 456.59 219.43 C 452.70 220.65 448.18 221.25 444.42 219.31 C 441.25 217.55 439.88 214.03 437.95 211.17 C 432.81 203.21 423.55 198.19 414.09 198.13 C 406.89 197.83 398.98 199.39 393.84 204.83 C 388.13 210.64 386.72 219.20 386.58 227.03 C 386.46 234.23 388.30 241.62 392.60 247.47 C 399.35 256.08 408.75 261.91 417.05 268.85 C 426.39 276.46 436.43 284.08 441.94 295.12 C 448.21 307.34 448.13 321.99 444.17 334.92 C 438.79 352.01 423.41 365.15 405.90 368.51 C 391.06 371.35 375.02 370.27 361.42 363.32 C 351.19 357.92 342.13 348.94 339.40 337.39 C 337.89 330.81 337.49 323.60 340.21 317.28 C 343.32 310.06 353.03 307.99 359.76 310.96 C 366.40 314.57 367.31 322.97 367.59 329.74 C 372.07 335.25 377.93 339.98 384.92 341.77 C 393.67 343.91 403.86 342.04 410.16 335.27 C 415.72 329.85 417.81 321.36 415.89 313.90 C 414.02 307.31 409.00 302.23 403.66 298.22 C 391.10 287.94 377.06 278.86 367.82 265.20 C 356.78 249.70 353.74 229.27 358.69 211.00 C 361.81 198.82 369.54 187.99 379.86 180.86 Z" />
</g>
</svg>
