<?xml version="1.0" encoding="UTF-8" ?>
<!DOCTYPE svg PUBLIC "-//W3C//DTD SVG 1.1//EN" "http://www.w3.org/Graphics/SVG/1.1/DTD/svg11.dtd">
<svg width="1456pt" height="237pt" viewBox="0 0 1456 237" version="1.1" xmlns="http://www.w3.org/2000/svg">
<g id="#0070c0ff">
<path fill="#0070c0" opacity="1.00" d=" M 291.84 42.86 C 293.36 41.11 295.86 41.30 297.96 41.23 C 312.27 41.32 326.58 41.16 340.89 41.30 C 344.03 41.06 346.79 43.88 346.37 47.03 C 346.41 68.14 346.32 89.26 346.41 110.37 C 351.62 103.54 356.30 96.32 361.26 89.31 C 363.16 86.65 365.04 82.90 368.88 83.18 C 384.90 83.04 400.93 83.19 416.95 83.11 C 419.35 83.19 422.33 82.77 423.95 84.99 C 426.11 87.10 425.13 90.35 423.38 92.37 C 413.65 105.07 403.97 117.83 394.17 130.48 C 404.39 146.97 414.81 163.33 425.11 179.77 C 426.45 181.75 427.07 184.49 425.46 186.52 C 424.00 188.55 421.23 188.47 419.00 188.52 C 402.34 188.46 385.68 188.53 369.02 188.49 C 366.75 188.59 364.40 187.76 363.33 185.64 C 357.57 175.74 352.16 165.63 346.39 155.74 C 346.28 165.14 346.53 174.56 346.28 183.97 C 346.29 187.20 342.83 188.83 339.99 188.50 C 325.01 188.43 310.01 188.64 295.04 188.40 C 291.75 188.42 289.96 184.98 290.26 182.05 C 290.24 137.38 290.26 92.70 290.25 48.02 C 290.29 46.22 290.35 44.14 291.84 42.86 M 300.25 51.25 C 300.25 93.67 300.25 136.08 300.25 178.50 C 312.29 178.49 324.33 178.50 336.37 178.50 C 336.38 165.35 336.37 152.19 336.37 139.04 C 336.35 137.00 336.60 134.69 338.40 133.40 C 340.94 131.15 345.04 132.55 346.43 135.43 C 354.59 149.75 362.57 164.16 370.70 178.50 C 384.64 178.49 398.58 178.51 412.52 178.49 C 403.92 164.78 395.30 151.08 386.67 137.39 C 385.42 135.33 383.88 133.39 383.16 131.07 C 382.77 129.12 383.98 127.44 385.08 125.98 C 393.47 115.04 401.85 104.09 410.23 93.13 C 397.10 93.11 383.97 93.15 370.84 93.11 C 362.77 104.64 354.76 116.21 346.71 127.75 C 345.48 129.69 343.47 131.38 341.01 130.99 C 337.96 130.86 336.15 127.72 336.39 124.91 C 336.35 100.36 336.41 75.80 336.36 51.24 C 324.32 51.26 312.29 51.24 300.25 51.25 Z" />
<path fill="#0070c0" opacity="1.00" d=" M 19.27 56.99 C 18.88 53.70 21.55 50.48 24.98 50.80 C 52.62 50.71 80.27 50.74 107.91 50.79 C 122.89 50.82 138.89 55.33 149.08 66.91 C 156.18 74.48 159.58 84.80 160.19 95.01 C 161.26 109.69 158.12 125.65 147.68 136.62 C 138.13 147.15 123.54 151.46 109.69 151.70 C 99.28 151.78 88.86 151.78 78.44 151.70 C 78.25 162.14 78.48 172.59 78.34 183.03 C 78.60 186.01 76.02 188.70 73.02 188.46 C 57.69 188.57 42.35 188.44 27.02 188.52 C 24.96 188.40 22.45 188.76 20.91 187.06 C 19.17 185.59 19.31 183.12 19.24 181.07 C 19.28 139.71 19.22 98.35 19.27 56.99 M 29.25 60.75 C 29.26 100.00 29.25 139.25 29.25 178.50 C 42.29 178.49 55.33 178.50 68.37 178.50 C 68.41 168.03 68.31 157.56 68.41 147.10 C 68.18 144.06 70.92 141.48 73.93 141.78 C 86.12 141.65 98.32 141.87 110.51 141.68 C 121.95 141.41 134.03 137.60 141.55 128.54 C 149.93 118.50 151.39 104.48 149.86 91.93 C 148.77 82.72 143.95 74.04 136.29 68.71 C 126.72 61.88 114.48 60.51 103.02 60.74 C 78.43 60.76 53.84 60.74 29.25 60.75 Z" />
<path fill="#0070c0" opacity="1.00" d=" M 563.07 55.88 C 562.90 52.75 565.97 50.52 568.92 50.78 C 584.64 50.73 600.36 50.73 616.08 50.78 C 619.04 50.49 622.19 52.72 621.96 55.90 C 622.06 84.27 621.96 112.64 622.01 141.01 C 621.90 146.22 621.81 151.51 620.43 156.57 C 617.32 169.92 607.78 182.08 594.57 186.57 C 576.60 192.94 556.83 191.04 538.71 186.25 C 536.18 185.81 533.80 183.79 533.96 181.04 C 533.75 171.33 533.94 161.62 533.88 151.91 C 533.16 151.88 531.73 151.82 531.02 151.79 C 531.95 153.73 532.53 155.83 532.39 158.00 C 532.32 165.32 532.46 172.64 532.33 179.96 C 532.43 182.15 531.01 184.35 528.84 184.92 C 516.29 188.87 503.07 190.24 489.96 190.55 C 473.55 191.10 456.12 189.18 442.13 179.87 C 430.35 172.13 422.93 158.91 421.11 145.07 C 419.08 130.11 420.76 113.61 430.26 101.31 C 439.43 89.38 454.48 83.78 468.99 81.99 C 484.37 80.12 500.93 80.50 514.88 87.98 C 524.69 93.15 531.14 102.94 534.86 113.13 C 538.43 122.15 539.12 131.96 539.29 141.57 C 544.24 143.65 549.64 145.57 555.02 143.82 C 560.33 142.78 563.15 137.09 562.97 132.06 C 563.09 106.67 562.88 81.27 563.07 55.88 M 573.00 60.75 C 572.98 84.51 573.04 108.27 572.97 132.03 C 573.09 139.01 570.10 146.21 564.31 150.33 C 558.42 154.39 550.78 155.05 543.87 153.92 C 543.88 161.69 543.87 169.47 543.87 177.25 C 554.67 179.90 565.87 181.37 576.98 180.28 C 584.72 179.45 592.67 177.62 599.06 172.97 C 607.68 166.11 612.12 154.99 611.97 144.10 C 612.04 116.32 611.98 88.53 612.00 60.75 C 599.00 60.75 586.00 60.75 573.00 60.75 M 465.47 92.66 C 455.00 94.55 444.36 99.10 437.84 107.84 C 430.80 117.22 429.65 129.59 430.66 140.92 C 431.63 151.88 436.32 162.94 445.19 169.79 C 455.03 177.44 467.78 180.08 479.99 180.57 C 494.20 180.89 508.59 180.07 522.38 176.37 C 522.37 171.90 522.37 167.43 522.38 162.96 C 512.23 166.03 501.55 166.83 491.00 166.43 C 485.42 166.02 479.70 165.07 474.78 162.28 C 468.94 159.15 465.54 152.37 465.83 145.85 C 466.34 142.99 469.36 141.70 472.00 141.89 C 491.09 141.84 510.19 141.90 529.29 141.87 C 529.32 129.91 527.68 117.34 520.90 107.17 C 516.87 100.10 509.51 95.57 501.84 93.37 C 490.01 90.12 477.46 90.61 465.47 92.66 M 477.35 151.96 C 484.57 157.62 494.37 156.54 502.96 156.28 C 509.54 155.60 516.42 155.03 522.42 152.01 C 507.40 151.75 492.37 151.84 477.35 151.96 Z" />
<path fill="#0070c0" opacity="1.00" d=" M 70.47 80.75 C 74.58 79.98 78.81 80.49 82.97 80.43 C 90.76 80.47 99.32 81.16 105.60 86.31 C 113.52 93.86 113.20 108.00 105.63 115.68 C 99.18 121.21 90.16 122.28 81.96 122.14 C 78.05 121.97 74.06 122.54 70.20 121.72 C 67.43 120.74 66.86 117.55 66.99 114.98 C 67.05 105.28 66.91 95.59 67.06 85.89 C 66.95 83.66 68.35 81.49 70.47 80.75 M 77.00 90.38 C 77.00 97.62 77.00 104.87 77.00 112.12 C 84.27 112.09 92.35 112.83 98.68 108.56 C 102.84 104.06 102.79 94.01 95.93 92.14 C 89.86 89.98 83.33 90.37 77.00 90.38 Z" />
<path fill="#0070c0" opacity="1.00" d=" M 209.54 81.84 C 227.93 80.03 247.68 80.77 264.27 89.78 C 275.94 95.94 284.27 107.65 286.62 120.60 C 289.90 137.57 287.62 156.71 276.41 170.44 C 265.99 183.45 249.07 189.05 232.96 190.26 C 216.24 191.43 198.49 189.95 183.76 181.30 C 171.71 174.28 163.47 161.70 161.00 148.06 C 158.18 132.29 159.50 114.60 169.52 101.46 C 178.94 89.11 194.56 83.50 209.54 81.84 M 210.52 91.80 C 198.70 93.14 186.26 97.04 178.34 106.43 C 170.32 115.92 168.92 129.12 170.05 141.05 C 171.04 151.92 175.68 162.85 184.44 169.69 C 194.48 177.55 207.55 180.18 220.03 180.59 C 233.47 180.97 247.60 179.43 259.31 172.32 C 268.27 166.92 274.51 157.59 276.61 147.39 C 278.87 136.53 278.67 124.80 274.29 114.48 C 270.68 105.97 263.21 99.60 254.75 96.18 C 240.78 90.67 225.30 90.28 210.52 91.80 Z" />
<path fill="#0070c0" opacity="1.00" d=" M 674.56 81.84 C 692.95 80.03 712.70 80.77 729.28 89.79 C 740.95 95.95 749.26 107.64 751.62 120.58 C 754.91 137.57 752.62 156.74 741.38 170.48 C 730.96 183.47 714.05 189.05 697.95 190.26 C 681.24 191.43 663.49 189.95 648.76 181.31 C 636.73 174.29 628.49 161.73 626.01 148.10 C 623.18 132.33 624.49 114.62 634.51 101.47 C 643.93 89.10 659.57 83.49 674.56 81.84 M 675.59 91.79 C 663.75 93.12 651.30 97.01 643.36 106.40 C 635.56 115.58 634.03 128.33 634.94 139.94 C 635.76 151.40 640.57 163.07 649.96 170.10 C 661.05 178.42 675.40 180.69 688.95 180.64 C 702.24 180.61 716.33 178.39 727.26 170.29 C 735.97 163.93 741.10 153.61 742.40 143.04 C 743.85 131.87 742.98 119.73 736.87 109.97 C 731.23 100.95 721.18 95.73 711.08 93.39 C 699.46 90.77 687.39 90.45 675.59 91.79 Z" />
<path fill="#0070c0" opacity="1.00" d=" M 934.54 92.47 C 941.99 83.20 954.76 79.24 966.26 81.78 C 968.91 82.05 971.59 84.14 971.34 87.04 C 971.38 99.69 971.43 112.34 971.32 124.99 C 971.56 127.82 968.85 130.50 966.02 129.91 C 962.06 129.24 958.06 128.35 954.04 128.91 C 946.96 129.57 941.00 135.07 938.76 141.66 C 936.86 147.22 937.46 153.17 937.37 158.94 C 937.29 167.30 937.53 175.68 937.28 184.04 C 937.25 186.78 934.47 188.65 931.91 188.46 C 917.60 188.57 903.29 188.44 888.98 188.52 C 886.91 188.41 884.40 188.75 882.88 187.03 C 881.14 185.54 881.31 183.07 881.24 181.00 C 881.27 150.65 881.25 120.29 881.25 89.93 C 881.28 88.14 881.33 86.10 882.76 84.79 C 884.30 82.98 886.85 83.17 889.00 83.11 C 901.68 83.14 914.36 83.13 927.05 83.11 C 929.12 83.18 931.62 83.05 933.10 84.82 C 935.07 86.84 934.30 89.93 934.54 92.47 M 947.32 94.36 C 940.93 98.48 937.26 105.42 934.21 112.14 C 932.21 116.25 925.08 115.20 924.65 110.54 C 924.26 104.75 924.62 98.92 924.49 93.12 C 913.41 93.13 902.33 93.12 891.25 93.13 C 891.25 121.59 891.25 150.04 891.25 178.50 C 903.29 178.49 915.33 178.50 927.38 178.50 C 927.42 168.70 927.28 158.90 927.44 149.11 C 927.61 140.38 931.08 131.58 937.75 125.79 C 944.04 119.98 953.03 117.98 961.38 119.00 C 961.37 109.67 961.39 100.34 961.37 91.01 C 956.50 90.94 951.45 91.61 947.32 94.36 Z" />
<path fill="#0070c0" opacity="1.00" d=" M 1029.28 89.77 C 1038.06 82.59 1049.97 80.06 1061.09 81.38 C 1071.31 82.07 1082.19 86.01 1087.95 94.97 C 1093.71 103.09 1094.39 113.38 1094.13 123.01 C 1094.09 143.03 1094.18 163.04 1094.09 183.06 C 1094.32 185.91 1091.93 188.57 1089.03 188.44 C 1074.01 188.57 1058.99 188.47 1043.97 188.49 C 1040.85 188.89 1037.77 186.37 1038.04 183.14 C 1037.93 169.10 1038.04 155.06 1038.00 141.02 C 1037.73 134.26 1038.74 127.37 1037.05 120.73 C 1035.51 120.81 1033.99 120.93 1032.48 121.08 C 1031.94 124.03 1031.60 127.01 1031.62 130.00 C 1031.60 147.69 1031.66 165.37 1031.60 183.05 C 1031.97 186.19 1029.07 188.81 1026.00 188.47 C 1011.01 188.51 996.00 188.54 981.01 188.46 C 977.95 188.72 975.37 185.97 975.66 182.96 C 975.57 151.99 975.66 121.01 975.61 90.03 C 975.68 88.29 975.57 86.27 976.92 84.93 C 978.32 83.09 980.86 83.19 982.95 83.11 C 995.96 83.14 1008.97 83.13 1021.99 83.12 C 1023.83 83.18 1025.96 83.13 1027.42 84.50 C 1029.02 85.76 1028.93 87.95 1029.28 89.77 M 1035.04 98.03 C 1032.04 100.60 1030.47 104.28 1028.46 107.57 C 1026.36 111.10 1020.14 109.94 1019.37 105.94 C 1018.83 101.69 1019.23 97.39 1019.13 93.13 C 1007.96 93.12 996.79 93.13 985.63 93.12 C 985.62 121.58 985.62 150.04 985.62 178.50 C 997.62 178.50 1009.62 178.49 1021.62 178.50 C 1021.64 162.32 1021.59 146.14 1021.64 129.96 C 1021.77 125.05 1021.79 119.73 1024.58 115.47 C 1029.32 109.30 1039.98 109.01 1044.87 115.16 C 1047.61 118.80 1047.90 123.57 1048.00 127.96 C 1048.01 144.81 1047.99 161.65 1048.00 178.50 C 1060.04 178.50 1072.08 178.50 1084.12 178.50 C 1084.13 160.33 1084.12 142.17 1084.13 124.01 C 1084.18 116.02 1084.45 107.28 1079.65 100.42 C 1075.40 93.99 1067.30 91.85 1060.04 91.29 C 1051.32 90.33 1041.73 92.01 1035.04 98.03 Z" />
<path fill="#0070c0" opacity="1.00" d=" M 1145.04 81.99 C 1160.38 80.12 1176.89 80.50 1190.82 87.95 C 1199.98 92.72 1206.20 101.60 1210.03 110.96 C 1214.98 122.59 1215.60 135.49 1215.10 147.95 C 1214.62 151.87 1210.10 152.16 1207.02 151.88 C 1208.96 155.27 1208.28 159.25 1208.38 162.97 C 1208.30 168.66 1208.48 174.35 1208.32 180.04 C 1208.39 182.20 1206.99 184.34 1204.87 184.91 C 1190.07 189.56 1174.42 190.67 1158.99 190.62 C 1143.23 190.42 1126.53 187.22 1114.13 176.85 C 1103.97 168.55 1098.17 155.85 1096.83 142.95 C 1095.25 128.41 1097.26 112.52 1106.67 100.79 C 1115.91 89.19 1130.72 83.75 1145.04 81.99 M 1143.90 92.25 C 1132.59 93.91 1120.90 98.41 1113.85 107.83 C 1106.80 117.20 1105.65 129.57 1106.66 140.90 C 1107.61 151.62 1112.09 162.44 1120.62 169.33 C 1130.25 177.14 1142.91 179.92 1155.05 180.54 C 1169.57 180.95 1184.29 180.14 1198.38 176.37 C 1198.37 171.90 1198.37 167.43 1198.38 162.96 C 1188.25 166.02 1177.59 166.83 1167.06 166.43 C 1160.54 165.96 1153.69 164.74 1148.37 160.69 C 1144.02 157.15 1141.59 151.44 1141.83 145.87 C 1142.32 143.01 1145.34 141.70 1147.99 141.89 C 1167.09 141.84 1186.19 141.90 1205.28 141.87 C 1205.21 133.06 1204.56 124.06 1201.26 115.80 C 1198.20 107.69 1192.93 99.91 1184.86 96.13 C 1172.21 89.99 1157.51 90.35 1143.90 92.25 M 1153.35 151.96 C 1157.72 155.54 1163.57 156.38 1169.05 156.51 C 1179.24 156.60 1189.74 155.88 1199.26 151.92 C 1183.95 151.87 1168.65 151.78 1153.35 151.96 Z" />
<path fill="#0070c0" opacity="1.00" d=" M 1352.06 84.61 C 1373.59 79.03 1396.25 80.68 1417.78 85.33 C 1419.81 85.85 1421.24 87.90 1421.20 89.98 C 1421.34 97.65 1421.17 105.33 1421.27 113.01 C 1421.21 115.21 1421.44 117.91 1419.45 119.38 C 1417.60 121.00 1415.04 120.54 1412.95 119.83 C 1401.68 116.23 1389.58 113.91 1377.78 115.88 C 1388.52 118.09 1399.83 118.43 1409.95 123.04 C 1416.25 125.92 1422.28 130.25 1425.39 136.62 C 1429.88 145.86 1429.63 157.06 1425.33 166.31 C 1420.61 176.06 1410.93 182.42 1400.99 185.95 C 1381.42 192.71 1360.15 191.26 1340.15 187.39 C 1336.24 186.49 1332.22 185.90 1328.47 184.47 C 1325.79 183.02 1325.97 179.62 1325.98 177.01 C 1326.11 168.98 1325.80 160.94 1326.12 152.93 C 1326.11 149.49 1330.03 147.00 1333.11 148.57 C 1345.90 155.24 1361.01 158.29 1375.25 155.36 C 1366.37 153.25 1357.25 152.17 1348.49 149.59 C 1340.91 147.05 1333.40 143.03 1328.65 136.42 C 1324.09 129.66 1322.79 121.15 1323.72 113.17 C 1316.36 136.59 1308.97 160.01 1301.50 183.40 C 1298.82 190.27 1296.36 197.28 1292.74 203.73 C 1286.79 213.87 1277.77 222.75 1266.32 226.25 C 1250.25 231.31 1233.14 228.60 1216.92 225.82 C 1214.42 225.65 1212.28 223.56 1212.24 221.04 C 1211.95 213.03 1212.23 205.00 1212.11 196.98 C 1212.17 194.60 1211.92 191.68 1214.03 190.05 C 1216.60 187.79 1220.08 189.56 1223.01 189.96 C 1228.17 190.74 1233.92 191.37 1238.73 188.88 C 1241.43 187.56 1239.96 184.34 1239.58 182.12 C 1237.50 174.67 1234.18 167.66 1231.73 160.34 C 1223.41 137.25 1214.95 114.21 1206.56 91.15 C 1205.84 89.19 1205.52 86.80 1206.97 85.09 C 1208.61 82.98 1211.51 83.15 1213.91 83.10 C 1228.61 83.19 1243.31 83.04 1258.01 83.18 C 1260.54 83.07 1263.04 84.73 1263.42 87.35 C 1265.87 98.72 1268.06 110.16 1270.44 121.55 C 1273.13 110.15 1274.83 98.53 1277.36 87.10 C 1277.81 84.54 1280.42 83.02 1282.90 83.17 C 1296.96 83.08 1311.02 83.14 1325.08 83.14 C 1327.94 82.91 1331.20 84.64 1331.35 87.79 C 1330.69 92.81 1328.50 97.48 1327.19 102.34 C 1332.23 93.01 1342.13 87.41 1352.06 84.61 M 1361.50 92.79 C 1352.45 94.17 1342.89 97.58 1337.15 105.08 C 1331.08 114.46 1331.92 129.77 1342.35 135.76 C 1349.68 140.70 1358.65 141.72 1367.10 143.49 C 1372.59 144.70 1378.70 145.00 1383.25 148.70 C 1386.44 151.21 1387.79 156.07 1385.45 159.60 C 1382.48 164.55 1376.24 165.52 1371.02 166.21 C 1359.13 167.28 1347.14 165.15 1336.00 161.01 C 1335.99 166.08 1335.99 171.15 1336.00 176.22 C 1349.38 179.42 1363.18 181.14 1376.94 180.50 C 1388.25 179.55 1400.10 177.38 1409.32 170.30 C 1419.14 163.61 1421.64 148.57 1415.13 138.83 C 1408.92 131.57 1398.98 129.39 1389.96 128.03 C 1383.39 126.60 1376.32 126.84 1370.21 123.78 C 1366.72 122.12 1364.36 117.84 1365.86 114.08 C 1367.00 109.50 1371.51 106.66 1375.97 106.04 C 1387.73 103.97 1399.80 105.84 1411.26 108.79 C 1411.24 103.95 1411.25 99.10 1411.24 94.25 C 1394.92 90.94 1377.96 89.78 1361.50 92.79 M 1217.91 93.13 C 1226.34 116.31 1234.84 139.46 1243.19 162.67 C 1246.02 170.34 1249.72 177.90 1250.32 186.18 C 1250.51 190.89 1247.63 195.34 1243.57 197.58 C 1237.11 201.33 1229.27 200.81 1222.12 200.09 C 1222.13 205.59 1222.12 211.09 1222.13 216.59 C 1232.99 218.48 1244.08 219.88 1255.10 218.56 C 1261.63 217.69 1268.20 215.62 1273.35 211.37 C 1280.62 205.68 1285.44 197.47 1288.60 188.90 C 1292.26 180.43 1294.74 171.54 1297.61 162.79 C 1304.96 139.57 1312.30 116.35 1319.65 93.13 C 1308.53 93.12 1297.40 93.13 1286.28 93.13 C 1282.74 111.33 1279.33 129.57 1275.67 147.75 C 1275.08 151.16 1270.79 152.77 1267.93 151.04 C 1266.09 150.08 1265.59 147.94 1265.21 146.09 C 1261.65 128.43 1258.06 110.78 1254.48 93.13 C 1242.29 93.12 1230.10 93.12 1217.91 93.13 Z" />
<path fill="#0070c0" opacity="1.00" d=" M 756.94 84.93 C 758.32 83.06 760.89 83.20 762.97 83.11 C 777.36 83.18 791.75 83.04 806.14 83.18 C 808.90 83.01 811.71 85.22 811.58 88.11 C 811.71 106.39 811.55 124.68 811.65 142.96 C 811.82 145.58 811.59 148.46 812.95 150.81 C 814.23 151.12 815.52 151.09 816.81 150.72 C 817.91 148.65 817.97 146.23 818.02 143.95 C 817.97 126.30 818.03 108.64 817.98 90.99 C 818.03 88.81 817.78 86.20 819.63 84.62 C 821.29 82.95 823.82 83.18 825.99 83.11 C 840.02 83.17 854.05 83.08 868.08 83.15 C 870.33 83.06 872.81 84.03 873.70 86.27 C 874.37 88.79 874.07 91.45 874.14 94.04 C 874.08 123.71 874.18 153.39 874.09 183.06 C 874.33 185.94 871.89 188.60 868.97 188.44 C 855.31 188.59 841.65 188.43 828.00 188.52 C 825.96 188.44 823.53 188.66 822.05 186.98 C 820.71 185.72 820.74 183.76 820.34 182.11 C 812.36 188.29 802.12 191.22 792.09 190.56 C 782.43 190.31 772.15 187.93 765.12 180.89 C 758.34 174.12 755.63 164.32 755.67 154.95 C 755.55 133.63 755.69 112.31 755.60 90.99 C 755.68 88.94 755.40 86.56 756.94 84.93 M 765.63 93.12 C 765.63 113.75 765.59 134.38 765.65 155.01 C 765.63 161.55 767.18 168.44 771.71 173.39 C 776.60 178.68 784.17 180.06 791.04 180.50 C 799.81 181.27 809.44 179.13 815.71 172.61 C 818.32 170.06 819.52 166.52 821.73 163.69 C 824.13 160.55 829.96 162.24 830.39 166.17 C 830.68 170.27 830.42 174.39 830.50 178.50 C 841.71 178.50 852.91 178.50 864.12 178.49 C 864.12 150.04 864.13 121.58 864.12 93.13 C 852.08 93.12 840.04 93.13 828.00 93.12 C 827.99 109.75 828.01 126.39 827.99 143.02 C 827.90 147.50 827.67 152.32 825.15 156.20 C 820.37 162.50 809.52 162.64 804.66 156.38 C 801.81 152.18 801.81 146.86 801.64 141.99 C 801.60 125.70 801.63 109.41 801.63 93.13 C 789.63 93.12 777.63 93.13 765.63 93.12 Z" />
<path fill="#0070c0" opacity="1.00" d=" M 479.45 103.53 C 485.37 102.08 492.06 104.53 495.47 109.62 C 498.74 114.74 499.53 121.03 499.43 126.99 C 499.35 129.35 497.38 131.66 494.94 131.67 C 487.28 131.88 479.62 131.68 471.97 131.76 C 469.64 131.91 466.82 131.29 465.94 128.82 C 463.84 118.89 468.37 105.62 479.45 103.53 M 479.74 113.70 C 476.96 115.38 476.29 118.82 475.52 121.72 C 480.11 121.77 484.70 121.76 489.29 121.74 C 488.66 119.00 488.27 115.89 486.11 113.87 C 484.22 112.73 481.70 112.80 479.74 113.70 Z" />
<path fill="#0070c0" opacity="1.00" d=" M 1155.44 103.53 C 1161.35 102.08 1168.03 104.51 1171.45 109.59 C 1174.73 114.72 1175.53 121.01 1175.43 126.98 C 1175.38 129.75 1172.79 132.03 1170.04 131.73 C 1162.05 131.73 1154.06 131.85 1146.08 131.67 C 1142.16 131.66 1141.00 127.23 1141.47 124.04 C 1141.30 115.31 1146.09 105.19 1155.44 103.53 M 1155.71 113.72 C 1152.95 115.41 1152.28 118.82 1151.52 121.72 C 1156.11 121.77 1160.70 121.76 1165.30 121.74 C 1164.65 119.00 1164.26 115.90 1162.11 113.88 C 1160.21 112.72 1157.67 112.79 1155.71 113.72 Z" />
<path fill="#0070c0" opacity="1.00" d=" M 218.43 109.52 C 224.30 107.15 231.89 109.08 235.29 114.59 C 238.30 119.84 238.73 126.10 238.92 132.03 C 239.03 140.41 239.20 149.43 235.12 157.01 C 230.35 165.23 216.90 165.11 212.32 156.75 C 207.78 147.56 208.57 136.86 208.97 126.91 C 209.57 120.27 211.31 112.04 218.43 109.52 M 221.31 119.15 C 219.62 120.93 219.62 123.71 219.11 126.02 C 218.49 134.20 218.06 142.70 220.42 150.66 C 220.94 154.01 226.27 154.15 227.09 150.92 C 228.77 146.16 228.95 141.02 229.01 136.01 C 228.91 130.87 229.02 125.58 227.25 120.67 C 226.54 118.19 223.20 117.99 221.31 119.15 Z" />
<path fill="#0070c0" opacity="1.00" d=" M 683.39 109.54 C 689.03 107.25 696.26 108.90 699.87 113.95 C 702.28 117.48 703.00 121.82 703.58 125.97 C 704.20 134.27 704.38 142.72 702.52 150.89 C 701.74 154.21 700.33 157.52 697.76 159.84 C 693.62 163.43 687.24 164.29 682.42 161.58 C 678.67 159.71 676.36 155.88 675.37 151.93 C 673.15 143.16 673.44 133.99 674.16 125.05 C 674.90 118.98 676.95 111.78 683.39 109.54 M 686.32 119.14 C 684.34 121.50 684.36 125.01 683.91 127.96 C 683.59 135.74 683.05 143.89 685.70 151.35 C 686.67 154.19 691.42 153.78 692.10 150.91 C 694.61 143.20 694.13 134.89 693.63 126.90 C 693.13 124.18 693.09 120.93 690.97 118.90 C 689.46 118.40 687.70 118.23 686.32 119.14 Z" />
</g>
<g id="#ffff00ff">
<path fill="#ffff00" opacity="1.00" d=" M 300.25 51.25 C 312.29 51.24 324.32 51.26 336.36 51.24 C 336.41 75.80 336.35 100.36 336.39 124.91 C 336.15 127.72 337.96 130.86 341.01 130.99 C 343.47 131.38 345.48 129.69 346.71 127.75 C 354.76 116.21 362.77 104.64 370.84 93.11 C 383.97 93.15 397.10 93.11 410.23 93.13 C 401.85 104.09 393.47 115.04 385.08 125.98 C 383.98 127.44 382.77 129.12 383.16 131.07 C 383.88 133.39 385.42 135.33 386.67 137.39 C 395.30 151.08 403.92 164.78 412.52 178.49 C 398.58 178.51 384.64 178.49 370.70 178.50 C 362.57 164.16 354.59 149.75 346.43 135.43 C 345.04 132.55 340.94 131.15 338.40 133.40 C 336.60 134.69 336.35 137.00 336.37 139.04 C 336.37 152.19 336.38 165.35 336.37 178.50 C 324.33 178.50 312.29 178.49 300.25 178.50 C 300.25 136.08 300.25 93.67 300.25 51.25 Z" />
<path fill="#ffff00" opacity="1.00" d=" M 29.25 60.75 C 53.84 60.74 78.43 60.76 103.02 60.74 C 114.48 60.51 126.72 61.88 136.29 68.71 C 143.95 74.04 148.77 82.72 149.86 91.93 C 151.39 104.48 149.93 118.50 141.55 128.54 C 134.03 137.60 121.95 141.41 110.51 141.68 C 98.32 141.87 86.12 141.65 73.93 141.78 C 70.92 141.48 68.18 144.06 68.41 147.10 C 68.31 157.56 68.41 168.03 68.37 178.50 C 55.33 178.50 42.29 178.49 29.25 178.50 C 29.25 139.25 29.26 100.00 29.25 60.75 M 70.47 80.75 C 68.35 81.49 66.95 83.66 67.06 85.89 C 66.91 95.59 67.05 105.28 66.99 114.98 C 66.86 117.55 67.43 120.74 70.20 121.72 C 74.06 122.54 78.05 121.97 81.96 122.14 C 90.16 122.28 99.18 121.21 105.63 115.68 C 113.20 108.00 113.52 93.86 105.60 86.31 C 99.32 81.16 90.76 80.47 82.97 80.43 C 78.81 80.49 74.58 79.98 70.47 80.75 Z" />
<path fill="#ffff00" opacity="1.00" d=" M 573.00 60.75 C 586.00 60.75 599.00 60.75 612.00 60.75 C 611.98 88.53 612.04 116.32 611.97 144.10 C 612.12 154.99 607.68 166.11 599.06 172.97 C 592.67 177.62 584.72 179.45 576.98 180.28 C 565.87 181.37 554.67 179.90 543.87 177.25 C 543.87 169.47 543.88 161.69 543.87 153.92 C 550.78 155.05 558.42 154.39 564.31 150.33 C 570.10 146.21 573.09 139.01 572.97 132.03 C 573.04 108.27 572.98 84.51 573.00 60.75 Z" />
<path fill="#ffff00" opacity="1.00" d=" M 210.52 91.80 C 225.30 90.28 240.78 90.67 254.75 96.18 C 263.21 99.60 270.68 105.97 274.29 114.48 C 278.67 124.80 278.87 136.53 276.61 147.39 C 274.51 157.59 268.27 166.92 259.31 172.32 C 247.60 179.43 233.47 180.97 220.03 180.59 C 207.55 180.18 194.48 177.55 184.44 169.69 C 175.68 162.85 171.04 151.92 170.05 141.05 C 168.92 129.12 170.32 115.92 178.34 106.43 C 186.26 97.04 198.70 93.14 210.52 91.80 M 218.43 109.52 C 211.31 112.04 209.57 120.27 208.97 126.91 C 208.57 136.86 207.78 147.56 212.32 156.75 C 216.90 165.11 230.35 165.23 235.12 157.01 C 239.20 149.43 239.03 140.41 238.92 132.03 C 238.73 126.10 238.30 119.84 235.29 114.59 C 231.89 109.08 224.30 107.15 218.43 109.52 Z" />
<path fill="#ffff00" opacity="1.00" d=" M 465.47 92.66 C 477.46 90.61 490.01 90.12 501.84 93.37 C 509.51 95.57 516.87 100.10 520.90 107.17 C 527.68 117.34 529.32 129.91 529.29 141.87 C 510.19 141.90 491.09 141.84 472.00 141.89 C 469.36 141.70 466.34 142.99 465.83 145.85 C 465.54 152.37 468.94 159.15 474.78 162.28 C 479.70 165.07 485.42 166.02 491.00 166.43 C 501.55 166.83 512.23 166.03 522.38 162.96 C 522.37 167.43 522.37 171.90 522.38 176.37 C 508.59 180.07 494.20 180.89 479.99 180.57 C 467.78 180.08 455.03 177.44 445.19 169.79 C 436.32 162.94 431.63 151.88 430.66 140.92 C 429.65 129.59 430.80 117.22 437.84 107.84 C 444.36 99.10 455.00 94.55 465.47 92.66 M 479.45 103.53 C 468.37 105.62 463.84 118.89 465.94 128.82 C 466.82 131.29 469.64 131.91 471.97 131.76 C 479.62 131.68 487.28 131.88 494.94 131.67 C 497.38 131.66 499.35 129.35 499.43 126.99 C 499.53 121.03 498.74 114.74 495.47 109.62 C 492.06 104.53 485.37 102.08 479.45 103.53 Z" />
<path fill="#ffff00" opacity="1.00" d=" M 675.59 91.79 C 687.39 90.45 699.46 90.77 711.08 93.39 C 721.18 95.73 731.23 100.95 736.87 109.97 C 742.98 119.73 743.85 131.87 742.40 143.04 C 741.10 153.61 735.97 163.93 727.26 170.29 C 716.33 178.39 702.24 180.61 688.95 180.64 C 675.40 180.69 661.05 178.42 649.96 170.10 C 640.57 163.07 635.76 151.40 634.94 139.94 C 634.03 128.33 635.56 115.58 643.36 106.40 C 651.30 97.01 663.75 93.12 675.59 91.79 M 683.39 109.54 C 676.95 111.78 674.90 118.98 674.16 125.05 C 673.44 133.99 673.15 143.16 675.37 151.93 C 676.36 155.88 678.67 159.71 682.42 161.58 C 687.24 164.29 693.62 163.43 697.76 159.84 C 700.33 157.52 701.74 154.21 702.52 150.89 C 704.38 142.72 704.20 134.27 703.58 125.97 C 703.00 121.82 702.28 117.48 699.87 113.95 C 696.26 108.90 689.03 107.25 683.39 109.54 Z" />
<path fill="#ffff00" opacity="1.00" d=" M 947.32 94.36 C 951.45 91.61 956.50 90.94 961.37 91.01 C 961.39 100.34 961.37 109.67 961.38 119.00 C 953.03 117.98 944.04 119.98 937.75 125.79 C 931.08 131.58 927.61 140.38 927.44 149.11 C 927.28 158.90 927.42 168.70 927.38 178.50 C 915.33 178.50 903.29 178.49 891.25 178.50 C 891.25 150.04 891.25 121.59 891.25 93.13 C 902.33 93.12 913.41 93.13 924.49 93.12 C 924.62 98.92 924.26 104.75 924.65 110.54 C 925.08 115.20 932.21 116.25 934.21 112.14 C 937.26 105.42 940.93 98.48 947.32 94.36 Z" />
<path fill="#ffff00" opacity="1.00" d=" M 1035.04 98.03 C 1041.73 92.01 1051.32 90.33 1060.04 91.29 C 1067.30 91.85 1075.40 93.99 1079.65 100.42 C 1084.45 107.28 1084.18 116.02 1084.13 124.01 C 1084.12 142.17 1084.13 160.33 1084.12 178.50 C 1072.08 178.50 1060.04 178.50 1048.00 178.50 C 1047.99 161.65 1048.01 144.81 1048.00 127.96 C 1047.90 123.57 1047.61 118.80 1044.87 115.16 C 1039.98 109.01 1029.32 109.30 1024.58 115.47 C 1021.79 119.73 1021.77 125.05 1021.64 129.96 C 1021.59 146.14 1021.64 162.32 1021.62 178.50 C 1009.62 178.49 997.62 178.50 985.62 178.50 C 985.62 150.04 985.62 121.58 985.63 93.12 C 996.79 93.13 1007.96 93.12 1019.13 93.13 C 1019.23 97.39 1018.83 101.69 1019.37 105.94 C 1020.14 109.94 1026.36 111.10 1028.46 107.57 C 1030.47 104.28 1032.04 100.60 1035.04 98.03 Z" />
<path fill="#ffff00" opacity="1.00" d=" M 1143.90 92.25 C 1157.51 90.35 1172.21 89.99 1184.86 96.13 C 1192.93 99.91 1198.20 107.69 1201.26 115.80 C 1204.56 124.06 1205.21 133.06 1205.28 141.87 C 1186.19 141.90 1167.09 141.84 1147.99 141.89 C 1145.34 141.70 1142.32 143.01 1141.83 145.87 C 1141.59 151.44 1144.02 157.15 1148.37 160.69 C 1153.69 164.74 1160.54 165.96 1167.06 166.43 C 1177.59 166.83 1188.25 166.02 1198.38 162.96 C 1198.37 167.43 1198.37 171.90 1198.38 176.37 C 1184.29 180.14 1169.57 180.95 1155.05 180.54 C 1142.91 179.92 1130.25 177.14 1120.62 169.33 C 1112.09 162.44 1107.61 151.62 1106.66 140.90 C 1105.65 129.57 1106.80 117.20 1113.85 107.83 C 1120.90 98.41 1132.59 93.91 1143.90 92.25 M 1155.44 103.53 C 1146.09 105.19 1141.30 115.31 1141.47 124.04 C 1141.00 127.23 1142.16 131.66 1146.08 131.67 C 1154.06 131.85 1162.05 131.73 1170.04 131.73 C 1172.79 132.03 1175.38 129.75 1175.43 126.98 C 1175.53 121.01 1174.73 114.72 1171.45 109.59 C 1168.03 104.51 1161.35 102.08 1155.44 103.53 Z" />
<path fill="#ffff00" opacity="1.00" d=" M 1361.50 92.79 C 1377.96 89.78 1394.92 90.94 1411.24 94.25 C 1411.25 99.10 1411.24 103.95 1411.26 108.79 C 1399.80 105.84 1387.73 103.97 1375.97 106.04 C 1371.51 106.66 1367.00 109.50 1365.86 114.08 C 1364.36 117.84 1366.72 122.12 1370.21 123.78 C 1376.32 126.84 1383.39 126.60 1389.96 128.03 C 1398.98 129.39 1408.92 131.57 1415.13 138.83 C 1421.64 148.57 1419.14 163.61 1409.32 170.30 C 1400.10 177.38 1388.25 179.55 1376.94 180.50 C 1363.18 181.14 1349.38 179.42 1336.00 176.22 C 1335.99 171.15 1335.99 166.08 1336.00 161.01 C 1347.14 165.15 1359.13 167.28 1371.02 166.21 C 1376.24 165.52 1382.48 164.55 1385.45 159.60 C 1387.79 156.07 1386.44 151.21 1383.25 148.70 C 1378.70 145.00 1372.59 144.70 1367.10 143.49 C 1358.65 141.72 1349.68 140.70 1342.35 135.76 C 1331.92 129.77 1331.08 114.46 1337.15 105.08 C 1342.89 97.58 1352.45 94.17 1361.50 92.79 Z" />
<path fill="#ffff00" opacity="1.00" d=" M 765.63 93.12 C 777.63 93.13 789.63 93.12 801.63 93.13 C 801.63 109.41 801.60 125.70 801.64 141.99 C 801.81 146.86 801.81 152.18 804.66 156.38 C 809.52 162.64 820.37 162.50 825.15 156.20 C 827.67 152.32 827.90 147.50 827.99 143.02 C 828.01 126.39 827.99 109.75 828.00 93.12 C 840.04 93.13 852.08 93.12 864.12 93.13 C 864.13 121.58 864.12 150.04 864.12 178.49 C 852.91 178.50 841.71 178.50 830.50 178.50 C 830.42 174.39 830.68 170.27 830.39 166.17 C 829.96 162.24 824.13 160.55 821.73 163.69 C 819.52 166.52 818.32 170.06 815.71 172.61 C 809.44 179.13 799.81 181.27 791.04 180.50 C 784.17 180.06 776.60 178.68 771.71 173.39 C 767.18 168.44 765.63 161.55 765.65 155.01 C 765.59 134.38 765.63 113.75 765.63 93.12 Z" />
<path fill="#ffff00" opacity="1.00" d=" M 1217.91 93.13 C 1230.10 93.12 1242.29 93.12 1254.48 93.13 C 1258.06 110.78 1261.65 128.43 1265.21 146.09 C 1265.59 147.94 1266.09 150.08 1267.93 151.04 C 1270.79 152.77 1275.08 151.16 1275.67 147.75 C 1279.33 129.57 1282.74 111.33 1286.28 93.13 C 1297.40 93.13 1308.53 93.12 1319.65 93.13 C 1312.30 116.35 1304.96 139.57 1297.61 162.79 C 1294.74 171.54 1292.26 180.43 1288.60 188.90 C 1285.44 197.47 1280.62 205.68 1273.35 211.37 C 1268.20 215.62 1261.63 217.69 1255.10 218.56 C 1244.08 219.88 1232.99 218.48 1222.13 216.59 C 1222.12 211.09 1222.13 205.59 1222.12 200.09 C 1229.27 200.81 1237.11 201.33 1243.57 197.58 C 1247.63 195.34 1250.51 190.89 1250.32 186.18 C 1249.72 177.90 1246.02 170.34 1243.19 162.67 C 1234.84 139.46 1226.34 116.31 1217.91 93.13 Z" />
</g>
</svg>
