<svg width="2111" height="791" xmlns="http://www.w3.org/2000/svg" xmlns:xlink="http://www.w3.org/1999/xlink" xml:space="preserve" overflow="hidden"><defs><clipPath id="clip0"><rect x="1156" y="1635" width="2111" height="791"/></clipPath></defs><g clip-path="url(#clip0)" transform="translate(-1156 -1635)"><path d="M1839 2195.01C1853.48 2195 1867.94 2195.03 1882.42 2195 1882.48 2228.77 1882.41 2262.55 1882.46 2296.31 1882.17 2300.17 1884.34 2304.49 1888.01 2304.67 1890.97 2305.2 1893.39 2302.88 1894.87 2300.21 1904.55 2284.34 1914.18 2268.43 1923.88 2252.58 1939.67 2252.63 1955.46 2252.58 1971.25 2252.6 1961.17 2267.68 1951.09 2282.73 1941 2297.78 1939.68 2299.79 1938.23 2302.1 1938.7 2304.78 1939.56 2307.97 1941.41 2310.64 1942.92 2313.47 1953.29 2332.29 1963.66 2351.13 1974 2369.99 1957.24 2370.01 1940.48 2369.99 1923.71 2370 1913.94 2350.28 1904.34 2330.46 1894.53 2310.77 1892.86 2306.81 1887.93 2304.89 1884.87 2307.98 1882.71 2309.76 1882.41 2312.93 1882.43 2315.74 1882.43 2333.82 1882.44 2351.92 1882.43 2370 1867.96 2370 1853.48 2369.99 1839 2370 1839 2311.67 1839 2253.35 1839 2195.01Z" fill="#FFFFFF" fill-rule="evenodd"/><path d="M1514 2208.05C1543.64 2208.03 1573.27 2208.06 1602.91 2208.03 1616.72 2207.72 1631.47 2209.6 1643 2218.99 1652.23 2226.33 1658.04 2238.26 1659.36 2250.93 1661.2 2268.19 1659.44 2287.48 1649.34 2301.28 1640.28 2313.75 1625.72 2318.99 1611.93 2319.36 1597.24 2319.62 1582.54 2319.32 1567.85 2319.5 1564.22 2319.08 1560.92 2322.63 1561.19 2326.81 1561.07 2341.2 1561.19 2355.6 1561.15 2370 1545.43 2370 1529.72 2369.99 1514 2370 1514 2316.02 1514.01 2262.03 1514 2208.05M1563.68 2235.55C1561.12 2236.57 1559.44 2239.56 1559.57 2242.62 1559.39 2255.97 1559.56 2269.29 1559.48 2282.63 1559.33 2286.17 1560.01 2290.56 1563.35 2291.9 1568 2293.03 1572.81 2292.25 1577.52 2292.48 1587.41 2292.67 1598.28 2291.2 1606.05 2283.6 1615.17 2273.03 1615.56 2253.59 1606.02 2243.2 1598.45 2236.12 1588.13 2235.17 1578.74 2235.11 1573.73 2235.2 1568.63 2234.5 1563.68 2235.55Z" fill="#FFFFFF" fill-rule="evenodd"/><path d="M2166.63 2208C2182.08 2208 2197.54 2208 2212.99 2208 2212.97 2246.23 2213.04 2284.48 2212.96 2322.71 2213.14 2337.7 2207.86 2353 2197.61 2362.44 2190.01 2368.84 2180.56 2371.36 2171.36 2372.5 2158.15 2374 2144.84 2371.98 2132 2368.33 2132 2357.62 2132.01 2346.92 2132 2336.22 2140.21 2337.78 2149.3 2336.87 2156.3 2331.28 2163.18 2325.61 2166.74 2315.7 2166.59 2306.1 2166.68 2273.4 2166.61 2240.7 2166.63 2208Z" fill="#FFFFFF" fill-rule="evenodd"/><path d="M1731.98 2251.05C1749.72 2248.97 1768.29 2249.5 1785.06 2257.07 1795.21 2261.76 1804.18 2270.5 1808.51 2282.18 1813.77 2296.35 1814.01 2312.45 1811.29 2327.36 1808.77 2341.36 1801.29 2354.16 1790.53 2361.58 1776.48 2371.33 1759.52 2373.45 1743.39 2372.93 1728.41 2372.36 1712.73 2368.75 1700.68 2357.97 1690.17 2348.58 1684.6 2333.57 1683.41 2318.65 1682.05 2302.28 1683.73 2284.16 1693.36 2271.13 1702.86 2258.25 1717.79 2252.89 1731.98 2251.05M1741.47 2275.38C1732.93 2278.83 1730.84 2290.13 1730.12 2299.25 1729.64 2312.9 1728.69 2327.59 1734.14 2340.2 1739.64 2351.68 1755.78 2351.84 1761.5 2340.56 1766.4 2330.16 1766.19 2317.78 1766.06 2306.27 1765.83 2298.13 1765.32 2289.54 1761.71 2282.33 1757.63 2274.77 1748.52 2272.12 1741.47 2275.38Z" fill="#FFFFFF" fill-rule="evenodd"/><path d="M2037.25 2252.24C2051.67 2249.43 2066.76 2248.76 2080.99 2253.22 2090.21 2256.24 2099.06 2262.45 2103.91 2272.16 2112.06 2286.12 2114.04 2303.37 2114 2319.79 2091.03 2319.83 2068.06 2319.75 2045.1 2319.82 2041.92 2319.56 2038.29 2321.33 2037.68 2325.25 2037.33 2334.2 2041.42 2343.51 2048.44 2347.81 2054.36 2351.64 2061.24 2352.94 2067.95 2353.5 2080.64 2354.05 2093.48 2352.95 2105.69 2348.74 2105.68 2354.88 2105.68 2361.01 2105.69 2367.15 2089.1 2372.23 2071.8 2373.35 2054.71 2372.91 2040.02 2372.24 2024.69 2368.62 2012.86 2358.12 2002.19 2348.71 1996.55 2333.53 1995.38 2318.49 1994.17 2302.93 1995.55 2285.95 2004.02 2273.08 2011.86 2261.08 2024.65 2254.84 2037.25 2252.24M2054.06 2267.16C2040.73 2270.03 2035.29 2288.25 2037.81 2301.88 2038.87 2305.27 2042.26 2306.12 2045.06 2305.91 2054.26 2305.8 2063.48 2306.08 2072.69 2305.79 2075.62 2305.78 2077.99 2302.61 2078.09 2299.37 2078.21 2291.18 2077.26 2282.55 2073.33 2275.52 2069.22 2268.54 2061.18 2265.17 2054.06 2267.16Z" fill="#FFFFFF" fill-rule="evenodd"/><path d="M2290.07 2251.06C2304.24 2249.22 2318.73 2249.66 2332.67 2253.26 2344.8 2256.47 2356.86 2263.63 2363.63 2276.01 2370.96 2289.41 2372.01 2306.07 2370.27 2321.4 2368.71 2335.9 2362.55 2350.07 2352.1 2358.79 2338.98 2369.91 2322.06 2372.96 2306.11 2373 2289.85 2373.07 2272.62 2369.95 2259.31 2358.53 2248.04 2348.89 2242.27 2332.87 2241.28 2317.14 2240.19 2301.21 2242.03 2283.71 2251.39 2271.11 2260.92 2258.23 2275.86 2252.89 2290.07 2251.06M2299.44 2275.42C2291.71 2278.5 2289.25 2288.38 2288.36 2296.71 2287.49 2308.98 2287.15 2321.56 2289.81 2333.6 2291 2339.02 2293.77 2344.27 2298.27 2346.84 2304.06 2350.56 2311.72 2349.38 2316.69 2344.45 2319.77 2341.27 2321.46 2336.73 2322.4 2332.17 2324.63 2320.96 2324.42 2309.36 2323.67 2297.97 2322.98 2292.27 2322.11 2286.32 2319.22 2281.47 2314.89 2274.54 2306.21 2272.28 2299.44 2275.42Z" fill="#FFFFFF" fill-rule="evenodd"/><path d="M2615.96 2254.6C2620.96 2250.83 2627.09 2249.91 2632.99 2250.01 2633.01 2262.8 2632.99 2275.6 2633 2288.4 2622.88 2287 2611.98 2289.74 2604.36 2297.71 2596.28 2305.65 2592.07 2317.72 2591.86 2329.69 2591.67 2343.12 2591.84 2356.56 2591.79 2370 2577.19 2370 2562.59 2369.99 2548 2370 2548 2330.97 2548 2291.95 2548 2252.91 2561.43 2252.9 2574.86 2252.91 2588.29 2252.9 2588.45 2260.85 2588.01 2268.85 2588.48 2276.79 2589 2283.18 2597.65 2284.62 2600.07 2278.99 2603.77 2269.77 2608.21 2260.25 2615.96 2254.6Z" fill="#FFFFFF" fill-rule="evenodd"/><path d="M2721.19 2259.59C2729.2 2251.33 2740.68 2249.03 2751.13 2250.35 2759.82 2251.11 2769.52 2254.05 2774.61 2262.87 2780.36 2272.28 2780.04 2284.28 2779.98 2295.24 2779.96 2320.15 2779.98 2345.07 2779.96 2370 2765.55 2370 2751.13 2370 2736.71 2370 2736.69 2346.88 2736.72 2323.78 2736.71 2300.66 2736.59 2294.64 2736.24 2288.09 2732.96 2283.1 2727.1 2274.66 2714.34 2275.06 2708.66 2283.52 2705.32 2289.37 2705.29 2296.67 2705.14 2303.4 2705.08 2325.6 2705.14 2347.8 2705.11 2370 2690.74 2369.99 2676.37 2370 2662 2370 2662 2330.95 2662 2291.9 2662.01 2252.86 2675.38 2252.87 2688.75 2252.86 2702.13 2252.87 2702.25 2258.72 2701.77 2264.62 2702.42 2270.45 2703.34 2275.93 2710.79 2277.53 2713.31 2272.68 2715.71 2268.17 2717.59 2263.12 2721.19 2259.59Z" fill="#FFFFFF" fill-rule="evenodd"/><path d="M2851.79 2251.68C2868.03 2249.08 2885.56 2248.58 2900.65 2257.01 2910.27 2262.2 2916.56 2272.88 2920.21 2284.01 2924.14 2295.34 2924.92 2307.7 2925 2319.79 2902.23 2319.83 2879.45 2319.75 2856.67 2319.82 2853.51 2319.56 2849.91 2321.36 2849.32 2325.28 2849.04 2332.93 2851.94 2340.76 2857.12 2345.62 2863.47 2351.18 2871.64 2352.86 2879.42 2353.5 2891.97 2354.05 2904.69 2352.94 2916.77 2348.74 2916.76 2354.87 2916.76 2361.01 2916.77 2367.14 2899.97 2372.32 2882.41 2373.43 2865.09 2372.87 2850.61 2372.02 2835.51 2368.2 2824.03 2357.48 2813.85 2348.02 2808.51 2333.17 2807.38 2318.46 2806.17 2302.91 2807.54 2285.93 2815.95 2273.07 2824.36 2260.14 2838.3 2253.96 2851.79 2251.68M2865.56 2267.17C2854.41 2269.44 2848.69 2283.33 2848.9 2295.32 2848.33 2299.7 2849.72 2305.78 2854.39 2305.79 2863.91 2306.04 2873.44 2305.87 2882.97 2305.87 2886.25 2306.28 2889.34 2303.16 2889.4 2299.35 2889.52 2291.16 2888.56 2282.53 2884.65 2275.48 2880.57 2268.51 2872.61 2265.18 2865.56 2267.17Z" fill="#FFFFFF" fill-rule="evenodd"/><path d="M3112.62 2252.39C3132.28 2248.26 3152.54 2249.85 3172.04 2254.39 3172.05 2261.05 3172.04 2267.71 3172.06 2274.36 3158.37 2270.31 3143.96 2267.74 3129.91 2270.58 3124.58 2271.43 3119.19 2275.33 3117.83 2281.62 3116.04 2286.78 3118.86 2292.66 3123.03 2294.94 3130.33 2299.14 3138.77 2298.81 3146.62 2300.77 3157.39 2302.64 3169.27 2305.64 3176.69 2315.6 3184.46 2328.98 3181.48 2349.63 3169.75 2358.81 3158.73 2368.53 3144.58 2371.51 3131.07 2372.82 3114.63 2373.7 3098.14 2371.34 3082.16 2366.94 3082.15 2359.98 3082.15 2353.02 3082.16 2346.06 3095.47 2351.74 3109.79 2354.67 3123.99 2353.2 3130.23 2352.25 3137.68 2350.92 3141.23 2344.12 3144.03 2339.27 3142.41 2332.6 3138.6 2329.16 3133.17 2324.07 3125.87 2323.66 3119.31 2322 3109.22 2319.57 3098.5 2318.17 3089.75 2311.39 3077.29 2303.16 3076.28 2282.14 3083.54 2269.26 3090.39 2258.97 3101.81 2254.28 3112.62 2252.39Z" fill="#FFFFFF" fill-rule="evenodd"/><path d="M2398.02 2252C2412.39 2252.01 2426.76 2252 2441.14 2252.01 2441.14 2274.52 2441.1 2297.04 2441.15 2319.56 2441.35 2326.29 2441.35 2333.64 2444.77 2339.45 2450.59 2348.1 2463.59 2347.91 2469.31 2339.2 2472.33 2333.84 2472.61 2327.17 2472.72 2320.98 2472.74 2297.99 2472.72 2274.99 2472.73 2252 2487.15 2252.01 2501.57 2252 2515.99 2252.01 2516.01 2291.34 2515.99 2330.69 2515.99 2370.01 2502.57 2370.03 2489.15 2370.03 2475.72 2370.03 2475.63 2364.35 2475.94 2358.65 2475.59 2352.98 2475.08 2347.55 2468.09 2345.21 2465.22 2349.56 2462.57 2353.47 2461.13 2358.36 2458.01 2361.89 2450.49 2370.9 2438.96 2373.86 2428.45 2372.79 2420.22 2372.19 2411.16 2370.28 2405.3 2362.96 2399.87 2356.12 2398.02 2346.6 2398.04 2337.56 2397.97 2309.04 2398.02 2280.52 2398.02 2252Z" fill="#FFFFFF" fill-rule="evenodd"/><path d="M2940 2252.01C2954.62 2252 2969.23 2252 2983.85 2252.01 2988.15 2276.39 2992.45 2300.77 2996.72 2325.17 2997.17 2327.73 2997.77 2330.68 2999.98 2332.01 3003.41 2334.4 3008.55 2332.18 3009.26 2327.46 3013.65 2302.35 3017.74 2277.15 3021.98 2252.01 3035.32 2252.01 3048.67 2252 3062 2252.01 3053.19 2284.09 3044.38 2316.16 3035.57 2348.24 3032.13 2360.33 3029.16 2372.61 3024.77 2384.31 3020.98 2396.15 3015.2 2407.49 3006.48 2415.35 3000.3 2421.22 2992.43 2424.08 2984.6 2425.28 2971.38 2427.11 2958.08 2425.17 2945.06 2422.56 2945.05 2414.96 2945.06 2407.37 2945.05 2399.77 2953.62 2400.76 2963.02 2401.48 2970.77 2396.3 2975.64 2393.21 2979.09 2387.06 2978.86 2380.55 2978.14 2369.11 2973.71 2358.67 2970.31 2348.08 2960.3 2316.01 2950.11 2284.03 2940 2252.01Z" fill="#FFFFFF" fill-rule="evenodd"/><path d="M1184.04 1635C1192.82 1635.36 1198.9 1640.49 1204.83 1645.5 1201.16 1645.95 1197.49 1646.37 1193.82 1646.69 1197.05 1656.41 1189.19 1665.1 1187.79 1674.5 1185.97 1679.09 1187.23 1685.97 1180.3 1687.68 1180.01 1692.62 1179.78 1697.57 1179.56 1702.54L1185.56 1700.96C1183.15 1704.12 1180.71 1707.26 1178.3 1710.42 1180.38 1710.36 1184.49 1710.23 1186.56 1710.16 1188.6 1714.97 1190.64 1719.79 1192.56 1724.63 1193.27 1732.45 1195.79 1740.3 1201.34 1746.6 1207.49 1755.93 1214.9 1764.56 1222.98 1772.73 1225.94 1770.43 1229.39 1768.92 1233.31 1768.24 1229.87 1772.6 1223.05 1776.6 1229.5 1783.1 1227.57 1782.58 1223.72 1781.58 1221.79 1781.06 1223.31 1785.1 1224.83 1789.14 1226.35 1793.17 1226.76 1791.17 1227.54 1787.2 1227.94 1785.19L1230.98 1785.71 1232.83 1776.34C1233.69 1778.96 1235.46 1784.19 1236.32 1786.78 1238.43 1788.07 1242.65 1790.62 1244.76 1791.91 1256.51 1791.62 1268.29 1792.04 1280.03 1792.11L1279.66 1789.33C1289.25 1787.46 1299.22 1783.58 1309.22 1785.84 1314.63 1786.94 1313.56 1791.95 1314 1795.6 1304.11 1790.2 1292.33 1791.43 1281.36 1792.56 1280.66 1794.01 1279.29 1796.92 1278.58 1798.37 1269.21 1798.47 1259.84 1798.6 1250.47 1798.63 1250.1 1800.73 1249.32 1804.9 1248.95 1807 1255.5 1806.13 1262.1 1805.58 1268.73 1805.38 1262.14 1810.52 1252.84 1807.93 1244.87 1809L1247.17 1804.7 1242.17 1804.7C1242.43 1803.25 1242.95 1800.28 1243.21 1798.79 1230.02 1799.21 1216.83 1798.95 1203.68 1799.15L1206.01 1795.53C1197.97 1791.3 1179.78 1793.14 1183.23 1781.19 1188.49 1782.45 1193.68 1783.9 1198.79 1785.55 1198.79 1782.06 1198.86 1775.05 1198.9 1771.56L1193.27 1774.08 1194.9 1769.92C1190.3 1769.66 1186.53 1767.82 1183.82 1764.72 1183.93 1761.49 1183.9 1758.26 1183.75 1755.03 1177.26 1751.83 1176.86 1744.85 1173.12 1739.88 1165.34 1727.47 1159.07 1714.33 1156 1700.41 1158.52 1701.09 1163.59 1702.51 1166.15 1703.19 1161.45 1696.82 1157.82 1689.91 1156.15 1682.45 1158.67 1682.64 1163.78 1683.03 1166.34 1683.19 1161.82 1675.21 1163.41 1666.4 1163.48 1657.9 1168.04 1657.16 1172.63 1656.48 1177.23 1655.83L1175.82 1650.34 1171.19 1650.92C1171.56 1649.15 1172.3 1645.59 1172.67 1643.82 1176.56 1641.01 1180.38 1638.07 1184.04 1635M1176.93 1673.63C1179.71 1675.41 1179.71 1675.41 1176.93 1673.63M1166.85 1693.43C1169.41 1695.63 1169.41 1695.63 1166.85 1693.43M1162.78 1704.22C1160.37 1708.87 1164.48 1715.3 1168.3 1718.66 1175.15 1716.75 1169.15 1703.7 1162.78 1704.22M1170.74 1723.31C1172.93 1730.74 1176.63 1738.17 1183.08 1743.56 1193.53 1751.8 1198.94 1763.94 1211.75 1770.11 1210.86 1759.65 1200.34 1754.32 1193.08 1747.47 1192.27 1745.66 1190.71 1742.04 1189.9 1740.23L1186.97 1740.39C1186.41 1735.55 1189.01 1729.06 1182.38 1726.51 1182.75 1724.83 1183.53 1721.47 1183.9 1719.82 1179.45 1720.85 1175.04 1721.92 1170.74 1723.31M1194.27 1765.04C1196.71 1767.3 1196.71 1767.3 1194.27 1765.04M1202.31 1790.82C1208.31 1792.27 1210.68 1790.43 1209.42 1785.26 1203.23 1783.84 1200.86 1785.68 1202.31 1790.82Z" fill="#FFFFFF" fill-rule="evenodd"/><path d="M1921.87 1709C1926.88 1709.32 1931.93 1709.45 1936.9 1710.22 1938.09 1713.73 1939.17 1717.24 1940.1 1720.78 1951.3 1723.26 1953.38 1732.04 1951.82 1740.83 1956.91 1742.37 1961.95 1744.04 1967 1745.68 1966.59 1747.16 1965.7 1750.09 1965.29 1751.57 1961.77 1754.98 1958.43 1758.46 1955.27 1762.1 1956.31 1771.65 1948.74 1779.6 1942.1 1786.49 1943.69 1787.71 1946.92 1790.19 1948.52 1791.44 1946.66 1792.41 1942.99 1794.37 1941.13 1795.34 1939.43 1800.77 1937.76 1806.21 1935.72 1811.59 1929.63 1812.36 1923.62 1810.88 1917.68 1810.2 1917.64 1812.78 1917.64 1817.93 1917.61 1820.5 1922.76 1820.18 1927.92 1819.98 1933.12 1819.92 1931.3 1824.91 1929.33 1829.83 1927.33 1834.76 1922.62 1836.36 1918.01 1838.1 1913.49 1840 1909.66 1836.81 1905.77 1833.66 1901.87 1830.57 1903.58 1829.57 1906.99 1827.58 1908.7 1826.58 1903.32 1826.07 1897.97 1825.55 1892.67 1825 1893.37 1822.75 1894.78 1818.28 1895.45 1816.03 1897.42 1816.51 1901.28 1817.41 1903.24 1817.89 1902.95 1816.06 1902.39 1812.42 1902.13 1810.62 1912.93 1812.36 1912.89 1802.19 1920.95 1799.84 1921.06 1795.79 1921.24 1791.73 1921.54 1787.68 1919.5 1787.84 1915.42 1788.13 1913.38 1788.29 1913.82 1792.63 1914.3 1796.98 1914.79 1801.32 1909.96 1801.29 1905.14 1801.39 1900.35 1801.13 1898.68 1797.78 1897.01 1794.43 1895.3 1791.09 1895.3 1793.66 1895.3 1798.78 1895.27 1801.35 1892.33 1801.29 1886.4 1801.13 1883.43 1801.06 1883.02 1806.6 1885.06 1811.68 1888.07 1816.45 1884.87 1812.29 1881.65 1808.14 1878.49 1803.96 1874.37 1803.93 1870.22 1803.96 1866.1 1803.99 1862.5 1801.26 1858.67 1798.75 1854.7 1796.46L1855.41 1793.73 1850.66 1794.31C1850.84 1790.22 1851.07 1786.17 1851.29 1782.08L1846.61 1783.49C1848.62 1780.34 1850.47 1777.15 1852.22 1773.9 1846.65 1770.72 1841.2 1767.37 1836 1763.77 1843.39 1763.12 1850.81 1762.74 1858.23 1762.1 1858.12 1765.44 1858.04 1768.82 1858.01 1772.17L1854 1771.33C1854.18 1774.23 1854.56 1779.99 1854.78 1782.88 1858.01 1782.72 1861.24 1782.56 1864.46 1782.34 1867.32 1777.19 1874.52 1777.61 1879.83 1775.84 1876.45 1775.58 1869.73 1775.13 1866.39 1774.9 1868.51 1772.88 1872.7 1768.79 1874.82 1766.76 1873.18 1766.34 1869.92 1765.54 1868.29 1765.12 1868.84 1763.58 1869.96 1760.42 1870.51 1758.88L1865.24 1759.42 1866.28 1755.18C1863.76 1755.53 1858.67 1756.3 1856.15 1756.66 1853.15 1749.93 1844.16 1752.89 1838.23 1751.73 1842.98 1741.85 1847.91 1732.01 1854.26 1722.8 1868.03 1722.71 1881.83 1722.64 1895.6 1722.45 1898.16 1727.15 1903.21 1728.82 1908.77 1729.63 1908.51 1724.83 1911.48 1721.68 1916.08 1719.55 1918.05 1716.08 1919.98 1712.54 1921.87 1709M1883.13 1726.12C1885.47 1728.08 1885.47 1728.08 1883.13 1726.12M1861.38 1742.56C1861.53 1745.17 1861.75 1750.38 1861.87 1752.99 1865.73 1752.96 1869.59 1752.96 1873.44 1752.99 1873.37 1749.67 1873.33 1746.36 1873.33 1743.08 1870.36 1742.95 1864.39 1742.69 1861.38 1742.56M1868.66 1784.04C1868.43 1795.05 1879.98 1779.6 1868.66 1784.04M1855.78 1787.71C1851.51 1793.98 1865.65 1794.21 1869.47 1791.35 1868.55 1787.32 1859.83 1787.97 1855.78 1787.71M1878.34 1793.89C1871.66 1802.9 1891.41 1794.76 1878.34 1793.89Z" fill="#FFFFFF" fill-rule="evenodd"/><path d="M2351.77 1715.16C2358.58 1715 2365.57 1714.61 2372.26 1716.26 2377.92 1721.16 2382.38 1727.01 2386.58 1732.92L2389.15 1733.18 2389.45 1735.11C2397.4 1742.57 2405.18 1750.26 2414.81 1756.17 2422.47 1766.31 2427.27 1778.13 2436.97 1787.17 2436.86 1791.56 2436.82 1795.95 2436.86 1800.35L2444.34 1799.38 2444.86 1802.74C2442.96 1804.25 2439.24 1807.32 2437.34 1808.84 2444.97 1809.52 2453.82 1811.84 2453.3 1819.98L2455.86 1820.14C2455.6 1824.18 2455.34 1828.18 2455.16 1832.22 2456.87 1832.51 2460.29 1833.12 2462 1833.41 2457.24 1835.84 2452.67 1838.61 2450.92 1843.42 2444.74 1844.39 2438.53 1843.71 2432.66 1841.97 2434.22 1841.26 2437.38 1839.78 2438.94 1839.03 2437.08 1835.06 2435.26 1831.09 2433.44 1827.12 2424.22 1827.6 2427.12 1819.62 2426.6 1814.46L2421.46 1814.59C2421.69 1812.97 2422.06 1809.71 2422.28 1808.06L2418.08 1807.84 2419.23 1804.03 2415.37 1803.96C2415.55 1802.64 2415.92 1799.96 2416.15 1798.6L2412.43 1798.18C2411.76 1794.69 2411.09 1791.21 2410.42 1787.75 2412.87 1787.72 2417.82 1787.69 2420.31 1787.66 2419.46 1789.5 2417.78 1793.14 2416.93 1794.95L2423.77 1793.4 2421.65 1797.96C2423.77 1798.09 2428.01 1798.38 2430.13 1798.54 2430.09 1795.6 2430.17 1792.69 2430.24 1789.79L2424.48 1791.89C2425.26 1789.95 2426.86 1786.04 2427.64 1784.07L2421.46 1786.2 2423.47 1780.97 2417.97 1782.29C2418.27 1780.52 2418.82 1777 2419.12 1775.25 2416 1775.29 2409.79 1775.35 2406.66 1775.38 2407.22 1773.61 2408.37 1770.02 2408.93 1768.21L2402.57 1769.57 2404.92 1765.05C2402.76 1765.05 2398.45 1765.05 2396.25 1765.05 2396.29 1768.67 2396.33 1772.25 2396.29 1775.87L2400.6 1773.77 2400.53 1782.97 2395.69 1780.78C2395.8 1782.65 2396.06 1786.4 2396.18 1788.27L2400.16 1787.56C2400.64 1803.25 2400.6 1818.98 2400.45 1834.71 2403.09 1847.04 2395.99 1858.6 2397.11 1870.87 2397.55 1885.44 2391.19 1899.03 2388.29 1913.18 2385.54 1918.05 2384.8 1923.54 2383.16 1928.74 2380.15 1932.68 2377.14 1936.56 2374.05 1940.43L2381.34 1938.72C2381.08 1942.14 2380.93 1945.6 2380.82 1949.02 2378.03 1953.35 2375.31 1957.68 2372.45 1961.94 2370.96 1965.91 2369.55 1969.88 2367.8 1973.79 2365.24 1983.25 2359.88 1991.97 2357.84 2001.53L2356.2 2001.14C2356.16 2005.89 2354.08 2010.18 2350.99 2014.03 2346.2 2021 2343 2028.69 2340.21 2036.41 2337.79 2043.96 2334.56 2051.42 2325.18 2054.13 2329.76 2066.57 2315.52 2074.12 2303.5 2076.35L2305.18 2080C2299.78 2079.23 2294.36 2078.51 2289 2077.64 2292.01 2076.64 2298.04 2074.64 2301.05 2073.64 2299.78 2072.51 2297.26 2070.28 2295.99 2069.15 2300.6 2062.05 2304.51 2054.55 2306.63 2046.58 2313.54 2044.48 2315.78 2039.12 2314.92 2033.27 2315.74 2031.53 2317.37 2028.11 2318.19 2026.36 2327.08 2020.97 2326.37 2011.64 2325.78 2003.24L2328.42 2002.34C2333.4 1996.27 2340.8 1990.1 2332.81 1983.22 2337.42 1982.31 2342.07 1981.44 2346.75 1980.6 2344.86 1978.99 2341.03 1975.82 2339.13 1974.21 2341.44 1970.37 2343.82 1966.52 2346.12 1962.65 2347.65 1962.91 2350.77 1963.39 2352.29 1963.62 2351.89 1961.52 2351.03 1957.26 2350.62 1955.16L2355.98 1956.16C2355.27 1950.18 2355.01 1944.24 2354.79 1938.27 2360.48 1937.56 2366.2 1936.72 2371.89 1935.78 2367.36 1934.52 2362.74 1933.71 2358.02 1933.39 2359.51 1926 2358.28 1918.21 2360.7 1910.98 2366.02 1904.26 2370.03 1896.35 2369.22 1887.99 2370.96 1880.95 2370.52 1873.75 2370.85 1866.61 2377.02 1859.73 2374.2 1850.63 2373.71 1842.68 2376.02 1842.58 2380.59 1842.39 2382.9 1842.29 2375.35 1832.61 2373.83 1821.47 2373.49 1810.1 2374.31 1801.02 2374.24 1791.92 2374.83 1782.84L2370.7 1783.23C2371.74 1769.51 2358.73 1757.95 2362.78 1743.83 2358.13 1742.45 2353.48 1740.99 2348.91 1739.51 2354.01 1732.79 2361.11 1727.82 2370.96 1729.72 2371.07 1727.66 2371.26 1723.52 2371.33 1721.49 2366.5 1723.17 2361.74 1724.94 2357.05 1726.85 2356.09 1734.34 2348.28 1733.15 2342.4 1731.34 2343.96 1730.72 2347.09 1729.46 2348.65 1728.85 2349.69 1724.3 2350.84 1719.74 2351.77 1715.16Z" fill="#FFFFFF" fill-rule="evenodd"/><path d="M2518.97 1759.82C2515.97 1758.5 2503.27 1758.95 2507.86 1754.12 2530.24 1752.48 2546.17 1767.84 2558.58 1781.75 2565.29 1792.28 2569.92 1803.9 2571.59 1815.85 2573.85 1819.17 2576.18 1822.48 2578.59 1825.77 2582.81 1837.04 2580.59 1848.95 2580.78 1860.58 2581.74 1867.95 2584.3 1875.13 2584.18 1882.6 2585.48 1891.84 2583.78 1901.6 2588 1910.36 2585.48 1915.22 2583.15 1920.18 2580.55 1925.01 2580.89 1927.43 2581.59 1932.29 2581.96 1934.74 2578.92 1934.51 2572.85 1934.12 2569.85 1933.93L2570.29 1940.76C2572.4 1940.63 2576.63 1940.34 2578.74 1940.18 2578.74 1940.66 2578.7 1941.6 2578.7 1942.08 2574.44 1942.4 2570.22 1942.75 2566.03 1943.14 2566.62 1941.43 2567.84 1937.96 2568.47 1936.22 2566.18 1935.77 2561.58 1934.83 2559.29 1934.38 2562.25 1934 2568.25 1933.26 2571.25 1932.9 2570.85 1927.33 2570.51 1921.76 2570.03 1916.19L2574.22 1917.44C2574.25 1914.93 2574.29 1909.84 2574.33 1907.33L2570.51 1907.78C2570.55 1904.47 2570.66 1897.77 2570.7 1894.45L2575.55 1894.42C2568.66 1890.52 2573.77 1884.73 2573.88 1879.64 2574.59 1870.14 2575.51 1860.38 2573.55 1850.95 2572.18 1850.21 2569.4 1848.73 2568.03 1847.99 2567.03 1841.74 2565.21 1835.53 2565.92 1829.18 2563.81 1829.5 2559.58 1830.15 2557.43 1830.47 2558.21 1832.08 2559.73 1835.24 2560.51 1836.81 2560.43 1837.75 2560.29 1839.58 2560.21 1840.48 2558.32 1840.71 2554.58 1841.19 2552.73 1841.42 2552.58 1835.85 2554.02 1829.76 2548.69 1825.51 2548.8 1823.29 2549.1 1818.88 2549.25 1816.66L2544.32 1818.75C2544.98 1813.63 2544.84 1808.22 2539.98 1804.55 2533.13 1798.62 2530.65 1790.51 2529.24 1782.49 2523.68 1782.94 2518.12 1783.36 2512.6 1783.78 2511.64 1790.06 2509.01 1796.01 2507.67 1802.2 2508.16 1806.96 2510.75 1811.92 2507.71 1816.46 2507.23 1819.26 2506.82 1822.07 2506.45 1824.87 2505.67 1835.4 2502.23 1845.73 2503.41 1856.42 2508.42 1863.86 2503.71 1874.17 2511.86 1880.09L2506.93 1878.19C2507.16 1880.74 2507.56 1885.82 2507.75 1888.37L2511.94 1888.37C2510.42 1892.59 2508.75 1896.8 2507.12 1901.02 2509.27 1900.86 2513.57 1900.54 2515.75 1900.38 2514.2 1901.67 2511.16 1904.27 2509.64 1905.59 2511.82 1906.85 2516.23 1909.43 2518.46 1910.68 2513.19 1914.9 2514.6 1921.21 2514.57 1926.78 2512.12 1934.41 2508.71 1941.69 2503.27 1948.1 2504.41 1949.61 2506.71 1952.67 2507.86 1954.22 2499 1961.5 2503.9 1974.86 2493.15 1980.91 2489.41 1988.67 2487 1996.88 2482.96 2004.52 2474.77 2012.79 2473.4 2023.77 2467.81 2033.11 2467.66 2033.69 2467.33 2034.82 2467.18 2035.4 2460.77 2040.68 2455.66 2046.92 2449.36 2052.24 2447.47 2056.62 2445.76 2061.06 2444.17 2065.5 2439.76 2066.92 2435.35 2068.34 2430.94 2069.66 2425.13 2072.23 2419.2 2074.65 2413.31 2077 2406.23 2074.65 2399.26 2072.07 2392.45 2069.27 2391.08 2062.12 2382.81 2055.17 2390.45 2048.7L2394 2048.15C2391.63 2045.06 2389.3 2041.93 2387 2038.84 2389.7 2038.78 2395.11 2038.68 2397.78 2038.65 2397.23 2036.1 2396.11 2030.98 2395.52 2028.44 2398.6 2028.92 2404.78 2029.92 2407.86 2030.41L2406.71 2025.64 2412.75 2026.83C2412.05 2025.03 2410.64 2021.39 2409.9 2019.59L2415.79 2020.39C2415.31 2017.75 2414.34 2012.5 2413.86 2009.89L2418.94 2010.79 2418.38 2006.13C2420.38 2006.61 2424.35 2007.57 2426.31 2008.03 2426.24 2006.19 2426.09 2002.55 2425.98 2000.72 2429.35 2000.75 2436.02 2000.84 2439.35 2000.88 2436.69 2004.61 2434.02 2008.32 2431.35 2011.99 2427.42 2018.43 2424.98 2026.06 2418.12 2030.7 2418.09 2031.95 2418.01 2034.46 2417.97 2035.72 2420.57 2037.1 2425.76 2039.94 2428.35 2041.32 2429.31 2039.49 2431.16 2035.82 2432.09 2033.98 2439.91 2031.76 2447.99 2030.31 2456.14 2029.25L2455.03 2025.7 2460.1 2026.54C2459.73 2024.03 2458.92 2019.04 2458.54 2016.56L2463.62 2017.04C2463.36 2011.41 2463.07 2005.74 2462.66 2000.1 2464.4 2000.36 2467.84 2000.91 2469.55 2001.17 2471.14 1997.72 2472.81 1994.28 2474.51 1990.86L2477.77 1991.35 2478 1983.58C2474.03 1984.33 2470.07 1985.07 2466.14 1985.84 2467.4 1978.56 2464.51 1969.58 2473.07 1964.88 2473.77 1960.56 2474.44 1956.28 2475.03 1951.96 2476.74 1951.13 2480.11 1949.45 2481.78 1948.58 2481.52 1947.26 2481 1944.62 2480.74 1943.27 2484.07 1944.04 2490.74 1945.59 2494.11 1946.36 2493.56 1947.91 2492.45 1951.03 2491.89 1952.61 2493.08 1952.87 2495.41 1953.38 2496.6 1953.64 2496.52 1951.13 2496.41 1946.17 2496.34 1943.66 2499.08 1938.57 2501.56 1933.29 2506.12 1929.2 2503.78 1929.36 2499.08 1929.75 2496.74 1929.91 2496.67 1934 2496.48 1938.05 2496.11 1942.11 2492.59 1942.37 2485.52 1942.88 2482 1943.14 2481.89 1938.6 2481.96 1934.09 2481.96 1929.55L2485 1930.61C2485.04 1923.24 2485.55 1915.8 2488.19 1908.72 2486.37 1904.44 2485 1900.06 2483.67 1895.68 2481.85 1889.82 2481.7 1883.7 2481.26 1877.71L2476.7 1879.58C2478.77 1876.77 2480.85 1873.94 2482.85 1871.11 2474.44 1857.26 2472.59 1838.62 2477.81 1823.74 2477 1819.78 2476.18 1815.85 2475.37 1811.92 2478.29 1792.83 2482.11 1771.06 2498.93 1757.28 2506.86 1759.21 2504.71 1767 2498.37 1769.67 2505.27 1768.8 2512.19 1768.45 2519.2 1768.45 2519.09 1765.55 2519.01 1762.69 2518.97 1759.82M2488.82 1795.15 2485.37 1794.02C2485.15 1798.82 2484.81 1803.58 2484.44 1808.38 2486.93 1808.15 2491.82 1807.7 2494.3 1807.48 2493.45 1805.71 2491.82 1802.2 2491 1800.43L2496.56 1801.68C2496.52 1799.01 2496.37 1793.66 2496.34 1790.99L2492.34 1791.51C2492.52 1789.16 2492.97 1784.45 2493.15 1782.1 2487.93 1785.1 2488.74 1790.41 2488.82 1795.15M2551.02 1821.58C2551.91 1832.69 2562.14 1816.69 2551.02 1821.58Z" fill="#FFFFFF" fill-rule="evenodd"/><path d="M2046.37 1790.87C2051.24 1783.35 2059.87 1778.53 2067.25 1773 2066.88 1775.67 2066.15 1781 2065.78 1783.67 2068.32 1784.15 2073.42 1785.15 2076 1785.67 2068.73 1788.75 2061.2 1791.26 2053.6 1793.57 2054.93 1794.6 2057.66 1796.72 2059.02 1797.75 2058.07 1798.43 2056.11 1799.81 2055.15 1800.48 2053.23 1807.36 2047.95 1812.38 2040.43 1814.85 2032.23 1820.19 2020.83 1824.59 2021.83 1835.3 2022.45 1846.49 2012.16 1855.68 2014.15 1866.8 2011.53 1868.25 2008.95 1869.73 2006.36 1871.21 2011.97 1880.75 2000.57 1888.02 2001.94 1897.69 2012.31 1890.98 2021.97 1883.49 2030.94 1875.38 2034.04 1877.63 2037.14 1879.85 2040.31 1882.07 2033.56 1886.38 2028.65 1894.77 2019.24 1894.19 2028.14 1903.77 2011.42 1901.78 2005.92 1899.78 2010.53 1915.08 1999.39 1929.61 2003.6 1944.76 2005.33 1945.24 2008.73 1946.27 2010.42 1946.75 2010.16 1947.78 2009.57 1949.77 2009.28 1950.77 2012.6 1950.8 2019.24 1950.83 2022.56 1950.83L2022.49 1956.26C2019.39 1956.13 2013.15 1955.85 2010.05 1955.68L2011.64 1959.83C2007.99 1960.99 2004.33 1962.18 2000.75 1963.43 2011.12 1963.82 2020.28 1959.86 2028.76 1955.14 2028.91 1953.4 2029.24 1949.96 2029.39 1948.26L2025 1949.99 2024.08 1946.39C2030.46 1945.08 2036.85 1943.63 2043.3 1942.41 2039.87 1933.12 2050.72 1934.15 2057.66 1933.47 2058.91 1932.48 2061.39 1930.45 2062.6 1929.45 2061.46 1934.57 2060.8 1939.84 2063.05 1944.82 2061.16 1944.76 2057.44 1944.59 2055.59 1944.5 2053.53 1948.87 2051.31 1953.18 2049.13 1957.48 2041.24 1961.44 2027.47 1957.39 2025.04 1967 2015.7 1966.68 2006.33 1967.03 1997.03 1966.58 1993.12 1961.54 1990.2 1955.68 1984 1952.37 1986.77 1949.29 1989.54 1946.14 1992.34 1943.05 1991.45 1940.96 1989.72 1936.78 1988.83 1934.69 1991.45 1934.69 1996.73 1934.69 1999.35 1934.69 1995.18 1930.26 1991.42 1925.56 1987.95 1920.74L1997.4 1918.91C1993.74 1916.4 1990.09 1913.9 1986.47 1911.39 1989.65 1910.26 1995.99 1908.04 1999.17 1906.92 1994.74 1904.86 1991.2 1901.97 1988.54 1898.27 1990.35 1891.65 1991.64 1884.96 1992.34 1878.18 1993.19 1874 1993.63 1869.73 1992.64 1865.52 1993.52 1864.45 1995.29 1862.27 1996.18 1861.21 1996.36 1857.41 1996.62 1853.62 1996.73 1849.83 1997.62 1848.77 1999.43 1846.65 2000.31 1845.59 1997.62 1840.73 1998.47 1836.87 2002.82 1834.05 2002.89 1833.08 2003.04 1831.12 2003.12 1830.16L2008.1 1830.35C2007.51 1828.61 2006.33 1825.14 2005.74 1823.4L2010.76 1825.04C2008.17 1816.69 2017.29 1813.18 2023.01 1808.59 2027.14 1799.91 2034.63 1793.09 2043.38 1787.76 2043.64 1791.26 2043.89 1794.73 2044.19 1798.23L2039.54 1797.59 2040.98 1801C2033.08 1800.55 2032.34 1806.01 2032.38 1811.48L2025.41 1811.7C2027.51 1812.73 2031.72 1814.79 2033.82 1815.82 2036.88 1812.19 2038.62 1807.91 2040.83 1803.86L2044.71 1805.31C2044.26 1803.73 2043.45 1800.58 2043.01 1799.01 2045.37 1798.59 2050.02 1797.69 2052.38 1797.27 2050.87 1795.66 2047.88 1792.48 2046.37 1790.87M2013.15 1822.99C2015.52 1825.01 2015.52 1825.01 2013.15 1822.99M2000.9 1844.91C2002.49 1845.91 2005.66 1847.87 2007.25 1848.86 2004.81 1853.53 2003.12 1858.41 2001.57 1863.33 2004.26 1862.88 2009.57 1861.92 2012.23 1861.47 2010.31 1859.34 2008.36 1857.25 2006.44 1855.2 2009.91 1849.64 2011.31 1843.5 2011.75 1837.26 2008.1 1839.8 2004.52 1842.34 2000.9 1844.91Z" fill="#FFFFFF" fill-rule="evenodd"/><path d="M1258.28 1783C1260.45 1783.07 1264.76 1783.14 1266.93 1783.18 1267.99 1788.32 1256.04 1788.29 1258.28 1783Z" fill="#FFFFFF" fill-rule="evenodd"/><path d="M2225.08 1813.38C2228.4 1798.87 2241.08 1781.78 2260.18 1784.24 2263.61 1789 2267.51 1793.27 2274 1794.86 2275.4 1798.26 2276.77 1801.66 2278.17 1805.09L2282.48 1803.96C2282.37 1809.82 2279.16 1814.35 2273.15 1817.23 2278.76 1818.07 2284.4 1818.98 2290.04 1819.95 2288.42 1822.67 2286.79 1825.39 2285.21 1828.14 2288.64 1832.64 2289.45 1837.82 2288.9 1843.13L2292.91 1842.52C2289.67 1854.07 2291.29 1866.05 2296.67 1876.87 2295.09 1878.68 2291.95 1882.27 2290.37 1884.09 2292.58 1884.64 2296.93 1885.71 2299.14 1886.26 2304.01 1898.75 2304.56 1912.22 2305.48 1925.3L2306 1927.83C2305.3 1928.6 2303.82 1930.22 2303.12 1931 2300.54 1929.77 2297.96 1928.54 2295.42 1927.28 2296.82 1926.56 2299.55 1925.14 2300.91 1924.43 2295.83 1922.39 2290.59 1920.87 2285.47 1918.99 2293.36 1918.86 2299.18 1916.11 2303.01 1910.73 2296.16 1911.25 2289.34 1911.74 2282.55 1912.16 2285.28 1911.19 2290.77 1909.28 2293.5 1908.3L2293.47 1905.07C2290.77 1904.68 2285.43 1903.9 2282.74 1903.51 2285.02 1902.51 2289.56 1900.57 2291.84 1899.56 2289.37 1898.33 2284.4 1895.9 2281.93 1894.67 2284.77 1894.71 2290.48 1894.74 2293.32 1894.77 2291.84 1889.91 2290.19 1885.12 2288.49 1880.33 2275.44 1879.97 2286.76 1864.53 2275.44 1861.75 2277.21 1861.97 2280.71 1862.43 2282.44 1862.62L2281.6 1857.02C2278.24 1856.83 2271.57 1856.47 2268.21 1856.31 2269.17 1852.65 2270.2 1848.99 2271.31 1845.33 2270.02 1844.56 2267.51 1843.03 2266.26 1842.26 2266.08 1830.57 2260.66 1819.33 2262.61 1807.55 2257.45 1809.1 2249.56 1807.81 2247.57 1813.6 2236.18 1830.47 2244.73 1851.87 2234.96 1869.03 2236.25 1873.63 2237.98 1878.16 2240.6 1882.34 2243.29 1882.6 2248.64 1883.15 2251.33 1883.41 2249.12 1882.21 2244.73 1879.75 2242.52 1878.52 2249.71 1877.81 2256.82 1876.54 2263.86 1875.12 2261.98 1878.61 2260.07 1882.05 2258.3 1885.58 2250.04 1887.75 2241.67 1889.43 2233.16 1890.4 2233.67 1897.62 2234.93 1905.71 2229.73 1911.99 2231.61 1912.77 2235.44 1914.39 2237.36 1915.2 2229.62 1921.06 2223.83 1909.24 2215.53 1909.44 2214.39 1908.11 2212.11 1905.42 2211 1904.1 2212.84 1895.26 2215.24 1886.48 2214.98 1877.42 2216.86 1878 2220.58 1879.17 2222.47 1879.78L2222.98 1872.46C2212.11 1874.08 2214.76 1865.37 2214.54 1859.16 2219.22 1857.67 2223.9 1856.21 2228.58 1854.75 2226.78 1854.27 2223.17 1853.26 2221.36 1852.78 2221.21 1851.35 2220.92 1848.57 2220.81 1847.15 2225.01 1846.14 2229.21 1845.07 2233.38 1843.81 2229.21 1843.52 2220.92 1842.9 2216.75 1842.61 2220.95 1834.94 2224.2 1826.75 2221.8 1818.17 2223.09 1818.17 2225.71 1818.2 2227.04 1818.2 2226.56 1817 2225.56 1814.57 2225.08 1813.38M2284.29 1848.28C2284.14 1846.34 2283.88 1842.39 2283.77 1840.41 2274.81 1835 2275.92 1852.91 2284.29 1848.28Z" fill="#FFFFFF" fill-rule="evenodd"/><path d="M1364 1800.21C1364.37 1786.37 1382.5 1796.33 1391.16 1798.45L1390.94 1801.69C1393.22 1801.49 1397.75 1801.14 1400 1800.95 1400 1801.97 1400 1804.03 1400 1805.05L1393.99 1802.74 1396.43 1808C1393.4 1807.94 1387.4 1807.81 1384.38 1807.74 1384.49 1797.78 1371.41 1799.89 1364 1800.21Z" fill="#FFFFFF" fill-rule="evenodd"/><path d="M2155.04 1793C2160.33 1793.29 2165.7 1793.55 2171 1794.26 2168.13 1798.36 2164.74 1802.17 2161.83 1806.23 2163.5 1807.85 2166.9 1811.1 2168.58 1812.75 2161.49 1811.98 2154.29 1809.1 2147.17 1811.1L2155.11 1813.36C2154.78 1819.72 2154.89 1826.08 2155.45 1832.44 2158.66 1826.37 2163.21 1820.59 2170.93 1818.62 2169.84 1820.21 2167.61 1823.34 2166.49 1824.88 2167.64 1834.92 2166.38 1844.99 2165.52 1854.99 2164.03 1858.9 2163.21 1862.9 2162.98 1867 2158.51 1865.97 2153.99 1865.03 2149.48 1864.13 2147.77 1860.9 2145.94 1857.74 2144 1854.64 2147.65 1849.77 2151.53 1844.8 2151.76 1838.76L2153.85 1840.18C2155.64 1838.79 2159.25 1836.02 2161.08 1834.6 2159.07 1833.95 2155.08 1832.66 2153.06 1832.02 2143.89 1828.5 2147.43 1819.24 2146.8 1812.36 2146.31 1805.84 2151.83 1801.1 2157.46 1797.55 2156.83 1796.42 2155.64 1794.13 2155.04 1793Z" fill="#FFFFFF" fill-rule="evenodd"/><path d="M1286.36 1800.54C1290.76 1800.67 1295.2 1800.76 1299.59 1800.86 1298.92 1802.63 1297.58 1806.16 1296.91 1807.93 1300.45 1807.93 1307.5 1807.96 1311 1807.96L1310.25 1811.53C1303.96 1811.66 1297.69 1811.89 1291.43 1812.14 1289.01 1815.9 1286.44 1819.6 1283.79 1823.26 1279.24 1823.78 1274.69 1824.36 1270.18 1825 1262.84 1821.43 1259.67 1816.23 1263.89 1809.28 1266.9 1810.6 1272.94 1813.27 1275.96 1814.59 1276 1809.06 1276.07 1803.53 1276.41 1798 1277.97 1803.72 1281.85 1807.51 1288.04 1809.38 1287.63 1807.16 1286.77 1802.76 1286.36 1800.54Z" fill="#FFFFFF" fill-rule="evenodd"/><path d="M1816.12 1813.15C1820.07 1807.96 1823.98 1802.74 1828.62 1798 1828.51 1811.8 1833.53 1825.6 1828.81 1839.2 1831.35 1841.68 1833.86 1844.2 1836.37 1846.75 1833.64 1849 1830.91 1851.23 1828.18 1853.48 1828.22 1855.06 1828.37 1858.29 1828.44 1859.9 1830.58 1859.48 1834.93 1858.61 1837.07 1858.19 1841.16 1869.31 1837.99 1881.11 1840.68 1892.46 1838.66 1892.17 1834.6 1891.66 1832.53 1891.4 1832.24 1893.27 1831.65 1897.07 1831.32 1898.97 1833.35 1898.68 1837.4 1898.17 1839.39 1897.88L1841.46 1892.07C1842.71 1896.17 1843.89 1900.26 1845 1904.39L1839.54 1904.1 1840.02 1907.9C1838.25 1908.06 1834.71 1908.39 1832.94 1908.55L1830.25 1909C1828.99 1908.94 1826.49 1908.81 1825.27 1908.74 1825.12 1901.91 1824.94 1895.1 1824.72 1888.3 1822.98 1888.46 1819.55 1888.72 1817.82 1888.88 1817.74 1885.53 1817.52 1878.82 1817.41 1875.47 1827.08 1878.15 1830.58 1870.64 1835.08 1865.12 1828.99 1865.7 1822.91 1866.06 1816.82 1866.22 1817.41 1862.74 1818.04 1859.25 1818.67 1855.81 1817.41 1856.26 1814.91 1857.19 1813.65 1857.64 1813.21 1848.45 1810.41 1839.49 1810 1830.3 1812.73 1827.98 1815.46 1825.66 1818.19 1823.31 1817.67 1820.79 1816.64 1815.7 1816.12 1813.15Z" fill="#FFFFFF" fill-rule="evenodd"/><path d="M2072.93 1804.38C2076.61 1803.03 2080.44 1802.03 2084.3 1801 2084.71 1804.8 2085.01 1808.57 2085.27 1812.37L2093.07 1810.7C2089.02 1816.65 2084.6 1823.03 2089.06 1829.99 2084.12 1830.02 2079.21 1830.02 2074.31 1830.02 2079.06 1831.82 2083.93 1833.43 2088.76 1835.21 2084.78 1836.11 2076.87 1837.88 2072.9 1838.78 2076.8 1839.27 2084.6 1840.26 2088.46 1840.75 2088.31 1845.42 2088.43 1850.09 2088.65 1854.76 2094.07 1860.33 2091.18 1867.83 2091.36 1874.41 2090.17 1876.95 2087.76 1882.04 2086.57 1884.58L2093.26 1884.71C2092.66 1888.29 2092.07 1891.9 2091.47 1895.47 2103.32 1895.08 2099.65 1904.46 2099.76 1910.93L2103.03 1910.48C2106.45 1914.44 2110.64 1918.21 2111.05 1923.46 2117.22 1927.55 2124.28 1930.42 2132.23 1930.58 2138.88 1924.4 2142.93 1916.73 2147.28 1909.26 2147.68 1904.91 2147.98 1900.56 2148.21 1896.21 2156.42 1897.15 2164.55 1898.66 2172.32 1901.2 2168.16 1901.37 2159.87 1901.75 2155.75 1901.94 2161.21 1904.88 2166.78 1907.78 2172.21 1910.87L2165.96 1910.64 2165.96 1917.28C2168.75 1917.05 2174.29 1916.6 2177.07 1916.41 2180.49 1921.14 2184.24 1925.68 2188.03 1930.22 2197.43 1931.22 2207.61 1930.9 2215.6 1925.91 2218.72 1926.46 2221.88 1927.07 2225 1927.68 2221.69 1935.15 2219.72 1944.62 2208.91 1946.3 2209.32 1947.49 2210.14 1949.84 2210.55 1951 2207.58 1950.94 2201.67 1950.81 2198.7 1950.74 2199.25 1949.04 2200.33 1945.69 2200.89 1943.98 2197.51 1944.17 2190.71 1944.49 2187.33 1944.65 2187.51 1946.1 2187.88 1948.97 2188.11 1950.42 2187.66 1950.39 2186.77 1950.39 2186.36 1950.39 2180.57 1941.72 2162.77 1938.89 2166.15 1926.42 2162.4 1926.71 2154.93 1927.29 2151.18 1927.58 2151.21 1930.1 2151.29 1935.19 2151.33 1937.7 2148.21 1940.05 2145.12 1942.4 2142.04 1944.75 2138.4 1944.78 2131.15 1944.82 2127.51 1944.82 2127.88 1946.27 2128.59 1949.16 2128.96 1950.58 2128.03 1950.65 2126.17 1950.71 2125.24 1950.74 2125.47 1949.26 2125.88 1946.27 2126.1 1944.78 2123.13 1944.53 2117.18 1943.98 2114.21 1943.72 2117.15 1932.71 2101.62 1940.95 2096.53 1935.38 2096.23 1932.96 2095.67 1928.1 2095.37 1925.68 2101.91 1924.97 2104.74 1927.71 2103.81 1933.96 2105.74 1933.99 2109.64 1934.03 2111.57 1934.03 2111.13 1932.74 2110.31 1930.19 2109.9 1928.94 2102.06 1924.65 2100.69 1916.08 2095.52 1909.93L2095.86 1906.74C2091.36 1907.87 2086.87 1909.06 2082.44 1910.29L2085.38 1905.2C2079.92 1903.07 2071.34 1903.36 2070.44 1896.79 2069.37 1889.25 2070.52 1881.43 2067.14 1874.24 2067.14 1865.87 2063.72 1856.85 2068.73 1849.09 2072.75 1842.16 2069.77 1834.34 2069.63 1827.03L2074.64 1826.93C2074.31 1824.84 2073.6 1820.68 2073.27 1818.59 2076.31 1817.14 2082.41 1814.27 2085.45 1812.82 2081.11 1810.18 2076.46 1807.83 2072.93 1804.38M2080.07 1848.9C2081.78 1851.09 2081.78 1851.09 2080.07 1848.9Z" fill="#FFFFFF" fill-rule="evenodd"/><path d="M1397.64 1807.07C1414.06 1806.23 1428.78 1812.75 1438.47 1824.13 1442.47 1828.58 1445.65 1833.51 1448.24 1838.7 1452.05 1845.41 1459.44 1851.31 1457.82 1859.46L1462.44 1858.69C1461.89 1860.11 1460.78 1862.95 1460.22 1864.36 1463.18 1866.88 1466.1 1869.43 1468.99 1872.01 1466.73 1872.04 1462.22 1872.1 1459.96 1872.13 1460.22 1873.94 1460.7 1877.55 1460.96 1879.36L1466.07 1877.42C1468.95 1881.26 1471.95 1885 1474.94 1888.74 1473.5 1899.67 1482.41 1908.6 1480.64 1919.46 1482.12 1920.3 1485 1921.95 1486.45 1922.78 1486 1939.78 1487.11 1956.77 1487.7 1973.76 1486.34 1987.46 1486.22 2001.29 1488 2014.99 1482.9 2020.76 1483.67 2028.37 1487.15 2034.63 1486.04 2037.4 1484.93 2040.14 1483.86 2042.91L1479.16 2044.07C1490.44 2057.49 1478.94 2074.86 1478.53 2089.86 1475.61 2099.75 1475.65 2110.52 1468.95 2119.36 1469.95 2120.45 1471.95 2122.65 1472.95 2123.74 1470.91 2124.81 1466.84 2126.97 1464.81 2128.03 1465.73 2129.13 1467.62 2131.29 1468.58 2132.38 1462.48 2140.44 1465.81 2154.24 1454.3 2158.24 1453.6 2162.82 1457.93 2170.01 1449.42 2171.2 1449.53 2172.23 1449.79 2174.26 1449.94 2175.29 1448.79 2174.91 1446.54 2174.17 1445.43 2173.78L1447.61 2178.71 1437.81 2178.39C1438.03 2172.68 1439.47 2167.27 1443.91 2162.91 1439.77 2165.24 1435.66 2167.52 1431.37 2169.62 1431.81 2173.75 1432.22 2177.87 1432.66 2182 1427.89 2181.74 1418.35 2181.16 1413.58 2180.87 1421.31 2178.71 1424.27 2172.49 1427.71 2166.91 1427.41 2164.65 1426.75 2160.21 1426.41 2157.98L1430.93 2158.5C1431.41 2150.66 1435.07 2142.6 1442.32 2137.7 1442.58 2134.45 1442.84 2131.19 1443.1 2127.96 1444.87 2126 1446.57 2123.93 1448.27 2121.9 1451.6 2122.52 1454.97 2123.16 1458.3 2123.77 1458.26 2122.65 1458.19 2120.36 1458.15 2119.23 1455.12 2119.71 1448.98 2120.68 1445.91 2121.19 1442.61 2114.46 1441.84 2108.49 1453.08 2108.65 1451.16 2106.88 1447.35 2103.37 1445.46 2101.59 1446.68 2101.46 1449.2 2101.17 1450.46 2101.01 1449.79 2093.37 1449.75 2085.7 1451.09 2078.09 1452.97 2074.86 1453.9 2071.38 1453.93 2067.71 1456.86 2068.25 1462.77 2069.35 1465.7 2069.9L1464.92 2065.19C1463.33 2065.48 1460.18 2066.09 1458.63 2066.39 1455.82 2062.65 1452.86 2059.07 1449.53 2055.71 1451.31 2055.1 1454.86 2053.88 1456.63 2053.26 1457.04 2051.39 1457.85 2047.59 1458.22 2045.72 1465.29 2022.96 1457.11 1999.23 1460.7 1976.34 1453.49 1959.35 1461.59 1940.52 1453.64 1923.82 1454.56 1922.78 1456.37 1920.72 1457.3 1919.69 1451.34 1908.86 1452.64 1895.64 1442.61 1886.55 1445.02 1885.58 1449.79 1883.61 1452.2 1882.64 1446.83 1881.45 1441.51 1880.1 1436.25 1878.65 1435.36 1871.39 1435 1864.07 1432.29 1857.08L1427.15 1856.76C1427.52 1855.56 1428.3 1853.18 1428.67 1851.98 1418.94 1846.41 1410.1 1839.83 1402.89 1831.87 1402.93 1829.83 1403 1825.8 1403 1823.81 1397.78 1823.87 1392.53 1823.97 1387.32 1824 1382.99 1821.29 1378.51 1818.71 1374 1816.26 1374.78 1809.39 1382.1 1809.91 1388.2 1809.33 1387.91 1811.26 1387.32 1815.13 1387.02 1817.07 1389.05 1816.97 1393.05 1816.78 1395.05 1816.68L1394.9 1821.29C1396.34 1820.94 1399.23 1820.23 1400.71 1819.84 1403.81 1823.52 1408.88 1823.84 1413.54 1824.68 1413.36 1820.77 1413.17 1816.87 1413.13 1812.97 1407.99 1813.46 1402.81 1813.91 1397.67 1814.39Z" fill="#FFFFFF" fill-rule="evenodd"/><path d="M1312 1810.64C1330.11 1807.94 1346.92 1814.59 1364.73 1814.84 1368.27 1818.43 1371.72 1822.12 1375 1825.87 1365.84 1825.74 1359.25 1819.74 1350.93 1817.35 1351.41 1819.13 1352.37 1822.72 1352.85 1824.5 1350.79 1825.36 1346.63 1827.11 1344.57 1828 1339.89 1826.79 1335.18 1825.74 1330.44 1824.79 1329.41 1823.36 1327.31 1820.53 1326.28 1819.1 1323 1819.16 1316.45 1819.23 1313.18 1819.26 1312.88 1817.13 1312.29 1812.81 1312 1810.64Z" fill="#FFFFFF" fill-rule="evenodd"/><path d="M1756.22 1829.56C1760.52 1821.66 1771.51 1813.73 1781.98 1816.6 1781.61 1819.28 1780.8 1824.56 1780.39 1827.21 1782.54 1826.85 1786.85 1826.11 1789 1825.76 1787.74 1838.01 1787.89 1850.29 1787.48 1862.54 1783.65 1866.57 1780.28 1870.93 1777.83 1875.7 1779.64 1875.96 1783.25 1876.47 1785.06 1876.7 1772.18 1887.4 1777.64 1903.1 1775.78 1916.8 1767.84 1916.93 1759.93 1917 1752.02 1917.19L1752.02 1913.23C1758.63 1913.13 1767.65 1916.48 1771.29 1909.16 1765.72 1908.68 1760.19 1908.1 1754.66 1907.36 1758.44 1907.36 1766.02 1907.29 1769.81 1907.29 1767.5 1899.75 1765.68 1892.14 1764.87 1884.37L1769.29 1885.37 1770.4 1877.21C1767.65 1877.37 1762.16 1877.73 1759.37 1877.92 1763.94 1877.02 1768.51 1876.18 1773.11 1875.31 1768.36 1867.86 1769.66 1859.45 1773.22 1851.84 1770.73 1851.9 1765.76 1851.97 1763.31 1852 1755.25 1865.32 1749.94 1879.63 1745.15 1894.01 1742.26 1900.65 1738.36 1907.16 1738.51 1914.45 1735.91 1921.93 1725.89 1926.77 1728.19 1935.25 1728.63 1943.73 1727.93 1962.04 1712 1955.69 1714.93 1953.37 1717.94 1951.11 1721.02 1948.95 1720.69 1941.53 1721.32 1934.12 1721.62 1926.7 1719.24 1926.54 1714.49 1926.25 1712.11 1926.12 1716.31 1922.35 1717.42 1917.45 1717.31 1912.39 1721.84 1910.87 1724.77 1908.13 1726.14 1904.13 1729.15 1904.49 1732.12 1904.84 1735.13 1905.2 1735.35 1901.07 1735.65 1896.91 1735.98 1892.79 1739.14 1887.37 1739.62 1881.28 1740.4 1875.38 1738.14 1875.67 1733.61 1876.25 1731.34 1876.54 1731.53 1872.89 1731.68 1869.25 1731.83 1865.61L1734.91 1866.03C1733.61 1860.25 1737.54 1856.93 1743.11 1854.81 1745.78 1845.71 1748.38 1836.49 1756.22 1829.56M1761.19 1826.47C1761.04 1837.49 1772.29 1821.37 1761.19 1826.47M1752.95 1843.04C1755.59 1845.1 1755.59 1845.1 1752.95 1843.04M1770.1 1887.53C1764.01 1897.2 1782.8 1888.21 1770.1 1887.53M1727.48 1919.58C1730.45 1915.97 1730.08 1913.13 1726.33 1911.07 1717.42 1911.45 1718.87 1927.7 1727.48 1919.58Z" fill="#FFFFFF" fill-rule="evenodd"/><path d="M2447.46 1848.83C2450.61 1847.86 2456.96 1845.96 2460.12 1845 2459.64 1846.93 2458.65 1850.75 2458.13 1852.68L2463.09 1851.78C2462.87 1856.25 2462.72 1860.75 2462.57 1865.25L2465.95 1864.83C2465.65 1873.06 2466.28 1881.29 2467.27 1889.49 2468.15 1891.77 2469.84 1896.37 2470.72 1898.65 2467.78 1898.72 2461.95 1898.88 2459.01 1898.94 2460.26 1907.91 2455.86 1919.1 2465.65 1925.24L2466.61 1927.2 2472 1926.46C2466.46 1938.74 2460.19 1951.5 2462.21 1965.04 2458.61 1965.62 2455.05 1966.2 2451.5 1966.84 2451.83 1960.63 2451.79 1954.4 2451.61 1948.19L2456.3 1950.06C2456.15 1948.32 2455.9 1944.82 2455.75 1943.05 2453.51 1942.95 2449 1942.73 2446.73 1942.6 2447.5 1944.43 2449.04 1948.03 2449.77 1949.83L2443.76 1949.48C2444.2 1952.08 2445.11 1957.32 2445.55 1959.93L2441.41 1958.87C2441.26 1960.89 2440.97 1964.97 2440.82 1967 2438.11 1966.42 2432.71 1965.23 2430 1964.65L2436.42 1961.66C2436.6 1955.88 2437.23 1950.12 2438.14 1944.4 2441.37 1936.88 2440.75 1928.78 2441.52 1920.93 2443.28 1920.51 2446.84 1919.71 2448.6 1919.29 2448.71 1918.14 2448.89 1915.82 2448.96 1914.66 2436.64 1919.68 2438.25 1900.84 2449.4 1903.93 2446.47 1898.43 2443.87 1892.8 2441.15 1887.24 2442.32 1883.29 2443.54 1879.33 2444.71 1875.38 2446.54 1875.54 2450.14 1875.89 2451.97 1876.05 2451.9 1873.96 2451.72 1869.79 2451.64 1867.7 2449.99 1867.92 2446.65 1868.4 2445 1868.66 2444.34 1870.14 2443.02 1873.13 2442.36 1874.64 2440.78 1871.88 2439.24 1869.08 2437.7 1866.31 2440.09 1863.26 2441.11 1859.85 2440.71 1856.16 2442.47 1855.93 2446.03 1855.54 2447.79 1855.35 2447.72 1853.71 2447.53 1850.46 2447.46 1848.83M2448.05 1935.21C2453.73 1938.81 2457.51 1929.26 2454.06 1925.88 2453.04 1925.11 2451.02 1923.57 2450.03 1922.8 2445.99 1925.3 2446.51 1931.51 2448.05 1935.21Z" fill="#FFFFFF" fill-rule="evenodd"/><path d="M1575.75 1858.22C1585.2 1854.87 1595.54 1855.32 1605.54 1855 1607.55 1858.7 1609.6 1862.4 1611.79 1866.04 1614.58 1868.13 1617.44 1870.15 1620.31 1872.18 1619.68 1873.44 1618.41 1875.98 1617.78 1877.23 1620.6 1882.96 1628.79 1889.11 1622.02 1895.12 1631.47 1899.63 1628.9 1909.63 1631.5 1917.32 1630.68 1918.61 1629.12 1921.15 1628.34 1922.44 1631.69 1926.14 1636.9 1929.77 1635.52 1935.15 1629.05 1935.24 1624.62 1931.45 1620.23 1928.04 1622.32 1930.84 1624.36 1933.64 1626.37 1936.5 1628.75 1936.21 1633.55 1935.63 1635.93 1935.34 1638.61 1945.35 1637.97 1956.16 1644 1965.33 1641.77 1965.65 1637.34 1966.26 1635.11 1966.55 1634.33 1962.43 1638.5 1955.77 1632.25 1954 1632.32 1956.19 1632.43 1960.53 1632.51 1962.72L1625.66 1961.85C1632.1 1964.78 1633.03 1970.31 1632.54 1976.33 1617.56 1977.07 1621.53 1962.37 1622.61 1954.45 1621.61 1953.36 1619.6 1951.17 1618.56 1950.08 1617.82 1939.04 1612.53 1928.87 1610.08 1918.13 1613.61 1913.88 1618.78 1911.05 1623.28 1907.64 1618.86 1908.31 1614.54 1909.25 1610.19 1910.15 1609.33 1907.8 1607.62 1903.1 1606.81 1900.75 1605.62 1894.51 1603.83 1888.37 1602.31 1882.19 1605.06 1881.71 1610.6 1880.77 1613.35 1880.29 1611.12 1879.81 1606.66 1878.81 1604.43 1878.33 1605.13 1876.49 1606.58 1872.89 1607.33 1871.06 1606.1 1871.09 1603.68 1871.15 1602.45 1871.15 1602.83 1874.47 1603.16 1877.75 1603.38 1881.06 1600.71 1880.45 1595.35 1879.23 1592.67 1878.62 1590.4 1883.7 1586.2 1885.53 1580.06 1884.12 1587.32 1889.43 1580.1 1896.44 1578.8 1902.68 1574.67 1911.02 1576.53 1920.22 1574.22 1928.87 1572.03 1937.21 1567.45 1945.54 1569.98 1954.23 1568.94 1955.77 1566.82 1958.8 1565.78 1960.34 1565.85 1965.62 1566.19 1970.89 1565.85 1976.17 1560.87 1977.3 1555.7 1978.04 1550.34 1978.33 1555.66 1979.03 1561.02 1979.42 1566.41 1979.48 1560.94 1986.18 1559.53 1995.02 1564.59 2002.26 1560.91 2002.04 1557.26 2001.81 1553.62 2001.62 1553.88 1999.66 1554.4 1995.73 1554.66 1993.77L1549.15 1995.09 1550.42 2002.33 1544.02 2000.78C1545.1 2006.19 1546.51 2011.56 1547.7 2017 1544.73 2015.23 1541.83 2013.4 1539 2011.53 1544.36 1996.73 1541.6 1980.35 1544.58 1964.97 1551.16 1966.65 1557.49 1965.97 1563.51 1962.91 1559.23 1962.82 1550.6 1962.69 1546.33 1962.62 1547.03 1956.67 1546.22 1950.75 1544.99 1944.93L1550.12 1945.22C1549.79 1937.34 1551.61 1929.58 1553.62 1921.89 1556.74 1922.41 1562.99 1923.37 1566.11 1923.85 1566 1922.44 1565.82 1919.57 1565.74 1918.13 1561.73 1917.07 1557.75 1915.91 1553.8 1914.68 1570.62 1916.52 1557.45 1907.54 1556.67 1902.14 1562.95 1901.07 1569.28 1900.21 1575.56 1899.11 1569.28 1898.05 1560.31 1898.31 1564.26 1890.55 1568.64 1889.27 1573.11 1888.2 1577.61 1887.3 1577.57 1886.63 1577.53 1885.31 1577.5 1884.63 1572.48 1884.79 1567.49 1884.92 1562.47 1885.08 1567.04 1878.65 1571.51 1872.12 1574.41 1864.97L1577.68 1864.52C1577.2 1862.95 1576.23 1859.79 1575.75 1858.22M1618.56 1901.07C1617.07 1905.45 1619.01 1907.06 1624.36 1905.93 1625.85 1901.4 1623.92 1899.79 1618.56 1901.07M1628.42 1945.19C1622.09 1954.61 1640.91 1946.05 1628.42 1945.19M1548.26 1985.18 1547.18 1987.43C1548.15 1988.33 1550.12 1990.1 1551.09 1990.97L1553.65 1990.13C1553.65 1988.94 1553.58 1986.56 1553.58 1985.37 1552.24 1985.31 1549.56 1985.21 1548.26 1985.18Z" fill="#FFFFFF" fill-rule="evenodd"/><path d="M2558.67 1861.6C2549.54 1867.48 2549.91 1852.67 2559 1856.71 2558.93 1857.92 2558.74 1860.36 2558.67 1861.6Z" fill="#FFFFFF" fill-rule="evenodd"/><path d="M1913.47 1865C1914.93 1865.84 1917.86 1867.49 1919.32 1868.32 1920.22 1871.78 1921.01 1875.27 1921.68 1878.78L1925.43 1878.78C1925.43 1882.88 1925.47 1886.98 1925.51 1891.08 1927.72 1891.66 1932.07 1892.76 1934.29 1893.31 1920.26 1896.22 1935.07 1907.06 1937.77 1913.68 1935.86 1915.07 1932.07 1917.85 1930.16 1919.23L1935.86 1920.27C1940.74 1931.86 1935.64 1943.99 1932.11 1955.29 1935.04 1956.26 1938 1957.16 1941 1958 1935.04 1962.17 1937.7 1968.59 1937.06 1974.11 1936.84 1979.76 1933.54 1984.86 1932.11 1990.29 1929.45 1989.32 1924.12 1987.44 1921.46 1986.48 1921.64 1989.12 1922.02 1994.39 1922.21 1997 1920.82 1992.77 1919.69 1988.48 1918.46 1984.22 1918.04 1980.96 1917.67 1977.73 1917.29 1974.5 1918.53 1974.27 1921.01 1973.82 1922.24 1973.63L1920.41 1979.31 1929.6 1979.63C1929.78 1976.44 1930.16 1970.04 1930.35 1966.85 1927.72 1967.04 1922.51 1967.46 1919.88 1967.69 1920.41 1959.88 1920.67 1952.1 1920.41 1944.28 1913.58 1935.54 1919.54 1924.59 1920.11 1915.04 1914.48 1907.71 1916.73 1899.61 1924.12 1893.7 1917.33 1895.54 1910.77 1897.73 1904.13 1899.83 1909.53 1895.89 1914.63 1891.63 1918.91 1886.73 1912.53 1885.43 1906.15 1884.14 1900 1882.24 1906.08 1881.66 1912.19 1881.56 1918.31 1881.27 1916.81 1875.81 1915.04 1870.42 1913.47 1865Z" fill="#FFFFFF" fill-rule="evenodd"/><path d="M2151.2 1868C2154.98 1868.42 2158.83 1868.84 2162.65 1869.23 2169.99 1876.92 2164.13 1887.14 2167 1896 2164.92 1895.84 2160.72 1895.48 2158.64 1895.29 2158.68 1887.69 2160.16 1879.68 2156.3 1872.51 2156 1875.66 2155.39 1881.95 2155.09 1885.1 2153.09 1885.42 2149.04 1886.04 2147 1886.36 2148.36 1880.23 2149.84 1874.13 2151.2 1868Z" fill="#FFFFFF" fill-rule="evenodd"/><path d="M2556 1870C2558.67 1872.67 2558.67 1872.67 2556 1870Z" fill="#FFFFFF" fill-rule="evenodd"/><path d="M1728.92 1896C1727.14 1891.92 1723.57 1887.78 1725.61 1883.27 1728.45 1882.43 1734.16 1880.81 1737 1880L1736.13 1888.72 1729.65 1887.81C1731.21 1889.25 1734.31 1892.11 1735.87 1893.54 1734.13 1894.16 1730.67 1895.38 1728.92 1896Z" fill="#FFFFFF" fill-rule="evenodd"/><path d="M1370.06 1897.74C1376.16 1893.52 1382.88 1890.13 1389.78 1887 1390.15 1888.87 1390.88 1892.58 1391.25 1894.45 1397.86 1894.42 1404.47 1894.13 1411 1893.48 1410.19 1894.74 1408.5 1897.23 1407.66 1898.45 1402.04 1899.68 1396.35 1900.77 1390.66 1901.74 1392.57 1902.77 1396.43 1904.84 1398.33 1905.9 1394.88 1910.1 1391.58 1914.35 1388.2 1918.58 1393.38 1919 1398.55 1919.29 1403.77 1919.48L1404.1 1920.29C1392.2 1918.55 1389.41 1928.48 1390.66 1936.68L1384.49 1936.61C1384.09 1934.1 1383.28 1929.03 1382.88 1926.52 1376.75 1931.84 1381.92 1938.48 1388.86 1940.45L1388.05 1941.48C1395.29 1948.29 1391.29 1957.06 1386.26 1963.45 1388.38 1964.06 1392.64 1965.32 1394.74 1965.94 1395.87 1967.87 1398.11 1971.71 1399.25 1973.65 1391.32 1977.77 1397.27 1982.9 1399.77 1987.74 1398.48 1987.65 1395.91 1987.48 1394.63 1987.39 1397.82 1991.61 1398.15 1996.77 1399.07 2001.65 1407.73 2005.42 1405.64 2014.03 1406.74 2021 1405.49 2020.9 1403 2020.68 1401.75 2020.58 1402.19 2018.84 1403.11 2015.42 1403.58 2013.68 1402.15 2013.74 1399.33 2013.9 1397.89 2013.97 1397.97 2011.68 1398.11 2007.13 1398.19 2004.84 1397.27 2006.16 1395.4 2008.81 1394.44 2010.16 1391.62 2010.61 1385.92 2011.55 1383.1 2012 1384.6 2003.39 1378.55 1996.13 1376.01 1988.23 1377.7 1979.77 1388.72 1966.06 1376.27 1960.74 1377.37 1957.94 1379.57 1952.32 1380.67 1949.52L1372.19 1949.58C1371.9 1951.55 1371.35 1955.52 1371.09 1957.52 1370.25 1953.52 1369.62 1949.48 1369 1945.45 1371.09 1945.48 1375.24 1945.48 1377.33 1945.52 1374.98 1938.55 1372.85 1931.52 1369.84 1924.74 1372.19 1921.42 1374.95 1918.06 1380.27 1918.48 1380.34 1916.74 1380.53 1913.29 1380.6 1911.58 1377.96 1911.29 1372.71 1910.74 1370.06 1910.45 1373.37 1905.94 1377.19 1901.74 1381.19 1897.71 1378.4 1897.71 1372.85 1897.74 1370.06 1897.74Z" fill="#FFFFFF" fill-rule="evenodd"/><path d="M2930.64 1887C2935.97 1887.9 2941.34 1888.84 2946.78 1889.54L2946.93 1892.96C2965.09 1896.21 2968.65 1912.87 2977.64 1924.3 2977.45 1920.85 2977.12 1913.99 2976.94 1910.55 2980.71 1905.88 2985 1901.5 2988.96 1896.92 2999.88 1896.95 3010.9 1896.24 3021.52 1893.8 3025 1894.86 3028.48 1895.92 3032 1897.02 3035.77 1903.78 3036.4 1911.32 3035.81 1918.73 3033.73 1924.66 3037.58 1934.19 3028.41 1936.22 3033.66 1941.6 3025.67 1945.59 3023.11 1950.1 3014.97 1956.77 3012.53 1966.37 3011.98 1975.71 3005.35 1981.86 2998.51 1987.92 2993.33 1995.07 2992.59 1996.84 2991.14 2000.35 2990.44 2002.09 2978.34 2004.54 2973.2 2015.78 2965.28 2023 2960.36 2022.71 2955.81 2021.52 2951.66 2019.42 2949.78 2019.36 2946.04 2019.17 2944.19 2019.07 2938.49 2011.53 2930.27 2004.09 2934.38 1994.33L2928.72 1998.07C2933.94 1991.92 2922.65 1988.82 2925.83 1983.41 2927.13 1978.9 2928.91 1974.55 2930.57 1970.17 2926.24 1970.98 2921.91 1971.81 2917.62 1972.65 2919.4 1969.01 2921.28 1965.44 2923.1 1961.8L2926.09 1961.7 2925.5 1955.84C2922.06 1958.19 2918.8 1960.57 2915.44 1962.96 2914.18 1961.51 2911.63 1958.61 2910.37 1957.16 2913.92 1951.49 2912.48 1944.72 2907 1940.44 2911.22 1931.94 2909.11 1922.69 2908.55 1913.83 2911.63 1907.55 2914.44 1901.17 2918.03 1895.09 2922.8 1893.12 2927.17 1890.54 2930.64 1887M2954.96 1907.55C2957.4 1909.07 2957.4 1909.07 2954.96 1907.55M2985.11 1914.06C2987.63 1916.25 2987.63 1916.25 2985.11 1914.06M2962.32 1916.86C2964.47 1918.79 2964.47 1918.79 2962.32 1916.86M2935.42 1926.81C2958.1 1923.53 2929.31 1949.94 2947 1952.91 2946.63 1958.03 2946.15 1963.18 2945.3 1968.27 2946.59 1969.62 2949.22 1972.33 2950.52 1973.68 2952.7 1973.04 2957.1 1971.72 2959.28 1971.07 2959.36 1969.24 2959.47 1965.6 2959.54 1963.76 2962.47 1962.89 2968.24 1961.18 2971.16 1960.35 2970.9 1961.96 2970.42 1965.18 2970.2 1966.79 2971.79 1966.63 2975.01 1966.27 2976.64 1966.11 2977.93 1960.99 2981.78 1956.9 2984.78 1952.52L2977.05 1954.19C2977.45 1951.3 2977.86 1948.36 2978.3 1945.47 2977.68 1945.43 2976.38 1945.37 2975.75 1945.34 2974.83 1951.1 2970.27 1955.42 2964.13 1957.42 2965.28 1962.63 2949.78 1966.47 2954.81 1958.45 2955.62 1957 2957.25 1954.13 2958.06 1952.68 2952.85 1941.28 2947.74 1929.84 2943.04 1918.31 2941.97 1922.11 2939.08 1924.75 2935.42 1926.81M2940.52 1968.75C2942.34 1971.07 2942.34 1971.07 2940.52 1968.75M2945.67 1978.48C2945.41 1980.29 2944.93 1983.89 2944.67 1985.7 2946.78 1985.83 2951 1986.02 2953.11 1986.12L2950.81 1982.09C2955.7 1980.93 2960.62 1979.84 2965.58 1978.74 2964.8 1977.77 2963.28 1975.81 2962.54 1974.84 2957.58 1978.1 2951.96 1979.32 2945.67 1978.48M2933.31 1990.18C2935.86 1992.33 2935.86 1992.33 2933.31 1990.18Z" fill="#FFFFFF" fill-rule="evenodd"/><path d="M2151 1892C2152.33 1893.33 2152.33 1893.33 2151 1892Z" fill="#FFFFFF" fill-rule="evenodd"/><path d="M2078 1913C2085.45 1913.58 2093.85 1912.83 2100 1917.76 2092.25 1918.2 2083.85 1918.67 2078 1913Z" fill="#FFFFFF" fill-rule="evenodd"/><path d="M1828.75 1927.22C1830.23 1923.7 1823.78 1915.69 1830.46 1915 1831.68 1917.5 1834.2 1922.55 1835.46 1925.05 1835.54 1922.92 1835.76 1918.61 1835.83 1916.45 1841.54 1916.58 1847.25 1916.68 1853 1916.77 1851.52 1917.92 1848.59 1920.16 1847.1 1921.27 1847.33 1922.72 1847.81 1925.68 1848.03 1927.15 1842.32 1927.05 1836.65 1926.99 1830.97 1926.89 1832.16 1929.65 1833.31 1932.41 1834.35 1935.23 1832.72 1941.51 1825.38 1935.2 1821 1934.84 1822.19 1932.87 1824.52 1928.93 1825.67 1926.96Z" fill="#FFFFFF" fill-rule="evenodd"/><path d="M1712.59 1935.84C1704.69 1937.31 1705.79 1928.26 1711.98 1927.24 1719.81 1925.28 1719.99 1935.9 1712.59 1935.84Z" fill="#FFFFFF" fill-rule="evenodd"/><path d="M2722.35 1933.02C2727.99 1931.22 2733.63 1929.51 2739.42 1928 2739.19 1936.18 2733.22 1941.59 2725.26 1945.16 2721.45 1951.82 2718.32 1959.9 2708.42 1960.93 2707.94 1984.44 2713.65 2008.39 2705.36 2031.34 2701.59 2016.69 2706.29 2001.79 2705.02 1987.01 2700.84 1987.69 2696.66 1988.36 2692.51 1989.01 2693.04 1992.97 2693.75 1996.93 2694.6 2000.86 2695.76 2002.63 2698.11 2006.2 2699.31 2008L2700.36 2009.9C2694.98 2010.06 2691.8 2012.41 2690.83 2016.92L2697.33 2016.02C2696.73 2020.36 2696.25 2024.74 2695.76 2029.12 2699.91 2030.35 2704.02 2031.83 2708.12 2033.31 2704.05 2039.65 2700.88 2046.38 2698.49 2053.33L2708.38 2051.08 2702.3 2045.8C2704.84 2045.54 2709.95 2045.03 2712.49 2044.77L2711.19 2049.53 2719.14 2049.95C2718.8 2043.77 2718.35 2037.59 2717.83 2031.44 2711.48 2031.31 2709.32 2028.16 2711.33 2021.91 2721.16 2019.88 2722.01 2010.29 2726.16 2003.85 2733.59 1999.25 2736.43 1991.55 2740.87 1985.05 2746.47 1989.56 2749.8 1995.16 2748.3 2001.89 2751.52 1994.96 2760.07 1998.09 2766.68 1997.7 2760.85 1994.9 2742.14 1994.96 2751.59 1985.85 2758.76 1985.92 2765.52 1988.14 2772.17 1990.33 2771.49 1991.84 2770.11 1994.9 2769.44 1996.41 2772.43 1996.16 2778.44 1995.61 2781.47 1995.35 2780.27 1997.19 2777.92 2000.86 2776.76 2002.69 2779.11 2002.63 2783.85 2002.47 2786.25 2002.4 2787.93 2007.42 2791.47 2011.58 2795.43 2015.44 2793.64 2015.15 2790.05 2014.54 2788.26 2014.22L2788.6 2017.92C2796.78 2020.11 2795.99 2028.8 2799.28 2034.4 2802.19 2039.13 2801.11 2044.03 2798.27 2048.6 2797.37 2042.74 2794.27 2038.17 2789.05 2034.82 2787.55 2037.11 2784.56 2041.65 2783.07 2043.9L2782.44 2049.15C2778.63 2046.6 2774.93 2044 2771.27 2041.36 2774.63 2037.04 2775.98 2032.18 2775.23 2026.84 2777.47 2030.35 2781.88 2037.33 2784.08 2040.84 2785.05 2037.94 2787.03 2032.21 2788 2029.31 2785.76 2029.12 2781.28 2028.7 2779.04 2028.51 2774.44 2020.78 2766.79 2014.76 2763.13 2006.55 2758.95 2001.02 2750.36 2005.14 2744.31 2005.01 2742.55 2010.8 2741.13 2017.18 2734.71 2020.62 2734.82 2022.23 2735.08 2025.39 2735.23 2026.96 2733.63 2029.06 2730.38 2033.21 2728.77 2035.3 2726.5 2033.4 2722.01 2029.6 2719.74 2027.67 2721.79 2027 2725.9 2025.64 2727.91 2024.97 2730.12 2016.82 2734.64 2009.52 2739.72 2002.47 2736.88 2004.46 2734.08 2006.49 2731.31 2008.52 2729.74 2013.48 2727.99 2018.4 2726.38 2023.36 2714.55 2022.17 2720.74 2030.99 2723.17 2036.27 2725.79 2036.04 2731.05 2035.59 2733.67 2035.4 2732.58 2040.52 2731.57 2045.7 2730.68 2050.85 2728.77 2050.53 2725 2049.85 2723.1 2049.5L2721.9 2055.52C2724.29 2054.94 2729.11 2053.81 2731.54 2053.27 2730.64 2057.77 2729.78 2062.28 2729 2066.79 2732.92 2069.33 2736.91 2071.94 2740.8 2074.61 2738.56 2075 2734.08 2075.84 2731.87 2076.25 2731.61 2077.67 2731.13 2080.5 2730.9 2081.95 2729.37 2082.05 2726.27 2082.31 2724.74 2082.44 2725.04 2083.05 2725.64 2084.27 2725.97 2084.88 2735.01 2085.14 2743.9 2083.43 2752.93 2083.34L2752.41 2076.64C2749.87 2077.22 2744.79 2078.38 2742.22 2078.96 2744.27 2075.42 2746.33 2071.88 2748.45 2068.37 2746.89 2067.01 2743.71 2064.37 2742.14 2063.02 2744.57 2063.76 2749.39 2065.24 2751.81 2065.98 2754.13 2065.69 2758.69 2065.15 2761 2064.86 2760.59 2061.86 2759.81 2055.88 2759.4 2052.88 2767.61 2057.97 2765.59 2070.72 2776.95 2072.29L2777.21 2077.57C2773.14 2078.54 2769.14 2079.63 2765.18 2080.86 2773.44 2079.89 2787.1 2086.62 2790.65 2076.61 2787.51 2077.38 2781.24 2078.96 2778.1 2079.73L2779.19 2071.01C2782.81 2071.23 2790.02 2071.68 2793.6 2071.91 2792.11 2076 2790.43 2080.09 2788.86 2084.17 2785.8 2084.37 2779.67 2084.75 2776.61 2084.91 2779.15 2089.03 2781.76 2093.12 2784.45 2097.18L2776.2 2101.85C2778.89 2101.66 2784.27 2101.3 2786.92 2101.11 2787.25 2103.88 2787.89 2109.41 2788.22 2112.21 2790.39 2112.89 2794.8 2114.24 2796.96 2114.92 2795.92 2117.4 2793.83 2122.36 2792.82 2124.87 2793 2123.26 2793.38 2120.1 2793.56 2118.52L2790.28 2118.94C2790.61 2124.71 2778.74 2127.73 2777.06 2121.55 2772.5 2115.27 2766.42 2109.93 2759.84 2105.23 2754.24 2106.94 2748.57 2108.45 2742.74 2109.35 2741.47 2109.96 2738.93 2111.18 2737.66 2111.8 2722.95 2108.9 2729.82 2093.74 2717.79 2088.2 2717.57 2084.37 2717.38 2080.54 2717.2 2076.7 2714.47 2076.41 2708.98 2075.87 2706.26 2075.61 2700.39 2078.64 2699.24 2085.53 2695.05 2089.97L2700.88 2090.48C2699.98 2091.58 2698.11 2093.8 2697.22 2094.89 2696.21 2098.98 2695.05 2103.04 2693.71 2107.06 2689.19 2109.54 2684.56 2112.28 2685.42 2117.59 2682.21 2119.88 2679 2122.13 2675.86 2124.45 2677.61 2131.56 2670.22 2133.85 2666.97 2139 2664.47 2137.58 2659.5 2134.75 2657 2133.33 2660.36 2133.27 2667.08 2133.08 2670.44 2132.98 2667.34 2130.95 2661.15 2126.93 2658.05 2124.9 2660.21 2116.5 2666.78 2109.77 2671.53 2102.4 2674.4 2094.54 2675.71 2086.3 2676.49 2078.09 2678.58 2076.87 2682.77 2074.42 2684.86 2073.23 2683.4 2072.1 2680.53 2069.88 2679.07 2068.78 2684.15 2063.79 2682.84 2056.91 2680.94 2051.05 2684.75 2039.13 2688.29 2027.13 2687.88 2014.63 2685.98 2011.99 2684.07 2009.35 2682.24 2006.75 2683.74 1999.86 2684.56 1992.74 2688.55 1986.5 2683.4 1980.35 2684.26 1972.52 2683.63 1965.35 2687.21 1965.25 2694.34 1964.99 2697.93 1964.89 2696.17 1966.79 2692.74 1970.66 2691.02 1972.59L2697.78 1971.01C2697.26 1973.72 2696.21 1979.19 2695.69 1981.89 2697.85 1981.89 2702.19 1981.83 2704.39 1981.83 2704.2 1973.01 2704.13 1964.22 2704.02 1955.4 2706.63 1955.88 2711.89 1956.85 2714.51 1957.33L2706.74 1953.82C2713.72 1951.92 2718.09 1947.64 2720.22 1941.65 2715.11 1943.55 2709.99 1945.45 2704.87 1947.22 2706.89 1941.01 2711.67 1937.11 2719.14 1935.57L2724.26 1938.66 2722.35 1933.02M2733.44 1931.99C2735.01 1934.37 2735.01 1934.37 2733.44 1931.99M2775.42 2004.17C2776.83 2010.67 2778.66 2017.15 2780.83 2023.52 2781.84 2021.17 2783.85 2016.44 2784.86 2014.09 2781.47 2010.93 2778.48 2007.49 2775.42 2004.17M2693.19 2033.6C2693.04 2035.82 2692.77 2040.26 2692.63 2042.48 2697.97 2046.35 2702.86 2037.2 2698.9 2033.89 2697.48 2033.82 2694.6 2033.66 2693.19 2033.6M2706.59 2058.16 2708.87 2062.7 2703.79 2062.41C2704.35 2065.34 2705.51 2071.17 2706.11 2074.1 2713.65 2074.52 2721.38 2076.22 2728.81 2073.94 2723.92 2072.49 2719.29 2071.17 2714.47 2069.75 2715.89 2067.01 2718.77 2061.54 2720.22 2058.8 2716.82 2058.64 2709.99 2058.32 2706.59 2058.16Z" fill="#FFFFFF" fill-rule="evenodd"/><path d="M1756.21 1928C1756.92 1930.03 1758.34 1934.1 1759.09 1936.13 1763.57 1935.87 1768.1 1935.61 1772.62 1935.39 1772.66 1940.52 1773.07 1945.65 1773.48 1950.74L1777 1950.45C1773.82 1957.06 1777.71 1968.26 1765.52 1969 1767.95 1963.39 1771.43 1958.16 1774.31 1952.71L1767.2 1952.84C1765.41 1947.87 1763.39 1943 1761.52 1938.1 1757.67 1939.74 1753.81 1941.42 1750 1943.1 1751.57 1939.32 1754.67 1931.77 1756.21 1928Z" fill="#FFFFFF" fill-rule="evenodd"/><path d="M1839.86 1936.09C1843.44 1933.89 1847.24 1931.97 1851 1930 1851 1944.7 1850.93 1959.56 1845.1 1973.55 1843.22 1982.64 1840.75 1991.61 1838.5 2000.61 1833.41 2005.31 1830.9 2011.49 1828.65 2017.55 1821.53 2018 1816.44 2021.56 1813.2 2027 1809.03 2025.54 1804.9 2024.09 1800.73 2022.69 1794.39 2017.35 1786.28 2014.28 1778.9 2010.26 1778.2 2005.44 1775.66 2001.65 1770.12 2000.13 1772.37 1995.95 1774.59 1991.77 1776.91 1987.63 1773.78 1987.73 1767.47 1987.95 1764.33 1988.05 1761.38 1981.87 1757.81 1975.88 1756 1969.34 1762.86 1969.4 1769.68 1968.95 1776.47 1967.98 1784.73 1974.52 1780.64 1988.44 1792.69 1991.22 1793.91 1995.01 1794.94 1998.83 1795.83 2002.72 1802.32 2002.85 1808.81 2003.04 1815.3 2003.3 1813.97 2001.84 1811.36 1998.93 1810.03 1997.47 1812.31 1996.24 1814.64 1995.01 1816.92 1993.78 1819.43 1981.51 1819.8 1968.66 1824.96 1956.97L1820.28 1955.74C1821.68 1955.61 1824.45 1955.29 1825.85 1955.12 1825.55 1952.47 1824.96 1947.19 1824.67 1944.57 1825.96 1944.6 1828.54 1944.73 1829.83 1944.76 1829.28 1947.22 1828.17 1952.08 1827.62 1954.54 1830.61 1953.12 1836.58 1950.33 1839.57 1948.91 1839.49 1944.63 1839.6 1940.36 1839.86 1936.09M1768.58 1976.1C1769.28 1987.24 1779.31 1971.25 1768.58 1976.1Z" fill="#FFFFFF" fill-rule="evenodd"/><path d="M1704.19 1943.79C1709.76 1943.27 1715.36 1942.59 1721 1943.33 1713.76 1944.93 1711.91 1950.96 1708.75 1955.6 1707.08 1955.69 1703.71 1955.91 1702 1956 1702.74 1951.92 1703.48 1947.87 1704.19 1943.79Z" fill="#FFFFFF" fill-rule="evenodd"/><path d="M1752 1944C1754.98 1944.66 1760.98 1945.97 1764 1946.62 1762.44 1950.13 1752.18 1954.72 1761.05 1957.51 1761.31 1960.13 1761.78 1965.38 1762 1968 1748.25 1967.18 1755.38 1951.9 1752 1944Z" fill="#FFFFFF" fill-rule="evenodd"/><path d="M2695.84 1945.91C2697.88 1945.69 2701.96 1945.22 2704 1945 2701.45 1950.67 2697.88 1956.43 2700.65 1962.62 2696.97 1962.72 2689.64 1962.91 2686 1963 2687.28 1960.34 2689.83 1955.05 2691.1 1952.39L2698.5 1952.23C2697.84 1950.67 2696.49 1947.47 2695.84 1945.91Z" fill="#FFFFFF" fill-rule="evenodd"/><path d="M2558.08 1952C2562.34 1952.06 2566.67 1952.1 2571 1952.1 2569 1961.15 2573.83 1971.4 2567.87 1979.65 2568.51 1981.97 2569.79 1986.64 2570.44 1988.99 2567.38 1992.92 2566.48 1997.37 2567.69 2002.27L2562.49 2000.34C2567.72 2008.62 2566.4 2020.25 2559.4 2027.44 2560.04 2027.66 2561.32 2028.05 2562 2028.24 2556.87 2034.04 2560.79 2040.62 2561.09 2047 2559.96 2059.5 2558.23 2072.03 2560.04 2084.57 2563.16 2085.5 2566.33 2086.44 2569.49 2087.4 2562.49 2086.47 2557.7 2088.5 2555.14 2093.53 2558.34 2093.66 2564.71 2093.95 2567.91 2094.07 2566.33 2104.13 2572.66 2116.6 2564.41 2125.01 2562.26 2128.01 2560.11 2131 2558 2134 2553.56 2131.91 2549 2130.13 2544.25 2128.72 2544.22 2127.75 2544.18 2125.85 2544.14 2124.88 2532.91 2124.85 2537.4 2114.79 2535.82 2108.8 2528.62 2094.78 2535.89 2079.09 2528.81 2065.11 2534.16 2065.27 2539.54 2065.46 2544.93 2065.69 2544.89 2061.88 2544.89 2058.08 2544.93 2054.28 2543.91 2054.47 2541.88 2054.86 2540.86 2055.05 2540.98 2056.92 2541.2 2060.72 2541.32 2062.62 2537.85 2062.5 2534.42 2062.3 2530.99 2062.08 2529.64 2060.05 2528.28 2058.02 2527 2056.02 2529.26 2046.64 2529.26 2037.01 2531.82 2027.69 2532.76 2022.7 2534.27 2017.9 2542.03 2019.44 2542.22 2018.61 2542.63 2016.93 2542.86 2016.06L2536.83 2017.61C2536.72 2015.77 2536.53 2012.1 2536.42 2010.26L2541.2 2011.13C2540.71 2005.65 2540.52 2000.14 2540.3 1994.63L2544.55 1994.6C2545.57 1984.06 2544.59 1973.53 2544.48 1962.99 2549.64 1965.89 2553.52 1969.82 2556.08 1974.81 2556.2 1968.27 2556.16 1961.76 2555.82 1955.25L2562.15 1956.9 2558.08 1952M2536.42 2024.12C2536.83 2034.98 2547.72 2019.06 2536.42 2024.12M2540.19 2049.15C2540.22 2047.8 2540.3 2045.03 2540.34 2043.68 2531.14 2038.42 2530.77 2055.02 2540.19 2049.15M2539.85 2087.11 2538.04 2089.21C2540.67 2097.07 2549.64 2085.37 2539.85 2087.11Z" fill="#FFFFFF" fill-rule="evenodd"/><path d="M2675.76 1951.06C2677.5 1951.06 2680.95 1951.03 2682.7 1951 2683.51 1953 2685.18 1956.95 2686 1958.95 2681.1 1959.92 2676.24 1961.01 2671.42 1962.1 2669.49 1964.71 2667.56 1967.35 2665.63 1969.99 2658.17 1970.6 2650.68 1971.08 2643.41 1972.63 2635.21 1977.46 2628.57 1983.99 2621.11 1989.59 2621.48 1993.84 2621.89 1998.12 2622.34 2002.37 2620.63 2002.27 2617.22 2002.11 2615.55 2002.01 2617.1 2009.96 2607.9 2013.44 2603.01 2018.59L2609.54 2020.71C2606.53 2025.32 2602.38 2028.98 2596.51 2030.69 2607.83 2029.6 2618.66 2033.17 2628.72 2037.26 2630.39 2032.24 2632.8 2027.54 2639.92 2029.05 2637.32 2030.88 2634.73 2032.72 2632.13 2034.49 2632.87 2037.29 2633.65 2040.06 2634.47 2042.86 2632.43 2043.18 2628.38 2043.79 2626.34 2044.11 2621.7 2047.27 2616.33 2049.33 2611.02 2051.42L2611.06 2043.95C2598.29 2047.56 2595.25 2060.75 2583.42 2065 2581.52 2062.23 2579.71 2059.46 2578 2056.63 2579.34 2054.06 2580.67 2051.45 2582.04 2048.88 2584.72 2049.74 2590.06 2051.51 2592.73 2052.38 2589.91 2045.21 2589.09 2037.48 2585.38 2030.56 2588.46 2024.38 2591.84 2018.27 2595.14 2012.18 2598.29 2002.5 2599.07 1991.49 2607.16 1983.67 2614.14 1976.23 2622.41 1969.44 2627.2 1960.66 2633.17 1957.92 2641.03 1958.08 2646.67 1961.2 2647.12 1962.59 2647.97 1965.35 2648.38 1966.74 2652.76 1965.61 2657.17 1964.45 2661.63 1963.36 2658.99 1962.65 2653.72 1961.2 2651.09 1960.46 2652.13 1949.74 2670.68 1952.38 2678.62 1955.6L2675.76 1951.06M2608.87 2040.6C2610.65 2045.53 2621.93 2045.53 2624.01 2040.8 2622.37 2035.16 2611.02 2035.39 2608.87 2040.6Z" fill="#FFFFFF" fill-rule="evenodd"/><path d="M1698 1987.28C1699.49 1978.09 1696.29 1966.77 1703.65 1959.14 1711.52 1958.26 1718.28 1961.66 1723 1966.9 1720.1 1968.61 1714.31 1972.08 1711.41 1973.79 1713.71 1974.66 1718.32 1976.41 1720.59 1977.28 1719.06 1977.61 1715.98 1978.29 1714.46 1978.61 1716.09 1985.82 1710.15 1996.11 1719.58 2000.35 1717.99 2000.61 1714.83 2001.12 1713.23 2001.38 1715.46 2015.52 1714.46 2029.66 1707.55 2042.69L1710.7 2046.15C1710.52 2048.55 1710.37 2050.94 1710.22 2053.37 1708.96 2054.44 1706.43 2056.54 1705.17 2057.61 1710.48 2061.39 1715.01 2065.66 1715.57 2072 1707.92 2069.67 1693.02 2063.04 1701.94 2054.76 1698.22 2032.63 1697.55 2010.18 1698.37 1987.86 1700.64 1988.51 1705.17 1989.84 1707.44 1990.51 1707.29 1983.37 1707.62 1976.22 1706.8 1969.13 1705.88 1974.21 1705.73 1979.35 1705.54 1984.5 1703.65 1985.21 1699.89 1986.6 1698 1987.28Z" fill="#FFFFFF" fill-rule="evenodd"/><path d="M2413 1977.4C2417.36 1974.31 2421.68 1971.15 2426 1968 2425.89 1971.51 2425.78 1975.02 2425.74 1978.56L2422.61 1977.59 2420.23 1982C2418.4 1980.84 2414.83 1978.56 2413 1977.4Z" fill="#FFFFFF" fill-rule="evenodd"/><path d="M1639.46 1985.26C1635.41 1980.78 1631.76 1966.24 1642.39 1968.18 1646.43 1981.42 1646.29 1995.29 1649.29 2008.66 1650.52 2015.79 1651.28 2022.94 1652 2030.13L1647.48 2030.87C1646.72 2025.04 1645.96 2019.11 1643.25 2013.66 1642.75 2020.72 1643.43 2027.94 1648.06 2034 1644.12 2033.26 1640.18 2032.52 1636.28 2031.74 1635.37 2022.17 1632.01 2012.92 1631.47 2003.31 1630.6 2003.25 1628.87 2003.15 1628 2003.09L1628.51 1999.96C1642.49 1996.8 1636.78 2009.37 1644.23 2014.3 1643.87 2009.08 1643.04 2003.86 1640.25 1999.19 1640 1994.54 1639.75 1989.9 1639.46 1985.26Z" fill="#FFFFFF" fill-rule="evenodd"/><path d="M2430.93 1973.94C2436.83 1968.95 2443.84 1967.11 2452 1968.39 2451.55 1974.8 2454.04 1982.88 2443.88 1984.29 2440.2 1991.06 2438.39 1998.61 2440.83 2006 2438.91 2002.65 2439.31 1996.84 2433.12 1997.3 2431.82 1993.82 2429.3 1986.82 2428 1983.34L2437.79 1985.44C2437.2 1983.73 2435.98 1980.28 2435.38 1978.54 2439.09 1977.98 2446.44 1976.8 2450.15 1976.21 2445.32 1975.65 2435.72 1974.54 2430.93 1973.94Z" fill="#FFFFFF" fill-rule="evenodd"/><path d="M2918 1977C2920.67 1979.67 2920.67 1979.67 2918 1977Z" fill="#FFFFFF" fill-rule="evenodd"/><path d="M1572 1989.48C1583.01 1986.74 1596.15 1988.45 1605.02 1981 1608.23 1985.19 1611.58 1989.31 1615 1993.4 1609.26 1996.96 1596.92 1994.06 1597.95 2002.97 1589.41 2002.9 1580.84 2002.9 1572.26 2003 1572.37 1998.51 1572.22 1994 1572 1989.48Z" fill="#FFFFFF" fill-rule="evenodd"/><path d="M1625 1978.99 1633.27 1978C1635.69 1984.43 1635.52 1991.28 1636 1998 1633.96 1997.78 1629.91 1997.36 1627.87 1997.14 1627.04 1991.06 1626.07 1985.04 1625 1978.99Z" fill="#FFFFFF" fill-rule="evenodd"/><path d="M2886.25 1981C2889.77 1982.97 2893.29 1984.99 2896.88 1986.99 2898.16 1990.48 2899.58 1993.97 2901 1997.45 2899.35 1997.2 2896.13 1996.72 2894.52 1996.47 2896.4 2002.21 2896.92 2008.1 2896.1 2014 2891.16 2013.37 2886.21 2012.73 2881.31 2012.07 2880.97 2009.75 2880.34 2005.12 2880 2002.81 2882.84 2001.67 2888.5 1999.39 2891.34 1998.28L2885.35 1997.9C2886.78 1994.76 2888.27 1991.62 2889.81 1988.51 2888.91 1986.64 2887.15 1982.87 2886.25 1981Z" fill="#FFFFFF" fill-rule="evenodd"/><path d="M2409.44 1986.07C2410.55 1985.06 2412.84 1983.01 2413.99 1982L2416.35 1982.69C2418.36 1986.98 2415.31 1992.44 2412.7 1996 2409.37 1993.45 2408.3 1990.14 2409.44 1986.07Z" fill="#FFFFFF" fill-rule="evenodd"/><path d="M3024.65 1987C3032.08 1989.71 3040.88 1990.61 3046.07 1996.64 3032.6 1993.7 3031.93 2005.47 3034.94 2013.17L3030.81 2009.4 3024.69 2020.65C3031.74 2013.46 3042.29 2016.55 3051.34 2016.04 3044.92 2007.17 3053.98 2009.75 3059.85 2010.72 3065.12 2013.01 3066.38 2018.71 3070.57 2022.13 3069.5 2024.45 3068.38 2026.8 3067.27 2029.12 3065.93 2027.19 3063.34 2023.35 3062.04 2021.42 3059.36 2027.32 3064.82 2038.47 3054.69 2040.4 3054.83 2043.04 3055.02 2045.65 3055.24 2048.3 3056.06 2046.17 3057.62 2041.92 3058.4 2039.79 3063.15 2040.24 3068.05 2041.01 3072.84 2041.63 3068.5 2042.69 3064.52 2044.3 3060.85 2046.46 3061.55 2050.78 3062.33 2055.13 3063.26 2059.45 3065.12 2059.45 3068.9 2059.45 3070.76 2059.45 3076.59 2058.48 3082.45 2058.13 3088.43 2058.32 3086.95 2055.32 3085.42 2052.36 3084.76 2049.14 3091.4 2049.78 3097.82 2051.1 3104.54 2051.62 3104.02 2053.03 3102.98 2055.9 3102.46 2057.32 3108.63 2055.87 3115.05 2056.19 3121.44 2055.94 3122.36 2053.07 3123.29 2050.2 3124.22 2047.33 3122.47 2049.04 3118.99 2052.49 3117.24 2054.19 3113.04 2051.91 3110.04 2048.65 3108.26 2044.46 3112.97 2039.76 3136.62 2051.04 3123.89 2040.43 3124.44 2038.53 3125.56 2034.73 3126.11 2032.8 3131.31 2029.61 3135.77 2025.64 3140.67 2022.06 3140.59 2026.93 3140.59 2031.83 3141 2036.7 3140.44 2038.37 3139.29 2041.72 3138.74 2043.4 3134.58 2048.39 3129.64 2053 3127.12 2058.9 3121.32 2060.35 3121.14 2065.67 3119.62 2069.79 3115.16 2070.57 3110.74 2071.31 3106.36 2072.02 3105.47 2073.11 3103.69 2075.37 3102.8 2076.5 3097.9 2076.63 3093 2076.79 3088.13 2076.95 3087.13 2078.46 3085.09 2081.49 3084.09 2083.01 3081.23 2083.01 3075.55 2083.01 3072.73 2083.01 3072.76 2081.4 3072.84 2078.14 3072.91 2076.53 3066.6 2076.37 3060.29 2076.34 3054.05 2076.4 3055.58 2074.63 3058.62 2071.11 3060.14 2069.34 3057.99 2069.57 3053.76 2070.02 3051.64 2070.24 3048.08 2077.33 3044.29 2084.3 3040.76 2091.35L3037.46 2090.35C3040.76 2102.57 3030.07 2113.37 3028.81 2125.48 3027.4 2120.62 3022.61 2118.33 3018.64 2115.43 3019.19 2121.23 3017.45 2129.35 3027.99 2127.93 3023.46 2132.93 3021.01 2139.79 3013.96 2142.66 3013.66 2144.24 3013.03 2147.43 3012.7 2149.04 3010.69 2148.59 3006.68 2147.66 3004.68 2147.2 3001.82 2151.2 2998.92 2155.17 2995.81 2159 2995.99 2154.71 2997.33 2150.72 2999.7 2146.98 2994.62 2147.24 2989.61 2147.69 2984.59 2148.2 2984.45 2146.82 2984.15 2143.98 2984 2142.56 2989.79 2140.92 2995.58 2139.15 3001.41 2137.44 3001.52 2134.15 3002.15 2130.96 3003.38 2127.84 3005.68 2132.09 3007.43 2136.57 3009.21 2141.05 3010.84 2137.31 3012.59 2133.64 3014.59 2130.06 3013.59 2129.38 3011.58 2128.06 3010.54 2127.42 3010.77 2125.9 3011.18 2122.94 3011.36 2121.45 3009.99 2120.46 3007.24 2118.46 3005.87 2117.46 3008.06 2114.14 3010.25 2110.82 3012.62 2107.56 3011.06 2098.67 3021.98 2093.22 3019.6 2084.49 3019.34 2075.05 3031.74 2067.12 3025.69 2057.74 3028.81 2054.32 3032.11 2050.97 3035.45 2047.72 3034.71 2043.53 3034.12 2039.34 3033.64 2035.15 3027.14 2036.05 3020.2 2036.08 3014.81 2039.69 3014.11 2035.15 3013.37 2030.6 3012.62 2026.06 3015.41 2026.41 3021.01 2027.12 3023.83 2027.48L3025.62 2023.97C3019.12 2024.13 3012.62 2024 3006.46 2022.16 3005.9 2019.36 3005.38 2016.52 3004.94 2013.68 3004.79 2010.17 3003.71 2006.79 3002.75 2003.4 3006.87 1997.76 3012.14 1992.87 3017.71 1988.26 3017.75 1991.38 3017.82 1997.67 3017.86 2000.79 3020.23 1996.25 3022.35 1991.58 3024.65 1987M3035.6 2016.62C3035.34 2022.64 3035.86 2028.7 3037.05 2034.63 3039.54 2033.7 3044.48 2031.8 3046.96 2030.86 3047.74 2033.44 3049.27 2038.56 3050.04 2041.14 3050.79 2038.53 3052.31 2033.28 3053.05 2030.67 3043.99 2029.83 3046.33 2022.48 3046.41 2016.78 3043.7 2016.75 3038.31 2016.68 3035.6 2016.62M3051.53 2018.49C3051.53 2019.81 3051.49 2022.45 3051.49 2023.74L3054.43 2023.61C3054.43 2022.29 3054.39 2019.71 3054.35 2018.39L3051.53 2018.49M3102.91 2063.12C3100.65 2067.83 3113.38 2068.21 3112.01 2063.51 3109.74 2063.41 3105.17 2063.22 3102.91 2063.12M3036.01 2077.72C3038.57 2081.4 3046.26 2075.37 3043.21 2072.21 3041.43 2073.6 3037.83 2076.34 3036.01 2077.72Z" fill="#FFFFFF" fill-rule="evenodd"/><path d="M3049.88 1989.69C3054.49 1988.59 3059.28 1988.97 3064 1989.69 3057.65 1993.46 3064.91 2004.09 3058.41 2006.13 3056.81 2005 3053.69 2002.77 3052.13 2001.64 3046.73 2003.72 3044.29 2008.42 3040.68 2012 3036.76 2002.05 3051.22 1999.13 3049.88 1989.69Z" fill="#FFFFFF" fill-rule="evenodd"/><path d="M3065.84 1987C3067.36 1987.73 3070.4 1989.21 3071.89 1989.97 3077.31 1998.84 3074.69 2008.93 3071.27 2018L3070.85 2010.28 3064.53 2013.32C3063.39 2004.51 3064.22 1995.67 3065.84 1987Z" fill="#FFFFFF" fill-rule="evenodd"/><path d="M2460 1991.87C2461.81 1991.16 2465.39 1989.74 2467.2 1989 2471.04 1993.66 2459.78 1998.24 2460 1991.87Z" fill="#FFFFFF" fill-rule="evenodd"/><path d="M1553.37 2006.13C1555.77 2005.6 1560.6 2004.52 1563 2004 1561.53 2012.08 1559.17 2020.02 1557.16 2028L1550 2026.92C1550.27 2023.52 1550.85 2016.75 1551.12 2013.35L1555.26 2014.04C1554.8 2012.04 1553.83 2008.09 1553.37 2006.13Z" fill="#FFFFFF" fill-rule="evenodd"/><path d="M1385.97 2014C1390.82 2014.29 1392.17 2016.65 1389.99 2021 1385.18 2020.58 1383.86 2018.26 1385.97 2014Z" fill="#FFFFFF" fill-rule="evenodd"/><path d="M2896.32 2051.91C2898.45 2037.28 2894.04 2021.91 2901.1 2008 2901.02 2023.7 2906.77 2038.26 2912 2053.01 2910.51 2059.76 2909.69 2066.6 2908.86 2073.44 2906.25 2073.54 2901.02 2073.77 2898.37 2073.86L2898.86 2075.68C2900.99 2075.81 2905.24 2076.1 2907.37 2076.26 2906.85 2084.47 2902.07 2091.93 2899.05 2099.61 2896.58 2099.58 2891.69 2099.48 2889.26 2099.42 2889.45 2096.37 2889.67 2093.32 2889.94 2090.24 2885.53 2093.42 2881.2 2096.69 2876.98 2100 2875.23 2097.6 2871.75 2092.8 2870 2090.4 2878.55 2087.94 2886.35 2082.75 2895.61 2082.68 2896.02 2077.46 2896.36 2072.27 2896.66 2067.08 2888.74 2069.87 2885.68 2077.04 2881.5 2082.81 2875.71 2076.68 2880.34 2071.11 2885.87 2066.47 2882.39 2055.57 2883.07 2044.71 2886.54 2033.88 2884.97 2032.45 2881.83 2029.6 2880.23 2028.17 2882.1 2027.94 2885.79 2027.52 2887.66 2027.33 2884.9 2023.4 2882.17 2019.48 2879.52 2015.56 2883.1 2015.3 2890.27 2014.78 2893.89 2014.55 2893.89 2020.36 2892.06 2025.58 2886.91 2029.5 2888.89 2029.63 2892.89 2029.86 2894.86 2029.99 2892.66 2037.64 2889.71 2045.1 2886.31 2052.43 2888.82 2052.3 2893.82 2052.04 2896.32 2051.91M2898.11 2062.03C2898.15 2063.78 2898.3 2067.25 2898.34 2068.97 2906.06 2073.34 2906.06 2058.23 2898.11 2062.03Z" fill="#FFFFFF" fill-rule="evenodd"/><path d="M1541.27 2014C1544.17 2017.5 1547.46 2021.07 1549.26 2025.21 1547.46 2032.35 1547.65 2039.67 1547.32 2046.93 1549.11 2044.97 1552.67 2041.08 1554.46 2039.12 1559.41 2050.34 1557.94 2062.23 1558.75 2073.89 1556.73 2080.8 1558.31 2087.8 1559.96 2094.61 1561.68 2094.64 1565.12 2094.68 1566.84 2094.71 1567.79 2092.91 1569.66 2089.31 1570.62 2087.51 1571.9 2090.85 1573.11 2094.19 1574.28 2097.6 1568.05 2097.6 1561.82 2097.5 1555.67 2097.15L1554.17 2103.41 1558.53 2103.38C1558.53 2105.25 1558.45 2108.97 1558.45 2110.84L1564.64 2107.3C1565.34 2105.86 1566.77 2103 1567.47 2101.55 1570.07 2106.92 1572.56 2112.35 1576 2117.39 1575.01 2122.88 1575.45 2128.92 1571.53 2133.65 1564.86 2125.55 1547.35 2128.89 1549.15 2115.69 1548.67 2122.24 1546 2128.47 1542.08 2134 1542.63 2128.51 1536.84 2121.53 1543.1 2116.97 1542.96 2105.34 1537.72 2094.13 1539.29 2082.4 1541.64 2059.59 1538.12 2036.78 1541.27 2014M1555.45 2118.03C1555.49 2119.25 1555.6 2121.7 1555.67 2122.95 1559.88 2126.74 1567.61 2121.37 1565.41 2116.94 1561.82 2115.08 1558.49 2115.46 1555.45 2118.03Z" fill="#FFFFFF" fill-rule="evenodd"/><path d="M2822.15 2023.76C2823.31 2023.31 2825.56 2022.45 2826.72 2022 2826.79 2028.32 2830.49 2037.04 2839.45 2032.79 2839.27 2034.04 2838.98 2036.53 2838.83 2037.78L2831.87 2034.39C2835.46 2043.72 2839.37 2052.95 2843 2062.3 2840.28 2061.92 2834.88 2061.15 2832.19 2060.77L2836.11 2056.55C2833.93 2054.48 2829.58 2050.36 2827.41 2048.28 2829.15 2056.49 2835.53 2066.1 2826.83 2073 2825.09 2067.03 2825.16 2060.35 2820.26 2055.5 2814.79 2050.45 2818.05 2042.79 2820.34 2037.17 2822.48 2040.52 2824.69 2043.88 2827.04 2047.2 2829.76 2040.59 2825.16 2035.28 2817.44 2036.18 2817.33 2035.25 2817.11 2033.37 2817 2032.41 2819.25 2032.54 2823.78 2032.76 2826.03 2032.86 2824.72 2029.82 2823.42 2026.79 2822.15 2023.76Z" fill="#FFFFFF" fill-rule="evenodd"/><path d="M1382.99 2026 1392.23 2027.68C1396.9 2036.75 1400.31 2023.42 1407.38 2026.74 1406.89 2029.16 1405.92 2034.04 1405.47 2036.49L1409.84 2036.66C1409.92 2038.95 1410.03 2043.6 1410.07 2045.92 1405.02 2046.25 1400.01 2046.54 1394.96 2046.79 1394.7 2048.47 1394.17 2051.86 1393.91 2053.54 1395.37 2052.99 1398.29 2051.93 1399.71 2051.41 1403.11 2054.45 1406.63 2057.55 1407.38 2061.94 1408.76 2063.75 1411.49 2067.33 1412.84 2069.14 1420.73 2070.91 1428.85 2071.3 1437 2071.11 1434.49 2073.79 1432.03 2076.47 1429.59 2079.21 1426.98 2078.95 1421.66 2078.47 1419.05 2078.21 1425.82 2081.34 1425.85 2087.12 1424.69 2093 1411.15 2092.74 1402.29 2083.22 1394.28 2075.08 1395.11 2073.89 1396.83 2071.5 1397.65 2070.3L1390.69 2070.07C1390.77 2066.94 1390.84 2063.84 1390.92 2060.71 1381.19 2055 1384.3 2045.44 1387.81 2037.49 1390.96 2037.17 1397.24 2036.56 1400.38 2036.27 1395 2032.68 1377.72 2035.01 1382.99 2026Z" fill="#FFFFFF" fill-rule="evenodd"/><path d="M2954.32 2031C2958 2031.03 2961.65 2031.1 2965.33 2031.29 2969.42 2039.08 2970.39 2047.91 2966.71 2055.99 2966.86 2060.35 2966.71 2064.75 2966.78 2069.15 2962.88 2072.64 2963.62 2077.2 2964.14 2081.63 2959.31 2088.51 2956.81 2096.3 2954.29 2104 2950.19 2104.09 2945.1 2101.67 2947.55 2097.5 2951.09 2090.97 2951.01 2083.44 2956.07 2077.49L2950.12 2079.91C2951.79 2073.35 2954.21 2066.95 2956.33 2060.48 2953.02 2065.62 2950.64 2071.15 2948.15 2076.62 2945.88 2076.1 2941.27 2075.06 2939 2074.55 2939.63 2072.45 2940.9 2068.27 2941.49 2066.17 2944.58 2062.68 2946.62 2058.64 2949.6 2055.05 2950.31 2055.86 2951.79 2057.48 2952.54 2058.29 2956.33 2053.92 2959.38 2048.33 2966.89 2048.59 2961.5 2040.41 2956.85 2049.78 2950.6 2051.63 2942.72 2049.78 2951.61 2046.49 2954.1 2044.32 2954.14 2039.86 2954.25 2035.43 2954.32 2031Z" fill="#FFFFFF" fill-rule="evenodd"/><path d="M3174.18 2032C3176.94 2031 3179.72 2030 3182.55 2029 3186.64 2030.68 3190.77 2032.32 3194.97 2033.93L3187.57 2036.32C3189.95 2036.13 3194.79 2035.77 3197.2 2035.58 3194.6 2041.87 3192.78 2048.54 3188.35 2054.12 3186.19 2061.83 3181.29 2069.44 3183.96 2077.54L3178.39 2072.57C3178.31 2080.51 3183.85 2094.92 3171.06 2097.67 3174.63 2100.34 3178.2 2103.02 3181.73 2105.79 3178.76 2107.37 3172.88 2110.5 3169.91 2112.08 3170.84 2114.63 3172.7 2119.69 3173.63 2122.21 3172.1 2123.02 3169.13 2124.6 3167.6 2125.4 3170.13 2128.85 3172.44 2132.4 3174.78 2136.01 3179.54 2133.11 3184.19 2129.89 3186.49 2125.02 3191.03 2124.76 3195.57 2124.53 3200.18 2124.4 3197.17 2130.98 3194.9 2138.08 3188.24 2142.69 3185.79 2148.4 3182.62 2153.85 3180.1 2159.56 3181.88 2162.85 3183.74 2166.14 3185.71 2169.39 3190.88 2172.17 3195.83 2175.26 3200.96 2178.14 3204.9 2183.75 3210.37 2188.49 3217.95 2190.23 3222.6 2186.26 3227.1 2182.13 3231.49 2177.94 3233.83 2180.42 3236.36 2182.71 3238.96 2185.1 3239.63 2196 3231.04 2208.77 3217.8 2210 3210.52 2209.1 3203.67 2206.87 3196.68 2205.1 3185.82 2196.74 3173.77 2188.49 3165.85 2177.97 3161.13 2176.55 3158.16 2173.75 3156.97 2169.49 3152.58 2169.3 3148.23 2169.27 3143.88 2169.36 3136.74 2165.4 3130.34 2160.56 3123.46 2156.3 3125.28 2146.59 3116.02 2141.5 3106.43 2139.82 3105.16 2147.59 3103.97 2159.33 3091.37 2158.46 3092.93 2153.98 3093.64 2149.33 3094.38 2144.69L3090.51 2144.21 3088.32 2151.78C3086.46 2148.91 3084.67 2146.04 3083 2143.14 3087.05 2139.92 3091.14 2136.63 3095.23 2133.4 3095.57 2131.89 3096.24 2128.92 3096.61 2127.4 3100.07 2124.14 3103.3 2120.66 3106.61 2117.24 3106.87 2115.37 3107.36 2111.66 3107.58 2109.79 3109.85 2109.53 3114.35 2108.99 3116.58 2108.7 3120.71 2103.63 3124.98 2098.63 3129.34 2093.67 3131.86 2097.38 3134.02 2101.21 3136.29 2105.12 3137.89 2102.37 3141.12 2096.89 3142.72 2094.18 3138.3 2093.96 3133.87 2093.83 3129.52 2093.76 3134.65 2089.99 3139.67 2086.02 3144.69 2082.12 3145.29 2070.41 3158.16 2065.06 3163.36 2055.25 3167.75 2047.8 3170.58 2039.74 3174.18 2032M3170.84 2058C3173.03 2059.96 3173.03 2059.96 3170.84 2058M3177.05 2059.87C3179.32 2062.09 3179.32 2062.09 3177.05 2059.87M3169.8 2078.48C3169.65 2080.47 3169.27 2084.47 3169.13 2086.47 3174.48 2088.31 3175.26 2077.28 3169.8 2078.48M3152.28 2084.54C3153.95 2086.89 3153.95 2086.89 3152.28 2084.54M3143.21 2103.41C3140.01 2110.6 3137.29 2122.6 3125.47 2120.34 3125.58 2121.08 3125.8 2122.56 3125.91 2123.34L3131.86 2122.02 3127.14 2129.4 3135.77 2126.53C3135.25 2128.76 3134.21 2133.24 3133.72 2135.46L3141.24 2134.47C3139.38 2138.08 3137.44 2141.66 3135.47 2145.21L3141.2 2146.85C3140.86 2141.85 3143.58 2139.14 3149.3 2138.82 3148.15 2133.59 3147.26 2128.37 3146.33 2123.14 3146.66 2119.47 3146.93 2115.76 3147.15 2112.05 3147.78 2110.92 3148.97 2108.66 3149.6 2107.57L3160.28 2105.28C3154.59 2104.5 3148.9 2103.86 3143.21 2103.41M3126.32 2106.15C3121.08 2107.53 3122.2 2116.69 3128.26 2112.66 3132.57 2111.15 3132.09 2102.25 3126.32 2106.15M3108.1 2126.56C3110.48 2128.66 3110.48 2128.66 3108.1 2126.56M3151.87 2132.5C3152.06 2134.21 3152.35 2137.59 3152.5 2139.3 3154.59 2139.43 3158.71 2139.69 3160.8 2139.82 3160.68 2138.14 3160.5 2134.76 3160.42 2133.08 3158.3 2132.92 3154.03 2132.63 3151.87 2132.5M3137.85 2153.07C3136.51 2156.59 3138.37 2162.85 3143.32 2163.27 3150.35 2161.04 3143.95 2149.01 3137.85 2153.07M3174.78 2164.46C3171.95 2166.46 3165.93 2167.94 3165.93 2171.46 3167.79 2171.59 3171.47 2171.85 3173.33 2171.97 3182.25 2179.23 3182.44 2164.46 3174.78 2164.46M3217.8 2198.71C3219.81 2201.07 3219.81 2201.07 3217.8 2198.71Z" fill="#FFFFFF" fill-rule="evenodd"/><path d="M1554 2036C1556.67 2038.67 1556.67 2038.67 1554 2036Z" fill="#FFFFFF" fill-rule="evenodd"/><path d="M1646 2037.82C1647.86 2036.1 1651.54 2032.72 1653.41 2031 1657.81 2037.17 1658.72 2044.05 1657.51 2051 1653.9 2046.46 1650.18 2041.99 1646 2037.82Z" fill="#FFFFFF" fill-rule="evenodd"/><path d="M1639 2038C1640.51 2038.03 1643.56 2038.07 1645.07 2038.1 1644.26 2039.52 1642.6 2042.44 1641.79 2043.9 1643.74 2043.77 1647.64 2043.55 1649.59 2043.42 1651.94 2049.06 1654.78 2054.51 1657.75 2059.89 1657.75 2057.75 1657.79 2053.44 1657.83 2051.26 1659.74 2051.72 1663.6 2052.56 1665.51 2052.98 1665.48 2056.87 1665.44 2060.8 1665.44 2064.69 1666.58 2065.43 1668.86 2066.96 1670 2067.7 1668.05 2068.03 1664.15 2068.68 1662.2 2069 1657.28 2064.36 1652.5 2059.53 1649.22 2053.82 1646.21 2052.11 1643.19 2050.42 1640.18 2048.73 1639.77 2045.17 1639.37 2041.57 1639 2038Z" fill="#FFFFFF" fill-rule="evenodd"/><path d="M3022.01 2042.22C3028.62 2040.59 3033.26 2048.5 3027.15 2051.33 3020.77 2054.76 3015.44 2044.06 3022.01 2042.22Z" fill="#FFFFFF" fill-rule="evenodd"/><path d="M2579 2065.94C2594.62 2062.45 2608.2 2069.21 2619.81 2077.39 2632.95 2076.31 2646.72 2079.7 2659 2074.25 2658.26 2078.05 2657.59 2081.89 2657 2085.73 2649.49 2087.12 2642.39 2089.63 2634.91 2091.12 2632.17 2096.29 2625.55 2094.93 2620.33 2094.58 2606.35 2096.16 2600.42 2082.59 2587.18 2081.26 2584.59 2076.09 2581.78 2071.01 2579 2065.94Z" fill="#FFFFFF" fill-rule="evenodd"/><path d="M2839.53 2071.67C2841.87 2069.11 2844.21 2066.56 2846.58 2064 2844.09 2071.08 2846.17 2075.94 2852.78 2078.49L2852.15 2080.13C2859.16 2083.97 2854.67 2088.49 2852.07 2093.02 2853.93 2095.97 2856.12 2098.79 2858.53 2101.44 2859.87 2095.58 2860.42 2089.61 2860.8 2083.64 2865.92 2088.26 2870.82 2093.08 2875.38 2098.17 2873.08 2098.92 2868.44 2100.46 2866.14 2101.22 2875.98 2111.41 2880.69 2097.05 2887.67 2092.43 2887.74 2095.77 2887.93 2102.4 2888 2105.74 2884.73 2115.15 2872.56 2111.08 2864.51 2111.35 2863.84 2107.41 2863.28 2103.51 2862.8 2099.58 2860.8 2101.87 2856.79 2106.49 2854.82 2108.79 2850.89 2104.43 2848.99 2097.84 2842.94 2095.51 2837.93 2094.46 2834.96 2091.48 2834 2086.59 2836.23 2087.64 2840.72 2089.74 2842.98 2090.79L2844.32 2092.07C2844.5 2089.28 2844.61 2086.49 2844.65 2083.71 2842.76 2079.74 2841.05 2075.71 2839.53 2071.67Z" fill="#FFFFFF" fill-rule="evenodd"/><path d="M2828 2080.08C2830.2 2076.71 2832.44 2073.34 2834.71 2070 2838.81 2075.87 2844.1 2081.62 2842.8 2089 2837.51 2086.43 2832.85 2083.16 2828 2080.08Z" fill="#FFFFFF" fill-rule="evenodd"/><path d="M2311 2075C2315.12 2076.7 2319.24 2078.47 2323.33 2080.27 2324.5 2081.72 2326.82 2084.55 2328 2086 2322.59 2085.87 2317.18 2086.06 2311.92 2085.1 2311.7 2082.56 2311.22 2077.54 2311 2075Z" fill="#FFFFFF" fill-rule="evenodd"/><path d="M2940.52 2075C2942.9 2075.76 2947.62 2077.26 2950 2078.03 2946.41 2082.52 2943.01 2087.15 2939.82 2091.86 2944.33 2099.23 2940.99 2107.74 2941.73 2115.68 2945.61 2124.51 2929.72 2117.81 2932.28 2113.22 2932.21 2100.12 2936.2 2087.46 2940.52 2075Z" fill="#FFFFFF" fill-rule="evenodd"/><path d="M2282.03 2085.02C2291.68 2084.95 2301.32 2085.08 2311 2085.14 2305.87 2092.02 2295.56 2087.56 2287.9 2088.46 2290.28 2096.46 2299.93 2092.15 2306.34 2093.26 2304.11 2103.15 2289.81 2096.95 2281.59 2098.32 2279.25 2093.51 2272.32 2087.03 2282.03 2085.02Z" fill="#FFFFFF" fill-rule="evenodd"/><path d="M2944.28 2108.98C2946.37 2108.72 2950.52 2108.23 2952.61 2108 2952.05 2115.74 2960.95 2115.35 2967 2117.31 2961.39 2117.86 2955.71 2118.06 2950.15 2118.35 2947.46 2121.91 2944.73 2125.44 2942 2129 2942.93 2122.3 2944.09 2115.67 2944.28 2108.98Z" fill="#FFFFFF" fill-rule="evenodd"/><path d="M2920.69 2133.59C2920.84 2126.08 2923.5 2117.8 2932.72 2116 2933.27 2118.89 2934.4 2124.75 2934.98 2127.64L2930.28 2126.34C2930.24 2128.54 2930.13 2132.96 2930.1 2135.19 2930.39 2133.63 2930.97 2130.5 2931.26 2128.97 2934.22 2129.04 2940.08 2129.24 2943 2129.34 2938.99 2133.13 2935.13 2136.99 2931.41 2140.98 2927.55 2142.61 2923.75 2144.3 2920 2146 2921.71 2141.58 2935.97 2133.03 2920.69 2133.59Z" fill="#FFFFFF" fill-rule="evenodd"/><path d="M2951.33 2125.28C2955.17 2124.89 2959.12 2124.86 2963 2125.47 2957.83 2128.82 2953.28 2132.81 2948 2136 2949.11 2132.43 2950.22 2128.85 2951.33 2125.28Z" fill="#FFFFFF" fill-rule="evenodd"/><path d="M1543 2134.4C1545.53 2133.6 1548.01 2132.83 1550.54 2132 1553.67 2133.95 1556.87 2135.9 1560 2137.89 1556.8 2139.87 1553.63 2141.92 1550.46 2144L1549.71 2139.23C1548.01 2138.02 1544.66 2135.58 1543 2134.4Z" fill="#FFFFFF" fill-rule="evenodd"/><path d="M3081.21 2149C3082.68 2149.71 3085.59 2151.1 3087.06 2151.81 3086.77 2152.88 3086.18 2155.04 3085.85 2156.14L3091.81 2153.94 3088.17 2160.69C3090.11 2161.08 3094.05 2161.85 3096 2162.27 3089.12 2165.66 3082.13 2168.92 3075 2171.89 3076.21 2175.51 3077.53 2179.09 3078.93 2182.68 3078.34 2182.77 3077.17 2182.94 3076.61 2183 3074.41 2179.55 3071.87 2176.28 3069 2173.28 3071.39 2170.54 3080.55 2169.41 3077.98 2164.95 3073.34 2159.46 3079.7 2154.33 3081.21 2149Z" fill="#FFFFFF" fill-rule="evenodd"/><path d="M3084.57 2170C3089.18 2172.14 3089.14 2174.49 3084.47 2177 3079.79 2174.92 3079.86 2172.58 3084.57 2170Z" fill="#FFFFFF" fill-rule="evenodd"/><path d="M1380.41 2191.96C1387.51 2189.46 1391.31 2183.52 1396.44 2179 1395.17 2182.91 1393.61 2186.76 1391.83 2190.55 1380 2188.95 1384.05 2200.05 1383.16 2206.4 1378.96 2210.28 1367.99 2212.56 1373.57 2219.84 1376.1 2220.2 1381.12 2220.97 1383.65 2221.32 1383.46 2219.27 1383.12 2215.19 1382.98 2213.14 1385.1 2213.4 1389.37 2213.88 1391.53 2214.13L1390.3 2209.16C1392.31 2209.61 1396.36 2210.51 1398.37 2210.96 1398.56 2208.62 1398.93 2203.9 1399.12 2201.56 1397.44 2200.69 1394.1 2198.99 1392.42 2198.16 1395.62 2198.09 1402.02 2197.99 1405.22 2197.93 1405.81 2192.38 1410.5 2188.43 1413.88 2184.07 1415.89 2183.97 1419.91 2183.81 1421.91 2183.72 1421.8 2185.87 1421.65 2190.2 1421.58 2192.38L1417.19 2190.17C1417.23 2193.63 1417.27 2197.1 1417.27 2200.59 1419.16 2200.98 1422.99 2201.75 1424.89 2202.13 1424.26 2198.22 1423.7 2194.3 1423.14 2190.39 1426.56 2190.58 1433.33 2190.94 1436.72 2191.13 1439.17 2202.55 1425.19 2206.85 1414.81 2207.88 1418.6 2209.64 1422.4 2211.44 1426.19 2213.27 1422.88 2213.94 1419.61 2214.58 1416.3 2215.26 1413.51 2219.59 1410.24 2223.66 1406.85 2227.67L1411.72 2228.67C1407.11 2233.06 1402.46 2237.4 1397.37 2241.37 1387.1 2251.64 1370.03 2258.32 1370.59 2274.07 1369.96 2272.37 1368.66 2268.97 1367.99 2267.27 1364.49 2268.26 1361.03 2269.26 1357.57 2270.32 1359.66 2270.51 1363.82 2270.86 1365.91 2271.02 1365.76 2278.14 1365.65 2285.27 1365.16 2292.36 1362.3 2294.38 1360.4 2296.95 1359.36 2300.03 1362 2300.28 1367.32 2300.8 1369.96 2301.09L1367.95 2293.39C1373.6 2297.72 1378.62 2302.63 1383.68 2307.5 1383.83 2313.05 1382.68 2317.93 1375.02 2315.24 1375.87 2311.1 1376.69 2306.93 1377.51 2302.75 1374.46 2303.01 1368.36 2303.52 1365.31 2303.75 1367.1 2305.42 1370.63 2308.75 1372.38 2310.42 1367.76 2310.36 1363.15 2310.33 1358.54 2310.33 1356.68 2304.68 1354.45 2298.97 1349.43 2294.8 1349.1 2286.9 1352.33 2279.59 1355.75 2272.43 1352.81 2274.01 1346.94 2277.12 1344 2278.69 1346.08 2270.6 1352.18 2264.03 1354.79 2256.13 1351.77 2255.07 1348.76 2254.05 1345.75 2253.02 1352.22 2252.51 1354.93 2249.68 1353.82 2244.61L1357.5 2242.82C1356.57 2241.82 1354.64 2239.8 1353.67 2238.81 1356.16 2238.42 1361.18 2237.68 1363.71 2237.3 1364.98 2235.98 1367.54 2233.29 1368.81 2231.94 1369.18 2225.36 1369.36 2218.79 1370.07 2212.21 1377.92 2207.43 1380.26 2199.92 1380.41 2191.96M1397.52 2227.45C1397.96 2238.26 1408.79 2222.99 1397.52 2227.45M1356.12 2283.92C1352.18 2293.8 1368.99 2282.51 1356.12 2283.92Z" fill="#FFFFFF" fill-rule="evenodd"/><path d="M1429 2186.1C1433.47 2183.32 1442.17 2178.47 1447 2182.61 1445.12 2187.64 1432.93 2189.89 1429 2186.1Z" fill="#FFFFFF" fill-rule="evenodd"/><path d="M3109.46 1917.16C3112.98 1916.39 3116.29 1918.51 3119.03 1920.5 3127.7 1927.18 3136.33 1933.91 3144.99 1940.61 3147 1942.27 3149.12 1944.13 3149.88 1946.73 3150.28 1948.86 3149.75 1951.73 3147.45 1952.56 3144.31 1953.91 3141.19 1951.88 3138.58 1950.29 3129.45 1944.34 3120.36 1938.32 3111.25 1932.34 3108.61 1930.53 3105.83 1928.52 3104.4 1925.55 3102.86 1921.91 3106.07 1918.12 3109.46 1917.16Z" fill="#FFFFFF" fill-rule="evenodd"/><path d="M3212.03 1972.23C3219.92 1966.8 3229.95 1965.31 3239.35 1966.27 3247.82 1967.1 3256.02 1970.79 3262.01 1976.83 3265.44 1980.39 3267.62 1985.38 3266.84 1990.37 3266.57 1993.27 3264.7 1996.12 3261.83 1997.06 3259.31 1997.85 3256.37 1998.24 3253.93 1996.99 3251.88 1995.85 3250.99 1993.59 3249.73 1991.75 3246.4 1986.62 3240.39 1983.39 3234.25 1983.35 3229.57 1983.16 3224.44 1984.16 3221.1 1987.66 3217.4 1991.4 3216.48 1996.92 3216.39 2001.96 3216.31 2006.59 3217.51 2011.35 3220.3 2015.12 3224.68 2020.66 3230.78 2024.42 3236.17 2028.89 3242.23 2033.79 3248.75 2038.69 3252.32 2045.8 3256.39 2053.67 3256.34 2063.1 3253.77 2071.43 3250.28 2082.43 3240.3 2090.9 3228.93 2093.06 3219.3 2094.89 3208.89 2094.19 3200.06 2089.72 3193.42 2086.24 3187.54 2080.46 3185.77 2073.02 3184.79 2068.78 3184.53 2064.14 3186.29 2060.07 3188.31 2055.42 3194.62 2054.09 3198.98 2056 3203.29 2058.33 3203.88 2063.74 3204.07 2068.09 3206.97 2071.64 3210.78 2074.69 3215.31 2075.84 3220.99 2077.22 3227.61 2076.01 3231.7 2071.66 3235.3 2068.17 3236.66 2062.7 3235.42 2057.89 3234.2 2053.65 3230.94 2050.38 3227.48 2047.8 3219.32 2041.18 3210.21 2035.33 3204.21 2026.54 3197.05 2016.56 3195.08 2003.4 3198.29 1991.64 3200.31 1983.79 3205.33 1976.82 3212.03 1972.23Z" fill="#FFFFFF" fill-rule="evenodd"/></g></svg>