<svg width="2111" height="791" xmlns="http://www.w3.org/2000/svg" xmlns:xlink="http://www.w3.org/1999/xlink" xml:space="preserve" overflow="hidden"><defs><clipPath id="clip0"><rect x="1113" y="106" width="2111" height="791"/></clipPath></defs><g clip-path="url(#clip0)" transform="translate(-1113 -106)"><path d="M1796 666.014C1810.48 666 1824.94 666.027 1839.42 666 1839.48 699.773 1839.41 733.547 1839.46 767.306 1839.17 771.171 1841.34 775.489 1845.01 775.667 1847.97 776.204 1850.39 773.88 1851.87 771.212 1861.55 755.343 1871.18 739.432 1880.88 723.577 1896.67 723.632 1912.46 723.577 1928.25 723.604 1918.17 738.676 1908.09 753.734 1898 768.778 1896.68 770.786 1895.23 773.096 1895.7 775.777 1896.56 778.968 1898.41 781.635 1899.92 784.468 1910.29 803.294 1920.66 822.133 1931 840.987 1914.24 841.014 1897.48 840.987 1880.71 841 1870.94 821.281 1861.34 801.465 1851.53 781.773 1849.86 777.812 1844.93 775.887 1841.87 778.981 1839.71 780.755 1839.41 783.932 1839.43 786.737 1839.43 804.82 1839.44 822.917 1839.43 841 1824.96 841 1810.48 840.987 1796 841 1796 782.667 1796 724.347 1796 666.014Z" fill-rule="evenodd"/><path d="M1471 679.046C1500.43 679.032 1529.86 679.06 1559.3 679.032 1573.01 678.716 1587.66 680.6 1599.12 689.994 1608.29 697.325 1614.06 709.264 1615.36 721.931 1617.19 739.193 1615.44 758.476 1605.41 772.285 1596.41 784.746 1581.95 789.986 1568.26 790.358 1553.67 790.619 1539.07 790.316 1524.48 790.495 1520.88 790.083 1517.6 793.631 1517.87 797.812 1517.75 812.199 1517.87 826.6 1517.82 841 1502.22 841 1486.61 840.987 1471 841 1471 787.015 1471.01 733.031 1471 679.046M1520.34 706.554C1517.8 707.572 1516.12 710.557 1516.26 713.624 1516.08 726.965 1516.24 740.293 1516.17 753.634 1516.02 757.169 1516.7 761.557 1520.01 762.905 1524.63 764.032 1529.41 763.248 1534.09 763.482 1543.9 763.675 1554.7 762.203 1562.42 754.597 1571.48 744.034 1571.86 724.586 1562.39 714.201 1554.87 707.118 1544.62 706.169 1535.3 706.114 1530.32 706.196 1525.26 705.495 1520.34 706.554Z" fill-rule="evenodd"/><path d="M2123.06 679C2138.7 679 2154.35 679 2169.99 679 2169.97 717.232 2170.04 755.477 2169.96 793.709 2170.14 808.696 2164.79 824 2154.42 833.441 2146.73 839.84 2137.16 842.359 2127.85 843.501 2114.48 845.001 2101 842.978 2088 839.331 2088 828.624 2088.01 817.917 2088 807.223 2096.32 808.779 2105.51 807.87 2112.6 802.283 2119.57 796.613 2123.17 786.704 2123.02 777.098 2123.11 744.398 2123.03 711.699 2123.06 679Z" fill-rule="evenodd"/><path d="M1688.6 722.053C1706.2 719.967 1724.64 720.502 1741.27 728.065 1751.35 732.76 1760.25 741.503 1764.54 753.184 1769.76 767.349 1770 783.45 1767.31 798.356 1764.81 812.357 1757.38 825.163 1746.71 832.575 1732.76 842.335 1715.93 844.448 1699.93 843.927 1685.07 843.364 1669.5 839.754 1657.54 828.965 1647.11 819.577 1641.59 804.574 1640.41 789.654 1639.06 773.279 1640.73 755.16 1650.28 742.134 1659.71 729.246 1674.53 723.893 1688.6 722.053M1698.02 746.376C1689.54 749.835 1687.47 761.131 1686.76 770.245 1686.28 783.903 1685.34 798.59 1690.75 811.204 1696.2 822.679 1712.22 822.844 1717.9 811.561 1722.76 801.156 1722.55 788.776 1722.42 777.273 1722.2 769.134 1721.68 760.541 1718.1 753.335 1714.05 745.772 1705.01 743.123 1698.02 746.376Z" fill-rule="evenodd"/><path d="M1994.25 723.242C2008.67 720.428 2023.76 719.755 2037.99 724.216 2047.21 727.236 2056.06 733.455 2060.91 743.159 2069.06 757.119 2071.04 774.374 2071 790.791 2048.03 790.832 2025.06 790.75 2002.1 790.818 1998.92 790.558 1995.29 792.328 1994.68 796.254 1994.33 805.204 1998.42 814.511 2005.44 818.807 2011.36 822.637 2018.24 823.941 2024.95 824.504 2037.64 825.053 2050.48 823.955 2062.69 819.741 2062.68 825.876 2062.68 832.012 2062.69 838.148 2046.1 843.227 2028.8 844.352 2011.71 843.913 1997.02 843.241 1981.69 839.617 1969.86 829.116 1959.19 819.713 1953.55 804.531 1952.38 789.487 1951.17 773.935 1952.55 756.955 1961.02 744.079 1968.86 732.082 1981.65 725.836 1994.25 723.242M2011.06 738.163C1997.73 741.032 1992.29 759.247 1994.81 772.878 1995.87 776.268 1999.26 777.119 2002.06 776.913 2011.26 776.803 2020.48 777.078 2029.69 776.79 2032.62 776.776 2034.99 773.605 2035.09 770.366 2035.21 762.185 2034.26 753.55 2030.33 746.522 2026.22 739.535 2018.18 736.172 2011.06 738.163Z" fill-rule="evenodd"/><path d="M2246.07 722.061C2260.24 720.222 2274.73 720.661 2288.67 724.257 2300.8 727.469 2312.86 734.632 2319.63 747.011 2326.96 760.406 2328.01 777.067 2326.27 792.397 2324.71 806.903 2318.55 821.066 2308.1 829.795 2294.98 840.911 2278.06 843.958 2262.11 843.999 2245.85 844.068 2228.62 840.952 2215.31 829.534 2204.04 819.886 2198.27 803.87 2197.28 788.142 2196.19 772.209 2198.03 754.711 2207.39 742.112 2216.92 729.225 2231.86 723.887 2246.07 722.061M2255.44 746.421C2247.71 749.495 2245.25 759.377 2244.36 767.707 2243.49 779.976 2243.15 792.561 2245.81 804.597 2247 810.018 2249.77 815.275 2254.27 817.841 2260.06 821.56 2267.72 820.38 2272.69 815.453 2275.77 812.269 2277.46 807.726 2278.4 803.17 2280.63 791.958 2280.42 780.361 2279.67 768.97 2278.98 763.274 2278.11 757.318 2275.22 752.474 2270.89 745.543 2262.21 743.279 2255.44 746.421Z" fill-rule="evenodd"/><path d="M2572.16 725.601C2577.11 721.829 2583.16 720.91 2588.99 721.006 2589.01 733.803 2588.99 746.599 2589 759.395 2579 757.996 2568.23 760.739 2560.7 768.708 2552.71 776.649 2548.55 788.718 2548.35 800.692 2548.16 814.118 2548.32 827.559 2548.28 841 2533.84 841 2519.42 840.987 2505 841 2505 801.967 2505 762.947 2505 723.914 2518.27 723.9 2531.54 723.914 2544.81 723.9 2544.97 731.855 2544.54 739.851 2545.01 747.792 2545.52 754.183 2554.06 755.623 2556.46 749.987 2560.11 740.77 2564.51 731.252 2572.16 725.601Z" fill-rule="evenodd"/><path d="M2677.69 730.594C2685.77 722.334 2697.35 720.029 2707.88 721.346 2716.65 722.114 2726.43 725.051 2731.57 733.873 2737.36 743.285 2737.04 755.276 2736.98 766.239 2736.96 791.155 2736.98 816.07 2736.96 841 2722.42 841 2707.88 841 2693.34 841 2693.33 817.882 2693.35 794.777 2693.34 771.658 2693.22 765.635 2692.87 759.09 2689.56 754.096 2683.65 745.658 2670.78 746.056 2665.05 754.522 2661.68 760.366 2661.66 767.666 2661.5 774.402 2661.44 796.602 2661.5 818.801 2661.48 841 2646.99 840.986 2632.49 841 2618 841 2618 801.952 2618 762.905 2618.01 723.857 2631.49 723.871 2644.98 723.857 2658.47 723.871 2658.59 729.716 2658.11 735.615 2658.76 741.446 2659.69 746.934 2667.2 748.526 2669.74 743.683 2672.17 739.169 2674.06 734.12 2677.69 730.594Z" fill-rule="evenodd"/><path d="M2808.17 722.684C2824.54 720.076 2842.22 719.582 2857.44 728.009 2867.15 733.198 2873.48 743.876 2877.16 755.008 2881.13 766.345 2881.92 778.698 2882 790.791 2859.04 790.832 2836.07 790.749 2813.09 790.818 2809.9 790.557 2806.27 792.355 2805.68 796.281 2805.39 803.926 2808.32 811.763 2813.55 816.622 2819.95 822.181 2828.19 823.856 2836.03 824.501 2848.69 825.05 2861.52 823.938 2873.7 819.738 2873.69 825.873 2873.69 832.009 2873.7 838.144 2856.75 843.319 2839.05 844.431 2821.58 843.868 2806.98 843.017 2791.75 839.201 2780.17 828.481 2769.91 819.024 2764.52 804.173 2763.38 789.459 2762.17 773.908 2763.55 756.929 2772.03 744.068 2780.51 731.139 2794.57 724.962 2808.17 722.684M2822.05 738.166C2810.81 740.445 2805.05 754.335 2805.25 766.318 2804.68 770.696 2806.08 776.777 2810.79 776.79 2820.39 777.037 2830 776.873 2839.61 776.873 2842.92 777.284 2846.04 774.155 2846.1 770.353 2846.22 762.159 2845.25 753.525 2841.31 746.484 2837.2 739.511 2829.16 736.176 2822.05 738.166Z" fill-rule="evenodd"/><path d="M3069.62 723.388C3089.28 719.256 3109.54 720.848 3129.04 725.393 3129.05 732.052 3129.04 738.712 3129.06 745.357 3115.37 741.307 3100.96 738.739 3086.91 741.581 3081.58 742.433 3076.19 746.332 3074.83 752.621 3073.04 757.783 3075.86 763.66 3080.03 765.939 3087.33 770.141 3095.77 769.811 3103.62 771.774 3114.39 773.642 3126.27 776.635 3133.69 786.603 3141.46 799.977 3138.48 820.627 3126.75 829.813 3115.73 839.534 3101.58 842.514 3088.07 843.818 3071.63 844.697 3055.14 842.335 3039.16 837.941 3039.15 830.98 3039.15 824.019 3039.16 817.057 3052.47 822.742 3066.79 825.666 3080.99 824.197 3087.23 823.25 3094.68 821.918 3098.23 815.121 3101.03 810.275 3099.41 803.602 3095.6 800.155 3090.17 795.075 3082.87 794.663 3076.31 793.002 3066.22 790.571 3055.5 789.171 3046.75 782.388 3034.29 774.164 3033.28 753.142 3040.54 740.263 3047.39 729.965 3058.81 725.283 3069.62 723.388Z" fill-rule="evenodd"/><path d="M2354.02 724C2368.51 724.014 2383.01 724 2397.5 724.014 2397.5 746.333 2397.47 768.666 2397.52 790.999 2397.72 797.676 2397.72 804.969 2401.17 810.727 2407.04 819.309 2420.14 819.118 2425.92 810.48 2428.96 805.161 2429.24 798.553 2429.35 792.411 2429.37 769.612 2429.35 746.799 2429.36 724 2443.91 724.014 2458.45 724 2472.99 724.014 2473.01 763.018 2472.99 802.035 2472.99 841.039 2459.45 841.053 2445.92 841.053 2432.38 841.053 2432.28 835.418 2432.6 829.77 2432.25 824.149 2431.73 818.761 2424.69 816.444 2421.79 820.749 2419.12 824.629 2417.67 829.482 2414.51 832.978 2406.94 841.917 2395.31 844.851 2384.71 843.795 2376.41 843.192 2367.27 841.3 2361.36 834.047 2355.89 827.261 2354.02 817.815 2354.04 808.849 2353.97 780.566 2354.02 752.283 2354.02 724Z" fill-rule="evenodd"/><path d="M2897 724.01C2911.62 723.997 2926.24 723.997 2940.85 724.01 2945.15 748.253 2949.45 772.495 2953.72 796.751 2954.18 799.292 2954.77 802.231 2956.98 803.55 2960.41 805.926 2965.55 803.714 2966.26 799.031 2970.65 774.06 2974.74 749.008 2978.99 724.01 2992.32 724.01 3005.67 723.997 3019 724.01 3010.19 755.903 3001.39 787.796 2992.57 819.688 2989.13 831.706 2986.16 843.917 2981.77 855.55 2977.98 867.321 2972.2 878.597 2963.48 886.413 2957.3 892.25 2949.43 895.093 2941.6 896.288 2928.38 898.101 2915.08 896.178 2902.06 893.582 2902.05 886.028 2902.06 878.474 2902.05 870.92 2910.62 871.909 2920.02 872.623 2927.77 867.472 2932.64 864.395 2936.09 858.283 2935.86 851.814 2935.14 840.442 2930.71 830.058 2927.31 819.523 2917.3 787.644 2907.11 755.848 2897 724.01Z" fill-rule="evenodd"/><path d="M1141.04 106C1149.82 106.355 1155.9 111.491 1161.83 116.497 1158.16 116.95 1154.49 117.37 1150.82 117.693 1154.05 127.415 1146.19 136.103 1144.79 145.503 1142.97 150.089 1144.23 156.969 1137.3 158.681 1137.01 163.623 1136.78 168.565 1136.56 173.539L1142.56 171.957C1140.15 175.122 1137.71 178.255 1135.3 181.421 1137.38 181.356 1141.49 181.227 1143.56 181.162 1145.6 185.975 1147.64 190.787 1149.56 195.632 1150.27 203.449 1152.79 211.298 1158.34 217.597 1164.49 226.931 1171.9 235.555 1179.98 243.727 1182.94 241.434 1186.39 239.916 1190.31 239.237 1186.87 243.598 1180.05 247.603 1186.5 254.096 1184.57 253.579 1180.72 252.578 1178.79 252.061 1180.31 256.098 1181.83 260.136 1183.35 264.173 1183.76 262.171 1184.54 258.198 1184.94 256.195L1187.98 256.712 1189.83 247.345C1190.69 249.961 1192.46 255.194 1193.32 257.778 1195.43 259.07 1199.65 261.621 1201.76 262.913 1213.51 262.623 1225.29 263.043 1237.03 263.107L1236.66 260.329C1246.25 258.456 1256.22 254.58 1266.22 256.841 1271.63 257.939 1270.56 262.946 1271 266.596 1261.11 261.202 1249.33 262.429 1238.36 263.559 1237.66 265.013 1236.29 267.92 1235.58 269.373 1226.21 269.47 1216.84 269.6 1207.47 269.632 1207.1 271.731 1206.32 275.898 1205.95 277.998 1212.5 277.125 1219.1 276.576 1225.73 276.383 1219.14 281.518 1209.84 278.934 1201.87 280L1204.17 275.704 1199.17 275.704C1199.43 274.251 1199.95 271.279 1200.21 269.793 1187.02 270.213 1173.83 269.955 1160.68 270.149L1163.01 266.531C1154.97 262.3 1136.78 264.141 1140.23 252.19 1145.49 253.45 1150.68 254.903 1155.79 256.55 1155.79 253.062 1155.86 246.053 1155.9 242.564L1150.27 245.084 1151.9 240.917C1147.3 240.659 1143.53 238.818 1140.82 235.717 1140.93 232.487 1140.9 229.257 1140.75 226.027 1134.26 222.829 1133.86 215.852 1130.12 210.878 1122.34 198.475 1116.07 185.329 1113 171.407 1115.52 172.086 1120.59 173.507 1123.15 174.185 1118.45 167.822 1114.82 160.91 1113.15 153.449 1115.67 153.642 1120.78 154.03 1123.34 154.192 1118.82 146.214 1120.41 137.396 1120.48 128.901 1125.04 128.158 1129.63 127.479 1134.23 126.833L1132.82 121.342 1128.19 121.924C1128.56 120.147 1129.3 116.594 1129.67 114.818 1133.56 112.008 1137.38 109.068 1141.04 106M1133.93 144.631C1136.71 146.407 1136.71 146.407 1133.93 144.631M1123.85 164.431C1126.41 166.627 1126.41 166.627 1123.85 164.431M1119.78 175.219C1117.37 179.87 1121.48 186.298 1125.3 189.657 1132.15 187.751 1126.15 174.702 1119.78 175.219M1127.74 194.308C1129.93 201.737 1133.63 209.166 1140.08 214.56 1150.53 222.797 1155.94 234.942 1168.75 241.111 1167.86 230.646 1157.34 225.316 1150.08 218.469 1149.27 216.66 1147.71 213.042 1146.9 211.234L1143.97 211.395C1143.41 206.55 1146.01 200.058 1139.38 197.506 1139.75 195.826 1140.53 192.467 1140.9 190.82 1136.45 191.853 1132.04 192.919 1127.74 194.308M1151.27 236.04C1153.71 238.301 1153.71 238.301 1151.27 236.04M1159.31 261.815C1165.31 263.269 1167.68 261.428 1166.42 256.26 1160.23 254.839 1157.86 256.68 1159.31 261.815Z" fill-rule="evenodd"/><path d="M1878.87 181C1883.88 181.322 1888.93 181.451 1893.9 182.223 1895.09 185.73 1896.17 189.238 1897.1 192.778 1908.3 195.255 1910.38 204.04 1908.82 212.825 1913.91 214.37 1918.95 216.043 1924 217.684 1923.59 219.164 1922.7 222.092 1922.29 223.573 1918.77 226.984 1915.43 230.459 1912.27 234.095 1913.31 243.652 1905.74 251.6 1899.1 258.487 1900.69 259.71 1903.92 262.187 1905.52 263.442 1903.66 264.408 1899.99 266.37 1898.13 267.336 1896.43 272.774 1894.76 278.212 1892.72 283.586 1886.63 284.359 1880.62 282.878 1874.68 282.203 1874.64 284.777 1874.64 289.926 1874.61 292.5 1879.76 292.178 1884.92 291.985 1890.12 291.92 1888.3 296.908 1886.33 301.832 1884.33 306.755 1879.62 308.364 1875.01 310.102 1870.49 312 1866.66 308.814 1862.77 305.661 1858.87 302.572 1860.58 301.574 1863.99 299.579 1865.7 298.582 1860.32 298.067 1854.97 297.552 1849.67 297.005 1850.37 294.752 1851.78 290.279 1852.45 288.027 1854.42 288.51 1858.28 289.411 1860.24 289.893 1859.95 288.059 1859.39 284.423 1859.13 282.621 1869.93 284.359 1869.89 274.19 1877.95 271.841 1878.06 267.787 1878.24 263.732 1878.54 259.677 1876.5 259.838 1872.42 260.128 1870.38 260.289 1870.82 264.633 1871.3 268.977 1871.79 273.321 1866.96 273.289 1862.14 273.386 1857.35 273.128 1855.68 269.781 1854.01 266.435 1852.3 263.088 1852.3 265.663 1852.3 270.779 1852.27 273.353 1849.33 273.289 1843.4 273.128 1840.43 273.064 1840.02 278.599 1842.06 283.683 1845.07 288.445 1841.87 284.294 1838.65 280.143 1835.49 275.96 1831.37 275.928 1827.22 275.96 1823.1 275.992 1819.5 273.257 1815.67 270.747 1811.7 268.462L1812.41 265.727 1807.66 266.306C1807.84 262.22 1808.07 258.165 1808.29 254.078L1803.61 255.494C1805.62 252.341 1807.47 249.155 1809.22 245.905 1803.65 242.719 1798.2 239.373 1793 235.768 1800.39 235.125 1807.81 234.739 1815.23 234.095 1815.12 237.442 1815.04 240.82 1815.01 244.167L1811 243.331C1811.18 246.227 1811.56 251.987 1811.78 254.883 1815.01 254.722 1818.24 254.561 1821.46 254.336 1824.32 249.187 1831.52 249.606 1836.83 247.836 1833.45 247.578 1826.73 247.128 1823.39 246.902 1825.51 244.875 1829.7 240.788 1831.82 238.761 1830.18 238.343 1826.92 237.538 1825.29 237.12 1825.84 235.575 1826.96 232.422 1827.51 230.877L1822.24 231.424 1823.28 227.177C1820.76 227.531 1815.67 228.303 1813.15 228.657 1810.15 221.932 1801.16 224.892 1795.23 223.734 1799.98 213.855 1804.91 204.008 1811.26 194.805 1825.03 194.708 1838.83 194.644 1852.6 194.451 1855.16 199.149 1860.21 200.822 1865.77 201.627 1865.51 196.832 1868.48 193.679 1873.08 191.555 1875.05 188.079 1876.98 184.54 1878.87 181M1840.13 198.119C1842.47 200.082 1842.47 200.082 1840.13 198.119M1818.38 214.563C1818.53 217.169 1818.75 222.382 1818.87 224.989 1822.73 224.956 1826.59 224.956 1830.44 224.989 1830.37 221.674 1830.33 218.36 1830.33 215.078 1827.36 214.949 1821.39 214.691 1818.38 214.563M1825.66 256.041C1825.43 267.046 1836.98 251.6 1825.66 256.041M1812.78 259.71C1808.51 265.984 1822.65 266.21 1826.47 263.346 1825.55 259.324 1816.83 259.967 1812.78 259.71M1835.34 265.888C1828.66 274.898 1848.41 266.757 1835.34 265.888Z" fill-rule="evenodd"/><path d="M2308.41 187.158C2315.18 186.996 2322.13 186.61 2328.78 188.252 2334.4 193.148 2338.84 198.976 2343.02 204.87L2345.57 205.128 2345.87 207.06C2353.78 214.499 2361.5 222.163 2371.08 228.057 2378.7 238.169 2383.47 249.956 2393.12 258.973 2393.01 263.353 2392.97 267.732 2393.01 272.112L2400.44 271.146 2400.96 274.495C2399.07 276.009 2395.37 279.068 2393.49 280.582 2401.07 281.258 2409.87 283.577 2409.35 291.692L2411.9 291.853C2411.64 295.879 2411.38 299.872 2411.2 303.898 2412.9 304.188 2416.3 304.799 2418 305.089 2413.27 307.505 2408.72 310.274 2406.98 315.072 2400.84 316.039 2394.67 315.362 2388.83 313.623 2390.38 312.915 2393.52 311.433 2395.08 310.693 2393.23 306.732 2391.42 302.77 2389.6 298.809 2380.44 299.292 2383.32 291.338 2382.8 286.185L2377.7 286.314C2377.92 284.704 2378.29 281.451 2378.51 279.809L2374.33 279.584 2375.48 275.783 2371.64 275.719C2371.82 274.399 2372.19 271.726 2372.41 270.373L2368.71 269.955C2368.05 266.476 2367.38 262.998 2366.72 259.552 2369.16 259.52 2374.08 259.488 2376.55 259.456 2375.7 261.292 2374.04 264.931 2373.19 266.734L2379.99 265.188 2377.88 269.729C2379.99 269.858 2384.21 270.148 2386.31 270.309 2386.28 267.378 2386.35 264.48 2386.42 261.581L2380.69 263.675C2381.47 261.742 2383.06 257.846 2383.84 255.881L2377.7 258.007 2379.7 252.79 2374.22 254.11C2374.52 252.339 2375.07 248.828 2375.37 247.09 2372.26 247.122 2366.09 247.186 2362.98 247.218 2363.54 245.447 2364.68 241.872 2365.24 240.069L2358.92 241.422 2361.25 236.913C2359.1 236.913 2354.81 236.913 2352.63 236.913 2352.67 240.52 2352.71 244.095 2352.67 247.701L2356.96 245.608 2356.88 254.786 2352.08 252.596C2352.19 254.464 2352.45 258.2 2352.56 260.068L2356.51 259.359C2356.99 275.011 2356.96 290.694 2356.81 306.377 2359.43 318.679 2352.37 330.208 2353.48 342.446 2353.93 356.97 2347.6 370.528 2344.72 384.633 2341.98 389.496 2341.24 394.971 2339.62 400.156 2336.62 404.085 2333.63 407.949 2330.56 411.814L2337.8 410.107C2337.55 413.52 2337.4 416.966 2337.29 420.38 2334.51 424.695 2331.82 429.011 2328.97 433.262 2327.49 437.223 2326.08 441.184 2324.35 445.081 2321.8 454.516 2316.47 463.212 2314.44 472.744L2312.81 472.357C2312.77 477.091 2310.7 481.375 2307.63 485.207 2302.86 492.163 2299.69 499.828 2296.91 507.525 2294.51 515.06 2291.29 522.499 2281.98 525.205 2286.52 537.603 2272.36 545.139 2260.42 547.361L2262.08 551C2256.72 550.227 2251.32 549.519 2246 548.649 2248.99 547.651 2254.98 545.654 2257.98 544.656 2256.72 543.529 2254.21 541.307 2252.95 540.179 2257.54 533.095 2261.42 525.623 2263.53 517.669 2270.4 515.576 2272.62 510.23 2271.77 504.401 2272.58 502.662 2274.21 499.248 2275.02 497.509 2283.86 492.131 2283.16 482.824 2282.57 474.451L2285.19 473.549C2290.15 467.495 2297.5 461.344 2289.55 454.484 2294.14 453.583 2298.76 452.713 2303.42 451.876 2301.53 450.266 2297.73 447.109 2295.84 445.499 2298.13 441.667 2300.5 437.835 2302.79 433.97 2304.31 434.228 2307.41 434.711 2308.93 434.936 2308.52 432.843 2307.67 428.592 2307.26 426.499L2312.59 427.497C2311.89 421.539 2311.63 415.614 2311.41 409.656 2317.06 408.948 2322.76 408.11 2328.41 407.176 2323.9 405.92 2319.32 405.115 2314.62 404.793 2316.1 397.419 2314.88 389.657 2317.28 382.444 2322.57 375.745 2326.56 367.855 2325.75 359.514 2327.49 352.494 2327.05 345.312 2327.38 338.195 2333.52 331.335 2330.71 322.254 2330.23 314.332 2332.52 314.235 2337.07 314.042 2339.36 313.945 2331.85 304.284 2330.34 293.174 2330 281.838 2330.82 272.788 2330.74 263.707 2331.33 254.658L2327.23 255.044C2328.27 241.357 2315.32 229.828 2319.36 215.755 2314.73 214.37 2310.11 212.921 2305.56 211.44 2310.63 204.741 2317.69 199.782 2327.49 201.682 2327.6 199.62 2327.78 195.498 2327.86 193.47 2323.05 195.144 2318.32 196.915 2313.66 198.816 2312.7 206.287 2304.94 205.095 2299.09 203.292 2300.65 202.68 2303.75 201.424 2305.31 200.812 2306.34 196.271 2307.49 191.731 2308.41 187.158Z" fill-rule="evenodd"/><path d="M2475.97 231.82C2472.97 230.5 2460.27 230.951 2464.86 226.121 2487.24 224.479 2503.17 239.839 2515.58 253.749 2522.29 264.279 2526.92 275.904 2528.59 287.85 2530.85 291.167 2533.18 294.484 2535.59 297.768 2539.81 309.039 2537.59 320.953 2537.78 332.577 2538.74 339.951 2541.3 347.132 2541.18 354.603 2542.48 363.845 2540.78 373.601 2545 382.36 2542.48 387.223 2540.15 392.181 2537.55 397.012 2537.89 399.427 2538.59 404.289 2538.96 406.736 2535.92 406.511 2529.85 406.124 2526.85 405.931L2527.29 412.758C2529.4 412.629 2533.63 412.339 2535.74 412.178 2535.74 412.661 2535.7 413.595 2535.7 414.078 2531.44 414.4 2527.22 414.754 2523.03 415.141 2523.62 413.434 2524.84 409.956 2525.47 408.218 2523.18 407.767 2518.58 406.833 2516.29 406.382 2519.25 405.996 2525.25 405.255 2528.25 404.901 2527.85 399.33 2527.51 393.759 2527.03 388.189L2531.22 389.444C2531.25 386.933 2531.29 381.845 2531.33 379.333L2527.51 379.784C2527.55 376.467 2527.66 369.769 2527.7 366.453L2532.55 366.421C2525.66 362.524 2530.77 356.728 2530.88 351.64 2531.59 342.141 2532.51 332.384 2530.55 322.949 2529.18 322.209 2526.4 320.727 2525.03 319.987 2524.03 313.74 2522.21 307.525 2522.92 301.181 2520.81 301.503 2516.58 302.147 2514.43 302.469 2515.21 304.08 2516.73 307.235 2517.51 308.813 2517.43 309.747 2517.29 311.582 2517.21 312.484 2515.32 312.709 2511.58 313.192 2509.73 313.418 2509.58 307.847 2511.02 301.761 2505.69 297.51 2505.8 295.289 2506.1 290.877 2506.25 288.655L2501.32 290.748C2501.98 285.628 2501.84 280.219 2496.98 276.548 2490.13 270.623 2487.65 262.508 2486.24 254.49 2480.68 254.941 2475.12 255.359 2469.6 255.778 2468.64 262.057 2466.01 268.014 2464.67 274.197 2465.16 278.963 2467.75 283.922 2464.71 288.462 2464.23 291.264 2463.82 294.065 2463.45 296.866 2462.67 307.396 2459.23 317.733 2460.41 328.423 2465.42 335.862 2460.71 346.166 2468.86 352.091L2463.93 350.191C2464.16 352.735 2464.56 357.823 2464.75 360.367L2468.94 360.367C2467.42 364.585 2465.75 368.803 2464.12 373.022 2466.27 372.861 2470.57 372.539 2472.75 372.378 2471.2 373.666 2468.16 376.274 2466.64 377.594 2468.82 378.85 2473.23 381.426 2475.46 382.682 2470.19 386.901 2471.6 393.212 2471.57 398.783 2469.12 406.414 2465.71 413.692 2460.27 420.1 2461.41 421.613 2463.71 424.672 2464.86 426.218 2456 433.495 2460.9 446.859 2450.15 452.912 2446.41 460.673 2444 468.884 2439.96 476.516 2431.77 484.791 2430.4 495.772 2424.81 505.11 2424.66 505.69 2424.33 506.817 2424.18 507.396 2417.77 512.677 2412.66 518.924 2406.36 524.238 2404.47 528.617 2402.76 533.061 2401.17 537.504 2396.76 538.921 2392.35 540.338 2387.94 541.658 2382.13 544.234 2376.2 546.65 2370.31 549 2363.23 546.65 2356.26 544.073 2349.45 541.272 2348.08 534.123 2339.81 527.168 2347.45 520.695L2351 520.148C2348.63 517.057 2346.3 513.933 2344 510.842 2346.7 510.777 2352.11 510.681 2354.78 510.649 2354.23 508.105 2353.11 502.985 2352.52 500.441 2355.6 500.924 2361.78 501.922 2364.86 502.405L2363.71 497.64 2369.75 498.831C2369.05 497.028 2367.64 493.389 2366.9 491.586L2372.79 492.391C2372.31 489.75 2371.34 484.502 2370.86 481.893L2375.94 482.795 2375.38 478.126C2377.38 478.609 2381.35 479.575 2383.31 480.026 2383.24 478.19 2383.09 474.552 2382.98 472.716 2386.35 472.748 2393.02 472.845 2396.35 472.877 2393.69 476.612 2391.02 480.316 2388.35 483.986 2384.42 490.427 2381.98 498.058 2375.12 502.695 2375.09 503.951 2375.01 506.463 2374.97 507.719 2377.57 509.103 2382.76 511.937 2385.35 513.321 2386.31 511.486 2388.16 507.815 2389.09 505.98 2396.91 503.758 2404.99 502.309 2413.14 501.246L2412.03 497.704 2417.1 498.541C2416.73 496.029 2415.92 491.038 2415.54 488.559L2420.62 489.042C2420.36 483.407 2420.07 477.739 2419.66 472.104 2421.4 472.362 2424.84 472.909 2426.55 473.167 2428.14 469.721 2429.81 466.276 2431.51 462.863L2434.77 463.346 2435 455.585C2431.03 456.326 2427.07 457.066 2423.14 457.839 2424.4 450.562 2421.51 441.578 2430.07 436.876 2430.77 432.561 2431.44 428.279 2432.03 423.964 2433.74 423.126 2437.11 421.452 2438.78 420.583 2438.52 419.262 2438 416.622 2437.74 415.27 2441.07 416.042 2447.74 417.588 2451.11 418.361 2450.56 419.906 2449.45 423.03 2448.89 424.608 2450.08 424.865 2452.41 425.381 2453.6 425.638 2453.52 423.126 2453.41 418.168 2453.34 415.656 2456.08 410.568 2458.56 405.287 2463.12 401.198 2460.78 401.359 2456.08 401.745 2453.74 401.906 2453.67 405.996 2453.48 410.053 2453.11 414.11 2449.59 414.368 2442.52 414.883 2439 415.141 2438.89 410.6 2438.96 406.092 2438.96 401.552L2442 402.614C2442.04 395.241 2442.55 387.802 2445.19 380.718 2443.37 376.435 2442 372.056 2440.67 367.676 2438.85 361.816 2438.7 355.698 2438.26 349.708L2433.7 351.576C2435.77 348.774 2437.85 345.941 2439.85 343.107 2431.44 329.261 2429.59 310.616 2434.81 295.74 2434 291.779 2433.18 287.85 2432.37 283.922 2435.29 264.827 2439.11 243.059 2455.93 229.277 2463.86 231.209 2461.71 239.001 2455.37 241.674 2462.27 240.805 2469.19 240.45 2476.2 240.45 2476.09 237.552 2476.01 234.686 2475.97 231.82M2445.82 267.145 2442.37 266.018C2442.15 270.816 2441.81 275.582 2441.44 280.38 2443.93 280.154 2448.82 279.703 2451.3 279.478 2450.45 277.707 2448.82 274.197 2448 272.426L2453.56 273.682C2453.52 271.009 2453.37 265.664 2453.34 262.991L2449.34 263.506C2449.52 261.156 2449.97 256.454 2450.15 254.104 2444.93 257.098 2445.74 262.411 2445.82 267.145M2508.02 293.582C2508.91 304.691 2519.14 288.688 2508.02 293.582Z" fill-rule="evenodd"/><path d="M2003.37 261.873C2008.24 254.351 2016.87 249.529 2024.25 244 2023.88 246.668 2023.15 252.004 2022.78 254.672 2025.32 255.155 2030.42 256.151 2033 256.666 2025.73 259.751 2018.2 262.259 2010.6 264.573 2011.93 265.602 2014.66 267.724 2016.02 268.752 2015.07 269.427 2013.11 270.81 2012.15 271.485 2010.23 278.364 2004.95 283.379 1997.43 285.854 1989.23 291.19 1977.83 295.594 1978.83 306.299 1979.45 317.485 1969.16 326.679 1971.15 337.801 1968.53 339.248 1965.95 340.727 1963.36 342.205 1968.97 351.753 1957.57 359.018 1958.94 368.694 1969.31 361.975 1978.97 354.485 1987.94 346.385 1991.04 348.635 1994.14 350.853 1997.31 353.071 1990.56 357.378 1985.65 365.768 1976.24 365.19 1985.14 374.769 1968.42 372.776 1962.92 370.783 1967.53 386.084 1956.39 400.614 1960.6 415.755 1962.33 416.237 1965.73 417.266 1967.42 417.748 1967.16 418.777 1966.57 420.77 1966.28 421.766 1969.6 421.799 1976.24 421.831 1979.56 421.831L1979.49 427.263C1976.39 427.135 1970.15 426.845 1967.05 426.685L1968.64 430.831C1964.99 431.989 1961.33 433.178 1957.75 434.432 1968.12 434.817 1977.28 430.864 1985.76 426.138 1985.91 424.402 1986.24 420.963 1986.39 419.259L1982 420.995 1981.08 417.394C1987.46 416.077 1993.85 414.63 2000.3 413.408 1996.87 404.118 2007.72 405.147 2014.66 404.472 2015.91 403.475 2018.39 401.45 2019.6 400.454 2018.46 405.565 2017.8 410.837 2020.05 415.819 2018.16 415.755 2014.44 415.594 2012.59 415.498 2010.53 419.87 2008.31 424.177 2006.13 428.485 1998.24 432.439 1984.47 428.388 1982.04 438 1972.7 437.678 1963.33 438.032 1954.03 437.582 1950.12 432.535 1947.2 426.685 1941 423.374 1943.77 420.288 1946.54 417.137 1949.34 414.051 1948.45 411.962 1946.72 407.783 1945.83 405.694 1948.45 405.694 1953.73 405.694 1956.35 405.694 1952.18 401.257 1948.42 396.564 1944.95 391.742L1954.4 389.91C1950.74 387.403 1947.09 384.895 1943.47 382.388 1946.65 381.263 1952.99 379.044 1956.17 377.92 1951.74 375.862 1948.2 372.969 1945.54 369.272 1947.35 362.65 1948.64 355.964 1949.34 349.181 1950.19 345.002 1950.63 340.727 1949.64 336.516 1950.52 335.455 1952.29 333.269 1953.18 332.208 1953.36 328.415 1953.62 324.622 1953.73 320.828 1954.62 319.768 1956.43 317.646 1957.31 316.585 1954.62 311.731 1955.47 307.874 1959.82 305.045 1959.89 304.081 1960.04 302.12 1960.12 301.155L1965.1 301.348C1964.51 299.612 1963.33 296.141 1962.74 294.405L1967.76 296.044C1965.17 287.686 1974.29 284.182 1980.01 279.585 1984.14 270.906 1991.63 264.091 2000.38 258.755 2000.64 262.259 2000.89 265.73 2001.19 269.234L1996.54 268.592 1997.98 271.999C1990.08 271.549 1989.34 277.014 1989.38 282.479L1982.41 282.704C1984.51 283.732 1988.72 285.79 1990.82 286.818 1993.88 283.186 1995.62 278.91 1997.83 274.86L2001.71 276.306C2001.26 274.732 2000.45 271.581 2000.01 270.006 2002.37 269.588 2007.02 268.688 2009.38 268.27 2007.87 266.663 2004.88 263.48 2003.37 261.873M1970.15 293.987C1972.52 296.012 1972.52 296.012 1970.15 293.987M1957.9 315.91C1959.49 316.907 1962.66 318.868 1964.25 319.864 1961.81 324.525 1960.12 329.412 1958.57 334.33 1961.26 333.88 1966.57 332.915 1969.23 332.465 1967.31 330.344 1965.36 328.254 1963.44 326.197 1966.91 320.636 1968.31 314.496 1968.75 308.26 1965.1 310.799 1961.52 313.339 1957.9 315.91Z" fill-rule="evenodd"/><path d="M1214.31 254C1216.73 254.071 1221.51 254.141 1223.93 254.176 1225.1 259.321 1211.82 259.286 1214.31 254Z" fill-rule="evenodd"/><path d="M2181.23 285.177C2184.58 270.771 2197.4 253.793 2216.7 256.237 2220.16 260.963 2224.11 265.208 2230.66 266.784 2232.08 270.16 2233.46 273.536 2234.87 276.945L2239.23 275.819C2239.12 281.64 2235.88 286.142 2229.81 289.004 2235.47 289.839 2241.17 290.74 2246.87 291.705 2245.23 294.406 2243.59 297.107 2241.99 299.84 2245.45 304.31 2246.27 309.455 2245.71 314.728L2249.78 314.117C2246.5 325.597 2248.14 337.495 2253.58 348.235 2251.97 350.036 2248.81 353.605 2247.2 355.406 2249.44 355.952 2253.84 357.014 2256.07 357.56 2260.99 369.972 2261.55 383.349 2262.48 396.34L2263 398.849C2262.29 399.62 2260.8 401.228 2260.09 402 2257.49 400.778 2254.88 399.556 2252.31 398.302 2253.72 397.595 2256.48 396.18 2257.86 395.472 2252.72 393.446 2247.43 391.935 2242.25 390.07 2250.22 389.941 2256.11 387.208 2259.98 381.87 2253.05 382.385 2246.16 382.867 2239.31 383.285 2242.06 382.32 2247.61 380.423 2250.37 379.458L2250.33 376.243C2247.61 375.857 2242.21 375.085 2239.49 374.699 2241.8 373.702 2246.39 371.773 2248.7 370.776 2246.2 369.555 2241.17 367.143 2238.67 365.921 2241.54 365.953 2247.32 365.985 2250.19 366.017 2248.7 361.194 2247.02 356.435 2245.31 351.676 2232.12 351.322 2243.55 335.983 2232.12 333.218 2233.91 333.443 2237.44 333.893 2239.2 334.086L2238.34 328.523C2234.95 328.33 2228.21 327.977 2224.82 327.816 2225.78 324.182 2226.83 320.549 2227.95 316.915 2226.64 316.143 2224.11 314.632 2222.84 313.86 2222.66 302.252 2217.18 291.094 2219.15 279.389 2213.94 280.932 2205.97 279.646 2203.95 285.402 2192.44 302.155 2201.09 323.411 2191.21 340.453 2192.52 345.019 2194.27 349.521 2196.91 353.669 2199.63 353.927 2205.04 354.473 2207.75 354.731 2205.52 353.541 2201.09 351.097 2198.85 349.875 2206.12 349.168 2213.31 347.913 2220.42 346.499 2218.52 349.971 2216.58 353.38 2214.8 356.885 2206.45 359.039 2197.99 360.712 2189.39 361.676 2189.91 368.847 2191.18 376.886 2185.92 383.124 2187.82 383.896 2191.7 385.504 2193.64 386.308 2185.81 392.128 2179.96 380.391 2171.58 380.584 2170.43 379.265 2168.12 376.596 2167 375.278 2168.86 366.5 2171.28 357.785 2171.02 348.782 2172.92 349.361 2176.69 350.518 2178.59 351.129L2179.11 343.862C2168.12 345.47 2170.8 336.82 2170.58 330.646 2175.31 329.167 2180.04 327.719 2184.77 326.272 2182.94 325.79 2179.29 324.793 2177.47 324.311 2177.32 322.896 2177.02 320.131 2176.91 318.716 2181.16 317.719 2185.4 316.658 2189.61 315.404 2185.4 315.114 2177.02 314.503 2172.81 314.214 2177.06 306.593 2180.34 298.457 2177.92 289.936 2179.22 289.936 2181.86 289.968 2183.21 289.968 2182.72 288.779 2181.71 286.367 2181.23 285.177M2241.06 319.841C2240.91 317.912 2240.65 313.989 2240.54 312.027 2231.48 306.657 2232.6 324.439 2241.06 319.841Z" fill-rule="evenodd"/><path d="M1320 272.212C1320.38 258.367 1339.01 268.334 1347.91 270.449L1347.68 273.687C1350.03 273.494 1354.69 273.142 1357 272.949 1357 273.975 1357 276.026 1357 277.052L1350.83 274.744 1353.33 280C1350.22 279.936 1344.05 279.808 1340.94 279.744 1341.06 269.777 1327.61 271.892 1320 272.212Z" fill-rule="evenodd"/><path d="M2112.04 264C2117.33 264.291 2122.7 264.549 2128 265.259 2125.13 269.357 2121.74 273.165 2118.83 277.231 2120.5 278.845 2123.9 282.105 2125.58 283.75 2118.49 282.976 2111.29 280.104 2104.17 282.105L2112.11 284.364C2111.78 290.721 2111.89 297.079 2112.45 303.437 2115.66 297.369 2120.21 291.593 2127.93 289.624 2126.84 291.205 2124.61 294.336 2123.49 295.885 2124.64 305.921 2123.38 315.99 2122.52 325.995 2121.03 329.9 2120.21 333.901 2119.98 338 2115.51 336.967 2110.99 336.031 2106.48 335.128 2104.77 331.9 2102.94 328.738 2101 325.64 2104.65 320.767 2108.53 315.797 2108.76 309.762L2110.85 311.182C2112.64 309.794 2116.25 307.019 2118.08 305.599 2116.07 304.953 2112.08 303.662 2110.06 303.017 2100.89 299.499 2104.43 290.237 2103.8 283.363 2103.31 276.844 2108.83 272.1 2114.46 268.55 2113.83 267.421 2112.64 265.13 2112.04 264Z" fill-rule="evenodd"/><path d="M1243.36 272.539C1247.76 272.668 1252.2 272.764 1256.59 272.861 1255.92 274.628 1254.58 278.164 1253.91 279.932 1257.45 279.932 1264.5 279.964 1268 279.964L1267.25 283.532C1260.96 283.661 1254.69 283.886 1248.43 284.143 1246.01 287.904 1243.44 291.6 1240.79 295.265 1236.24 295.779 1231.69 296.357 1227.18 297 1219.84 293.432 1216.67 288.225 1220.89 281.282 1223.9 282.6 1229.94 285.268 1232.96 286.586 1233 281.057 1233.07 275.529 1233.41 270 1234.97 275.721 1238.85 279.514 1245.04 281.379 1244.63 279.161 1243.77 274.757 1243.36 272.539Z" fill-rule="evenodd"/><path d="M1773.12 284.152C1777.07 278.962 1780.98 273.739 1785.62 269 1785.51 282.799 1790.53 296.597 1785.81 310.202 1788.35 312.684 1790.86 315.199 1793.37 317.746 1790.64 320.003 1787.91 322.227 1785.18 324.484 1785.22 326.064 1785.37 329.288 1785.44 330.9 1787.58 330.48 1791.93 329.61 1794.07 329.191 1798.16 340.313 1794.99 352.113 1797.68 363.461 1795.66 363.171 1791.6 362.655 1789.53 362.397 1789.24 364.267 1788.65 368.071 1788.32 369.974 1790.35 369.683 1794.4 369.167 1796.39 368.877L1798.46 363.074C1799.71 367.169 1800.89 371.263 1802 375.39L1796.54 375.099 1797.02 378.904C1795.25 379.065 1791.71 379.387 1789.94 379.549L1787.25 380C1785.99 379.935 1783.49 379.806 1782.27 379.742 1782.12 372.907 1781.94 366.105 1781.72 359.302 1779.98 359.463 1776.55 359.721 1774.82 359.882 1774.74 356.53 1774.52 349.824 1774.41 346.471 1784.08 349.147 1787.58 341.635 1792.08 336.122 1785.99 336.703 1779.91 337.057 1773.82 337.218 1774.41 333.736 1775.04 330.255 1775.67 326.805 1774.41 327.257 1771.91 328.192 1770.65 328.643 1770.21 319.455 1767.41 310.492 1767 301.304 1769.73 298.983 1772.46 296.661 1775.19 294.308 1774.67 291.793 1773.64 286.699 1773.12 284.152Z" fill-rule="evenodd"/><path d="M2029.93 275.382C2033.61 274.029 2037.44 273.031 2041.3 272 2041.71 275.801 2042.01 279.569 2042.27 283.37L2050.07 281.695C2046.02 287.654 2041.6 294.031 2046.06 300.989 2041.12 301.021 2036.21 301.021 2031.31 301.021 2036.06 302.825 2040.93 304.435 2045.76 306.207 2041.78 307.108 2033.87 308.88 2029.9 309.782 2033.8 310.265 2041.6 311.264 2045.46 311.747 2045.31 316.417 2045.43 321.088 2045.65 325.758 2051.07 331.33 2048.18 338.835 2048.36 345.406 2047.17 347.95 2044.76 353.039 2043.57 355.584L2050.26 355.713C2049.66 359.288 2049.07 362.895 2048.47 366.471 2060.32 366.084 2056.65 375.457 2056.76 381.931L2060.03 381.481C2063.45 385.442 2067.64 389.211 2068.05 394.461 2074.22 398.552 2081.28 401.418 2089.23 401.579 2095.88 395.395 2099.93 387.729 2104.28 380.257 2104.68 375.908 2104.98 371.56 2105.21 367.212 2113.42 368.146 2121.55 369.659 2129.32 372.204 2125.16 372.365 2116.87 372.752 2112.75 372.945 2118.21 375.876 2123.78 378.775 2129.21 381.867L2122.96 381.641 2122.96 388.277C2125.75 388.051 2131.29 387.6 2134.07 387.407 2137.49 392.142 2141.24 396.684 2145.03 401.225 2154.43 402.224 2164.61 401.901 2172.6 396.909 2175.72 397.456 2178.88 398.069 2182 398.681 2178.69 406.153 2176.72 415.623 2165.91 417.298 2166.32 418.49 2167.14 420.841 2167.55 422 2164.58 421.936 2158.67 421.807 2155.7 421.743 2156.25 420.035 2157.33 416.686 2157.89 414.979 2154.51 415.172 2147.71 415.494 2144.33 415.655 2144.51 417.104 2144.88 419.971 2145.11 421.42 2144.66 421.388 2143.77 421.388 2143.36 421.388 2137.57 412.724 2119.77 409.889 2123.15 397.424 2119.4 397.714 2111.93 398.294 2108.18 398.584 2108.21 401.096 2108.29 406.185 2108.33 408.698 2105.21 411.049 2102.12 413.4 2099.04 415.752 2095.4 415.784 2088.15 415.816 2084.51 415.816 2084.88 417.265 2085.59 420.164 2085.96 421.582 2085.03 421.646 2083.17 421.71 2082.24 421.743 2082.47 420.261 2082.88 417.265 2083.1 415.784 2080.13 415.526 2074.18 414.979 2071.21 414.721 2074.15 403.705 2058.62 411.951 2053.53 406.379 2053.23 403.963 2052.67 399.099 2052.37 396.684 2058.91 395.975 2061.74 398.713 2060.81 404.961 2062.74 404.994 2066.64 405.026 2068.57 405.026 2068.13 403.737 2067.31 401.193 2066.9 399.937 2059.06 395.653 2057.69 387.085 2052.52 380.933L2052.86 377.744C2048.36 378.872 2043.87 380.063 2039.44 381.287L2042.38 376.198C2036.92 374.072 2028.34 374.362 2027.44 367.791 2026.37 360.254 2027.52 352.427 2024.14 345.245 2024.14 336.87 2020.72 327.852 2025.73 320.089 2029.75 313.164 2026.77 305.337 2026.63 298.025L2031.64 297.929C2031.31 295.835 2030.6 291.68 2030.27 289.586 2033.31 288.137 2039.41 285.27 2042.45 283.821 2038.11 281.18 2033.46 278.828 2029.93 275.382M2037.07 319.896C2038.78 322.086 2038.78 322.086 2037.07 319.896Z" fill-rule="evenodd"/><path d="M1354.64 279.072C1371.06 278.236 1385.78 284.731 1395.47 296.082 1399.47 300.519 1402.65 305.439 1405.24 310.616 1409.05 317.304 1416.44 323.189 1414.82 331.324L1419.44 330.552C1418.89 331.967 1417.78 334.796 1417.22 336.211 1420.18 338.719 1423.1 341.259 1425.99 343.832 1423.73 343.864 1419.22 343.928 1416.96 343.96 1417.22 345.761 1417.7 349.363 1417.96 351.163L1423.07 349.234C1425.95 353.06 1428.95 356.79 1431.94 360.52 1430.5 371.421 1439.41 380.328 1437.64 391.164 1439.12 392 1442 393.64 1443.45 394.476 1443 411.421 1444.11 428.367 1444.7 445.312 1443.34 458.978 1443.22 472.773 1445 486.438 1439.9 492.194 1440.67 499.783 1444.15 506.021 1443.04 508.786 1441.93 511.519 1440.86 514.284L1436.16 515.442C1447.44 528.818 1435.94 546.15 1435.53 561.102 1432.61 570.973 1432.65 581.713 1425.95 590.524 1426.95 591.617 1428.95 593.803 1429.95 594.897 1427.91 595.958 1423.84 598.112 1421.81 599.173 1422.73 600.266 1424.62 602.421 1425.58 603.514 1419.48 611.553 1422.81 625.315 1411.3 629.302 1410.6 633.868 1414.93 641.039 1406.42 642.229 1406.53 643.258 1406.79 645.283 1406.94 646.312 1405.79 645.926 1403.54 645.187 1402.43 644.801L1404.61 649.721 1394.81 649.399C1395.03 643.708 1396.47 638.306 1400.91 633.965 1396.77 636.28 1392.66 638.563 1388.37 640.653 1388.81 644.769 1389.22 648.884 1389.66 653 1384.89 652.743 1375.35 652.164 1370.58 651.875 1378.31 649.721 1381.27 643.515 1384.71 637.952 1384.41 635.701 1383.75 631.264 1383.41 629.045L1387.93 629.559C1388.41 621.746 1392.07 613.707 1399.32 608.82 1399.58 605.572 1399.84 602.324 1400.1 599.109 1401.87 597.147 1403.57 595.09 1405.27 593.064 1408.6 593.675 1411.97 594.318 1415.3 594.929 1415.26 593.803 1415.19 591.52 1415.15 590.395 1412.12 590.877 1405.98 591.842 1402.91 592.356 1399.61 585.636 1398.84 579.688 1410.08 579.848 1408.16 578.08 1404.35 574.575 1402.46 572.806 1403.68 572.678 1406.2 572.388 1407.46 572.228 1406.79 564.607 1406.75 556.954 1408.09 549.365 1409.97 546.15 1410.9 542.677 1410.93 539.012 1413.86 539.558 1419.77 540.651 1422.7 541.198L1421.92 536.503C1420.33 536.793 1417.18 537.404 1415.63 537.693 1412.82 533.963 1409.86 530.394 1406.53 527.05 1408.31 526.439 1411.86 525.217 1413.63 524.606 1414.04 522.741 1414.85 518.947 1415.22 517.082 1422.29 494.381 1414.11 470.715 1417.7 447.885 1410.49 430.939 1418.59 412.161 1410.64 395.505 1411.56 394.476 1413.37 392.418 1414.3 391.389 1408.34 380.585 1409.64 367.401 1399.61 358.334 1402.02 357.369 1406.79 355.408 1409.2 354.443 1403.83 353.253 1398.51 351.903 1393.25 350.456 1392.36 343.221 1392 335.922 1389.29 328.944L1384.15 328.623C1384.52 327.433 1385.3 325.053 1385.67 323.864 1375.94 318.301 1367.1 311.741 1359.89 303.799 1359.93 301.773 1360 297.754 1360 295.76 1354.78 295.825 1349.53 295.921 1344.32 295.953 1339.99 293.252 1335.51 290.68 1331 288.236 1331.78 281.387 1339.1 281.902 1345.2 281.323 1344.91 283.252 1344.32 287.111 1344.02 289.04 1346.05 288.944 1350.05 288.751 1352.05 288.654L1351.9 293.252C1353.34 292.899 1356.23 292.191 1357.71 291.805 1360.81 295.471 1365.88 295.792 1370.54 296.629 1370.36 292.738 1370.17 288.847 1370.13 284.956 1364.99 285.439 1359.81 285.889 1354.67 286.371Z" fill-rule="evenodd"/><path d="M1269 281.645C1287.11 278.943 1303.92 285.586 1321.73 285.841 1325.27 289.433 1328.72 293.12 1332 296.871 1322.84 296.743 1316.25 290.736 1307.93 288.352 1308.41 290.132 1309.37 293.724 1309.85 295.504 1307.79 296.362 1303.63 298.11 1301.57 299 1296.89 297.792 1292.18 296.743 1287.44 295.79 1286.41 294.359 1284.31 291.53 1283.28 290.1 1280 290.164 1273.45 290.227 1270.18 290.259 1269.88 288.129 1269.29 283.806 1269 281.645Z" fill-rule="evenodd"/><path d="M1713.22 300.561C1717.52 292.662 1728.51 284.731 1738.98 287.6 1738.61 290.276 1737.8 295.564 1737.39 298.207 1739.54 297.853 1743.85 297.111 1746 296.757 1744.74 309.008 1744.89 321.292 1744.48 333.543 1740.65 337.574 1737.28 341.926 1734.83 346.698 1736.64 346.956 1740.25 347.471 1742.06 347.697 1729.18 358.401 1734.64 374.103 1732.78 387.805 1724.84 387.934 1716.93 387.998 1709.02 388.192L1709.02 384.226C1715.63 384.129 1724.65 387.483 1728.29 380.164 1722.72 379.68 1717.19 379.1 1711.66 378.358 1715.44 378.358 1723.02 378.294 1726.81 378.294 1724.5 370.749 1722.68 363.14 1721.87 355.371L1726.29 356.37 1727.4 348.213C1724.65 348.374 1719.16 348.729 1716.37 348.922 1720.94 348.02 1725.51 347.181 1730.11 346.311 1725.36 338.863 1726.66 330.448 1730.22 322.839 1727.73 322.904 1722.76 322.968 1720.31 323.001 1712.25 336.316 1706.94 350.631 1702.15 365.011 1699.26 371.652 1695.36 378.165 1695.51 385.451 1692.91 392.931 1682.89 397.767 1685.19 406.247 1685.63 414.726 1684.93 433.039 1669 426.688 1671.93 424.366 1674.94 422.109 1678.02 419.949 1677.69 412.534 1678.32 405.118 1678.62 397.703 1676.24 397.542 1671.49 397.252 1669.11 397.123 1673.31 393.35 1674.42 388.45 1674.31 383.388 1678.84 381.872 1681.77 379.132 1683.14 375.134 1686.15 375.489 1689.12 375.844 1692.13 376.198 1692.35 372.071 1692.65 367.912 1692.98 363.786 1696.14 358.369 1696.62 352.275 1697.4 346.375 1695.14 346.666 1690.61 347.246 1688.34 347.536 1688.53 343.893 1688.68 340.25 1688.83 336.606L1691.91 337.026C1690.61 331.254 1694.54 327.934 1700.11 325.806 1702.78 316.714 1705.38 307.493 1713.22 300.561M1718.19 297.466C1718.04 308.492 1729.29 292.372 1718.19 297.466M1709.95 314.038C1712.59 316.101 1712.59 316.101 1709.95 314.038M1727.1 358.53C1721.01 368.202 1739.8 359.207 1727.1 358.53M1684.48 390.578C1687.45 386.967 1687.08 384.129 1683.33 382.066 1674.42 382.453 1675.87 398.702 1684.48 390.578Z" fill-rule="evenodd"/><path d="M2403.88 319.826C2407.11 318.861 2413.6 316.964 2416.83 316 2416.34 317.929 2415.33 321.754 2414.8 323.683L2419.87 322.783C2419.65 327.251 2419.5 331.752 2419.35 336.253L2422.8 335.835C2422.5 344.065 2423.14 352.295 2424.16 360.492 2425.06 362.775 2426.78 367.372 2427.69 369.654 2424.68 369.719 2418.71 369.879 2415.71 369.944 2416.98 378.913 2412.48 390.1 2422.5 396.24L2423.48 398.201 2429 397.462C2423.33 409.742 2416.91 422.505 2418.97 436.039 2415.29 436.618 2411.65 437.196 2408.01 437.839 2408.35 431.635 2408.31 425.398 2408.12 419.194L2412.93 421.058C2412.78 419.322 2412.51 415.818 2412.36 414.05 2410.07 413.954 2405.45 413.729 2403.12 413.6 2403.91 415.432 2405.49 419.033 2406.24 420.833L2400.08 420.48C2400.53 423.083 2401.47 428.324 2401.92 430.928L2397.68 429.867C2397.53 431.892 2397.23 435.975 2397.08 438 2394.3 437.421 2388.78 436.232 2386 435.653L2392.57 432.663C2392.76 426.877 2393.4 421.122 2394.34 415.4 2397.64 407.878 2397 399.776 2397.79 391.933 2399.59 391.515 2403.24 390.711 2405.04 390.293 2405.15 389.136 2405.34 386.821 2405.42 385.664 2392.8 390.679 2394.45 371.84 2405.87 374.927 2402.86 369.429 2400.2 363.803 2397.42 358.242 2398.62 354.288 2399.86 350.333 2401.06 346.379 2402.94 346.54 2406.62 346.894 2408.5 347.055 2408.42 344.965 2408.23 340.786 2408.16 338.696 2406.47 338.921 2403.05 339.403 2401.36 339.661 2400.68 341.139 2399.33 344.129 2398.66 345.64 2397.04 342.875 2395.46 340.078 2393.89 337.314 2396.33 334.26 2397.38 330.852 2396.97 327.155 2398.77 326.93 2402.41 326.544 2404.21 326.351 2404.14 324.712 2403.95 321.465 2403.88 319.826M2404.48 406.206C2410.3 409.806 2414.17 400.259 2410.64 396.883 2409.58 396.112 2407.52 394.569 2406.5 393.797 2402.37 396.305 2402.9 402.509 2404.48 406.206Z" fill-rule="evenodd"/><path d="M1532.75 329.237C1542.2 325.87 1552.54 326.324 1562.54 326 1564.55 329.723 1566.6 333.446 1568.79 337.104 1571.58 339.208 1574.44 341.248 1577.31 343.287 1576.67 344.55 1575.41 347.107 1574.78 348.37 1577.6 354.133 1585.79 360.316 1579.02 366.37 1588.47 370.902 1585.9 380.97 1588.5 388.707 1587.68 390.002 1586.12 392.56 1585.34 393.855 1588.69 397.577 1593.9 401.236 1592.52 406.642 1586.05 406.739 1581.62 402.919 1577.23 399.488 1579.32 402.304 1581.36 405.121 1583.37 408.002 1585.75 407.711 1590.55 407.128 1592.93 406.836 1595.61 416.905 1594.97 427.782 1601 437.008 1598.77 437.332 1594.34 437.947 1592.11 438.239 1591.33 434.095 1595.5 427.394 1589.25 425.613 1589.32 427.815 1589.43 432.185 1589.51 434.386L1582.66 433.512C1589.1 436.458 1590.03 442.026 1589.54 448.08 1574.55 448.825 1578.53 434.03 1579.61 426.066 1578.61 424.966 1576.6 422.764 1575.56 421.663 1574.81 410.559 1569.53 400.329 1567.08 389.517 1570.61 385.243 1575.78 382.394 1580.28 378.963 1575.86 379.643 1571.54 380.581 1567.19 381.488 1566.33 379.125 1564.62 374.398 1563.81 372.035 1562.62 365.755 1560.83 359.571 1559.31 353.355 1562.06 352.87 1567.6 351.931 1570.35 351.446 1568.12 350.96 1563.66 349.956 1561.43 349.471 1562.13 347.625 1563.58 343.999 1564.33 342.154 1563.1 342.186 1560.68 342.251 1559.45 342.251 1559.83 345.586 1560.16 348.888 1560.38 352.222 1557.71 351.607 1552.35 350.377 1549.67 349.762 1547.4 354.877 1543.2 356.722 1537.06 355.298 1544.32 360.639 1537.1 367.697 1535.8 373.977 1531.67 382.362 1533.53 391.621 1531.22 400.329 1529.03 408.714 1524.45 417.099 1526.98 425.84 1525.94 427.394 1523.82 430.437 1522.78 431.991 1522.85 437.3 1523.19 442.609 1522.85 447.918 1517.87 449.051 1512.7 449.796 1507.34 450.087 1512.66 450.8 1518.02 451.188 1523.41 451.253 1517.94 457.986 1516.53 466.889 1521.59 474.173 1517.91 473.946 1514.26 473.72 1510.62 473.526 1510.88 471.551 1511.4 467.601 1511.66 465.627L1506.15 466.954 1507.42 474.238 1501.02 472.684C1502.1 478.123 1503.51 483.529 1504.7 489 1501.73 487.22 1498.83 485.375 1496 483.497 1501.36 468.605 1498.6 452.127 1501.58 436.652 1508.16 438.336 1514.49 437.656 1520.51 434.58 1516.23 434.483 1507.6 434.354 1503.33 434.289 1504.03 428.3 1503.22 422.343 1501.99 416.484L1507.12 416.775C1506.79 408.844 1508.61 401.042 1510.62 393.304 1513.74 393.822 1519.99 394.794 1523.11 395.279 1523 393.855 1522.82 390.973 1522.74 389.517 1518.73 388.448 1514.75 387.283 1510.8 386.053 1527.62 387.898 1514.45 378.866 1513.67 373.427 1519.95 372.359 1526.28 371.485 1532.56 370.384 1526.28 369.316 1517.31 369.575 1521.26 361.773 1525.64 360.478 1530.11 359.409 1534.61 358.503 1534.57 357.823 1534.53 356.496 1534.5 355.816 1529.47 355.978 1524.49 356.107 1519.47 356.269 1524.04 349.794 1528.51 343.223 1531.41 336.036L1534.68 335.582C1534.2 333.996 1533.23 330.824 1532.75 329.237M1575.56 372.359C1574.07 376.761 1576.01 378.38 1581.36 377.247 1582.85 372.682 1580.91 371.064 1575.56 372.359M1585.42 416.743C1579.09 426.228 1597.91 417.617 1585.42 416.743M1505.26 456.983 1504.18 459.249C1505.15 460.155 1507.12 461.936 1508.09 462.81L1510.65 461.968C1510.65 460.771 1510.58 458.375 1510.58 457.177 1509.24 457.112 1506.56 457.015 1505.26 456.983Z" fill-rule="evenodd"/><path d="M2515.62 333.403C2505.19 340.118 2505.61 323.199 2516 327.807 2515.92 329.19 2515.71 331.988 2515.62 333.403Z" fill-rule="evenodd"/><path d="M1870.47 336C1871.93 336.839 1874.86 338.486 1876.32 339.325 1877.22 342.779 1878.01 346.266 1878.68 349.784L1882.43 349.784C1882.43 353.884 1882.47 357.984 1882.51 362.083 1884.72 362.665 1889.07 363.762 1891.29 364.311 1877.26 367.216 1892.07 378.063 1894.77 384.681 1892.86 386.069 1889.07 388.845 1887.16 390.233L1892.86 391.266C1897.74 402.855 1892.64 414.993 1889.11 426.292 1892.04 427.26 1895 428.164 1898 429.004 1892.04 433.168 1894.7 439.592 1894.06 445.112 1893.84 450.762 1890.54 455.862 1889.11 461.285 1886.45 460.317 1881.12 458.445 1878.46 457.476 1878.64 460.123 1879.02 465.385 1879.21 468 1877.82 463.771 1876.69 459.478 1875.46 455.216 1875.04 451.956 1874.67 448.728 1874.29 445.5 1875.53 445.274 1878.01 444.822 1879.24 444.628L1877.41 450.31 1886.6 450.632C1886.78 447.437 1887.16 441.045 1887.35 437.849 1884.72 438.042 1879.51 438.462 1876.88 438.688 1877.41 430.876 1877.67 423.096 1877.41 415.284 1870.58 406.536 1876.54 395.592 1877.11 386.036 1871.48 378.709 1873.73 370.606 1881.12 364.698 1874.33 366.538 1867.77 368.734 1861.13 370.832 1866.53 366.893 1871.63 362.632 1875.91 357.725 1869.53 356.434 1863.15 355.143 1857 353.238 1863.08 352.657 1869.19 352.56 1875.31 352.27 1873.81 346.814 1872.04 341.423 1870.47 336Z" fill-rule="evenodd"/><path d="M2107.99 339C2111.58 339.422 2115.24 339.844 2118.87 340.233 2125.84 347.922 2120.27 358.143 2123 367 2121.02 366.838 2117.04 366.481 2115.06 366.286 2115.1 358.694 2116.5 350.68 2112.84 343.51 2112.55 346.657 2111.97 352.951 2111.69 356.099 2109.78 356.423 2105.94 357.039 2104 357.364 2105.29 351.232 2106.69 345.132 2107.99 339Z" fill-rule="evenodd"/><path d="M2512 342C2514.67 343.334 2514.67 343.334 2512 342Z" fill-rule="evenodd"/><path d="M1685.92 367C1684.14 362.922 1680.57 358.782 1682.61 354.269 1685.45 353.428 1691.16 351.809 1694 351L1693.13 359.716 1686.65 358.813C1688.21 360.245 1691.31 363.109 1692.87 364.541 1691.13 365.164 1687.67 366.378 1685.92 367Z" fill-rule="evenodd"/><path d="M1326.09 369.742C1332.33 365.516 1339.21 362.129 1346.27 359 1346.65 360.871 1347.4 364.581 1347.78 366.451 1354.54 366.419 1361.31 366.129 1368 365.484 1367.17 366.742 1365.44 369.226 1364.58 370.452 1358.83 371.677 1353 372.774 1347.18 373.742 1349.13 374.774 1353.08 376.839 1355.03 377.903 1351.5 382.097 1348.12 386.355 1344.66 390.581 1349.96 391 1355.26 391.29 1360.6 391.484L1360.93 392.29C1348.76 390.548 1345.9 400.484 1347.18 408.677L1340.86 408.613C1340.45 406.097 1339.62 401.032 1339.21 398.516 1332.93 403.839 1338.23 410.484 1345.33 412.452L1344.51 413.484C1351.91 420.29 1347.82 429.065 1342.67 435.451 1344.85 436.064 1349.21 437.323 1351.35 437.935 1352.51 439.871 1354.81 443.71 1355.97 445.645 1347.85 449.774 1353.94 454.903 1356.5 459.742 1355.18 459.645 1352.55 459.484 1351.24 459.387 1354.51 463.613 1354.84 468.774 1355.78 473.645 1364.65 477.419 1362.51 486.032 1363.64 493 1362.36 492.903 1359.81 492.677 1358.53 492.581 1358.98 490.839 1359.92 487.419 1360.41 485.677 1358.94 485.742 1356.05 485.903 1354.58 485.968 1354.66 483.677 1354.81 479.129 1354.88 476.839 1353.94 478.161 1352.03 480.806 1351.05 482.161 1348.15 482.613 1342.33 483.548 1339.43 484 1340.97 475.387 1334.77 468.129 1332.18 460.226 1333.91 451.774 1345.18 438.065 1332.44 432.742 1333.57 429.935 1335.83 424.322 1336.95 421.516L1328.27 421.581C1327.97 423.548 1327.41 427.516 1327.14 429.516 1326.28 425.516 1325.64 421.484 1325 417.451 1327.14 417.484 1331.39 417.484 1333.53 417.516 1331.13 410.548 1328.95 403.516 1325.86 396.742 1328.27 393.419 1331.09 390.064 1336.54 390.484 1336.61 388.742 1336.8 385.29 1336.88 383.58 1334.17 383.29 1328.8 382.742 1326.09 382.452 1329.47 377.935 1333.38 373.742 1337.48 369.71 1334.62 369.71 1328.95 369.742 1326.09 369.742Z" fill-rule="evenodd"/><path d="M2887.65 358C2892.97 358.902 2898.34 359.836 2903.78 360.545L2903.93 363.959C2922.09 367.213 2925.65 383.866 2934.64 395.302 2934.45 391.855 2934.12 384.994 2933.94 381.547 2937.71 376.876 2942 372.495 2945.96 367.921 2956.88 367.953 2967.9 367.245 2978.52 364.797 2982 365.86 2985.48 366.923 2989 368.018 2992.77 374.783 2993.4 382.32 2992.81 389.729 2990.73 395.656 2994.58 405.191 2985.41 407.22 2990.66 412.6 2982.67 416.594 2980.11 421.104 2971.97 427.772 2969.53 437.371 2968.98 446.713 2962.35 452.865 2955.51 458.921 2950.33 466.072 2949.59 467.844 2948.14 471.355 2947.44 473.094 2935.34 475.542 2930.2 486.785 2922.28 494 2917.36 493.71 2912.81 492.518 2908.66 490.424 2906.78 490.36 2903.04 490.167 2901.19 490.07 2895.49 482.533 2887.28 475.092 2891.38 465.331L2885.72 469.068C2890.94 462.915 2879.65 459.823 2882.83 454.411 2884.13 449.902 2885.91 445.553 2887.57 441.172 2883.24 441.977 2878.91 442.815 2874.62 443.652 2876.4 440.012 2878.28 436.437 2880.1 432.797L2883.09 432.7 2882.5 426.837C2879.06 429.189 2875.8 431.573 2872.44 433.957 2871.18 432.507 2868.63 429.608 2867.37 428.158 2870.92 422.489 2869.48 415.724 2864 411.44 2868.22 402.936 2866.11 393.691 2865.55 384.833 2868.63 378.551 2871.44 372.173 2875.03 366.085 2879.8 364.12 2884.17 361.543 2887.65 358M2911.96 378.551C2914.4 380.065 2914.4 380.065 2911.96 378.551M2942.11 385.058C2944.63 387.249 2944.63 387.249 2942.11 385.058M2919.32 387.861C2921.47 389.793 2921.47 389.793 2919.32 387.861M2892.42 397.814C2915.1 394.529 2886.31 420.943 2904 423.906 2903.63 429.028 2903.15 434.182 2902.3 439.271 2903.59 440.624 2906.22 443.33 2907.52 444.683 2909.7 444.039 2914.1 442.718 2916.28 442.074 2916.36 440.238 2916.47 436.598 2916.54 434.762 2919.47 433.892 2925.24 432.185 2928.16 431.347 2927.9 432.958 2927.42 436.179 2927.2 437.79 2928.79 437.629 2932.01 437.274 2933.64 437.113 2934.93 431.991 2938.78 427.901 2941.78 423.52L2934.05 425.195C2934.45 422.296 2934.86 419.364 2935.3 416.465 2934.68 416.433 2933.38 416.368 2932.75 416.336 2931.83 422.102 2927.27 426.419 2921.13 428.416 2922.28 433.634 2906.78 437.467 2911.81 429.447 2912.62 427.997 2914.25 425.13 2915.06 423.681 2909.85 412.278 2904.74 400.842 2900.04 389.31 2898.97 393.111 2896.08 395.753 2892.42 397.814M2897.52 439.755C2899.34 442.074 2899.34 442.074 2897.52 439.755M2902.67 449.483C2902.41 451.287 2901.93 454.894 2901.67 456.698 2903.78 456.827 2908 457.02 2910.11 457.117L2907.81 453.09C2912.7 451.931 2917.62 450.836 2922.58 449.74 2921.8 448.774 2920.28 446.809 2919.54 445.843 2914.58 449.096 2908.96 450.32 2902.67 449.483M2890.31 461.176C2892.86 463.334 2892.86 463.334 2890.31 461.176Z" fill-rule="evenodd"/><path d="M2108 363C2109.33 364.334 2109.33 364.334 2108 363Z" fill-rule="evenodd"/><path d="M2034 384C2041.79 384.578 2050.58 383.83 2057 388.757 2048.9 389.198 2040.12 389.674 2034 384Z" fill-rule="evenodd"/><path d="M1785.75 398.219C1787.23 394.704 1780.78 386.69 1787.46 386 1788.68 388.496 1791.2 393.555 1792.46 396.051 1792.54 393.916 1792.76 389.613 1792.83 387.445 1798.54 387.577 1804.25 387.675 1810 387.774 1808.52 388.923 1805.59 391.157 1804.1 392.274 1804.33 393.719 1804.81 396.675 1805.03 398.153 1799.32 398.055 1793.65 397.989 1787.97 397.89 1789.16 400.649 1790.31 403.409 1791.35 406.233 1789.72 412.507 1782.38 406.201 1778 405.839 1779.19 403.869 1781.52 399.927 1782.67 397.956Z" fill-rule="evenodd"/><path d="M1669.08 407.838C1661.9 409.314 1662.9 400.26 1668.53 399.243 1675.64 397.275 1675.81 407.903 1669.08 407.838Z" fill-rule="evenodd"/><path d="M2678.9 404.046C2684.5 402.235 2690.1 400.52 2695.84 399 2695.62 407.216 2689.69 412.65 2681.79 416.241 2678.01 422.937 2674.89 431.056 2665.06 432.091 2664.58 455.704 2670.26 479.77 2662.02 502.833 2658.28 488.115 2662.95 473.139 2661.69 458.292 2657.54 458.971 2653.38 459.65 2649.27 460.297 2649.79 464.276 2650.49 468.254 2651.34 472.201 2652.49 473.98 2654.83 477.57 2656.02 479.382L2657.05 481.29C2651.71 481.452 2648.56 483.813 2647.6 488.341L2654.05 487.436C2653.46 491.802 2652.98 496.202 2652.49 500.601 2656.61 501.83 2660.69 503.318 2664.77 504.806 2660.73 511.178 2657.57 517.939 2655.2 524.926L2665.03 522.661 2658.98 517.356C2661.5 517.098 2666.58 516.58 2669.11 516.321L2667.81 521.109 2675.71 521.529C2675.37 515.319 2674.93 509.108 2674.41 502.93 2668.11 502.801 2665.95 499.63 2667.96 493.355 2677.71 491.317 2678.56 481.678 2682.68 475.209 2690.06 470.583 2692.88 462.852 2697.29 456.318 2702.85 460.847 2706.15 466.475 2704.67 473.236 2707.86 466.281 2716.35 469.419 2722.92 469.031 2717.13 466.216 2698.55 466.281 2707.93 457.127 2715.05 457.192 2721.77 459.424 2728.37 461.623 2727.7 463.144 2726.33 466.216 2725.66 467.737 2728.63 467.478 2734.6 466.928 2737.6 466.669 2736.41 468.513 2734.08 472.201 2732.93 474.044 2735.26 473.98 2739.97 473.818 2742.35 473.753 2744.02 478.799 2747.54 482.972 2751.47 486.853 2749.69 486.562 2746.13 485.948 2744.35 485.624L2744.68 489.344C2752.81 491.544 2752.03 500.277 2755.29 505.906 2758.18 510.661 2757.11 515.577 2754.29 520.171 2753.4 514.284 2750.32 509.69 2745.13 506.326 2743.65 508.623 2740.68 513.184 2739.2 515.448L2738.56 520.721C2734.78 518.165 2731.11 515.545 2727.48 512.893 2730.81 508.558 2732.15 503.674 2731.41 498.304 2733.63 501.83 2738.01 508.849 2740.2 512.375 2741.16 509.464 2743.13 503.706 2744.09 500.795 2741.87 500.601 2737.42 500.18 2735.19 499.986 2730.63 492.223 2723.03 486.174 2719.39 477.926 2715.24 472.362 2706.71 476.503 2700.7 476.373 2698.96 482.196 2697.55 488.6 2691.17 492.061 2691.28 493.679 2691.54 496.849 2691.69 498.434 2690.1 500.536 2686.87 504.709 2685.28 506.811 2683.01 504.903 2678.56 501.086 2676.3 499.145 2678.34 498.466 2682.42 497.107 2684.42 496.428 2686.61 488.244 2691.1 480.902 2696.14 473.818 2693.32 475.823 2690.54 477.861 2687.8 479.899 2686.24 484.88 2684.5 489.829 2682.9 494.811 2671.15 493.614 2677.3 502.477 2679.71 507.782 2682.31 507.555 2687.54 507.103 2690.13 506.908 2689.06 512.052 2688.06 517.259 2687.17 522.435 2685.28 522.111 2681.53 521.432 2679.64 521.076L2678.45 527.125C2680.83 526.543 2685.61 525.411 2688.02 524.861 2687.13 529.389 2686.28 533.918 2685.5 538.446 2689.39 541.002 2693.36 543.622 2697.22 546.307 2694.99 546.695 2690.54 547.536 2688.35 547.956 2688.09 549.38 2687.61 552.226 2687.39 553.682 2685.87 553.779 2682.79 554.037 2681.27 554.167 2681.57 554.781 2682.16 556.011 2682.49 556.625 2691.47 556.884 2700.29 555.17 2709.27 555.073L2708.75 548.344C2706.23 548.927 2701.18 550.091 2698.63 550.673 2700.67 547.115 2702.7 543.557 2704.82 540.031 2703.26 538.673 2700.11 536.021 2698.55 534.662 2700.96 535.406 2705.75 536.894 2708.16 537.638 2710.46 537.347 2714.98 536.797 2717.28 536.506 2716.87 533.497 2716.09 527.481 2715.68 524.473 2723.84 529.583 2721.84 542.393 2733.11 543.978L2733.37 549.282C2729.33 550.253 2725.36 551.353 2721.43 552.582 2729.63 551.612 2743.2 558.372 2746.72 548.312 2743.61 549.088 2737.38 550.673 2734.26 551.45L2735.34 542.684C2738.94 542.91 2746.09 543.363 2749.65 543.589 2748.17 547.698 2746.5 551.806 2744.94 555.914 2741.9 556.108 2735.82 556.496 2732.78 556.658 2735.3 560.798 2737.9 564.906 2740.57 568.982L2732.37 573.672C2735.04 573.478 2740.38 573.122 2743.02 572.928 2743.35 575.71 2743.98 581.273 2744.31 584.088 2746.46 584.767 2750.84 586.125 2752.99 586.805 2751.95 589.295 2749.88 594.277 2748.87 596.8 2749.06 595.182 2749.43 592.013 2749.62 590.427L2746.35 590.848C2746.69 596.638 2734.89 599.679 2733.22 593.468 2728.7 587.161 2722.66 581.791 2716.13 577.068 2710.57 578.783 2704.93 580.303 2699.14 581.209 2697.88 581.823 2695.36 583.052 2694.1 583.667 2679.49 580.756 2686.31 565.521 2674.37 559.957 2674.15 556.108 2673.96 552.258 2673.78 548.409 2671.07 548.118 2665.62 547.568 2662.91 547.309 2657.09 550.35 2655.94 557.272 2651.79 561.736L2657.57 562.254C2656.68 563.353 2654.83 565.585 2653.94 566.685 2652.94 570.793 2651.79 574.869 2650.45 578.912 2645.97 581.403 2641.37 584.152 2642.22 589.489 2639.03 591.786 2635.84 594.05 2632.73 596.379 2634.47 603.528 2627.13 605.824 2623.9 611 2621.42 609.577 2616.48 606.73 2614 605.307 2617.34 605.242 2624.01 605.048 2627.35 604.951 2624.27 602.913 2618.12 598.87 2615.04 596.832 2617.19 588.39 2623.72 581.629 2628.43 574.222 2631.28 566.329 2632.58 558.049 2633.36 549.8 2635.43 548.571 2639.59 546.113 2641.66 544.916 2640.22 543.784 2637.36 541.552 2635.92 540.452 2640.96 535.438 2639.66 528.516 2637.77 522.629 2641.55 510.661 2645.08 498.595 2644.67 486.045 2642.78 483.392 2640.89 480.74 2639.07 478.12 2640.55 471.198 2641.37 464.049 2645.34 457.774 2640.22 451.596 2641.07 443.735 2640.44 436.522 2644 436.425 2651.08 436.166 2654.64 436.069 2652.9 437.978 2649.49 441.859 2647.78 443.8L2654.5 442.215C2653.98 444.932 2652.94 450.431 2652.42 453.148 2654.57 453.148 2658.87 453.084 2661.06 453.084 2660.87 444.221 2660.8 435.39 2660.69 426.527 2663.28 427.012 2668.51 427.983 2671.11 428.468L2663.4 424.942C2670.33 423.034 2674.67 418.732 2676.78 412.715 2671.7 414.623 2666.62 416.532 2661.54 418.311 2663.54 412.068 2668.29 408.154 2675.71 406.602L2680.79 409.707 2678.9 404.046M2689.91 403.011C2691.47 405.405 2691.47 405.405 2689.91 403.011M2731.59 475.532C2733 482.066 2734.82 488.568 2736.97 494.973 2737.97 492.611 2739.97 487.856 2740.98 485.495 2737.6 482.325 2734.63 478.864 2731.59 475.532M2649.93 505.097C2649.79 507.329 2649.53 511.793 2649.38 514.025 2654.68 517.906 2659.54 508.72 2655.61 505.388 2654.2 505.323 2651.34 505.162 2649.93 505.097M2663.25 529.778 2665.51 534.338 2660.47 534.047C2661.02 536.991 2662.17 542.845 2662.77 545.789 2670.26 546.21 2677.93 547.924 2685.31 545.627 2680.45 544.172 2675.86 542.845 2671.07 541.422 2672.48 538.673 2675.34 533.174 2676.78 530.425 2673.41 530.263 2666.62 529.939 2663.25 529.778Z" fill-rule="evenodd"/><path d="M1712.21 400C1712.92 401.983 1714.34 405.948 1715.09 407.931 1719.57 407.679 1724.1 407.427 1728.62 407.207 1728.66 412.211 1729.07 417.215 1729.48 422.187L1733 421.904C1729.82 428.356 1733.71 439.276 1721.52 440 1723.95 434.524 1727.43 429.426 1730.31 424.107L1723.2 424.233C1721.41 419.386 1719.39 414.634 1717.52 409.851 1713.67 411.456 1709.81 413.092 1706 414.729 1707.57 411.047 1710.67 403.682 1712.21 400Z" fill-rule="evenodd"/><path d="M1796.75 408.024C1800.36 405.845 1804.2 403.954 1808 402 1808 416.547 1807.93 431.255 1802.04 445.098 1800.14 454.101 1797.64 462.977 1795.37 471.885 1790.22 476.532 1787.69 482.652 1785.42 488.644 1778.22 489.092 1773.08 492.617 1769.8 498 1765.59 496.558 1761.42 495.117 1757.21 493.739 1750.8 488.452 1742.6 485.407 1735.14 481.434 1734.43 476.66 1731.86 472.911 1726.27 471.405 1728.55 467.271 1730.78 463.138 1733.13 459.036 1729.96 459.132 1723.59 459.357 1720.42 459.453 1717.44 453.332 1713.83 447.404 1712 440.932 1718.93 440.996 1725.83 440.547 1732.68 439.586 1741.03 446.059 1736.89 459.837 1749.08 462.593 1750.31 466.342 1751.35 470.123 1752.25 473.968 1758.81 474.096 1765.37 474.289 1771.93 474.545 1770.58 473.103 1767.94 470.219 1766.6 468.777 1768.91 467.56 1771.25 466.342 1773.57 465.124 1776.1 452.98 1776.47 440.259 1781.69 428.692L1776.96 427.474C1778.37 427.346 1781.17 427.025 1782.58 426.865 1782.29 424.238 1781.69 419.015 1781.39 416.419 1782.7 416.451 1785.3 416.579 1786.61 416.611 1786.05 419.047 1784.93 423.853 1784.37 426.288 1787.39 424.878 1793.43 422.123 1796.45 420.713 1796.37 416.483 1796.48 412.253 1796.75 408.024M1724.71 447.629C1725.42 458.652 1735.55 442.822 1724.71 447.629Z" fill-rule="evenodd"/><path d="M1661.19 414.851C1666.76 414.285 1672.36 413.553 1678 414.352 1670.76 416.083 1668.91 422.574 1665.75 427.567 1664.08 427.667 1660.71 427.9 1659 428 1659.74 423.606 1660.48 419.245 1661.19 414.851Z" fill-rule="evenodd"/><path d="M1709 415C1711.98 415.656 1717.98 416.967 1721 417.623 1719.44 421.131 1709.18 425.721 1718.05 428.508 1718.31 431.131 1718.78 436.377 1719 439 1705.25 438.18 1712.38 422.902 1709 415Z" fill-rule="evenodd"/><path d="M2652.84 416.908C2654.88 416.689 2658.96 416.219 2661 416 2658.45 421.666 2654.88 427.426 2657.65 433.624 2653.97 433.718 2646.64 433.906 2643 434 2644.28 431.339 2646.83 426.049 2648.1 423.388L2655.5 423.231C2654.84 421.666 2653.49 418.473 2652.84 416.908Z" fill-rule="evenodd"/><path d="M2514.37 424C2518.53 424.064 2522.77 424.096 2527 424.096 2525.05 433.101 2529.76 443.292 2523.94 451.496 2524.57 453.803 2525.82 458.45 2526.45 460.789 2523.47 464.699 2522.58 469.122 2523.76 473.993L2518.68 472.07C2523.8 480.306 2522.51 491.875 2515.66 499.021 2516.29 499.246 2517.54 499.63 2518.2 499.823 2513.19 505.591 2517.02 512.129 2517.32 518.474 2516.21 530.908 2514.52 543.374 2516.29 555.84 2519.34 556.77 2522.44 557.699 2525.53 558.661 2518.68 557.731 2514 559.75 2511.5 564.749 2514.63 564.878 2520.85 565.166 2523.98 565.294 2522.44 575.293 2528.62 587.695 2520.56 596.059 2518.46 599.04 2516.36 602.02 2514.3 605 2509.95 602.917 2505.5 601.155 2500.86 599.744 2500.82 598.783 2500.79 596.892 2500.75 595.931 2489.78 595.899 2494.16 585.9 2492.61 579.94 2485.58 565.999 2492.69 550.392 2485.77 536.484 2490.99 536.644 2496.26 536.837 2501.52 537.061 2501.49 533.279 2501.49 529.498 2501.52 525.716 2500.53 525.909 2498.54 526.293 2497.55 526.485 2497.66 528.344 2497.88 532.126 2497.99 534.016 2494.6 533.888 2491.25 533.696 2487.9 533.472 2486.58 531.453 2485.25 529.434 2484 527.447 2486.21 518.121 2486.21 508.539 2488.71 499.278 2489.63 494.31 2491.11 489.535 2498.69 491.074 2498.87 490.241 2499.28 488.574 2499.5 487.709L2493.61 489.247C2493.5 487.421 2493.31 483.767 2493.2 481.94L2497.88 482.806C2497.4 477.358 2497.22 471.878 2497 466.398L2501.16 466.366C2502.15 455.886 2501.19 445.407 2501.08 434.928 2506.13 437.812 2509.92 441.722 2512.42 446.689 2512.53 440.184 2512.5 433.71 2512.16 427.236L2518.35 428.871 2514.37 424M2493.2 495.721C2493.61 506.52 2504.25 490.689 2493.2 495.721M2496.89 520.621C2496.92 519.275 2497 516.519 2497.03 515.173 2488.05 509.949 2487.68 526.453 2496.89 520.621M2496.55 558.372 2494.79 560.455C2497.36 568.275 2506.13 556.642 2496.55 558.372Z" fill-rule="evenodd"/><path d="M2632.76 422.065C2634.5 422.065 2637.95 422.032 2639.7 422 2640.51 423.996 2642.18 427.954 2643 429.95 2638.1 430.915 2633.24 432.01 2628.42 433.104 2626.49 435.711 2624.56 438.35 2622.63 440.989 2615.17 441.601 2607.68 442.084 2600.41 443.628 2592.21 448.456 2585.57 454.99 2578.11 460.59 2578.48 464.839 2578.89 469.119 2579.34 473.368 2577.63 473.271 2574.22 473.11 2572.55 473.014 2574.1 480.963 2564.9 484.439 2560.01 489.589L2566.54 491.713C2563.53 496.316 2559.38 499.985 2553.51 501.69 2564.83 500.596 2575.66 504.169 2585.72 508.256 2587.39 503.236 2589.8 498.536 2596.92 500.049 2594.32 501.884 2591.73 503.718 2589.13 505.488 2589.87 508.289 2590.65 511.056 2591.47 513.857 2589.43 514.178 2585.38 514.79 2583.34 515.112 2578.7 518.266 2573.33 520.326 2568.02 522.418L2568.06 514.951C2555.29 518.556 2552.25 531.751 2540.42 536 2538.52 533.232 2536.71 530.464 2535 527.632 2536.34 525.057 2537.67 522.45 2539.04 519.875 2541.72 520.744 2547.06 522.514 2549.73 523.383 2546.91 516.206 2546.09 508.482 2542.38 501.562 2545.46 495.382 2548.84 489.267 2552.14 483.184 2555.29 473.496 2556.07 462.489 2564.16 454.668 2571.14 447.233 2579.41 440.442 2584.2 431.656 2590.17 428.92 2598.03 429.081 2603.67 432.203 2604.12 433.587 2604.97 436.355 2605.38 437.739 2609.76 436.612 2614.17 435.454 2618.63 434.359 2615.99 433.651 2610.72 432.203 2608.09 431.463 2609.13 420.745 2627.68 423.384 2635.62 426.603L2632.76 422.065M2565.87 511.604C2567.65 516.528 2578.93 516.528 2581.01 511.797 2579.37 506.164 2568.02 506.39 2565.87 511.604Z" fill-rule="evenodd"/><path d="M1654 458.28C1655.49 449.093 1652.29 437.771 1659.65 430.137 1667.52 429.263 1674.28 432.66 1679 437.9 1676.1 439.615 1670.31 443.076 1667.41 444.79 1669.71 445.664 1674.32 447.411 1676.59 448.284 1675.06 448.608 1671.98 449.287 1670.46 449.61 1672.09 456.824 1666.15 467.111 1675.58 471.349 1673.99 471.607 1670.83 472.125 1669.23 472.384 1671.46 486.52 1670.46 500.656 1663.55 513.693L1666.7 517.154C1666.52 519.548 1666.37 521.942 1666.22 524.368 1664.96 525.435 1662.43 527.538 1661.17 528.605 1666.48 532.39 1671.01 536.66 1671.57 543 1663.92 540.671 1649.02 534.04 1657.94 525.759 1654.22 503.632 1653.55 481.183 1654.37 458.862 1656.64 459.509 1661.17 460.836 1663.44 461.515 1663.29 454.366 1663.62 447.217 1662.8 440.132 1661.88 445.211 1661.73 450.354 1661.54 455.498 1659.65 456.21 1655.89 457.6 1654 458.28Z" fill-rule="evenodd"/><path d="M2370 449.398C2374.36 446.308 2378.68 443.154 2383 440 2382.89 443.508 2382.78 447.016 2382.74 450.557L2379.61 449.591 2377.23 454C2375.4 452.842 2371.83 450.557 2370 449.398Z" fill-rule="evenodd"/><path d="M1595.94 456.999C1591.72 452.586 1587.92 438.269 1598.98 440.173 1603.2 453.221 1603.05 466.872 1606.18 480.047 1607.46 487.063 1608.25 494.111 1609 501.19L1604.29 501.921C1603.5 496.174 1602.71 490.333 1599.89 484.968 1599.36 491.92 1600.08 499.031 1604.9 505 1600.79 504.27 1596.69 503.54 1592.62 502.778 1591.68 493.349 1588.18 484.238 1587.61 474.777 1586.71 474.714 1584.9 474.618 1584 474.555L1584.53 471.476C1599.1 468.364 1593.15 480.746 1600.91 485.603 1600.53 480.46 1599.66 475.317 1596.76 470.714 1596.5 466.142 1596.24 461.571 1595.94 456.999Z" fill-rule="evenodd"/><path d="M2387.93 445.788C2393.83 440.927 2400.84 439.137 2409 440.384 2408.55 446.62 2411.04 454.487 2400.88 455.862 2397.2 462.449 2395.39 469.805 2397.83 477 2395.91 473.738 2396.31 468.078 2390.12 468.526 2388.82 465.136 2386.3 458.324 2385 454.934L2394.79 456.981C2394.2 455.318 2392.98 451.96 2392.38 450.265 2396.09 449.722 2403.44 448.571 2407.15 447.995 2402.32 447.451 2392.72 446.364 2387.93 445.788Z" fill-rule="evenodd"/><path d="M2875 449C2876.33 451.667 2876.33 451.667 2875 449Z" fill-rule="evenodd"/><path d="M1528 460.477C1539.26 457.739 1552.71 459.454 1561.79 452 1565.07 456.189 1568.5 460.312 1572 464.402 1566.12 467.964 1553.5 465.062 1554.56 473.967 1545.82 473.901 1537.04 473.901 1528.26 474 1528.38 469.514 1528.23 464.996 1528 460.477Z" fill-rule="evenodd"/><path d="M1581 450.036 1590.02 449C1592.66 455.755 1592.47 462.944 1593 470 1590.77 469.766 1586.36 469.331 1584.13 469.097 1583.23 462.71 1582.17 456.39 1581 450.036Z" fill-rule="evenodd"/><path d="M2843.25 452C2846.77 454.025 2850.29 456.115 2853.88 458.173 2855.16 461.766 2856.58 465.358 2858 468.951 2856.35 468.69 2853.13 468.2 2851.52 467.939 2853.4 473.85 2853.92 479.925 2853.1 486 2848.16 485.347 2843.21 484.694 2838.31 484.008 2837.97 481.624 2837.34 476.855 2837 474.471 2839.84 473.295 2845.5 470.944 2848.34 469.8L2842.35 469.408C2843.78 466.175 2845.27 462.942 2846.81 459.741 2845.91 457.814 2844.15 453.927 2843.25 452Z" fill-rule="evenodd"/><path d="M2365.5 457.068C2366.75 456.059 2369.32 454.009 2370.61 453L2373.27 453.694C2375.53 457.982 2372.1 463.437 2369.17 467 2365.42 464.446 2364.21 461.135 2365.5 457.068Z" fill-rule="evenodd"/><path d="M2981.65 458C2989.08 460.707 2997.88 461.609 3003.07 467.636 2989.6 464.703 2988.93 476.466 2991.94 484.169L2987.81 480.398 2981.69 491.646C2988.74 484.459 2999.29 487.553 3008.34 487.037 3001.92 478.174 3010.98 480.753 3016.85 481.72 3022.12 484.008 3023.38 489.712 3027.57 493.128 3026.5 495.449 3025.38 497.801 3024.27 500.122 3022.93 498.188 3020.34 494.353 3019.04 492.419 3016.36 498.317 3021.82 509.468 3011.69 511.402 3011.83 514.044 3012.02 516.655 3012.24 519.297 3013.06 517.17 3014.62 512.916 3015.4 510.789 3020.15 511.24 3025.05 512.014 3029.84 512.626 3025.5 513.69 3021.52 515.301 3017.85 517.46 3018.55 521.779 3019.33 526.13 3020.26 530.448 3022.12 530.448 3025.9 530.448 3027.76 530.448 3033.59 529.481 3039.45 529.127 3045.43 529.32 3043.95 526.323 3042.42 523.358 3041.76 520.135 3048.4 520.78 3054.82 522.101 3061.54 522.617 3061.02 524.035 3059.98 526.903 3059.46 528.321 3065.63 526.871 3072.05 527.193 3078.44 526.935 3079.36 524.067 3080.29 521.199 3081.22 518.33 3079.48 520.039 3075.99 523.487 3074.24 525.195 3070.04 522.907 3067.04 519.652 3065.26 515.462 3069.97 510.757 3093.62 522.037 3080.89 511.434 3081.44 509.532 3082.56 505.729 3083.11 503.796 3088.31 500.605 3092.77 496.641 3097.67 493.064 3097.59 497.93 3097.59 502.829 3098 507.695 3097.44 509.371 3096.29 512.723 3095.74 514.399 3091.58 519.394 3086.64 524.003 3084.12 529.9 3078.32 531.351 3078.14 536.668 3076.62 540.793 3072.16 541.567 3067.74 542.308 3063.36 543.017 3062.47 544.113 3060.69 546.369 3059.8 547.497 3054.9 547.626 3050 547.787 3045.13 547.948 3044.13 549.463 3042.09 552.492 3041.09 554.007 3038.23 554.007 3032.55 554.007 3029.73 554.007 3029.77 552.396 3029.84 549.14 3029.91 547.529 3023.6 547.368 3017.29 547.336 3011.05 547.4 3012.58 545.627 3015.62 542.115 3017.14 540.342 3014.99 540.568 3010.76 541.019 3008.64 541.244 3005.08 548.335 3001.29 555.296 2997.76 562.354L2994.46 561.355C2997.76 573.569 2987.07 584.365 2985.81 596.483 2984.4 591.617 2979.61 589.328 2975.64 586.428 2976.19 592.229 2974.45 600.35 2984.99 598.932 2980.46 603.928 2978.01 610.792 2970.96 613.661 2970.66 615.24 2970.03 618.43 2969.7 620.042 2967.69 619.591 2963.68 618.656 2961.68 618.205 2958.82 622.201 2955.92 626.165 2952.81 630 2952.99 625.714 2954.33 621.718 2956.7 617.979 2951.62 618.237 2946.61 618.688 2941.59 619.204 2941.45 617.818 2941.15 614.982 2941 613.564 2946.79 611.92 2952.58 610.148 2958.41 608.44 2958.52 605.152 2959.15 601.962 2960.38 598.836 2962.68 603.09 2964.43 607.57 2966.21 612.049 2967.84 608.311 2969.59 604.637 2971.59 601.06 2970.59 600.383 2968.58 599.061 2967.54 598.417 2967.77 596.902 2968.18 593.937 2968.36 592.455 2966.99 591.456 2964.24 589.458 2962.87 588.458 2965.06 585.139 2967.25 581.819 2969.62 578.564 2968.06 569.67 2978.98 564.223 2976.6 555.489 2976.34 546.046 2988.74 538.118 2982.69 528.74 2985.81 525.324 2989.11 521.972 2992.46 518.717 2991.71 514.528 2991.12 510.338 2990.64 506.148 2984.14 507.051 2977.2 507.083 2971.81 510.692 2971.11 506.148 2970.37 501.604 2969.62 497.06 2972.41 497.415 2978.01 498.124 2980.83 498.478L2982.62 494.965C2976.12 495.126 2969.62 494.998 2963.46 493.16 2962.9 490.357 2962.38 487.521 2961.94 484.685 2961.79 481.172 2960.71 477.788 2959.75 474.404 2963.87 468.764 2969.14 463.865 2974.71 459.257 2974.75 462.383 2974.82 468.667 2974.86 471.793 2977.23 467.249 2979.35 462.576 2981.65 458M2992.6 487.617C2992.34 493.644 2992.86 499.703 2994.05 505.633 2996.54 504.698 3001.48 502.797 3003.96 501.862 3004.74 504.44 3006.27 509.565 3007.04 512.143 3007.79 509.532 3009.31 504.279 3010.05 501.669 3000.99 500.831 3003.33 493.483 3003.41 487.778 3000.7 487.746 2995.31 487.682 2992.6 487.617M3008.53 489.487C3008.53 490.808 3008.49 493.451 3008.49 494.74L3011.43 494.611C3011.43 493.29 3011.39 490.711 3011.35 489.39L3008.53 489.487M3059.91 534.122C3057.65 538.828 3070.38 539.214 3069.01 534.509 3066.74 534.412 3062.17 534.219 3059.91 534.122M2993.01 548.721C2995.57 552.396 3003.26 546.369 3000.21 543.211 2998.43 544.596 2994.83 547.336 2993.01 548.721Z" fill-rule="evenodd"/><path d="M3006.47 460.72C3010.88 459.573 3015.48 459.966 3020 460.72 3013.91 464.649 3020.88 475.749 3014.64 477.877 3013.11 476.698 3010.12 474.374 3008.62 473.195 3003.45 475.356 3001.11 480.268 2997.65 484 2993.89 473.62 3007.75 470.575 3006.47 460.72Z" fill-rule="evenodd"/><path d="M3022.01 459C3023.67 459.702 3026.98 461.138 3028.6 461.872 3034.52 470.458 3031.66 480.224 3027.93 489L3027.47 481.532 3020.58 484.468C3019.33 475.947 3020.24 467.394 3022.01 459Z" fill-rule="evenodd"/><path d="M2417 463.39C2418.81 462.799 2422.39 461.619 2424.2 461 2428.04 464.88 2416.78 468.703 2417 463.39Z" fill-rule="evenodd"/><path d="M1510.37 478.037C1512.77 477.536 1517.6 476.501 1520 476 1518.53 483.74 1516.17 491.354 1514.16 499L1507 497.966C1507.27 494.707 1507.85 488.221 1508.12 484.962L1512.26 485.62C1511.8 483.709 1510.83 479.917 1510.37 478.037Z" fill-rule="evenodd"/><path d="M1342.14 485C1347.79 485.29 1349.36 487.645 1346.82 492 1341.21 491.581 1339.67 489.258 1342.14 485Z" fill-rule="evenodd"/><path d="M2853.32 522.909C2855.45 508.283 2851.04 492.912 2858.1 479 2858.02 494.695 2863.77 509.256 2869 524.011 2867.51 530.756 2866.69 537.599 2865.86 544.441 2863.25 544.538 2858.02 544.765 2855.37 544.863L2855.86 546.679C2857.99 546.808 2862.24 547.1 2864.37 547.262 2863.85 555.467 2859.07 562.925 2856.05 570.611 2853.58 570.579 2848.69 570.481 2846.26 570.416 2846.45 567.368 2846.67 564.32 2846.94 561.239 2842.53 564.417 2838.2 567.692 2833.98 571 2832.23 568.6 2828.75 563.801 2827 561.401 2835.55 558.937 2843.35 553.748 2852.61 553.683 2853.02 548.462 2853.36 543.273 2853.66 538.085 2845.74 540.874 2842.68 548.041 2838.5 553.813 2832.71 547.684 2837.34 542.106 2842.87 537.469 2839.39 526.573 2840.07 515.709 2843.54 504.878 2841.97 503.451 2838.83 500.597 2837.23 499.17 2839.1 498.944 2842.79 498.522 2844.66 498.327 2841.9 494.404 2839.17 490.48 2836.52 486.556 2840.1 486.296 2847.27 485.777 2850.89 485.551 2850.89 491.355 2849.06 496.576 2843.91 500.5 2845.89 500.63 2849.89 500.857 2851.86 500.987 2849.66 508.64 2846.71 516.098 2843.31 523.427 2845.82 523.297 2850.82 523.038 2853.32 522.909M2855.11 533.026C2855.15 534.777 2855.3 538.247 2855.34 539.966 2863.06 544.344 2863.06 529.232 2855.11 533.026Z" fill-rule="evenodd"/><path d="M1497.33 486C1500.31 489.502 1503.69 493.068 1505.54 497.213 1503.69 504.346 1503.88 511.671 1503.54 518.932 1505.39 516.972 1509.04 513.085 1510.88 511.125 1515.96 522.337 1514.45 534.225 1515.28 545.888 1513.21 552.795 1514.83 559.799 1516.52 566.611 1518.29 566.643 1521.83 566.675 1523.59 566.707 1524.57 564.908 1526.49 561.309 1527.47 559.51 1528.79 562.852 1530.03 566.193 1531.23 569.599 1524.84 569.599 1518.44 569.502 1512.12 569.149L1510.58 575.414 1515.05 575.382C1515.05 577.245 1514.98 580.972 1514.98 582.836L1521.34 579.301C1522.05 577.856 1523.52 574.996 1524.23 573.55 1526.91 578.916 1529.46 584.346 1533 589.39 1531.98 594.884 1532.44 600.924 1528.41 605.647 1521.56 597.55 1503.58 600.892 1505.42 587.687 1504.93 594.241 1502.19 600.474 1498.16 606 1498.73 600.506 1492.78 593.534 1499.22 588.972 1499.07 577.342 1493.69 566.129 1495.3 554.402 1497.71 531.591 1494.1 508.779 1497.33 486M1511.89 590.033C1511.93 591.253 1512.04 593.695 1512.12 594.948 1516.45 598.739 1524.39 593.374 1522.13 588.94 1518.44 587.077 1515.02 587.462 1511.89 590.033Z" fill-rule="evenodd"/><path d="M2779.15 494.791C2780.31 494.335 2782.56 493.456 2783.72 493 2783.79 499.447 2787.49 508.336 2796.45 504.006 2796.27 505.275 2795.97 507.815 2795.83 509.085L2788.87 505.634C2792.46 515.142 2796.37 524.552 2800 534.092 2797.28 533.701 2791.88 532.92 2789.19 532.529L2793.11 528.231C2790.93 526.115 2786.58 521.914 2784.41 519.798 2786.15 528.166 2792.53 537.967 2783.83 545 2782.09 538.911 2782.16 532.106 2777.26 527.157 2771.79 522.012 2775.05 514.197 2777.34 508.466 2779.48 511.885 2781.69 515.304 2784.04 518.691 2786.76 511.95 2782.16 506.545 2774.44 507.457 2774.33 506.513 2774.11 504.592 2774 503.615 2776.25 503.745 2780.78 503.973 2783.03 504.071 2781.72 500.977 2780.42 497.884 2779.15 494.791Z" fill-rule="evenodd"/><path d="M1339.99 497 1349.23 498.679C1353.9 507.752 1357.31 494.417 1364.38 497.743 1363.89 500.165 1362.92 505.04 1362.47 507.494L1366.84 507.655C1366.92 509.948 1367.03 514.598 1367.07 516.923 1362.02 517.245 1357.01 517.536 1351.96 517.794 1351.7 519.474 1351.17 522.864 1350.91 524.543 1352.37 523.994 1355.29 522.928 1356.71 522.412 1360.11 525.447 1363.63 528.547 1364.38 532.938 1365.76 534.746 1368.49 538.33 1369.84 540.138 1377.73 541.914 1385.85 542.302 1394 542.108 1391.49 544.788 1389.03 547.468 1386.59 550.213 1383.98 549.954 1378.66 549.47 1376.05 549.212 1382.82 552.344 1382.85 558.124 1381.69 564 1368.15 563.742 1359.29 554.216 1351.28 546.08 1352.11 544.885 1353.83 542.496 1354.65 541.301L1347.69 541.075C1347.77 537.943 1347.84 534.843 1347.92 531.711 1338.19 525.996 1341.3 516.438 1344.81 508.495 1347.96 508.172 1354.24 507.559 1357.38 507.268 1352 503.684 1334.72 506.009 1339.99 497Z" fill-rule="evenodd"/><path d="M2911.32 502C2915 502.032 2918.65 502.097 2922.33 502.291 2926.42 510.082 2927.39 518.908 2923.71 526.99 2923.86 531.354 2923.71 535.751 2923.78 540.147 2919.88 543.639 2920.62 548.197 2921.14 552.626 2916.31 559.512 2913.81 567.303 2911.29 574.998 2907.19 575.094 2902.1 572.67 2904.55 568.499 2908.09 561.969 2908.01 554.437 2913.07 548.488L2907.12 550.913C2908.79 544.35 2911.21 537.949 2913.33 531.483 2910.02 536.624 2907.64 542.152 2905.15 547.615 2902.88 547.098 2898.27 546.063 2896 545.546 2896.63 543.445 2897.9 539.275 2898.49 537.173 2901.58 533.682 2903.62 529.641 2906.6 526.052 2907.31 526.86 2908.79 528.477 2909.54 529.285 2913.33 524.921 2916.38 519.328 2923.89 519.587 2918.5 511.408 2913.85 520.783 2907.6 522.625 2899.72 520.783 2908.61 517.485 2911.1 515.319 2911.14 510.858 2911.25 506.429 2911.32 502Z" fill-rule="evenodd"/><path d="M3130.6 503.983C3133.33 502.989 3136.1 501.994 3138.91 501 3142.98 502.668 3147.08 504.303 3151.25 505.907L3143.9 508.281C3146.27 508.088 3151.07 507.735 3153.47 507.543 3150.88 513.797 3149.07 520.437 3144.68 525.986 3142.53 533.651 3137.66 541.221 3140.32 549.272L3134.77 544.332C3134.7 552.222 3140.21 566.559 3127.5 569.286 3131.04 571.948 3134.59 574.61 3138.1 577.369 3135.14 578.94 3129.31 582.051 3126.35 583.623 3127.27 586.157 3129.12 591.192 3130.04 593.694 3128.53 594.496 3125.57 596.068 3124.06 596.87 3126.57 600.302 3128.86 603.83 3131.19 607.422 3135.92 604.535 3140.54 601.328 3142.83 596.485 3147.34 596.228 3151.84 596.003 3156.43 595.875 3153.43 602.419 3151.18 609.475 3144.57 614.061 3142.13 619.738 3138.99 625.159 3136.47 630.836 3138.25 634.108 3140.09 637.379 3142.05 640.619 3147.19 643.377 3152.1 646.456 3157.2 649.311 3161.12 654.892 3166.55 659.607 3174.09 661.339 3178.71 657.393 3183.18 653.288 3187.54 649.119 3189.87 651.588 3192.38 653.865 3194.96 656.239 3195.63 667.08 3187.09 679.781 3173.94 681 3166.7 680.102 3159.9 677.889 3152.95 676.125 3142.16 667.818 3130.19 659.607 3122.32 649.151 3117.63 647.739 3114.67 644.949 3113.49 640.715 3109.13 640.523 3104.81 640.491 3100.49 640.587 3093.39 636.642 3087.04 631.831 3080.2 627.597 3082.01 617.942 3072.81 612.875 3063.28 611.207 3062.02 618.937 3060.84 630.612 3048.31 629.746 3049.87 625.287 3050.57 620.669 3051.31 616.05L3047.46 615.569 3045.28 623.106C3043.44 620.252 3041.66 617.397 3040 614.51 3044.03 611.303 3048.09 608.031 3052.16 604.824 3052.49 603.317 3053.15 600.366 3053.52 598.858 3056.96 595.619 3060.17 592.155 3063.46 588.755 3063.72 586.895 3064.2 583.206 3064.42 581.346 3066.68 581.089 3071.15 580.544 3073.37 580.255 3077.47 575.219 3081.72 570.248 3086.04 565.308 3088.55 568.997 3090.69 572.814 3092.95 576.695 3094.54 573.969 3097.75 568.516 3099.34 565.822 3094.94 565.597 3090.55 565.469 3086.22 565.405 3091.32 561.652 3096.31 557.707 3101.3 553.826 3101.89 542.183 3114.67 536.859 3119.85 527.108 3124.21 519.699 3127.02 511.681 3130.6 503.983M3127.27 529.835C3129.45 531.791 3129.45 531.791 3127.27 529.835M3133.44 531.695C3135.7 533.908 3135.7 533.908 3133.44 531.695M3126.24 550.202C3126.09 552.19 3125.72 556.168 3125.57 558.156 3130.9 559.984 3131.67 549.015 3126.24 550.202M3108.84 556.232C3110.5 558.573 3110.5 558.573 3108.84 556.232M3099.82 574.995C3096.64 582.147 3093.95 594.079 3082.2 591.834 3082.31 592.572 3082.53 594.047 3082.64 594.817L3088.55 593.502 3083.86 600.847 3092.43 597.992C3091.91 600.205 3090.88 604.664 3090.4 606.877L3097.86 605.882C3096.02 609.475 3094.09 613.035 3092.14 616.563L3097.83 618.199C3097.49 613.227 3100.19 610.533 3105.88 610.213 3104.73 605.016 3103.85 599.82 3102.92 594.624 3103.26 590.968 3103.52 587.28 3103.74 583.591 3104.37 582.468 3105.55 580.223 3106.18 579.133L3116.78 576.855C3111.13 576.085 3105.47 575.444 3099.82 574.995M3083.05 577.721C3077.84 579.101 3078.94 588.209 3084.97 584.2 3089.25 582.693 3088.77 573.84 3083.05 577.721M3064.94 598.024C3067.31 600.109 3067.31 600.109 3064.94 598.024M3108.43 603.926C3108.61 605.626 3108.91 608.994 3109.06 610.694 3111.13 610.822 3115.23 611.078 3117.3 611.207 3117.19 609.539 3117 606.171 3116.93 604.503 3114.82 604.343 3110.57 604.054 3108.43 603.926M3094.5 624.389C3093.17 627.885 3095.02 634.108 3099.93 634.525 3106.91 632.312 3100.56 620.348 3094.5 624.389M3131.19 635.711C3128.38 637.7 3122.4 639.175 3122.4 642.672 3124.24 642.8 3127.9 643.056 3129.75 643.185 3138.62 650.401 3138.8 635.711 3131.19 635.711M3173.94 669.774C3175.94 672.116 3175.94 672.116 3173.94 669.774Z" fill-rule="evenodd"/><path d="M1510 508C1512.67 509.334 1512.67 509.334 1510 508Z" fill-rule="evenodd"/><path d="M1603 509.164C1604.71 507.357 1608.08 503.807 1609.79 502 1613.83 508.474 1614.66 515.704 1613.55 523 1610.24 518.235 1606.83 513.535 1603 509.164Z" fill-rule="evenodd"/><path d="M1595 509C1596.56 509.032 1599.71 509.065 1601.26 509.097 1600.43 510.524 1598.72 513.443 1597.89 514.902 1599.9 514.772 1603.92 514.545 1605.93 514.415 1608.36 520.058 1611.28 525.505 1614.36 530.888 1614.36 528.748 1614.4 524.435 1614.44 522.263 1616.41 522.717 1620.4 523.56 1622.37 523.981 1622.33 527.872 1622.29 531.796 1622.29 535.688 1623.47 536.433 1625.82 537.957 1627 538.703 1624.99 539.027 1620.96 539.676 1618.95 540 1613.87 535.363 1608.93 530.532 1605.55 524.824 1602.44 523.106 1599.33 521.42 1596.21 519.734 1595.8 516.167 1595.38 512.567 1595 509Z" fill-rule="evenodd"/><path d="M2978.74 513.239C2984.75 511.452 2988.96 520.155 2983.41 523.258 2977.61 527.036 2972.76 515.263 2978.74 513.239Z" fill-rule="evenodd"/><path d="M2536 536.94C2551.61 533.452 2565.2 540.206 2576.81 548.388 2589.95 547.31 2603.72 550.704 2616 545.249 2615.26 549.054 2614.59 552.892 2614 556.729 2606.49 558.124 2599.39 560.63 2591.91 562.12 2589.17 567.289 2582.55 565.926 2577.33 565.577 2563.34 567.163 2557.42 553.589 2544.18 552.257 2541.59 547.088 2538.78 542.014 2536 536.94Z" fill-rule="evenodd"/><path d="M2796.53 543.513C2798.87 541.008 2801.21 538.504 2803.58 536 2801.09 542.935 2803.17 547.687 2809.78 550.191L2809.15 551.796C2816.16 555.552 2811.67 559.983 2809.07 564.414 2810.93 567.303 2813.12 570.064 2815.53 572.665 2816.87 566.918 2817.42 561.075 2817.8 555.231 2822.92 559.758 2827.82 564.478 2832.38 569.454 2830.08 570.193 2825.44 571.702 2823.14 572.44 2832.98 582.425 2837.69 568.363 2844.67 563.836 2844.74 567.111 2844.93 573.596 2845 576.871 2841.73 586.085 2829.56 582.104 2821.51 582.361 2820.84 578.508 2820.28 574.688 2819.8 570.835 2817.8 573.082 2813.79 577.609 2811.82 579.857 2807.89 575.586 2805.99 569.133 2799.94 566.854 2794.93 565.826 2791.96 562.905 2791 558.121 2793.23 559.148 2797.72 561.203 2799.98 562.23L2801.32 563.483C2801.5 560.754 2801.61 558.024 2801.65 555.296 2799.76 551.411 2798.05 547.462 2796.53 543.513Z" fill-rule="evenodd"/><path d="M2785 551.078C2787.2 547.708 2789.44 544.338 2791.71 541 2795.81 546.873 2801.1 552.618 2799.8 560 2794.51 557.432 2789.85 554.159 2785 551.078Z" fill-rule="evenodd"/><path d="M2268 546C2272.12 547.705 2276.24 549.474 2280.33 551.275 2281.5 552.722 2283.82 555.553 2285 557 2279.59 556.872 2274.18 557.065 2268.92 556.099 2268.7 553.559 2268.22 548.541 2268 546Z" fill-rule="evenodd"/><path d="M2897.52 546C2899.9 546.782 2904.62 548.313 2907 549.096 2903.41 553.69 2900.01 558.415 2896.82 563.238 2901.33 570.766 2897.99 579.466 2898.73 587.58 2902.61 596.607 2886.72 589.764 2889.28 585.071 2889.21 571.678 2893.2 558.741 2897.52 546Z" fill-rule="evenodd"/><path d="M2239.03 556.018C2248.68 555.952 2258.32 556.084 2268 556.151 2262.87 563.524 2252.56 558.742 2244.9 559.705 2247.28 568.274 2256.93 563.657 2263.34 564.853 2261.11 575.449 2246.81 568.806 2238.59 570.267 2236.25 565.119 2229.32 558.177 2239.03 556.018Z" fill-rule="evenodd"/><path d="M2901.28 580.933C2903.37 580.684 2907.52 580.218 2909.61 580 2909.05 587.372 2917.95 586.998 2924 588.865 2918.39 589.393 2912.71 589.58 2907.15 589.86 2904.46 593.25 2901.73 596.61 2899 600 2899.93 593.624 2901.09 587.309 2901.28 580.933Z" fill-rule="evenodd"/><path d="M2876.72 605.008C2876.88 597.742 2879.65 589.736 2889.27 588 2889.84 590.797 2891.02 596.456 2891.63 599.253L2886.73 597.999C2886.69 600.121 2886.57 604.397 2886.54 606.551 2886.84 605.04 2887.45 602.018 2887.75 600.539 2890.83 600.603 2896.96 600.796 2900 600.893 2895.82 604.558 2891.78 608.287 2887.91 612.145 2883.87 613.721 2879.92 615.36 2876 617 2877.79 612.724 2892.66 604.461 2876.72 605.008Z" fill-rule="evenodd"/><path d="M2908.33 596.28C2912.17 595.894 2916.12 595.862 2920 596.473 2914.83 599.821 2910.28 603.813 2905 607 2906.11 603.427 2907.22 599.854 2908.33 596.28Z" fill-rule="evenodd"/><path d="M1500 605.4C1502.53 604.6 1505.01 603.832 1507.54 603 1510.67 604.952 1513.87 606.904 1517 608.888 1513.8 610.872 1510.63 612.92 1507.46 615L1506.71 610.232C1505.01 609.016 1501.66 606.584 1500 605.4Z" fill-rule="evenodd"/><path d="M3037.66 620C3039.19 620.711 3042.2 622.099 3043.73 622.809 3043.43 623.875 3042.81 626.038 3042.47 627.136L3048.65 624.94 3044.87 631.689C3046.9 632.076 3050.98 632.851 3053 633.271 3045.87 636.661 3038.62 639.922 3031.22 642.893 3032.48 646.509 3033.85 650.093 3035.3 653.677 3034.69 653.774 3033.47 653.936 3032.9 654 3030.61 650.546 3027.98 647.284 3025 644.281 3027.48 641.537 3036.98 640.407 3034.31 635.951 3029.5 630.462 3036.1 625.328 3037.66 620Z" fill-rule="evenodd"/><path d="M3041.57 641C3046.18 643.144 3046.14 645.488 3041.47 648 3036.79 645.924 3036.86 643.579 3041.57 641Z" fill-rule="evenodd"/><path d="M1337.41 663.057C1344.51 660.536 1348.31 654.557 1353.44 650 1352.17 653.943 1350.61 657.822 1348.83 661.635 1337 660.019 1341.05 671.202 1340.16 677.601 1335.96 681.512 1324.99 683.807 1330.57 691.143 1333.1 691.499 1338.12 692.275 1340.65 692.63 1340.46 690.562 1340.12 686.457 1339.98 684.388 1342.1 684.647 1346.37 685.132 1348.53 685.39L1347.3 680.381C1349.31 680.833 1353.36 681.738 1355.37 682.191 1355.56 679.831 1355.93 675.08 1356.12 672.721 1354.44 671.848 1351.1 670.135 1349.42 669.295 1352.62 669.23 1359.02 669.133 1362.22 669.069 1362.81 663.477 1367.5 659.502 1370.88 655.107 1372.89 655.01 1376.91 654.848 1378.91 654.751 1378.8 656.916 1378.65 661.28 1378.58 663.477L1374.19 661.247C1374.23 664.738 1374.27 668.229 1374.27 671.751 1376.16 672.139 1379.99 672.915 1381.89 673.303 1381.26 669.36 1380.7 665.417 1380.14 661.474 1383.56 661.668 1390.33 662.023 1393.72 662.217 1396.17 673.723 1382.19 678.054 1371.81 679.088 1375.6 680.865 1379.4 682.675 1383.19 684.518 1379.88 685.196 1376.61 685.843 1373.3 686.522 1370.51 690.885 1367.24 694.989 1363.85 699.029L1368.72 700.031C1364.11 704.459 1359.46 708.822 1354.37 712.83 1344.1 723.172 1327.03 729.895 1327.59 745.764 1326.96 744.051 1325.66 740.625 1324.99 738.912 1321.49 739.914 1318.03 740.916 1314.57 741.982 1316.66 742.176 1320.82 742.532 1322.91 742.693 1322.76 749.869 1322.65 757.044 1322.16 764.186 1319.3 766.222 1317.4 768.808 1316.36 771.911 1319 772.169 1324.32 772.686 1326.96 772.977L1324.95 765.221C1330.6 769.584 1335.62 774.529 1340.68 779.441 1340.83 785.032 1339.68 789.945 1332.02 787.23 1332.87 783.061 1333.69 778.859 1334.51 774.658 1331.46 774.916 1325.36 775.434 1322.31 775.66 1324.1 777.341 1327.63 780.702 1329.38 782.382 1324.76 782.318 1320.15 782.285 1315.54 782.285 1313.68 776.597 1311.45 770.844 1306.43 766.643 1306.1 758.692 1309.33 751.323 1312.75 744.115 1309.81 745.699 1303.94 748.834 1301 750.418 1303.08 742.273 1309.18 735.648 1311.79 727.697 1308.77 726.63 1305.76 725.596 1302.75 724.562 1309.22 724.045 1311.93 721.201 1310.82 716.094L1314.5 714.284C1313.57 713.282 1311.64 711.246 1310.67 710.244 1313.16 709.856 1318.18 709.113 1320.71 708.725 1321.98 707.4 1324.54 704.685 1325.81 703.328 1326.18 696.702 1326.36 690.077 1327.07 683.451 1334.92 678.636 1337.26 671.073 1337.41 663.057M1354.52 698.803C1354.96 709.695 1365.79 694.31 1354.52 698.803M1313.12 755.686C1309.18 765.641 1325.99 754.264 1313.12 755.686Z" fill-rule="evenodd"/><path d="M1385 658.095C1389.72 655.316 1398.9 650.467 1404 654.605 1402.02 659.64 1389.15 661.894 1385 658.095Z" fill-rule="evenodd"/><path d="M3066.46 388.161C3069.98 387.394 3073.29 389.507 3076.03 391.496 3084.7 398.178 3093.33 404.911 3101.99 411.613 3104 413.27 3106.12 415.129 3106.88 417.729 3107.28 419.861 3106.75 422.728 3104.45 423.56 3101.31 424.905 3098.19 422.884 3095.58 421.291 3086.45 415.344 3077.36 409.318 3068.25 403.339 3065.61 401.525 3062.83 399.517 3061.4 396.553 3059.86 392.913 3063.07 389.117 3066.46 388.161Z" fill-rule="evenodd"/><path d="M3169.03 443.277C3176.92 437.806 3186.95 436.307 3196.35 437.274 3204.82 438.111 3213.02 441.829 3219.01 447.91 3222.44 451.505 3224.62 456.528 3223.84 461.558 3223.57 464.484 3221.7 467.353 3218.83 468.307 3216.31 469.098 3213.37 469.488 3210.93 468.229 3208.88 467.087 3207.99 464.802 3206.73 462.946 3203.4 457.781 3197.39 454.523 3191.25 454.484 3186.57 454.289 3181.44 455.302 3178.1 458.832 3174.4 462.602 3173.48 468.157 3173.39 473.239 3173.31 477.911 3174.51 482.707 3177.3 486.503 3181.68 492.091 3187.78 495.874 3193.17 500.378 3199.23 505.316 3205.75 510.261 3209.32 517.426 3213.39 525.356 3213.34 534.863 3210.77 543.254 3207.28 554.344 3197.3 562.872 3185.93 565.052 3176.3 566.895 3165.89 566.194 3157.06 561.684 3150.42 558.18 3144.54 552.352 3142.77 544.857 3141.79 540.587 3141.53 535.908 3143.29 531.806 3145.31 527.121 3151.62 525.778 3155.98 527.705 3160.29 530.048 3160.88 535.499 3161.07 539.892 3163.97 543.468 3167.78 546.537 3172.31 547.699 3177.99 549.088 3184.61 547.874 3188.7 543.481 3192.3 539.964 3193.66 534.454 3192.42 529.613 3191.2 525.336 3187.94 522.04 3184.48 519.437 3176.32 512.766 3167.21 506.874 3161.21 498.009 3154.05 487.95 3152.08 474.692 3155.29 462.836 3157.31 454.932 3162.33 447.904 3169.03 443.277Z" fill-rule="evenodd"/></g></svg>